<?xml version="1.0" standalone="no"?>
<!DOCTYPE svg PUBLIC "-//W3C//DTD SVG 1.1//EN" "http://www.w3.org/Graphics/SVG/1.1/DTD/svg11.dtd" >
<svg xmlns="http://www.w3.org/2000/svg" xmlns:xlink="http://www.w3.org/1999/xlink" version="1.1">
<metadata>
Created by FontForge 20170910 at Mon Jan  9 17:43:44 2017
 By jimmywarting
Copyright (c) 2012 Monotype Imaging Inc. All rights reserved. This software is the property of Monotype Imaging Inc., and may not be reproduced, used, displayed, modified, disclosed or transferred without the express written approval of Monotype Imaging Inc. and/or its affiliated companies.
</metadata>
<defs>
<font id="HelveticaNeueW23foSKY-Bd" horiz-adv-x="0" >
  <font-face 
    font-family="HelveticaNeueW23foSKY-Bd"
    font-weight="700"
    font-stretch="normal"
    units-per-em="2048"
    panose-1="2 11 8 4 2 2 2 2 2 4"
    ascent="1638"
    descent="-410"
    x-height="1059"
    cap-height="1462"
    bbox="-361 -752 3067 2845"
    underline-thickness="102"
    underline-position="-307"
    unicode-range="U+000D-FEFC"
  />
<missing-glyph horiz-adv-x="1049" 
d="M455 377h114v-137h-114v137zM525 1247q115 0 187 -74t72 -194q0 -82 -34 -136t-98 -112q-65 -58 -81 -94t-16 -158h-94l-4 40q1 65 9 111t46 96t73 81t65 71t30 102t-47 114t-111 51q-64 0 -109 -47.5t-57 -146.5l-102 16q14 138 85 209t186 71zM946 102v1264h-844v-1264
h844zM1049 1470v-1470h-1049v1470h1049z" />
    <glyph glyph-name="uniFEF5" unicode="&#xfedf;&#xfe82;" horiz-adv-x="1284" arabic-form="isolated" 
d="M193.5 1499q69.5 0 114.5 -16.5t127 -52.5t152 -36t146 35l39 -154q-89 -49 -166.5 -49t-129 16.5t-97 36.5t-86.5 36.5t-97 16.5t-122 -39l-39 152q89 54 158.5 54zM1159 1430v-1430h-1089v242h342l-143 873h276l150 -873h188v1188h276z" />
    <glyph glyph-name="uniFEF6" unicode="&#xfee0;&#xfe82;" horiz-adv-x="1331" arabic-form="final" 
d="M193.5 1499q69.5 0 114.5 -16.5t127 -52.5t152 -36t146 35l39 -154q-89 -49 -166.5 -49t-129 16.5t-97 36.5t-86.5 36.5t-97 16.5t-122 -39l-39 152q89 54 158.5 54zM1331 0q-168 0 -227 109q-63 -95 -218 -106q-44 -3 -87 -3h-729v242h342l-143 873h276l150 -873h58
q74 0 101.5 23t27.5 100v1065h275v-1041q0 -81 37.5 -114t136.5 -33q41 0 61.5 -21.5t20.5 -93.5t-19 -99.5t-63 -27.5z" />
    <glyph glyph-name="uniFEF7" unicode="&#xfedf;&#xfe84;" horiz-adv-x="1284" arabic-form="isolated" 
d="M475 1476q-69 0 -69 -61t78 -61h101v-130h-373v130h77q-18 30 -18 76q0 86 52.5 133t111.5 47t110 -18v-126q-50 10 -70 10zM1159 1430v-1430h-1089v242h342l-143 873h276l150 -873h188v1188h276z" />
    <glyph glyph-name="uniFEF8" unicode="&#xfee0;&#xfe84;" horiz-adv-x="1331" arabic-form="final" 
d="M1331 0q-168 0 -227 109q-63 -95 -218 -106q-44 -3 -87 -3h-729v242h342l-143 873h276l150 -873h58q74 0 101.5 23t27.5 100v1065h275v-1041q0 -81 37.5 -114t136.5 -33q41 0 61.5 -21.5t20.5 -93.5t-19 -99.5t-63 -27.5zM475 1476q-69 0 -69 -61t78 -61h101v-130h-373
v130h77q-18 30 -18 76q0 86 52.5 133t111.5 47t110 -18v-126q-50 10 -70 10z" />
    <glyph glyph-name="uniFEF9" unicode="&#xfedf;&#xfe88;" horiz-adv-x="1284" arabic-form="isolated" 
d="M1159 1430v-1430h-1089v242h342l-156 950h276l163 -950h188v1188h276zM611 -248q-69 0 -69 -61t78 -61h101v-130h-373v130h77q-18 30 -18 76q0 86 52.5 133t111.5 47t110 -18v-126q-50 10 -70 10z" />
    <glyph glyph-name="uniFEFA" unicode="&#xfee0;&#xfe88;" horiz-adv-x="1331" arabic-form="final" 
d="M1331 0q-168 0 -227 109q-63 -95 -218 -106q-44 -3 -87 -3h-729v242h342l-156 950h276l163 -950h58q74 0 101.5 23t27.5 100v1065h275v-1041q0 -81 37.5 -114t136.5 -33q41 0 61.5 -21.5t20.5 -93.5t-19 -99.5t-63 -27.5zM611 -248q-69 0 -69 -61t78 -61h101v-130h-373
v130h77q-18 30 -18 76q0 86 52.5 133t111.5 47t110 -18v-126q-50 10 -70 10z" />
    <glyph glyph-name="uniFEFB" unicode="&#xfedf;&#xfe8e;" horiz-adv-x="1284" arabic-form="isolated" 
d="M1159 1430v-1430h-1089v242h342l-156 950h276l163 -950h188v1188h276z" />
    <glyph glyph-name="uniFEFC" unicode="&#xfee0;&#xfe8e;" horiz-adv-x="1331" arabic-form="final" 
d="M1331 0q-168 0 -227 109q-63 -95 -218 -106q-44 -3 -87 -3h-729v242h342l-156 950h276l163 -950h58q74 0 102 23q27 23 27 100v1065h275v-1041q0 -81 38 -114t136 -33q41 0 62 -21q20 -21 20 -93.5t-19 -100t-63 -27.5z" />
    <glyph glyph-name="uni06440671" unicode="&#xfedf;&#xfb51;" horiz-adv-x="1284" 
d="M1159 1430v-1430h-1089v242h342l-156 950h276l163 -950h188v1188h276zM454.5 1628q68.5 0 105.5 -43t37 -119v-125h-449v103h74v164h100v-31q64 51 132.5 51zM454 1522q-76 0 -132 -57v-21h177v10q-1 68 -45 68z" />
    <glyph glyph-name="uni06440671.fina" unicode="&#xfee0;&#xfb51;" horiz-adv-x="1331" 
d="M1331 0q-168 0 -227 109q-63 -95 -218 -106q-44 -3 -87 -3h-729v242h342l-156 950h276l163 -950h58q74 0 101.5 23t27.5 100v1065h275v-1041q0 -81 37.5 -114t136.5 -33q41 0 61.5 -21.5t20.5 -93.5t-19 -99.5t-63 -27.5zM454.5 1628q68.5 0 105.5 -43t37 -119v-125h-449
v103h74v164h100v-31q64 51 132.5 51zM454 1522q-76 0 -132 -57v-21h177v10q-1 68 -45 68z" />
    <glyph glyph-name="xx.alan" unicode="&#x627;&#xfedf;&#xfe82;&#x646;" horiz-adv-x="3261" 
d="M1613 1499q69 0 114 -16.5t127 -52.5t152 -36t146 35l39 -154q-89 -49 -166 -49q-78 0 -129.5 16.5t-97 36.5t-86.5 36.5t-97 16.5t-122 -39l-39 152q90 54 159 54zM638 1017q40 40 82 40t67 -10.5t43.5 -29.5t29.5 -44t11 -67t-40.5 -82.5t-82.5 -40.5t-66.5 11
t-54 39.5t-29.5 86t40 97.5zM450 250q0 -303 302 -303q160 0 231.5 67t71.5 222v579h276v-540q0 -450 -224.5 -510t-359.5 -60q-573 0 -573 547v289h276v-291zM3067 1430v-1430h-276v1430h276zM2578 1430v-1430h-1089v242h342l-143 873h276l150 -873h188v1188h276z" />
    <glyph glyph-name="uni0621" unicode="&#x621;" horiz-adv-x="825" arabic-form="isolated" 
d="M545 479q-137 0 -137 -123q0 -93 85 -109q27 -5 60 -5h209v-242h-682v242h108q-32 60 -32 137q0 153 98 243.5t235 90.5q86 0 197 -35v-223q-93 24 -141 24z" />
    <glyph glyph-name="uni0622" unicode="&#x622;" horiz-adv-x="524" arabic-form="isolated" 
d="M403 1238v-1238h-276v1238h276zM55.5 1636q69.5 0 114.5 -16.5t127 -52.5t152 -36t146 35l39 -154q-89 -49 -166.5 -49t-129 16.5t-97 36.5t-86.5 36.5t-97 16.5t-122 -39l-39 152q89 54 158.5 54z" />
    <glyph glyph-name="uni0623" unicode="&#x623;" horiz-adv-x="524" arabic-form="isolated" 
d="M403 1238v-1238h-276v1238h276zM343 1581q-69 0 -69 -61t78 -61h101v-130h-373v130h77q-18 31 -18 77q0 86 52.5 132.5t111.5 46.5t110 -18v-126q-50 10 -70 10z" />
    <glyph glyph-name="uni0624" unicode="&#x624;" horiz-adv-x="1064" arabic-form="isolated" 
d="M381 426q-1 -190 161 -190q82 0 136 30v140q0 235 -146 235q-151 0 -151 -215zM954 127q0 -283 -133.5 -426.5t-433.5 -143.5h-174v256h157q226 1 276 131q14 36 21 74q-65 -18 -153 -18q-183 0 -293.5 107t-110.5 306t114 337t324 137t316 -147q90 -126 90 -349v-264z
M538 1303q0 -80 103 -80h131v-172h-482v172h97q-21 32 -21 94q0 114 64.5 173.5t160.5 59.5q55 0 127 -24v-164q-64 16 -102 16t-58 -22.5t-20 -52.5z" />
    <glyph glyph-name="uni0625" unicode="&#x625;" horiz-adv-x="526" arabic-form="isolated" 
d="M401 1430v-1430h-276v1430h276zM336 -248q-69 0 -69 -61t78 -61h101v-130h-373v130h77q-18 30 -18 76q0 86 52.5 133t111.5 47t110 -18v-126q-50 10 -70 10z" />
    <glyph glyph-name="uni0626" unicode="&#x626;" horiz-adv-x="1630" arabic-form="isolated" 
d="M316 155q0 -294 464 -294q270 -1 382 49q84 37 84 111q0 66 -140 125.5t-197.5 126.5t-57.5 159q0 187 124 321t347 134q114 0 227 -45v-246q-119 27 -193 27q-120 0 -175.5 -43t-55.5 -102q0 -68 119 -122.5t155 -76.5q128 -74 128 -204q1 -202 -161 -318
q-192 -138 -579 -138t-567 143.5t-180 378.5v224h276v-210zM355 803q0 -80 103 -80h131v-172h-482v172h97q-21 32 -21 94q0 114 64.5 173.5t160.5 59.5q55 0 127 -24v-164q-64 16 -102 16t-58 -22.5t-20 -52.5z" />
    <glyph glyph-name="uni0627" unicode="&#x627;" horiz-adv-x="526" arabic-form="isolated" 
d="M401 1430v-1430h-276v1430h276z" />
    <glyph glyph-name="uni0628" unicode="&#x628;" horiz-adv-x="1865" arabic-form="isolated" 
d="M1740 0h-1262q-247 0 -342.5 75t-95.5 259v348h276v-309q0 -78 48 -104.5t192 -26.5h908v598h276v-840zM822 -206.5q39 40.5 82 40.5t68 -10.5t43.5 -29.5t29.5 -44t11 -53q0 -56 -40.5 -96.5t-83 -40.5t-66.5 11q-26 11 -44 29q-40 40 -39.5 96.5t39.5 97z" />
    <glyph glyph-name="uni0629" unicode="&#x629;" horiz-adv-x="974" arabic-form="isolated" 
d="M20 386q0 201 119.5 340.5t305.5 139.5t307.5 -127t121.5 -349q0 -170 -102.5 -284t-319.5 -114q-298 0 -398 220q-34 75 -34 174zM296 412q0 -181 156 -181q67 0 107 43.5t40 131t-29 132.5q-53 80 -125.5 80t-110.5 -64t-38 -142zM514 1292.5q39 40.5 82 40.5t68 -10.5
t43.5 -29.5t29.5 -44t11 -53q0 -56 -40.5 -96.5t-83 -40.5t-66.5 11q-26 12 -44 30q-40 40 -39.5 96t39.5 96.5zM175 1293q40 40 82.5 40t67 -10.5t43 -29.5t29.5 -44t11 -53q0 -56 -40.5 -96.5t-82.5 -40.5q-43 0 -67 11q-24 12 -43 30q-40 39 -40 96t40 97z" />
    <glyph glyph-name="uni062A" unicode="&#x62a;" horiz-adv-x="1865" arabic-form="isolated" 
d="M1740 0h-1262q-247 0 -342.5 75t-95.5 259v348h276v-309q0 -78 48 -104.5t192 -26.5h908v598h276v-840zM972 1168.5q39 40.5 82 40.5t68 -10.5t43.5 -29.5t29.5 -44t11 -53q0 -56 -40.5 -96.5t-83 -40.5t-66.5 11q-26 12 -44 30q-40 40 -39.5 96t39.5 96.5zM633 1169
q40 40 82.5 40t67 -10.5t43 -29.5t29.5 -44t11 -53q0 -56 -40.5 -96.5t-82.5 -40.5q-43 0 -67 11q-24 12 -43 30q-40 39 -40 96t40 97z" />
    <glyph glyph-name="uni062B" unicode="&#x62b;" horiz-adv-x="1865" arabic-form="isolated" 
d="M1740 0h-1262q-247 0 -342.5 75t-95.5 259v348h276v-309q0 -78 48 -104.5t192 -26.5h908v598h276v-840zM802 1444q40 40 82.5 40t67 -10.5t43 -29.5t29.5 -44t11 -53q0 -56 -40.5 -96.5t-82.5 -40.5t-66.5 11t-43.5 29q-40 39 -40 96.5t40 97.5zM964 1168.5
q39 40.5 82 40.5t68 -10.5t43.5 -29.5t29.5 -44t11 -53q0 -56 -40.5 -96.5t-83 -40.5t-66.5 11q-26 12 -44 30q-40 40 -39.5 96t39.5 96.5zM625 1169q40 40 82.5 40t67 -10.5t43 -29.5t29.5 -44t11 -53q0 -56 -40.5 -96.5t-82.5 -40.5q-43 0 -67 11q-24 12 -43 30
q-40 39 -40 96t40 97z" />
    <glyph glyph-name="uni062C" unicode="&#x62c;" horiz-adv-x="1272" arabic-form="isolated" 
d="M696 -206.5q39 40.5 82 40.5t68 -10.5t43.5 -29.5t29.5 -44t11 -53q0 -56 -40.5 -96.5t-83 -40.5t-66.5 11q-26 11 -44 29q-40 40 -39.5 96.5t39.5 97zM303 -99q0 -79 256 -190l-123 -230q-414 161 -414 441q0 320 428 320h446v28q0 172 -93 264.5t-284 92.5
q-98 0 -243 -41v245q156 56 310 56t269 -54q318 -149 318 -599v-234h-737q-133 0 -133 -99z" />
    <glyph glyph-name="uni062D" unicode="&#x62d;" horiz-adv-x="1272" arabic-form="isolated" 
d="M303 -99q0 -79 256 -190l-123 -230q-414 161 -414 441q0 320 428 320h446v28q0 172 -93 264.5t-284 92.5q-98 0 -243 -41v245q156 56 310 56t269 -54q318 -149 318 -599v-234h-737q-133 0 -133 -99z" />
    <glyph glyph-name="uni062E" unicode="&#x62e;" horiz-adv-x="1272" arabic-form="isolated" 
d="M303 -99q0 -79 256 -190l-123 -230q-414 161 -414 441q0 320 428 320h446v28q0 172 -93 264.5t-284 92.5q-98 0 -243 -41v245q156 56 310 56t269 -54q318 -149 318 -599v-234h-737q-133 0 -133 -99zM526 1293q40 40 82.5 40t67 -10.5t43 -29.5t29.5 -44t11 -53
q0 -56 -40.5 -96.5t-82.5 -40.5t-66 11q-24 12 -44 30q-40 39 -40 96t40 97z" />
    <glyph glyph-name="uni062F" unicode="&#x62f;" horiz-adv-x="959" arabic-form="isolated" 
d="M462 242q104 0 104 45q0 27 -21 63.5t-100 149.5l-166 250l248 159l184 -297q117 -190 139 -278q9 -36 9 -78q0 -106 -75 -181t-224 -75h-510v242h412z" />
    <glyph glyph-name="uni0630" unicode="&#x630;" horiz-adv-x="959" arabic-form="isolated" 
d="M462 242q104 0 104 45q0 27 -21 63.5t-100 149.5l-166 250l248 159l184 -297q117 -190 139 -278q9 -36 9 -78q0 -106 -75 -181t-224 -75h-510v242h412zM271 1293q40 40 82.5 40t67 -10.5t43 -29.5t29.5 -44t11 -53q0 -56 -40.5 -96.5t-82.5 -40.5q-43 0 -67 11
q-24 12 -43 30q-40 39 -40 96t40 97z" />
    <glyph glyph-name="uni0631" unicode="&#x631;" horiz-adv-x="682" arabic-form="isolated" 
d="M30 -187h58q110 0 151 52q42 52 42 212v763h276v-767q0 -279 -110 -397q-110 -119 -352 -119h-65v256z" />
    <glyph glyph-name="uni0632" unicode="&#x632;" horiz-adv-x="682" arabic-form="isolated" 
d="M30 -187h58q110 0 151.5 51.5t41.5 212.5v763h276v-767q0 -279 -110 -397.5t-352 -118.5h-65v256zM315 1293q40 40 82.5 40t67 -10.5t43 -29.5t29.5 -44t11 -53q0 -56 -40.5 -96.5t-82.5 -40.5q-43 0 -67 11q-24 12 -43 30q-40 39 -40 96t40 97z" />
    <glyph glyph-name="uni0633" unicode="&#x633;" horiz-adv-x="2424" arabic-form="isolated" 
d="M316 115q0 -316 302 -316q157 0 230 72t73 230v647h276v-359q0 -147 152 -147q68 0 91 16q44 29 44 86v404h276v-359q0 -75 25 -111t97 -36h141v598h276v-840h-322q-163 0 -229 66q-20 20 -35 45q-72 -94 -196 -107q-37 -4 -74 -4q-170 0 -250 74q-2 -233 -150 -375
t-430 -142q-416 -1 -533 309q-40 106 -40 251v289h276v-291z" />
    <glyph glyph-name="uni0634" unicode="&#x634;" horiz-adv-x="2424" arabic-form="isolated" 
d="M316 115q0 -316 302 -316q157 0 230 72t73 230v647h276v-359q0 -147 152 -147q68 0 91 16q44 29 44 86v404h276v-359q0 -75 25 -111t97 -36h141v598h276v-840h-322q-163 0 -229 66q-20 20 -35 45q-72 -94 -196 -107q-37 -4 -74 -4q-170 0 -250 74q-2 -233 -150 -375
t-430 -142q-416 -1 -533 309q-40 106 -40 251v289h276v-291zM1527 1568q40 40 82.5 40t67 -10.5t43 -29.5t29.5 -44t11 -53q0 -56 -40.5 -96.5t-82.5 -40.5t-66.5 11t-43.5 29q-40 39 -40 96.5t40 97.5zM1689 1292.5q39 40.5 82 40.5t68 -10.5t43.5 -29.5t29.5 -44t11 -53
q0 -56 -40.5 -96.5t-82.5 -40.5q-44 0 -68 11q-24 12 -42 30q-40 40 -40 96t39 96.5zM1350 1293q40 40 82.5 40t67 -10.5t43 -29.5t29.5 -44t11 -53q0 -56 -40.5 -96.5t-82.5 -40.5t-66 11q-24 12 -44 30q-40 39 -40 96t40 97z" />
    <glyph glyph-name="uni0635" unicode="&#x635;" horiz-adv-x="2753" arabic-form="isolated" 
d="M316 115q0 -316 302 -316q157 0 230 72t73 230v598h276v-310q0 -73 58.5 -110t200.5 -37q102 280 291 462.5t420.5 182.5t353.5 -137.5t122 -372.5v-377h-1110q-203 0 -285 42q-28 14 -55 32q-2 -233 -150 -375t-430 -142q-416 -1 -533 309q-40 106 -40 251v289h276v-291
zM2367 242v100q1 202 -105 272q-40 26 -106 26q-125 0 -235.5 -110.5t-190.5 -287.5h637z" />
    <glyph glyph-name="uni0636" unicode="&#x636;" horiz-adv-x="2753" arabic-form="isolated" 
d="M316 115q0 -316 302 -316q157 0 230 72t73 230v598h276v-310q0 -73 58.5 -110t200.5 -37q102 280 291 462.5t420.5 182.5t353.5 -137.5t122 -372.5v-377h-1110q-203 0 -285 42q-28 14 -55 32q-2 -233 -150 -375t-430 -142q-416 -1 -533 309q-40 106 -40 251v289h276v-291
zM2367 242v100q1 202 -105 272q-40 26 -106 26q-125 0 -235.5 -110.5t-190.5 -287.5h637zM2082 1293q40 40 82.5 40t67 -10.5t43 -29.5t29.5 -44t11 -53q0 -56 -40.5 -96.5t-82.5 -40.5t-66 11q-24 12 -44 30q-40 39 -40 96t40 97z" />
    <glyph glyph-name="uni0637" unicode="&#x637;" horiz-adv-x="1592" arabic-form="isolated" 
d="M1044 887q86 0 172 -36q86 -37 145 -103q121 -136 121 -371v-377h-1462v242h279v1188h276v-803q170 260 469 260zM1205 242v100q1 202 -105 272q-40 26 -106 26q-125 0 -235.5 -110.5t-190.5 -287.5h637z" />
    <glyph glyph-name="uni0638" unicode="&#x638;" horiz-adv-x="1592" arabic-form="isolated" 
d="M1044 887q86 0 172 -36q86 -37 145 -103q121 -136 121 -371v-377h-1462v242h279v1188h276v-803q170 260 469 260zM1205 242v100q1 202 -105 272q-40 26 -106 26q-125 0 -235.5 -110.5t-190.5 -287.5h637zM875 1293q40 40 82.5 40t67 -10.5t43 -29.5t29.5 -44t11 -53
q0 -56 -40.5 -96.5t-82.5 -40.5q-43 0 -67 11q-24 12 -43 30q-40 39 -40 96t40 97z" />
    <glyph glyph-name="uni0639" unicode="&#x639;" horiz-adv-x="1174" arabic-form="isolated" 
d="M303 -99q0 -79 256 -190l-123 -230q-414 161 -414 441q0 255 277 307q-68 110 -68 222q0 210 141.5 323t329.5 113q129 0 240 -43v-249q-158 32 -218 32q-109 0 -162 -51t-53 -131q1 -143 121 -187q44 -16 107 -16h336v-242h-637q-133 0 -133 -99z" />
    <glyph glyph-name="uni063A" unicode="&#x63a;" horiz-adv-x="1174" arabic-form="isolated" 
d="M303 -99q0 -79 256 -190l-123 -230q-414 161 -414 441q0 255 277 307q-68 110 -68 222q0 210 141.5 323t329.5 113q129 0 240 -43v-249q-158 32 -218 32q-109 0 -162 -51t-53 -131q1 -143 121 -187q44 -16 107 -16h336v-242h-637q-133 0 -133 -99zM608 1292
q40 40 82.5 40t67 -10.5t43 -29.5t29.5 -44t11 -53q0 -56 -40.5 -96.5t-82.5 -40.5t-66.5 11t-43.5 29q-40 39 -40 96.5t40 97.5z" />
    <glyph glyph-name="uni0641" unicode="&#x641;" horiz-adv-x="2132" arabic-form="isolated" 
d="M1189 418q0 204 117.5 336.5t310.5 132.5q281 0 371 -248q34 -92 34 -208v-431h-1546q-248 0 -342 74.5t-94 259.5v348h276v-311q0 -78 47.5 -103.5t192.5 -25.5h666q-33 66 -33 176zM1746 424q0 215 -139 215q-150 0 -150 -182q0 -103 47.5 -159t124.5 -56h117v182z
M1507 1293q40 40 82.5 40t67 -10.5t43 -29.5t29.5 -44t11 -53q0 -56 -40.5 -96.5t-82.5 -40.5q-43 0 -67 11q-24 12 -43 30q-40 39 -40 96t40 97z" />
    <glyph glyph-name="uni0642" unicode="&#x642;" horiz-adv-x="1601" arabic-form="isolated" 
d="M917 426q-1 -190 161 -190q82 0 136 30v140q0 235 -146 235q-151 0 -151 -215zM1490 160q0 -277 -198.5 -440t-557.5 -163q-510 0 -648 301q-46 100 -46 233v224h276v-165q0 -262 236 -328q82 -23 201 -23q214 1 336 79q90 58 114 140q-65 -18 -153 -18
q-183 0 -293.5 107t-110.5 306t114 337t324 137t316 -147q90 -126 90 -349v-231zM1119 1292.5q39 40.5 82 40.5t68 -10.5t43.5 -29.5t29.5 -44t11 -53q0 -56 -40.5 -96.5t-82.5 -40.5q-44 0 -68 11q-24 12 -42 30q-40 40 -40 96t39 96.5zM780 1293q40 40 82.5 40t67 -10.5
t43 -29.5t29.5 -44t11 -53q0 -56 -40.5 -96.5t-82.5 -40.5t-66 11q-24 12 -44 30q-40 39 -40 96t40 97z" />
    <glyph glyph-name="uni0643" unicode="&#x643;" horiz-adv-x="1865" arabic-form="isolated" 
d="M929 829q0 -69 86 -69h110v-148h-411v148h86q-19 22 -19 78q0 99 56.5 151.5t125.5 52.5t119 -20v-139q-54 12 -86.5 12t-49.5 -20t-17 -46zM1740 0h-1262q-247 0 -342.5 75t-95.5 259v348h276v-311q0 -78 47.5 -103.5t192.5 -25.5h908v1188h276v-1430z" />
    <glyph glyph-name="uni0644" unicode="&#x644;" horiz-adv-x="1322" arabic-form="isolated" 
d="M613 -443q-287 0 -430 143.5t-143 416.5v289h276v-291q0 -147 75 -231.5t229.5 -84.5t227.5 72t73 230v1329h276l-3 -1290q0 -455 -338 -552q-108 -31 -243 -31z" />
    <glyph glyph-name="uni0645" unicode="&#x645;" horiz-adv-x="1399" arabic-form="isolated" 
d="M316 -254v-189h-276v193q0 254 72 379.5t255 208.5q32 263 179.5 406t330 143t302.5 -130.5t120 -334.5t-117.5 -325.5t-309.5 -121.5t-377 125q-93 -36 -136 -114.5t-43 -239.5zM956 256q67 56 67 180q1 124 -85 183q-30 21 -73 21q-85 0 -151.5 -93t-78.5 -254
q102 -66 194 -66t127 29z" />
    <glyph glyph-name="uni0646" unicode="&#x646;" horiz-adv-x="1322" arabic-form="isolated" 
d="M613 -308q-287 0 -430 143.5t-143 416.5v289h276v-291q0 -147 75 -231.5t229.5 -84.5t227.5 72t73 230v579h276l-4 -540q1 -455 -337 -552q-108 -31 -243 -31zM532 1018q40 40 82.5 40t67 -10.5t43 -29.5t29.5 -44t11 -53q0 -56 -40.5 -96.5t-82.5 -40.5t-66.5 11
t-43.5 29q-40 39 -40 96.5t40 97.5z" />
    <glyph glyph-name="uni0648" unicode="&#x648;" horiz-adv-x="1064" arabic-form="isolated" 
d="M381 426q-1 -190 161 -190q82 0 136 30v140q0 235 -146 235q-151 0 -151 -215zM954 127q0 -283 -133.5 -426.5t-433.5 -143.5h-174v256h157q226 1 276 131q14 36 21 74q-65 -18 -153 -18q-183 0 -293.5 107t-110.5 306t114 337t324 137t316 -147q90 -126 90 -349v-264z
" />
    <glyph glyph-name="uni0649" unicode="&#x649;" horiz-adv-x="1630" arabic-form="isolated" 
d="M316 155q0 -294 464 -294q270 -1 382 49q84 37 84 111q0 66 -140 125.5t-197.5 126.5t-57.5 159q0 187 124 321t347 134q114 0 227 -45v-246q-119 27 -193 27q-120 0 -175.5 -43t-55.5 -102q0 -68 119 -122.5t155 -76.5q128 -74 128 -204q1 -202 -161 -318
q-192 -138 -579 -138t-567 143.5t-180 378.5v224h276v-210z" />
    <glyph glyph-name="uni064A" unicode="&#x64a;" horiz-adv-x="1630" arabic-form="isolated" 
d="M316 313q0 -294 464 -294q270 -1 382 49q84 37 84 111q0 66 -140 125.5t-197.5 126.5t-57.5 159q0 187 124 321t347 134q114 0 227 -45v-246q-119 27 -193 27q-120 0 -175.5 -43t-55.5 -102q0 -68 119 -122.5t155 -76.5q128 -74 128 -204q1 -202 -161 -318
q-192 -138 -579 -138t-567 143.5t-180 378.5v224h276v-210zM906 -385.5q39 40.5 82 40.5t68 -10.5t43.5 -29.5t29.5 -44t11 -53q0 -56 -40.5 -96.5t-83 -40.5t-66.5 11q-26 12 -44 30q-40 40 -39.5 96t39.5 96.5zM567 -385q40 40 82.5 40t67 -10.5t43 -29.5t29.5 -44t11 -53
q0 -56 -40.5 -96.5t-82.5 -40.5q-43 0 -67 11q-24 12 -43 30q-40 39 -40 96t40 97z" />
    <glyph glyph-name="uni0671" unicode="&#x671;" horiz-adv-x="526" arabic-form="isolated" 
d="M403 1238v-1238h-276v1238h276zM347.5 1624q68.5 0 105.5 -43t37 -119v-125h-449v103h74v164h100v-31q64 51 132.5 51zM348 1518q-76 0 -133 -57v-21h177v10q0 68 -44 68z" />
    <glyph glyph-name="uni0679" unicode="&#x679;" horiz-adv-x="1865" arabic-form="isolated" 
d="M1740 0h-1262q-247 0 -342.5 75t-95.5 259v348h276v-309q0 -78 48 -104.5t192 -26.5h908v598h276v-840zM1007.5 1245q91.5 0 139 -53.5t47.5 -147.5v-157h-567v125h96v419h117v-264q76 78 167.5 78zM1077 1028q0 92 -76 92q-48 0 -92 -29.5t-69 -78.5h237v16z" />
    <glyph glyph-name="uni067E" unicode="&#x67e;" horiz-adv-x="1865" arabic-form="isolated" 
d="M1740 0h-1262q-247 0 -342.5 75t-95.5 259v348h276v-309q0 -78 48 -104.5t192 -26.5h908v598h276v-840zM920 -149.5q0 31.5 22 53.5t53 22t54 -22t23 -53.5t-23 -53.5t-54 -22t-53 22t-22 53.5zM746 -149.5q0 31.5 22 53.5t53.5 22t53.5 -22t22 -53.5t-22 -53.5
t-53.5 -22t-53.5 22t-22 53.5zM833 -304q0 32 22 54q21 22 45 22q40 0 63 -23t23 -54t-23.5 -53.5t-54.5 -22.5t-53 23t-22 54z" />
    <glyph glyph-name="uni0686" unicode="&#x686;" horiz-adv-x="1272" arabic-form="isolated" 
d="M303 -99q0 -79 256 -190l-123 -230q-414 161 -414 441q0 320 428 320h446v28q0 172 -93 264.5t-284 92.5q-98 0 -243 -41v245q156 56 310 56t269 -54q318 -149 318 -599v-234h-737q-133 0 -133 -99zM820 -121q40 42 94 18.5t54 -69.5t-26 -71t-61 -25t-60.5 25t-26 60
t25.5 62zM597 -191q0 27 6.5 42.5t18.5 27.5t27.5 19t33.5 7q36 0 60.5 -26t24.5 -61.5t-24.5 -60.5t-60.5 -25t-61 25t-25 52zM722 -296.5q26 24.5 52 24.5q44 0 70 -26t27 -52q0 -44 -26.5 -70.5t-62.5 -26.5t-61 26t-25 63t26 61.5z" />
    <glyph glyph-name="uni0688" unicode="&#x688;" horiz-adv-x="959" arabic-form="isolated" 
d="M462 242q104 0 104 45q0 27 -21 63.5t-100 149.5l-166 250l248 159l184 -297q117 -190 139 -278q9 -36 9 -78q0 -106 -75 -181t-224 -75h-510v242h412zM605.5 1370q91.5 0 139 -53.5t47.5 -147.5v-157h-567v125h96v419h117v-264q76 78 167.5 78zM675 1153q0 92 -76 92
q-48 0 -92 -29.5t-69 -78.5h237v16z" />
    <glyph glyph-name="uni0691" unicode="&#x691;" horiz-adv-x="682" arabic-form="isolated" 
d="M30 -187h58q110 0 151.5 51.5t41.5 212.5v763h276v-767q0 -279 -110 -397.5t-352 -118.5h-65v256zM474.5 1370q91.5 0 139 -53.5t47.5 -147.5v-157h-567v125h96v419h117v-264q76 78 167.5 78zM544 1153q0 92 -76 92q-48 0 -92 -29.5t-69 -78.5h237v16z" />
    <glyph glyph-name="uni0698" unicode="&#x698;" horiz-adv-x="682" arabic-form="isolated" 
d="M30 -187h58q110 0 151.5 51.5t41.5 212.5v763h276v-767q0 -279 -110 -397.5t-352 -118.5h-65v256zM309 1568q40 40 82.5 40t67 -10.5t43 -29.5t29.5 -44t11 -53q0 -56 -40.5 -96.5t-82.5 -40.5t-66.5 11t-43.5 29q-40 39 -40 96.5t40 97.5zM471 1292.5q39 40.5 82 40.5
t68 -10.5t43.5 -29.5t29.5 -44t11 -53q0 -56 -40.5 -96.5t-82.5 -40.5q-44 0 -68 11q-24 12 -42 30q-40 40 -40 96t39 96.5zM132 1293q40 40 82.5 40t67 -10.5t43 -29.5t29.5 -44t11 -53q0 -56 -40.5 -96.5t-82.5 -40.5t-66 11q-24 12 -44 30q-40 39 -40 96t40 97z" />
    <glyph glyph-name="uni06A4" unicode="&#x6a4;" horiz-adv-x="2132" arabic-form="isolated" 
d="M1189 418q0 204 117.5 336.5t310.5 132.5q281 0 371 -248q34 -92 34 -208v-431h-1546q-248 0 -342 74.5t-94 259.5v348h276v-311q0 -78 47.5 -103.5t192.5 -25.5h666q-33 66 -33 176zM1746 424q0 215 -139 215q-150 0 -150 -182q0 -103 47.5 -159t124.5 -56h117v182z
M1511 1568q40 40 82.5 40t67 -10.5t43 -29.5t29.5 -44t11 -53q0 -56 -40.5 -96.5t-82.5 -40.5t-66.5 11t-43.5 29q-40 39 -40 96.5t40 97.5zM1673 1292.5q39 40.5 82 40.5t68 -10.5t43.5 -29.5t29.5 -44t11 -53q0 -56 -40.5 -96.5t-82.5 -40.5q-44 0 -68 11q-24 12 -42 30
q-40 40 -40 96t39 96.5zM1334 1293q40 40 82.5 40t67 -10.5t43 -29.5t29.5 -44t11 -53q0 -56 -40.5 -96.5t-82.5 -40.5t-66 11q-24 12 -44 30q-40 39 -40 96t40 97z" />
    <glyph glyph-name="uni06A9" unicode="&#x6a9;" horiz-adv-x="1844" arabic-form="isolated" 
d="M1340 242q124 0 124 92q0 80 -126 192t-333 207v294l724 384v-315l-411 -199v-7q398 -245 422 -486q4 -40 4 -71t-6 -65t-21 -70q-35 -85 -119 -141.5t-227 -56.5h-895q-248 0 -342 74.5t-94 259.5v348h276v-311q0 -78 47.5 -103.5t192.5 -25.5h784z" />
    <glyph glyph-name="uni06AF" unicode="&#x6af;" horiz-adv-x="1844" arabic-form="isolated" 
d="M1340 242q124 0 124 92q0 80 -126 192t-333 207v294l724 384v-315l-411 -199v-7q398 -245 422 -486q4 -40 4 -71t-6 -65t-21 -70q-35 -85 -119 -141.5t-227 -56.5h-895q-248 0 -342 74.5t-94 259.5v348h276v-311q0 -78 47.5 -103.5t192.5 -25.5h784zM1010 1146v260
l721 384v-257z" />
    <glyph glyph-name="uni06BA" unicode="&#x6ba;" horiz-adv-x="1322" arabic-form="isolated" 
d="M613 -308q-287 0 -430 143.5t-143 416.5v289h276v-291q0 -147 75 -231.5t229.5 -84.5t227.5 72t73 230v579h276l-4 -540q1 -455 -337 -552q-108 -31 -243 -31z" />
    <glyph glyph-name="uni06C0" unicode="&#x6c0;" horiz-adv-x="964" arabic-form="isolated" 
d="M20 386q0 201 119.5 340.5t305.5 139.5t307.5 -127t121.5 -349q0 -170 -102.5 -284t-319.5 -114q-298 0 -398 220q-34 75 -34 174zM296 412q0 -181 156 -181q67 0 107 43.5t40 131t-29 132.5q-53 80 -125.5 80t-110.5 -64t-38 -142zM434 1273q0 -80 103 -80h131v-172
h-482v172h97q-21 32 -21 94q0 114 64.5 173.5t160.5 59.5q55 0 127 -24v-164q-64 16 -102 16t-58 -22.5t-20 -52.5z" />
    <glyph glyph-name="uni06C1" unicode="&#x6c1;" horiz-adv-x="974" arabic-form="isolated" 
d="M20 386q0 201 119.5 340.5t305.5 139.5t307.5 -127t121.5 -349q0 -170 -102.5 -284t-319.5 -114q-298 0 -398 220q-34 75 -34 174zM296 412q0 -181 156 -181q67 0 107 43.5t40 131t-29 132.5q-53 80 -125.5 80t-110.5 -64t-38 -142z" />
    <glyph glyph-name="uni06C2.fina" unicode="&#x6c2;" horiz-adv-x="714" 
d="M40 134q0 172 69.5 290t218 118t252.5 -150q67 -97 99.5 -123.5t68.5 -26.5h6q41 0 61.5 -21.5t20.5 -93.5t-19.5 -99.5t-62.5 -27.5h-37q-113 0 -201 132q-55 83 -85 108t-60 25q-83 0 -83 -144q0 -66 14 -166h-252q-10 105 -10 179zM285 964q0 -80 103 -80h131v-172
h-482v172h97q-21 32 -21 94q0 114 64.5 173.5t160.5 59.5q55 0 127 -24v-164q-64 16 -102 16t-58 -22.5t-20 -52.5z" />
    <glyph glyph-name="uni06C3.fina" unicode="&#x6c3;" horiz-adv-x="1000" 
d="M439 152q-51 0 -95 6q-44 8 -88 24q-103 38 -169.5 124t-66.5 216q0 226 146 340q122 96 298 96h362v-630q0 -50 13.5 -68t57.5 -18h103q41 0 61.5 -21.5t20.5 -93.5t-19.5 -99.5t-62.5 -27.5h-124q-250 0 -303 170q-83 -18 -134 -18zM436 393q72 0 114 15v308h-106
q-75 0 -115.5 -47.5t-40.5 -119.5q0 -156 148 -156zM553 1396.5q39 40.5 82 40.5t68 -10.5t43.5 -29.5t29.5 -44t11 -53q0 -56 -40.5 -96.5t-82.5 -40.5q-44 0 -68 11q-24 12 -42 30q-40 40 -40 96t39 96.5zM214 1397q40 40 82.5 40t67 -10.5t43 -29.5t29.5 -44t11 -53
q0 -56 -40.5 -96.5t-82.5 -40.5t-66 11q-24 12 -44 30q-40 39 -40 96t40 97z" />
    <glyph glyph-name="uni06CC" unicode="&#x6cc;" horiz-adv-x="1630" arabic-form="isolated" 
d="M316 155q0 -294 464 -294q270 -1 382 49q84 37 84 111q0 66 -140 125.5t-197.5 126.5t-57.5 159q0 187 124 321t347 134q114 0 227 -45v-246q-119 27 -193 27q-120 0 -175.5 -43t-55.5 -102q0 -68 119 -122.5t155 -76.5q128 -74 128 -204q1 -202 -161 -318
q-192 -138 -579 -138t-567 143.5t-180 378.5v224h276v-210z" />
    <glyph glyph-name="uni06D2" unicode="&#x6d2;" horiz-adv-x="1658" arabic-form="isolated" 
d="M1595 51q-413 -88 -913 -88q-324 0 -482 62q-180 70 -180 251q0 259 377 351q80 20 107.5 59.5t39.5 134.5h267q5 -288 -211 -379q-64 -27 -126 -42.5t-96 -27.5q-34 -14 -56 -26q-38 -24 -38 -56q0 -77 382 -77q276 0 530 27t399 58v-247z" />
    <glyph glyph-name="uni06D3" unicode="&#x6d3;" horiz-adv-x="1638" arabic-form="isolated" 
d="M1595 51q-413 -88 -913 -88q-324 0 -482 62q-180 70 -180 251q0 259 377 351q80 20 107.5 59.5t39.5 134.5h267q5 -288 -211 -379q-64 -27 -126 -42.5t-96 -27.5q-34 -14 -56 -26q-38 -24 -38 -56q0 -77 382 -77q276 0 530 27t399 58v-247zM331 1135q0 -80 103 -80h131
v-172h-482v172h97q-21 32 -21 94q0 114 64.5 173.5t160.5 59.5q55 0 127 -24v-164q-64 16 -102 16t-58 -22.5t-20 -52.5z" />
    <glyph glyph-name="uni06D5.fina" unicode="&#x6d5;" horiz-adv-x="1000" 
d="M439 152q-51 0 -95 6q-44 8 -88 24q-103 38 -169.5 124t-66.5 216q0 226 146 340q122 96 298 96h362v-630q0 -50 13.5 -68t57.5 -18h103q41 0 61.5 -21.5t20.5 -93.5t-19.5 -99.5t-62.5 -27.5h-124q-250 0 -303 170q-83 -18 -134 -18zM436 393q72 0 114 15v308h-106
q-75 0 -115.5 -47.5t-40.5 -119.5q0 -156 148 -156z" />
    <glyph glyph-name="uniFB51" unicode="&#x671;" horiz-adv-x="539" arabic-form="final" 
d="M625 111q0 -111 -82 -111h-90q-237 0 -302 166q-24 62 -24 153v919h276v-882q0 -70 23 -92t78 -22h39q40 0 54 -14q28 -30 28 -117zM347.5 1624q68.5 0 105.5 -43t37 -119v-125h-449v103h74v164h100v-31q64 51 132.5 51zM348 1518q-76 0 -133 -57v-21h177v10q0 68 -44 68
z" />
    <glyph glyph-name="uniFB57" unicode="&#x67e;" horiz-adv-x="1932" arabic-form="final" 
d="M1932 0q-169 0 -225 109q-68 -95 -219 -106q-43 -3 -86 -3h-926q-248 0 -342 74.5t-94 259.5v348h276v-311q0 -78 47.5 -103.5t192.5 -25.5h797q74 0 101.5 23t27.5 100v475h276v-451q0 -83 36 -115t138 -32q41 0 61.5 -21.5t20.5 -93.5t-20 -99.5t-62 -27.5zM918 -149.5
q0 31.5 22 53.5t53 22t54 -22t23 -53.5t-23 -53.5t-54 -22t-53 22t-22 53.5zM744 -149.5q0 31.5 22 53.5t53.5 22t53.5 -22t22 -53.5t-22 -53.5t-53.5 -22t-53.5 22t-22 53.5zM831 -304q0 32 22 54q21 22 45 22q40 0 63 -23t23 -54t-23.5 -53.5t-54.5 -22.5t-53 23t-22 54z
" />
    <glyph glyph-name="uniFB58" unicode="&#x67e;" horiz-adv-x="733" arabic-form="initial" 
d="M429 -149.5q0 31.5 22 53.5t53 22t54 -22t23 -53.5t-23 -53.5t-54 -22t-53 22t-22 53.5zM255 -149.5q0 31.5 22 53.5t53.5 22t53.5 -22t22 -53.5t-22 -53.5t-53.5 -22t-53.5 22t-22 53.5zM342 -304q0 31 22 53.5t46 22.5q40 0 62.5 -23t22.5 -54t-23.5 -53.5t-54.5 -22.5
t-53 23t-22 54zM0 0q-41 0 -61.5 21.5t-20.5 94.5t19.5 99.5t62.5 26.5h334v598h276v-840h-610z" />
    <glyph glyph-name="uniFB59" unicode="&#x67e;" horiz-adv-x="756" arabic-form="medial" 
d="M439 -149.5q0 31.5 22 53.5t53 22t54 -22t23 -53.5t-23 -53.5t-54 -22t-53 22t-22 53.5zM265 -149.5q0 31.5 22 53.5t53.5 22t53.5 -22t22 -53.5t-22 -53.5t-53.5 -22t-53.5 22t-22 53.5zM352 -304q0 31 22 53.5t46 22.5q40 0 62.5 -23t22.5 -54t-23.5 -53.5t-54.5 -22.5
t-53 23t-22 54zM756 0q-173 0 -238 109q-64 -95 -220 -106q-44 -3 -85 -3h-213q-41 0 -61.5 21.5t-20.5 94.5t19.5 99.5t62.5 26.5h168q74 0 101.5 23t27.5 100v475h274v-451q0 -81 41 -114t144 -33q40 0 61 -22t21 -93.5t-20 -99t-62 -27.5z" />
    <glyph glyph-name="uniFB67" unicode="&#x679;" horiz-adv-x="1932" arabic-form="final" 
d="M1932 0q-169 0 -225 109q-68 -95 -219 -106q-43 -3 -86 -3h-926q-248 0 -342 74.5t-94 259.5v348h276v-311q0 -78 47.5 -103.5t192.5 -25.5h797q74 0 101.5 23t27.5 100v475h276v-451q0 -83 36 -115t138 -32q41 0 61.5 -21.5t20.5 -93.5t-20 -99.5t-62 -27.5z
M1006.5 1248q91.5 0 139 -53.5t47.5 -147.5v-157h-567v125h96v419h117v-264q76 78 167.5 78zM1076 1031q0 92 -76 92q-48 0 -92 -29.5t-69 -78.5h237v16z" />
    <glyph glyph-name="uniFB68" unicode="&#x679;" horiz-adv-x="643" arabic-form="initial" 
d="M242 242v598h276v-840h-518q-41 0 -61.5 21.5t-20.5 94.5t19.5 99.5t62.5 26.5h242zM429.5 1370q91.5 0 139 -53.5t47.5 -147.5v-157h-567v125h96v419h117v-264q76 78 167.5 78zM499 1153q0 92 -76 92q-48 0 -92 -29.5t-69 -78.5h237v16z" />
    <glyph glyph-name="uniFB69" unicode="&#x679;" horiz-adv-x="706" arabic-form="medial" 
d="M706 0q-158 0 -227 109q-69 -95 -221 -106q-44 -3 -86 -3h-172q-41 0 -61.5 21.5t-20.5 94.5t19.5 99.5t62.5 26.5h127q74 0 101.5 23t27.5 100v475h276v-451q0 -82 36.5 -114.5t137.5 -32.5q40 0 61 -22t21 -93.5t-20 -99t-62 -27.5zM449.5 1370q91.5 0 139 -53.5
t47.5 -147.5v-157h-567v125h96v419h117v-264q76 78 167.5 78zM519 1153q0 92 -76 92q-48 0 -92 -29.5t-69 -78.5h237v16z" />
    <glyph glyph-name="uniFB6B" unicode="&#x6a4;" horiz-adv-x="2160" arabic-form="final" 
d="M1459 447q0 -94 48.5 -149.5t121.5 -55.5h121v182q0 98 -20 138q-38 77 -121 77q-150 0 -150 -192zM1193 416q0 206 116.5 338.5t309.5 132.5q283 0 373 -248q34 -95 34 -208v-189h134q40 0 61 -22t21 -93.5t-20 -99t-62 -27.5h-1682q-247 0 -342.5 75t-95.5 259v348h276
v-311q0 -78 47.5 -103.5t192.5 -25.5h668q-31 62 -31 174zM1513 1568q40 40 82.5 40t67 -10.5t43 -29.5t29.5 -44t11 -53q0 -56 -40.5 -96.5t-82.5 -40.5t-66.5 11t-43.5 29q-40 39 -40 96.5t40 97.5zM1675 1292.5q39 40.5 82 40.5t68 -10.5t43.5 -29.5t29.5 -44t11 -53
q0 -56 -40.5 -96.5t-82.5 -40.5q-44 0 -68 11q-24 12 -42 30q-40 40 -40 96t39 96.5zM1336 1293q40 40 82.5 40t67 -10.5t43 -29.5t29.5 -44t11 -53q0 -56 -40.5 -96.5t-82.5 -40.5t-66 11q-24 12 -44 30q-40 39 -40 96t40 97z" />
    <glyph glyph-name="uniFB6C" unicode="&#x6a4;" horiz-adv-x="1121" arabic-form="initial" 
d="M180 417q0 206 115 338t313 132q282 0 370 -248q33 -94 33 -208v-431h-1011q-41 0 -61.5 21.5t-20.5 94.5t19.5 99.5t62.5 26.5h212q-32 64 -32 175zM737 424q0 215 -140 215q-151 0 -151 -182q0 -103 47.5 -159t124.5 -56h119v182zM491 1568q40 40 82.5 40t67 -10.5
t43 -29.5t29.5 -44t11 -53q0 -56 -40.5 -96.5t-82.5 -40.5t-66.5 11t-43.5 29q-40 39 -40 96.5t40 97.5zM653 1292.5q39 40.5 82 40.5t68 -10.5t43.5 -29.5t29.5 -44t11 -53q0 -56 -40.5 -96.5t-82.5 -40.5q-44 0 -68 11q-24 12 -42 30q-40 40 -40 96t39 96.5zM314 1293
q40 40 82.5 40t67 -10.5t43 -29.5t29.5 -44t11 -53q0 -56 -40.5 -96.5t-82.5 -40.5t-66 11q-24 12 -44 30q-40 39 -40 96t40 97z" />
    <glyph glyph-name="uniFB6D" unicode="&#x6a4;" horiz-adv-x="1143" arabic-form="medial" 
d="M486 1568q40 40 82.5 40t67 -10.5t43 -29.5t29.5 -44t11 -53q0 -56 -40.5 -96.5t-82.5 -40.5t-66.5 11t-43.5 29q-40 39 -40 96.5t40 97.5zM648 1292.5q39 40.5 82 40.5t68 -10.5t43.5 -29.5t29.5 -44t11 -53q0 -56 -40.5 -96.5t-83 -40.5t-66.5 11q-26 12 -44 30
q-40 40 -39.5 96t39.5 96.5zM309 1293q40 40 82.5 40t67 -10.5t43 -29.5t29.5 -44t11 -53q0 -56 -40.5 -96.5t-82.5 -40.5q-43 0 -67 11q-24 12 -43 30q-40 39 -40 96t40 97zM418 447q0 -93 47.5 -149t124.5 -56h121v182q-1 99 -21 138q-40 77 -121 77q-151 0 -151 -192z
M154 417q0 205 116.5 337.5t309.5 132.5q282 0 372 -248q34 -95 35 -208v-189h135q41 0 61.5 -21.5t20.5 -93.5t-19.5 -99.5t-62.5 -27.5h-1122q-41 0 -61.5 21.5t-20.5 94.5t19.5 99.5t62.5 26.5h186q-32 64 -32 175z" />
    <glyph glyph-name="uniFB7B" unicode="&#x686;" horiz-adv-x="1284" arabic-form="final" 
d="M820 -121q40 42 94 18.5t54 -69.5t-26 -71t-61 -25t-60.5 25t-26 60t25.5 62zM597 -191q0 27 6.5 42.5t18.5 27.5t27.5 19t33.5 7q36 0 60.5 -26t24.5 -61.5t-24.5 -60.5t-60.5 -25t-61 25t-25 52zM722 -296.5q26 24.5 52 24.5q44 0 70 -26t27 -52q0 -44 -26.5 -70.5
t-62.5 -26.5t-61 26t-25 63t26 61.5zM303 -99q0 -79 256 -190l-123 -230q-414 161 -414 441q0 320 428 320h446q-12 193 -97.5 289t-268.5 96q-123 0 -256 -41v245q156 56 310 56q292 -1 444 -193q132 -167 141 -452h115q40 0 60.5 -21.5t20.5 -93.5t-19 -99.5t-62 -27.5
h-848q-133 0 -133 -99z" />
    <glyph glyph-name="uniFB7C" unicode="&#x686;" horiz-adv-x="1126" arabic-form="initial" 
d="M443 887q299 0 452 -210q131 -180 131 -480v-197h-1026q-41 0 -61.5 21.5t-20.5 94.5t19.5 99.5t62.5 26.5h751q-13 186 -96 285.5t-272 99.5q-114 0 -252 -41v245q156 56 312 56zM475 -149.5q0 31.5 22 53.5t53 22t54 -22t23 -53.5t-23 -53.5t-54 -22t-53 22t-22 53.5z
M301 -149.5q0 31.5 22 53.5t53.5 22t53.5 -22t22 -53.5t-22 -53.5t-53.5 -22t-53.5 22t-22 53.5zM388 -304q0 31 22 53.5t46 22.5q40 0 62.5 -23t22.5 -54t-23.5 -53.5t-54.5 -22.5t-53 23t-22 54z" />
    <glyph glyph-name="uniFB7D" unicode="&#x686;" horiz-adv-x="1137" arabic-form="medial" 
d="M437 887q296 -1 446 -193q128 -164 141 -452h113q41 0 62.5 -21.5t21.5 -93.5t-19.5 -99.5t-64.5 -27.5h-1137q-41 0 -61.5 21.5t-20.5 94.5t19.5 99.5t62.5 26.5h751q-13 186 -95 285.5t-273 99.5q-100 0 -252 -41v245q149 56 306 56zM475 -149.5q0 31.5 22 53.5t53 22
t54 -22t23 -53.5t-23 -53.5t-54 -22t-53 22t-22 53.5zM301 -149.5q0 31.5 22 53.5t53.5 22t53.5 -22t22 -53.5t-22 -53.5t-53.5 -22t-53.5 22t-22 53.5zM388 -304q0 31 22 53.5t46 22.5q40 0 62.5 -23t22.5 -54t-23.5 -53.5t-54.5 -22.5t-53 23t-22 54z" />
    <glyph glyph-name="uniFB89" unicode="&#x688;" horiz-adv-x="996" arabic-form="final" 
d="M468 242q98 0 98 42q0 32 -19 65t-75 116l-193 285l250 159l262 -428q92 -149 129 -194t77 -45t60.5 -21.5t20.5 -93.5t-19.5 -99.5t-62.5 -27.5h-101q-122 0 -182 97q-78 -87 -216 -95q-40 -2 -80 -2h-367v242h418zM598.5 1370q91.5 0 139 -53.5t47.5 -147.5v-157h-567
v125h96v419h117v-264q76 78 167.5 78zM668 1153q0 92 -76 92q-48 0 -92 -29.5t-69 -78.5h237v16z" />
    <glyph glyph-name="uniFB8B" unicode="&#x698;" horiz-adv-x="731" arabic-form="final" 
d="M712 0q-102 0 -155 65q0 -278 -109 -393t-353 -115h-65v256h58q110 0 151.5 51.5t41.5 212.5v763h276v-451q1 -113 99 -139q28 -8 56 -8h19q73 0 73 -121t-73 -121h-19zM324 1568q40 40 82.5 40t67 -10.5t43 -29.5t29.5 -44t11 -53q0 -56 -40.5 -96.5t-82.5 -40.5
t-66.5 11t-43.5 29q-40 39 -40 96.5t40 97.5zM486 1292.5q39 40.5 82 40.5t68 -10.5t43.5 -29.5t29.5 -44t11 -53q0 -56 -40.5 -96.5t-83 -40.5t-66.5 11q-26 12 -44 30q-40 40 -39.5 96t39.5 96.5zM147 1293q40 40 82.5 40t67 -10.5t43 -29.5t29.5 -44t11 -53
q0 -56 -40.5 -96.5t-82.5 -40.5q-43 0 -67 11q-24 12 -43 30q-40 39 -40 96t40 97z" />
    <glyph glyph-name="uniFB8D" unicode="&#x691;" horiz-adv-x="731" arabic-form="final" 
d="M712 0q-102 0 -155 65q0 -278 -109 -393t-353 -115h-65v256h58q110 0 151.5 51.5t41.5 212.5v763h276v-451q1 -113 99 -139q28 -8 56 -8h19q73 0 73 -121t-73 -121h-19zM474.5 1370q91.5 0 139 -53.5t47.5 -147.5v-157h-567v125h96v419h117v-264q76 78 167.5 78z
M544 1153q0 92 -76 92q-48 0 -92 -29.5t-69 -78.5h237v16z" />
    <glyph glyph-name="uniFB8F" unicode="&#x6a9;" horiz-adv-x="1957" arabic-form="final" 
d="M1392 0h-916q-248 0 -342 74.5t-94 259.5v348h274v-311q0 -78 48.5 -103.5t193.5 -25.5h805q124 0 124 92q0 78 -132 194.5t-327 204.5v294l724 384v-315l-411 -199v-7q296 -183 380 -361q24 -51 43 -121.5t64.5 -118t128.5 -47.5q42 0 62 -21t20 -93.5t-19.5 -100
t-57.5 -27.5q-90 0 -153.5 21.5t-119.5 93.5q-101 -115 -295 -115z" />
    <glyph glyph-name="uniFB90" unicode="&#x6a9;" horiz-adv-x="983" arabic-form="initial" 
d="M479 242q124 0 124 92q0 80 -126 192t-333 207v294l724 384v-315l-411 -199v-7q398 -248 422 -486q4 -40 4 -71t-6 -65t-21 -70q-35 -85 -119 -141.5t-227 -56.5h-510q-41 0 -61.5 21.5t-20.5 94.5t19.5 99.5t62.5 26.5h479z" />
    <glyph glyph-name="uniFB91" unicode="&#x6a9;" horiz-adv-x="1073" arabic-form="medial" 
d="M510 0h-510q-41 0 -61.5 21.5t-20.5 94.5t19.5 99.5t62.5 26.5h479q124 0 124 92q0 78 -132 194.5t-327 204.5v294l724 384v-315l-411 -199v-7q296 -183 380 -361q24 -51 43 -121.5t64.5 -118t128.5 -47.5q42 0 62 -21t20 -93.5t-19.5 -100t-57.5 -27.5
q-90 0 -153.5 21.5t-119.5 93.5q-101 -115 -295 -115z" />
    <glyph glyph-name="uniFB93" unicode="&#x6af;" horiz-adv-x="1957" arabic-form="final" 
d="M1392 0h-916q-248 0 -342 74.5t-94 259.5v348h274v-311q0 -78 48.5 -103.5t193.5 -25.5h805q124 0 124 92q0 78 -132 194.5t-327 204.5v294l724 384v-315l-411 -199v-7q296 -183 380 -361q24 -51 43 -121.5t64.5 -118t128.5 -47.5q42 0 62 -21t20 -93.5t-19.5 -100
t-57.5 -27.5q-90 0 -153.5 21.5t-119.5 93.5q-101 -115 -295 -115zM1029 1146v260l721 384v-257z" />
    <glyph glyph-name="uniFB94" unicode="&#x6af;" horiz-adv-x="983" arabic-form="initial" 
d="M479 242q124 0 124 92q0 80 -126 192t-333 207v294l724 384v-315l-411 -199v-7q398 -248 422 -486q4 -40 4 -71t-6 -65t-21 -70q-35 -85 -119 -141.5t-227 -56.5h-510q-41 0 -61.5 21.5t-20.5 94.5t19.5 99.5t62.5 26.5h479zM147 1146v260l721 384v-257z" />
    <glyph glyph-name="uniFB95" unicode="&#x6af;" horiz-adv-x="1073" arabic-form="medial" 
d="M510 0h-510q-41 0 -61.5 21.5t-20.5 94.5t19.5 99.5t62.5 26.5h479q124 0 124 92q0 78 -132 194.5t-327 204.5v294l724 384v-315l-411 -199v-7q296 -183 380 -361q24 -51 43 -121.5t64.5 -118t128.5 -47.5q42 0 62 -21t20 -93.5t-19.5 -100t-57.5 -27.5
q-90 0 -153.5 21.5t-119.5 93.5q-101 -115 -295 -115zM147 1146v260l721 384v-257z" />
    <glyph glyph-name="uniFB9F" unicode="&#x6ba;" horiz-adv-x="1371" arabic-form="final" 
d="M1384 0q-144 0 -192 74q-2 -233 -150 -375t-430 -142q-416 -1 -533 309q-40 106 -40 251v289h276v-291q0 -316 302 -316q227 1 285 207q18 64 18 144v489h276v-248q0 -77 52.5 -113t107.5 -36t69 -14q28 -29 28 -101q-1 -127 -69 -127z" />
    <glyph glyph-name="uniFBA7" unicode="&#x6c1;" horiz-adv-x="754" arabic-form="final" 
d="M40 134q0 172 69.5 290t218 118t252.5 -150q67 -97 99.5 -123.5t68.5 -26.5h6q41 0 61.5 -21.5t20.5 -93.5t-19.5 -99.5t-62.5 -27.5h-37q-113 0 -201 132q-55 83 -85 108t-60 25q-83 0 -83 -144q0 -66 14 -166h-252q-10 105 -10 179z" />
    <glyph glyph-name="uniFBA8" unicode="&#x6c1;" horiz-adv-x="643" arabic-form="initial" 
d="M129 -190q0 86 53 190h-182q-41 0 -61.5 21.5t-20.5 94.5t19.5 99.5t62.5 26.5h242v598h276v-840h-143q-39 -69 -39 -127q0 -64 80 -64q17 0 76 19q-24 -160 -127 -198q-28 -10 -53 -11q-92 0 -137.5 52.5t-45.5 138.5z" />
    <glyph glyph-name="uniFBA9" unicode="&#x6c1;" horiz-adv-x="928" arabic-form="medial" 
d="M369.5 -35.5q33.5 -69.5 79.5 -95.5q47 181 123 265q98 108 280 108h76q41 0 61.5 -21.5t20.5 -93.5t-19.5 -99.5t-62.5 -27.5h-19q-114 0 -173 -91t-124 -339q-296 49 -422 175q-98 98 -98 255h-92q-41 0 -61.5 21.5t-20.5 94.5t19.5 99.5t62.5 26.5h357
q-21 -82 -21 -145t33.5 -132.5z" />
    <glyph glyph-name="uniFBAB" unicode="&#x6be;" horiz-adv-x="1289" arabic-form="final" 
d="M614 0v-22q0 -124 90 -164q32 -14 81.5 -14.5t77.5 27t28 80.5t-76 81q-31 12 -80 12h-121zM614 242h66q102 0 155.5 74.5t53.5 157.5t-34.5 123t-83.5 40q-84 0 -120.5 -59.5t-36.5 -165.5v-170zM1151 -122q0 -143 -92 -233t-264 -90q-217 0 -332 116.5t-115 297.5v31
h-93q-48 0 -55 -69q-2 -21 -3 -46h-133q-47 110 -47 180t17 101.5t52.5 53.5t129.5 22h132v107q0 259 111 398.5t304 139.5t292.5 -106t99.5 -268.5t-75 -260.5v-10h209q41 0 62.5 -21.5t21.5 -93.5t-20.5 -99.5t-63.5 -27.5h-170q32 -53 32 -122z" />
    <glyph glyph-name="uniFBAC" unicode="&#x6be;" horiz-adv-x="1421" arabic-form="initial" 
d="M881 450.5q0 -107.5 -38 -208.5h200v62q0 278 -212 340q50 -86 50 -193.5zM444 435.5q0 -46.5 8.5 -83t22.5 -61.5t32.5 -38.5t39.5 -13.5q43 0 73 53.5t30 121.5t-8.5 104.5t-22.5 62t-32.5 38.5t-39.5 13t-39.5 -13t-32.5 -38.5t-22.5 -62t-8.5 -83zM217 459
q0 116 72 244l-100 -4v211q125 16 305 16q408 0 604 -143q224 -163 223 -551v-232h-1321q-41 0 -61.5 21.5t-20.5 94.5t19.5 99.5t62.5 26.5h255q-38 101 -38 217z" />
    <glyph glyph-name="uniFBAD" unicode="&#x6be;" horiz-adv-x="1128" arabic-form="medial" 
d="M467 0v-22q-1 -124 89 -164q32 -14 82 -14.5t78 27t28 80.5t-76 81q-31 12 -80 12h-121zM1004 -122q0 -143 -92 -233t-264 -90q-217 0 -332 116.5t-115 297.5v31h-201q-41 0 -61.5 21.5t-20.5 94.5t19.5 99.5t62.5 26.5h201v107q0 259 111 398.5t304 139.5t292.5 -106
t99.5 -268.5t-75 -260.5v-10h209q41 0 62.5 -21.5t21.5 -93.5t-20.5 -99.5t-63.5 -27.5h-170q32 -53 32 -122zM467 242h66q102 0 155.5 74.5t53.5 157.5t-34.5 123t-83.5 40q-84 0 -120.5 -59.5t-36.5 -165.5v-170z" />
    <glyph glyph-name="uniFBAF" unicode="&#x6d2;" horiz-adv-x="927" arabic-form="final" 
d="M146 -338q-126 85 -126 243.5t125.5 247.5t344.5 89h437q41 0 61.5 -21.5t20.5 -93.5t-20 -99.5t-62 -27.5h-401q-246 0 -246 -92q0 -111 428 -111q220 0 602 54v-232q-362 -62 -599 -62q-409 1 -565 105z" />
    <glyph glyph-name="uniFBB1" unicode="&#x6d3;" horiz-adv-x="907" arabic-form="final" 
d="M146 -338q-126 85 -126 243.5t125.5 247.5t344.5 89h437q41 0 61.5 -21.5t20.5 -93.5t-20 -99.5t-62 -27.5h-401q-246 0 -246 -92q0 -111 428 -111q220 0 602 54v-232q-362 -62 -599 -62q-409 1 -565 105zM331 653q0 -80 103 -80h131v-172h-482v172h97q-21 32 -21 94
q0 114 64.5 173.5t160.5 59.5q55 0 127 -24v-164q-64 16 -102 16t-58 -22.5t-20 -52.5z" />
    <glyph glyph-name="uniFBE8" unicode="&#x649;" horiz-adv-x="643" arabic-form="initial" 
d="M242 242v598h276v-840h-518q-41 0 -62 21q-20 21 -20 94.5t19.5 100t62.5 26.5h242z" />
    <glyph glyph-name="uniFBE9" unicode="&#x649;" horiz-adv-x="706" arabic-form="medial" 
d="M706 0q-158 0 -227 109q-69 -95 -221 -106q-44 -3 -86 -3h-172q-41 0 -62 21q-20 21 -20 94.5t19.5 100t62.5 26.5h127q74 0 102 23q27 23 27 100v475h276v-451q0 -82 36 -114q36 -33 138 -33q40 0 61 -22t21 -93.5t-20 -99t-62 -27.5z" />
    <glyph glyph-name="uniFBFD" unicode="&#x6cc;" horiz-adv-x="1540" arabic-form="final" 
d="M1522 -43q0 -257 -388 -339q-142 -30 -352 -30q-398 0 -580 142q-160 125 -161 368v287h276v-278q0 -209 258 -259q89 -18 223 -18q244 0 370 62q94 46 94 103q0 44 -231 122q-74 25 -168 54v252q97 -31 187 -63q343 -118 431 -118h59q39 0 60 -21t21 -93.5t-19.5 -100
t-61.5 -27.5h-25q7 -19 7 -43z" />
    <glyph glyph-name="uniFBFE" unicode="&#x6cc;" horiz-adv-x="733" arabic-form="initial" 
d="M419 -206.5q39 40.5 82 40.5t68 -10.5t43.5 -29.5t29.5 -44t11 -53q0 -56 -40.5 -96.5t-83 -40.5t-67 11t-42.5 29q-40 40 -40 96.5t39 97zM80 -206q40 40 82.5 40t67 -10.5t43 -29.5t29.5 -44t11 -53q0 -56 -40.5 -96.5t-82.5 -40.5t-66.5 11t-43.5 29q-40 39 -40 96.5
t40 97.5zM0 0q-41 0 -61.5 22.5t-20.5 95.5t19.5 98.5t62.5 25.5h334v598h276v-840h-610z" />
    <glyph glyph-name="uniFBFF" unicode="&#x6cc;" horiz-adv-x="756" arabic-form="medial" 
d="M497 -206.5q39 40.5 82 40.5t68 -10.5t43.5 -29.5t29.5 -44t11 -53q0 -56 -40.5 -96.5t-83 -40.5t-67 11t-42.5 29q-40 40 -40 96.5t39 97zM158 -206q40 40 82.5 40t67 -10.5t43 -29.5t29.5 -44t11 -53q0 -56 -40.5 -96.5t-82.5 -40.5t-66.5 11t-43.5 29q-40 39 -40 96.5
t40 97.5zM756 0q-173 0 -238 109q-64 -95 -220 -106q-44 -3 -85 -3h-213q-41 0 -61.5 21.5t-20.5 94.5t19.5 99.5t62.5 26.5h168q74 0 101.5 23t27.5 100v475h274v-451q0 -81 41 -114t144 -33q40 0 61 -22t21 -93.5t-20 -99t-62 -27.5z" />
    <glyph glyph-name="uniFDF2" unicode="&#xfdf2;" horiz-adv-x="2941" arabic-form="isolated" 
d="M2802 1430v-1430h-276v1430h276zM420 414q76 0 115 14v270h-107q-81 0 -119.5 -40t-38.5 -109q0 -135 150 -135zM423.5 152q-50.5 0 -94.5 6q-44 8 -89 24q-104 38 -171 123.5t-67 216.5q0 226 146 340q122 96 301 96h358v-630q0 -50 13.5 -68t58.5 -18h254
q73 0 100 23.5t27 99.5v1065h273v-1041q-1 -84 21 -107q38 -40 135 -40h304v1188h278v-1430h-581q-142 0 -209 109q-65 -96 -217 -106q-44 -3 -88 -3h-318q-248 0 -301 170q-83 -18 -133.5 -18z" />
    <glyph glyph-name="uniFDFA" unicode="&#xfdfa;" horiz-adv-x="2165" arabic-form="isolated" 
d="M1952 86q-32 0 -41 -51q9 -37 63 -37q28 0 31 22q-12 66 -53 66zM322 20q-30 0 -31 -26q0 -26 53 -53q49 -31 73 -31t21 12q-10 42 -48 70t-68 28zM287 891q57 0 102 27l-2 79q-40 -18 -84 -34q-66 -31 -70 -50q-3 -22 54 -22zM664 1362q0 -66 -43 -66q-26 0 -43 17
q-37 -31 -62 -31q-43 0 -43 47t6 64l13 12q-4 -76 34 -76q25 0 39 33l-4 47l19 29l8 -62q4 -33 30 -33t23 31l-6 45l14 21q15 -38 15 -78zM166 432q0 -20 66 -20t118 49l-4 78q-180 -71 -180 -107zM1669 1444l-12 -45l-400 -197l9 51zM1294 -248q0 -46 -8 -67t-36 -21
q-30 0 -40 8q-30 -32 -50 -32t-28.5 5.5t-16.5 11.5t-14.5 11.5t-16.5 5.5t-70 -36q-58 -36 -146 -35q-88 0 -88 15t68 15t96 6q29 6 79 38t64 32q21 0 45.5 -16.5t26.5 -16.5q31 0 37 35q3 27 23 27q8 0 8 -8v-9q0 -9 -2 -14q3 -9 22 -12q25 1 25 29t22 28zM2025 860
q1 15 -35 33t-68 18t-101 -43q-70 -43 -105 -75q6 -2 8 -2h33q84 1 176 19t92 50zM1233 76l-53 -64l-99 72l-57 -74l-102 74l59 72l96 -72l56 68zM975 915q-6 -136 -27 -149l-51 496l45 116zM1552 1079q0 -23 54 -51l-19 -49q-67 21 -67 83t53 89q279 159 432 209l-18 -51
q-67 -25 -251 -113t-184 -117zM1955 176q25 0 67 -52t42 -137q0 -87 -82 -211t-180 -124q-45 0 -121 32q-75 32 -75 48q0 8 12 8t57 -16t68 -15q139 -3 287 217l-15 45q-38 -53 -78 -53t-63 53.5t16 128.5q40 76 65 76zM1945 991q38 -1 88 -31t50 -62t-31 -81t-65 -65
q-93 -43 -238 -43q-46 0 -98 4q-49 -97 -78 -97q-8 0 -8 23t45 86q-86 32 -99 53q-80 -53 -102 -53q15 -287 51 -360t172 -82l4 4q-43 34 -43 95q1 62 59 138t124 76t116 -34t50 -64q-53 18 -116 18t-120 -28t-57 -56t50 -79q50 -50 91 -60q58 6 158.5 42.5t117.5 45.5
l-34 -76q-206 -108 -398 -108t-237 149q-61 -133 -115 -133t-139 90q-133 -115 -404 -115q-75 0 -143 11q24 -172 66 -209q88 -90 340 -90t358 65q30 76 57 76q8 0 8 -23t-24 -84q12 -26 61 -26t94 24q43 136 68 136q8 0 8 -30t-20 -81q64 -27 84 -27t22 6t-16 80l35 74
q24 -74 24 -106q0 -138 -90 -138q-46 0 -98 39q-31 -53 -125 -53t-94 53q-101 -71 -340 -71q-238 0 -332 57q-120 70 -123 258l-45 -66q-32 -48 -53 -53q24 -42 24 -89t-32 -81q-17 -16 -51 -16t-117 47q-29 -64 -86 -96q-13 -6 -49.5 -9t-43.5 -6l-22 -8q-12 0 -12 10
t58 34t71 36l69 53q-20 37 -20 83t37 83q36 43 69 43q6 0 26 -12t51 -12t69 47l47 86q-80 24 -113 55q-60 54 -80 174h-4q-59 -102 -162 -102q-40 0 -76 14t-36 27q0 52 85 116t177 93l-4 34l41 68q15 -224 43 -289t115 -92l-27 270l39 88l35 -368q106 -12 204 -12
q206 0 353 81q27 78 37 78t10 -21t-8 -48q75 -72 120 -72q53 0 86 88l-26 330q-153 -6 -180 151h-4q-34 -133 -84 -147l4 -4q143 9 143 -80q0 -60 -51 -94q-177 -121 -326 -121t-180 69t-31 124t33 126q-57 17 -78 88h-4q-30 -104 -113 -104q-99 0 -96 158l-55 -50
q-14 -14 -97 -14t-83 37q0 20 27 64t50 55l156 76v20l35 74l8 -246q3 -86 66 -86q49 0 70.5 28t23.5 40l-33 233l37 80l57 -330q19 -43 67 -43t48 27q0 55 -74 284l27 68q82 -255 82 -310t-21 -107t-51 -52q-9 0 -18 6q-15 -39 -15 -80q0 -153 187 -153q145 0 291 98
q4 4 4 6q0 14 -69 24t-99 14.5t-35 6.5q-24 19 27 82q121 52 131 109q2 5 2 6v22q0 190 -41 473l34 115q50 -433 78 -524q37 -117 148 -135l-10 196l43 92l16 -286q62 24 123 73l61 -43q40 -24 80 -30q52 54 145 122t131 68z" />
    <glyph glyph-name="uniFE82" unicode="&#x622;" horiz-adv-x="541" arabic-form="final" 
d="M625 111q0 -111 -82 -111h-90q-237 0 -302 166q-24 62 -24 153v919h276v-882q0 -70 23 -92t78 -22h39q40 0 54 -14q28 -30 28 -117zM55.5 1636q69.5 0 114.5 -16.5t127 -52.5t152 -36t146 35l39 -154q-89 -49 -166.5 -49t-129 16.5t-97 36.5t-86.5 36.5t-97 16.5
t-122 -39l-39 152q89 54 158.5 54z" />
    <glyph glyph-name="uniFE84" unicode="&#x623;" horiz-adv-x="541" arabic-form="final" 
d="M625 111q0 -111 -82 -111h-90q-237 0 -302 166q-24 62 -24 153v919h276v-882q0 -70 23 -92t78 -22h39q40 0 54 -14q28 -30 28 -117zM336 1581q-69 0 -69 -61t78 -61h101v-130h-373v130h77q-18 31 -18 77q0 86 52.5 132.5t111.5 46.5t110 -18v-126q-50 10 -70 10z" />
    <glyph glyph-name="uniFE86" unicode="&#x624;" horiz-adv-x="1090" arabic-form="final" 
d="M676 406q0 235 -148.5 235t-148.5 -215q0 -96 42.5 -140t114.5 -44h140v164zM538 887q416 0 416 -547v-98h136q41 0 61.5 -21.5t20.5 -93.5t-19.5 -99.5t-62.5 -27.5h-149q-31 -218 -150 -320q-142 -123 -451 -123h-129v256h157q216 0 274 125q16 33 23 62h-131
q-306 0 -394 230q-32 82 -32 184q0 200 116 336.5t314 136.5zM535 1303q0 -80 103 -80h131v-172h-482v172h97q-21 32 -21 94q0 114 64.5 173.5t160.5 59.5q55 0 127 -24v-164q-64 16 -102 16t-58 -22.5t-20 -52.5z" />
    <glyph glyph-name="uniFE88" unicode="&#x625;" horiz-adv-x="539" arabic-form="final" 
d="M623 111q0 -111 -82 -111h-90q-237 0 -302 166q-24 62 -24 153v1111h276v-1074q0 -70 23 -92t78 -22h39q40 0 54 -14q28 -30 28 -117zM352 -248q-69 0 -69 -61t78 -61h101v-130h-373v130h77q-18 30 -18 76q0 86 54 135q83 75 220 27v-126q-50 10 -70 10z" />
    <glyph glyph-name="uniFE8A" unicode="&#x626;" horiz-adv-x="1540" arabic-form="final" 
d="M1522 -43q0 -257 -388 -339q-142 -30 -352 -30q-398 0 -580 142q-160 125 -161 368v287h276v-278q0 -209 258 -259q89 -18 223 -18q244 0 370 62q94 46 94 103q0 44 -231 122q-74 25 -168 54v252q97 -31 187 -63q343 -118 431 -118h59q39 0 60 -21t21 -93.5t-19.5 -100
t-61.5 -27.5h-25q7 -19 7 -43zM326 930q0 -80 103 -80h131v-172h-482v172h97q-21 32 -21 94q0 114 64.5 173.5t160.5 59.5q55 0 127 -24v-164q-64 16 -102 16t-58 -22.5t-20 -52.5z" />
    <glyph glyph-name="uniFE8B" unicode="&#x626;" horiz-adv-x="643" arabic-form="initial" 
d="M242 242v598h276v-840h-518q-41 0 -61.5 21.5t-20.5 94.5t19.5 99.5t62.5 26.5h242zM376 1303q0 -80 103 -80h131v-172h-482v172h97q-21 32 -21 94q0 114 64.5 173.5t160.5 59.5q55 0 127 -24v-164q-64 16 -102 16t-58 -22.5t-20 -52.5z" />
    <glyph glyph-name="uniFE8C" unicode="&#x626;" horiz-adv-x="706" arabic-form="medial" 
d="M706 0q-158 0 -227 109q-69 -95 -221 -106q-44 -3 -86 -3h-172q-41 0 -61.5 21.5t-20.5 94.5t19.5 99.5t62.5 26.5h127q74 0 101.5 23t27.5 100v475h276v-451q0 -82 36.5 -114.5t137.5 -32.5q40 0 61 -22t21 -93.5t-20 -99t-62 -27.5zM410 1303q0 -80 103 -80h131v-172
h-482v172h97q-21 32 -21 94q0 114 64.5 173.5t160.5 59.5q55 0 127 -24v-164q-64 16 -102 16t-58 -22.5t-20 -52.5z" />
    <glyph glyph-name="uniFE8E" unicode="&#x627;" horiz-adv-x="539" arabic-form="final" 
d="M623 111q0 -111 -82 -111h-90q-237 0 -302 166q-24 62 -24 153v1111h276v-1074q0 -70 23 -92t78 -22h39q40 0 54 -14q28 -30 28 -117z" />
    <glyph glyph-name="uniFE90" unicode="&#x628;" horiz-adv-x="1932" arabic-form="final" 
d="M1932 0q-169 0 -225 109q-68 -95 -219 -106q-43 -3 -86 -3h-926q-248 0 -342 74.5t-94 259.5v348h276v-311q0 -78 47.5 -103.5t192.5 -25.5h797q74 0 101.5 23t27.5 100v475h276v-451q0 -83 36 -115t138 -32q41 0 61.5 -21.5t20.5 -93.5t-20 -99.5t-62 -27.5zM805 -206.5
q39 40.5 82 40.5t68 -10.5t43.5 -29.5t29.5 -44t11 -53q0 -56 -40.5 -96.5t-83 -40.5t-67 11t-42.5 29q-40 40 -40 96.5t39 97z" />
    <glyph glyph-name="uniFE91" unicode="&#x628;" horiz-adv-x="643" arabic-form="initial" 
d="M242 242v598h276v-840h-518q-41 0 -61.5 21.5t-20.5 94.5t19.5 99.5t62.5 26.5h242zM263 -200.5q39 40.5 82 40.5t68 -10.5t43.5 -29.5t29.5 -44t11 -53q0 -56 -40.5 -96.5t-83 -40.5t-67 11t-42.5 29q-40 40 -40 96.5t39 97z" />
    <glyph glyph-name="uniFE92" unicode="&#x628;" horiz-adv-x="706" arabic-form="medial" 
d="M706 0q-158 0 -227 109q-69 -95 -221 -106q-44 -3 -86 -3h-172q-41 0 -61.5 21.5t-20.5 94.5t19.5 99.5t62.5 26.5h127q74 0 101.5 23t27.5 100v475h276v-451q0 -82 36.5 -114.5t137.5 -32.5q40 0 61 -22t21 -93.5t-20 -99t-62 -27.5zM298 -200.5q39 40.5 82 40.5
t68 -10.5t43.5 -29.5t29.5 -44t11 -53q0 -56 -40.5 -96.5t-83 -40.5t-66.5 11q-26 11 -44 29q-40 40 -39.5 96.5t39.5 97z" />
    <glyph glyph-name="uniFE94" unicode="&#x629;" horiz-adv-x="1000" arabic-form="final" 
d="M439 152q-51 0 -95 6q-44 8 -88 24q-103 38 -169.5 124t-66.5 216q0 226 146 340q122 96 298 96h362v-630q0 -50 13.5 -68t57.5 -18h103q41 0 61.5 -21.5t20.5 -93.5t-19.5 -99.5t-62.5 -27.5h-124q-250 0 -303 170q-83 -18 -134 -18zM436 393q72 0 114 15v308h-106
q-75 0 -115.5 -47.5t-40.5 -119.5q0 -156 148 -156zM553 1396.5q39 40.5 82 40.5t68 -10.5t43.5 -29.5t29.5 -44t11 -53q0 -56 -40.5 -96.5t-82.5 -40.5q-44 0 -68 11q-24 12 -42 30q-40 40 -40 96t39 96.5zM214 1397q40 40 82.5 40t67 -10.5t43 -29.5t29.5 -44t11 -53
q0 -56 -40.5 -96.5t-82.5 -40.5t-66 11q-24 12 -44 30q-40 39 -40 96t40 97z" />
    <glyph glyph-name="uniFE96" unicode="&#x62a;" horiz-adv-x="1932" arabic-form="final" 
d="M1932 0q-169 0 -225 109q-68 -95 -219 -106q-43 -3 -86 -3h-926q-248 0 -342 74.5t-94 259.5v348h276v-311q0 -78 47.5 -103.5t192.5 -25.5h797q74 0 101.5 23t27.5 100v475h276v-451q0 -83 36 -115t138 -32q41 0 61.5 -21.5t20.5 -93.5t-20 -99.5t-62 -27.5zM964 1168.5
q39 40.5 82 40.5t68 -10.5t43.5 -29.5t29.5 -44t11 -53q0 -56 -40.5 -96.5t-83 -40.5t-66.5 11q-26 12 -44 30q-40 40 -39.5 96t39.5 96.5zM625 1169q40 40 82.5 40t67 -10.5t43 -29.5t29.5 -44t11 -53q0 -56 -40.5 -96.5t-82.5 -40.5q-43 0 -67 11q-24 12 -43 30
q-40 39 -40 96t40 97z" />
    <glyph glyph-name="uniFE97" unicode="&#x62a;" horiz-adv-x="643" arabic-form="initial" 
d="M242 242v598h276v-840h-518q-41 0 -61.5 21.5t-20.5 94.5t19.5 99.5t62.5 26.5h242zM428 1292.5q39 40.5 82 40.5t68 -10.5t43.5 -29.5t29.5 -44t11 -53q0 -56 -40.5 -96.5t-83 -40.5t-66.5 11q-26 12 -44 30q-40 40 -39.5 96t39.5 96.5zM89 1293q40 40 82.5 40t67 -10.5
t43 -29.5t29.5 -44t11 -53q0 -56 -40.5 -96.5t-82.5 -40.5q-43 0 -67 11q-24 12 -43 30q-40 39 -40 96t40 97z" />
    <glyph glyph-name="uniFE98" unicode="&#x62a;" horiz-adv-x="706" arabic-form="medial" 
d="M706 0q-158 0 -227 109q-69 -95 -221 -106q-44 -3 -86 -3h-172q-41 0 -61.5 21.5t-20.5 94.5t19.5 99.5t62.5 26.5h127q74 0 101.5 23t27.5 100v475h276v-451q0 -82 36.5 -114.5t137.5 -32.5q40 0 61 -22t21 -93.5t-20 -99t-62 -27.5zM447 1292.5q39 40.5 82 40.5
t68 -10.5t43.5 -29.5t29.5 -44t11 -53q0 -56 -40.5 -96.5t-82.5 -40.5q-44 0 -68 11q-24 12 -42 30q-40 40 -40 96t39 96.5zM108 1293q40 40 82.5 40t67 -10.5t43 -29.5t29.5 -44t11 -53q0 -56 -40.5 -96.5t-82.5 -40.5t-66 11q-24 12 -44 30q-40 39 -40 96t40 97z" />
    <glyph glyph-name="uniFE9A" unicode="&#x62b;" horiz-adv-x="1932" arabic-form="final" 
d="M1932 0q-169 0 -225 109q-68 -95 -219 -106q-43 -3 -86 -3h-926q-248 0 -342 74.5t-94 259.5v348h276v-311q0 -78 47.5 -103.5t192.5 -25.5h797q74 0 101.5 23t27.5 100v475h276v-451q0 -83 36 -115t138 -32q41 0 61.5 -21.5t20.5 -93.5t-20 -99.5t-62 -27.5zM802 1444
q40 40 82.5 40t67 -10.5t43 -29.5t29.5 -44t11 -53q0 -56 -40.5 -96.5t-82.5 -40.5t-66.5 11t-43.5 29q-40 39 -40 96.5t40 97.5zM964 1168.5q39 40.5 82 40.5t68 -10.5t43.5 -29.5t29.5 -44t11 -53q0 -56 -40.5 -96.5t-83 -40.5t-66.5 11q-26 12 -44 30q-40 40 -39.5 96
t39.5 96.5zM625 1169q40 40 82.5 40t67 -10.5t43 -29.5t29.5 -44t11 -53q0 -56 -40.5 -96.5t-82.5 -40.5q-43 0 -67 11q-24 12 -43 30q-40 39 -40 96t40 97z" />
    <glyph glyph-name="uniFE9B" unicode="&#x62b;" horiz-adv-x="643" arabic-form="initial" 
d="M242 242v598h276v-840h-518q-41 0 -61.5 21.5t-20.5 94.5t19.5 99.5t62.5 26.5h242zM264 1568q40 40 82.5 40t67 -10.5t43 -29.5t29.5 -44t11 -53q0 -56 -40.5 -96.5t-82.5 -40.5t-66.5 11t-43.5 29q-40 39 -40 96.5t40 97.5zM426 1292.5q39 40.5 82 40.5t68 -10.5
t43.5 -29.5t29.5 -44t11 -53q0 -56 -40.5 -96.5t-83 -40.5t-66.5 11q-26 12 -44 30q-40 40 -39.5 96t39.5 96.5zM87 1293q40 40 82.5 40t67 -10.5t43 -29.5t29.5 -44t11 -53q0 -56 -40.5 -96.5t-82.5 -40.5q-43 0 -67 11q-24 12 -43 30q-40 39 -40 96t40 97z" />
    <glyph glyph-name="uniFE9C" unicode="&#x62b;" horiz-adv-x="706" arabic-form="medial" 
d="M706 0q-158 0 -227 109q-69 -95 -221 -106q-44 -3 -86 -3h-172q-41 0 -61.5 21.5t-20.5 94.5t19.5 99.5t62.5 26.5h127q74 0 101.5 23t27.5 100v475h276v-451q0 -82 36.5 -114.5t137.5 -32.5q40 0 61 -22t21 -93.5t-20 -99t-62 -27.5zM283 1568q40 40 82.5 40t67 -10.5
t43 -29.5t29.5 -44t11 -53q0 -56 -40.5 -96.5t-82.5 -40.5t-66.5 11t-43.5 29q-40 39 -40 96.5t40 97.5zM445 1292.5q39 40.5 82 40.5t68 -10.5t43.5 -29.5t29.5 -44t11 -53q0 -56 -40.5 -96.5t-82.5 -40.5q-44 0 -68 11q-24 12 -42 30q-40 40 -40 96t39 96.5zM106 1293
q40 40 82.5 40t67 -10.5t43 -29.5t29.5 -44t11 -53q0 -56 -40.5 -96.5t-82.5 -40.5t-66 11q-24 12 -44 30q-40 39 -40 96t40 97z" />
    <glyph glyph-name="uniFE9E" unicode="&#x62c;" horiz-adv-x="1284" arabic-form="final" 
d="M696 -206.5q39 40.5 82 40.5t68 -10.5t43.5 -29.5t29.5 -44t11 -53q0 -56 -40.5 -96.5t-83 -40.5t-66.5 11q-26 11 -44 29q-40 40 -39.5 96.5t39.5 97zM303 -99q0 -79 256 -190l-123 -230q-414 161 -414 441q0 320 428 320h446q-12 193 -97.5 289t-268.5 96
q-123 0 -256 -41v245q156 56 310 56q292 -1 444 -193q132 -167 141 -452h115q40 0 60.5 -21.5t20.5 -93.5t-19 -99.5t-62 -27.5h-848q-133 0 -133 -99z" />
    <glyph glyph-name="uniFE9F" unicode="&#x62c;" horiz-adv-x="1126" arabic-form="initial" 
d="M443 887q299 0 452 -210q131 -180 131 -480v-197h-1026q-41 0 -61.5 21.5t-20.5 94.5t19.5 99.5t62.5 26.5h751q-13 186 -96 285.5t-272 99.5q-114 0 -252 -41v245q156 56 312 56zM386 -202.5q39 40.5 82 40.5t68 -10.5t43.5 -29.5t29.5 -44t11 -53q0 -56 -40.5 -96.5
t-83 -40.5t-66.5 11q-26 11 -44 29q-40 40 -39.5 96.5t39.5 97z" />
    <glyph glyph-name="uniFEA0" unicode="&#x62c;" horiz-adv-x="1137" arabic-form="medial" 
d="M437 887q296 -1 446 -193q128 -164 141 -452h113q41 0 62.5 -21.5t21.5 -93.5t-19.5 -99.5t-64.5 -27.5h-1137q-41 0 -61.5 21.5t-20.5 94.5t19.5 99.5t62.5 26.5h751q-13 186 -95 285.5t-273 99.5q-100 0 -252 -41v245q149 56 306 56zM386 -202.5q39 40.5 82 40.5
t68 -10.5t43.5 -29.5t29.5 -44t11 -53q0 -56 -40.5 -96.5t-83 -40.5t-66.5 11q-26 11 -44 29q-40 40 -39.5 96.5t39.5 97z" />
    <glyph glyph-name="uniFEA2" unicode="&#x62d;" horiz-adv-x="1284" arabic-form="final" 
d="M303 -99q0 -79 256 -190l-123 -230q-414 161 -414 441q0 320 428 320h446q-12 193 -97.5 289t-268.5 96q-123 0 -256 -41v245q156 56 310 56q292 -1 444 -193q132 -167 141 -452h115q40 0 60.5 -21.5t20.5 -93.5t-19 -99.5t-62 -27.5h-848q-133 0 -133 -99z" />
    <glyph glyph-name="uniFEA3" unicode="&#x62d;" horiz-adv-x="1126" arabic-form="initial" 
d="M443 887q299 0 452 -210q131 -180 131 -480v-197h-1026q-41 0 -61.5 21.5t-20.5 94.5t19.5 99.5t62.5 26.5h751q-13 186 -96 285.5t-272 99.5q-114 0 -252 -41v245q156 56 312 56z" />
    <glyph glyph-name="uniFEA4" unicode="&#x62d;" horiz-adv-x="1137" arabic-form="medial" 
d="M437 887q296 -1 446 -193q128 -164 141 -452h113q41 0 62.5 -21.5t21.5 -93.5t-19.5 -99.5t-64.5 -27.5h-1137q-41 0 -61.5 21.5t-20.5 94.5t19.5 99.5t62.5 26.5h751q-13 186 -95 285.5t-273 99.5q-100 0 -252 -41v245q149 56 306 56z" />
    <glyph glyph-name="uniFEA6" unicode="&#x62e;" horiz-adv-x="1284" arabic-form="final" 
d="M303 -99q0 -79 256 -190l-123 -230q-414 161 -414 441q0 320 428 320h446q-12 193 -97.5 289t-268.5 96q-123 0 -256 -41v245q156 56 310 56q292 -1 444 -193q132 -167 141 -452h115q40 0 60.5 -21.5t20.5 -93.5t-19 -99.5t-62 -27.5h-848q-133 0 -133 -99zM522 1293
q40 40 82.5 40t67 -10.5t43 -29.5t29.5 -44t11 -53q0 -56 -40.5 -96.5t-82.5 -40.5t-66 11q-24 12 -44 30q-40 39 -40 96t40 97z" />
    <glyph glyph-name="uniFEA7" unicode="&#x62e;" horiz-adv-x="1126" arabic-form="initial" 
d="M443 887q299 0 452 -210q131 -180 131 -480v-197h-1026q-41 0 -61.5 21.5t-20.5 94.5t19.5 99.5t62.5 26.5h751q-13 186 -96 285.5t-272 99.5q-114 0 -252 -41v245q156 56 312 56zM312 1293q40 40 82.5 40t67 -10.5t43 -29.5t29.5 -44t11 -53q0 -56 -40.5 -96.5
t-82.5 -40.5t-66 11q-24 12 -44 30q-40 39 -40 96t40 97z" />
    <glyph glyph-name="uniFEA8" unicode="&#x62e;" horiz-adv-x="1137" arabic-form="medial" 
d="M437 887q296 -1 446 -193q128 -164 141 -452h113q41 0 62.5 -21.5t21.5 -93.5t-19.5 -99.5t-64.5 -27.5h-1137q-41 0 -61.5 21.5t-20.5 94.5t19.5 99.5t62.5 26.5h751q-13 186 -95 285.5t-273 99.5q-100 0 -252 -41v245q149 56 306 56zM312 1293q40 40 82.5 40t67 -10.5
t43 -29.5t29.5 -44t11 -53q0 -56 -40.5 -96.5t-82.5 -40.5t-66 11q-24 12 -44 30q-40 39 -40 96t40 97z" />
    <glyph glyph-name="uniFEAA" unicode="&#x62f;" horiz-adv-x="996" arabic-form="final" 
d="M468 242q98 0 98 42q0 32 -19 65t-75 116l-193 285l250 159l262 -428q92 -149 129 -194t77 -45t60.5 -21.5t20.5 -93.5t-19.5 -99.5t-62.5 -27.5h-101q-122 0 -182 97q-78 -87 -216 -95q-40 -2 -80 -2h-367v242h418z" />
    <glyph glyph-name="uniFEAC" unicode="&#x630;" horiz-adv-x="996" arabic-form="final" 
d="M468 242q98 0 98 42q0 32 -19 65t-75 116l-193 285l250 159l262 -428q92 -149 129 -194t77 -45t60.5 -21.5t20.5 -93.5t-19.5 -99.5t-62.5 -27.5h-101q-122 0 -182 97q-78 -87 -216 -95q-40 -2 -80 -2h-367v242h418zM278 1293q40 40 82.5 40t67 -10.5t43 -29.5t29.5 -44
t11 -53q0 -56 -40.5 -96.5t-82.5 -40.5t-66 11q-24 12 -44 30q-40 39 -40 96t40 97z" />
    <glyph glyph-name="uniFEAE" unicode="&#x631;" horiz-adv-x="731" arabic-form="final" 
d="M712 0q-102 0 -155 65q0 -278 -109 -393t-353 -115h-65v256h58q110 0 151.5 51.5t41.5 212.5v763h276v-451q1 -113 99 -139q28 -8 56 -8h19q73 0 73 -121t-73 -121h-19z" />
    <glyph glyph-name="uniFEB0" unicode="&#x632;" horiz-adv-x="731" arabic-form="final" 
d="M712 0q-102 0 -155 65q0 -278 -109 -393t-353 -115h-65v256h58q110 0 151.5 51.5t41.5 212.5v763h276v-451q1 -113 99 -139q28 -8 56 -8h19q73 0 73 -121t-73 -121h-19zM324 1293q40 40 82.5 40t67 -10.5t43 -29.5t29.5 -44t11 -53q0 -56 -40.5 -96.5t-82.5 -40.5t-66 11
q-24 12 -44 30q-40 39 -40 96t40 97z" />
    <glyph glyph-name="uniFEB2" unicode="&#x633;" horiz-adv-x="2472" arabic-form="final" 
d="M1443 0q-170 0 -250 74q-2 -233 -150 -375t-430 -142q-416 -1 -533 309q-40 106 -40 251v289h276v-291q0 -316 302 -316q157 0 230 72t73 230v647h276v-359q0 -147 152 -147q68 0 91 16q44 29 44 86v404h276v-359q0 -80 22 -104q38 -43 110 -43t92 16q39 30 39 92v490
h276v-451q0 -82 36 -114q36 -33 138 -33q40 0 61 -22t21 -93.5t-20 -99t-62 -27.5q-164 0 -227 113q-86 -113 -258 -113q-108 0 -170 28t-105 83q-72 -94 -196 -107q-37 -4 -74 -4z" />
    <glyph glyph-name="uniFEB3" unicode="&#x633;" horiz-adv-x="1767" arabic-form="initial" 
d="M532 389q0 -147 152 -147q68 0 91 16q44 29 44 86v404h276v-359q0 -80 22 -104q38 -43 122 -43h129v598h274v-840h-319q-108 0 -170 28t-105 83q-72 -94 -196 -107q-37 -4 -74 -4q-218 0 -305 111q-73 -97 -255 -107q-58 -4 -128 -4h-90q-41 0 -62 21q-20 21 -20 94.5
t19.5 100t62.5 26.5h94q99 0 122 13q40 22 40 89v404h276v-359z" />
    <glyph glyph-name="uniFEB4" unicode="&#x633;" horiz-adv-x="1808" arabic-form="medial" 
d="M778 0q-218 0 -305 111q-73 -97 -255 -107q-58 -4 -128 -4h-90q-41 0 -61.5 21.5t-20.5 94.5t19.5 99.5t62.5 26.5h94q99 0 122 13q40 22 40 89v404h276v-359q0 -147 152 -147q68 0 91 16q44 29 44 86v404h276v-359q0 -80 22 -104q38 -43 110 -43t92 16q39 30 39 92v490
h276v-451q0 -82 36.5 -114.5t137.5 -32.5q40 0 61 -22t21 -93.5t-20 -99t-62 -27.5q-164 0 -227 113q-86 -113 -258 -113q-108 0 -170 27.5t-105 83.5q-72 -94 -196 -107q-37 -4 -74 -4z" />
    <glyph glyph-name="uniFEB6" unicode="&#x634;" horiz-adv-x="2472" arabic-form="final" 
d="M1443 0q-170 0 -250 74q-2 -233 -150 -375t-430 -142q-416 -1 -533 309q-40 106 -40 251v289h276v-291q0 -316 302 -316q157 0 230 72t73 230v647h276v-359q0 -147 152 -147q68 0 91 16q44 29 44 86v404h276v-359q0 -80 22 -104q38 -43 110 -43t92 16q39 30 39 92v490
h276v-451q0 -82 36.5 -114.5t137.5 -32.5q40 0 61 -22t21 -93.5t-20 -99t-62 -27.5q-164 0 -227 113q-86 -113 -258 -113q-108 0 -170 27.5t-105 83.5q-72 -94 -196 -107q-37 -4 -74 -4zM1525 1568q40 40 82.5 40t67 -10.5t43 -29.5t29.5 -44t11 -53q0 -56 -40.5 -96.5
t-82.5 -40.5t-66.5 11t-43.5 29q-40 39 -40 96.5t40 97.5zM1687 1292.5q39 40.5 82 40.5t68 -10.5t43.5 -29.5t29.5 -44t11 -53q0 -56 -40.5 -96.5t-82.5 -40.5q-44 0 -68 11q-24 12 -42 30q-40 40 -40 96t39 96.5zM1348 1293q40 40 82.5 40t67 -10.5t43 -29.5t29.5 -44
t11 -53q0 -56 -40.5 -96.5t-82.5 -40.5t-66 11q-24 12 -44 30q-40 39 -40 96t40 97z" />
    <glyph glyph-name="uniFEB7" unicode="&#x634;" horiz-adv-x="1767" arabic-form="initial" 
d="M532 389q0 -147 152 -147q68 0 91 16q44 29 44 86v404h276v-359q0 -80 22 -104q38 -43 122 -43h129v598h274v-840h-319q-108 0 -170 27.5t-105 83.5q-72 -94 -196 -107q-37 -4 -74 -4q-218 0 -305 111q-73 -97 -255 -107q-58 -4 -128 -4h-90q-41 0 -61.5 21.5t-20.5 94.5
t19.5 99.5t62.5 26.5h94q99 0 122 13q40 22 40 89v404h276v-359zM872 1568q40 40 82.5 40t67 -10.5t43 -29.5t29.5 -44t11 -53q0 -56 -40.5 -96.5t-82.5 -40.5t-66.5 11t-43.5 29q-40 39 -40 96.5t40 97.5zM1034 1292.5q39 40.5 82 40.5t68 -10.5t43.5 -29.5t29.5 -44
t11 -53q0 -56 -40.5 -96.5t-83 -40.5t-66.5 11q-26 12 -44 30q-40 40 -39.5 96t39.5 96.5zM695 1293q40 40 82.5 40t67 -10.5t43 -29.5t29.5 -44t11 -53q0 -56 -40.5 -96.5t-82.5 -40.5q-43 0 -67 11q-24 12 -43 30q-40 39 -40 96t40 97z" />
    <glyph glyph-name="uniFEB8" unicode="&#x634;" horiz-adv-x="1808" arabic-form="medial" 
d="M778 0q-218 0 -305 111q-73 -97 -255 -107q-58 -4 -128 -4h-90q-41 0 -61.5 21.5t-20.5 94.5t19.5 99.5t62.5 26.5h94q99 0 122 13q40 22 40 89v404h276v-359q0 -147 152 -147q68 0 91 16q44 29 44 86v404h276v-359q0 -80 22 -104q38 -43 110 -43t92 16q39 30 39 92v490
h276v-451q0 -82 36.5 -114.5t137.5 -32.5q40 0 61 -22t21 -93.5t-20 -99t-62 -27.5q-164 0 -227 113q-86 -113 -258 -113q-108 0 -170 27.5t-105 83.5q-72 -94 -196 -107q-37 -4 -74 -4zM872 1568q40 40 82.5 40t67 -10.5t43 -29.5t29.5 -44t11 -53q0 -56 -40.5 -96.5
t-82.5 -40.5t-66.5 11t-43.5 29q-40 39 -40 96.5t40 97.5zM1034 1292.5q39 40.5 82 40.5t68 -10.5t43.5 -29.5t29.5 -44t11 -53q0 -56 -40.5 -96.5t-83 -40.5t-66.5 11q-26 12 -44 30q-40 40 -39.5 96t39.5 96.5zM695 1293q40 40 82.5 40t67 -10.5t43 -29.5t29.5 -44t11 -53
q0 -56 -40.5 -96.5t-82.5 -40.5q-43 0 -67 11q-24 12 -43 30q-40 39 -40 96t40 97z" />
    <glyph glyph-name="uniFEBA" unicode="&#x635;" horiz-adv-x="2777" arabic-form="final" 
d="M316 115q0 -316 302 -316q157 0 230 72t73 230v598h276v-310q0 -73 58.5 -110t200.5 -37q102 280 291 462.5t420.5 182.5t353.5 -137.5t122 -372.5v-135h134q41 0 62.5 -21.5t21.5 -93.5t-20.5 -99.5t-63.5 -27.5h-1244q-203 0 -285 42q-28 14 -55 32q-2 -233 -150 -375
t-430 -142q-416 -1 -533 309q-40 106 -40 251v289h276v-291zM2367 242v100q1 202 -105 272q-40 26 -106 26q-125 0 -235.5 -110.5t-190.5 -287.5h637z" />
    <glyph glyph-name="uniFEBB" unicode="&#x635;" horiz-adv-x="1976" arabic-form="initial" 
d="M1866 377v-377h-1110q-152 0 -243 70q-26 20 -42 41q-77 -97 -253 -107q-58 -4 -128 -4h-90q-41 0 -61.5 21.5t-20.5 94.5t19.5 99.5t62.5 26.5h94q99 0 123 13q41 22 41 89v404h268v-359q0 -147 153 -147q102 280 291 462.5t424 182.5q228 0 350 -137.5t122 -372.5z
M1590 242v100q0 202 -106 272q-40 26 -105 26q-125 0 -235.5 -110.5t-190.5 -287.5h637z" />
    <glyph glyph-name="uniFEBC" unicode="&#x635;" horiz-adv-x="1998" arabic-form="medial" 
d="M1588 242v100q0 202 -106 272q-40 26 -105 26q-125 0 -235.5 -110.5t-190.5 -287.5h637zM1864 242h134q40 0 61 -22t21 -93.5t-20 -99t-62 -27.5h-1244q-152 0 -243 70q-26 20 -42 41q-77 -97 -253 -107q-58 -4 -128 -4h-88q-41 0 -61.5 21.5t-20.5 94.5t19.5 99.5
t62.5 26.5h92q99 0 123 13q41 22 41 89v404h268v-359q0 -147 153 -147q102 280 291 462.5t420.5 182.5t353.5 -137.5t122 -372.5v-135z" />
    <glyph glyph-name="uniFEBE" unicode="&#x636;" horiz-adv-x="2777" arabic-form="final" 
d="M316 115q0 -316 302 -316q157 0 230 72t73 230v598h276v-310q0 -73 58.5 -110t200.5 -37q102 280 291 462.5t420.5 182.5t353.5 -137.5t122 -372.5v-135h134q41 0 62.5 -21.5t21.5 -93.5t-20.5 -99.5t-63.5 -27.5h-1244q-203 0 -285 42q-28 14 -55 32q-2 -233 -150 -375
t-430 -142q-416 -1 -533 309q-40 106 -40 251v289h276v-291zM2367 242v100q1 202 -105 272q-40 26 -106 26q-125 0 -235.5 -110.5t-190.5 -287.5h637zM2084 1293q40 40 82.5 40t67 -10.5t43 -29.5t29.5 -44t11 -53q0 -56 -40.5 -96.5t-82.5 -40.5t-66 11q-24 12 -44 30
q-40 39 -40 96t40 97z" />
    <glyph glyph-name="uniFEBF" unicode="&#x636;" horiz-adv-x="1976" arabic-form="initial" 
d="M1866 377v-377h-1110q-152 0 -243 70q-26 20 -42 41q-77 -97 -253 -107q-58 -4 -128 -4h-90q-41 0 -61.5 21.5t-20.5 94.5t19.5 99.5t62.5 26.5h94q99 0 123 13q41 22 41 89v404h268v-359q0 -147 153 -147q102 280 291 462.5t424 182.5q228 0 350 -137.5t122 -372.5z
M1590 242v100q0 202 -106 272q-40 26 -105 26q-125 0 -235.5 -110.5t-190.5 -287.5h637zM1284 1293q40 40 82.5 40t67 -10.5t43 -29.5t29.5 -44t11 -53q0 -56 -40.5 -96.5t-82.5 -40.5t-66 11q-24 12 -44 30q-40 39 -40 96t40 97z" />
    <glyph glyph-name="uniFEC0" unicode="&#x636;" horiz-adv-x="1998" arabic-form="medial" 
d="M1588 242v100q0 202 -106 272q-40 26 -105 26q-125 0 -235.5 -110.5t-190.5 -287.5h637zM1864 242h134q40 0 61 -22t21 -93.5t-20 -99t-62 -27.5h-1244q-152 0 -243 70q-26 20 -42 41q-77 -97 -253 -107q-58 -4 -128 -4h-88q-41 0 -61.5 21.5t-20.5 94.5t19.5 99.5
t62.5 26.5h92q99 0 123 13q41 22 41 89v404h268v-359q0 -147 153 -147q102 280 291 462.5t420.5 182.5t353.5 -137.5t122 -372.5v-135zM1311 1293q40 40 82.5 40t67 -10.5t43 -29.5t29.5 -44t11 -53q0 -56 -40.5 -96.5t-82.5 -40.5q-43 0 -67 11q-24 12 -43 30
q-40 39 -40 96t40 97z" />
    <glyph glyph-name="uniFEC2" unicode="&#x637;" horiz-adv-x="1615" arabic-form="final" 
d="M994 640q-125 0 -235.5 -110.5t-190.5 -287.5h637v100q1 202 -105 272q-40 26 -106 26zM1043 887q86 0 172 -36q86 -37 145 -103q121 -136 121 -371v-135h134q40 0 61 -22t21 -93.5t-20 -99t-62 -27.5h-1595v242h279v1188h276v-803q169 260 468 260z" />
    <glyph glyph-name="uniFEC3" unicode="&#x637;" horiz-adv-x="1540" arabic-form="initial" 
d="M942 640q-125 0 -235.5 -110.5t-190.5 -287.5h637v100q1 202 -105 272q-40 26 -106 26zM991 887q86 0 172 -36q86 -37 145 -103q121 -136 121 -371l1 -377h-1430q-41 0 -61.5 21.5t-20.5 94.5t19.5 99.5t62.5 26.5h247v1187h276v-802q169 260 468 260z" />
    <glyph glyph-name="uniFEC4" unicode="&#x637;" horiz-adv-x="1565" arabic-form="medial" 
d="M942 640q-125 0 -235.5 -110.5t-190.5 -287.5h637v100q1 202 -105 272q-40 26 -106 26zM991 887q86 0 172 -36q86 -37 145 -103q121 -136 121 -371v-135h136q40 0 61 -22t21 -93.5t-20 -99t-62 -27.5h-1565q-41 0 -61.5 21.5t-20.5 94.5t19.5 99.5t62.5 26.5h247v1188
h276v-803q169 260 468 260z" />
    <glyph glyph-name="uniFEC6" unicode="&#x638;" horiz-adv-x="1615" arabic-form="final" 
d="M994 640q-125 0 -235.5 -110.5t-190.5 -287.5h637v100q1 202 -105 272q-40 26 -106 26zM1043 887q86 0 172 -36q86 -37 145 -103q121 -136 121 -371v-135h134q40 0 61 -22t21 -93.5t-20 -99t-62 -27.5h-1595v242h279v1188h276v-803q169 260 468 260zM927 1293
q40 40 82.5 40t67 -10.5t43 -29.5t29.5 -44t11 -53q0 -56 -40.5 -96.5t-82.5 -40.5q-43 0 -67 11q-24 12 -43 30q-40 39 -40 96t40 97z" />
    <glyph glyph-name="uniFEC7" unicode="&#x638;" horiz-adv-x="1540" arabic-form="initial" 
d="M942 640q-125 0 -235.5 -110.5t-190.5 -287.5h637v100q1 202 -105 272q-40 26 -106 26zM991 887q86 0 172 -36q86 -37 145 -103q121 -136 121 -371l1 -377h-1430q-41 0 -61.5 21.5t-20.5 94.5t19.5 99.5t62.5 26.5h247v1187h276v-802q169 260 468 260zM843 1293
q40 40 82.5 40t67 -10.5t43 -29.5t29.5 -44t11 -53q0 -56 -40.5 -96.5t-82.5 -40.5q-43 0 -67 11q-24 12 -43 30q-40 39 -40 96t40 97z" />
    <glyph glyph-name="uniFEC8" unicode="&#x638;" horiz-adv-x="1565" arabic-form="medial" 
d="M942 640q-125 0 -235.5 -110.5t-190.5 -287.5h637v100q1 202 -105 272q-40 26 -106 26zM991 887q86 0 172 -36q86 -37 145 -103q121 -136 121 -371v-135h136q40 0 61 -22t21 -93.5t-20 -99t-62 -27.5h-1565q-41 0 -61.5 21.5t-20.5 94.5t19.5 99.5t62.5 26.5h247v1188
h276v-803q169 260 468 260zM867 1293q40 40 82.5 40t67 -10.5t43 -29.5t29.5 -44t11 -53q0 -56 -40.5 -96.5t-82.5 -40.5q-43 0 -67 11q-24 12 -43 30q-40 39 -40 96t40 97z" />
    <glyph glyph-name="uniFECA" unicode="&#x639;" horiz-adv-x="1120" arabic-form="final" 
d="M303 -99q0 -79 256 -190l-123 -230q-414 161 -414 441q0 166 204 266q66 32 150 60l-219 281q50 156 98 207q151 151 371 151q183 0 283 -86.5t100 -206.5q1 -76 -37 -150q-67 -131 -158 -202h307q40 0 61 -22t21 -93.5t-20 -99t-62 -27.5h-307q-91 0 -189 48
q-32 16 -60 36q-221 -66 -253 -140q-8 -20 -9 -43zM739 553q0 97 -119.5 97t-206.5 -58q136 -196 193 -246q87 56 123 158q10 28 10 49z" />
    <glyph glyph-name="uniFECB" unicode="&#x639;" horiz-adv-x="1032" arabic-form="initial" 
d="M618 627q-96 0 -153 -50.5t-57 -131.5q0 -142 124 -187q44 -16 106 -16h334v-242h-972q-41 0 -61.5 21.5t-20.5 94.5t19.5 99.5t62.5 26.5h202q-41 86 -41 204q0 215 141.5 328t327.5 113q130 0 241 -43v-249q-211 32 -253 32z" />
    <glyph glyph-name="uniFECC" unicode="&#x639;" horiz-adv-x="1117" arabic-form="medial" 
d="M0 0q-41 0 -61.5 21.5t-20.5 94.5t19.5 99.5t62.5 26.5h183q108 0 187 14l-211 273q20 92 51 142.5t45 64.5q138 151 371 151q185 0 284 -86.5t99 -206.5q1 -76 -37 -150q-67 -131 -158 -202h303q41 0 61.5 -21.5t20.5 -93.5t-20 -99.5t-62 -27.5h-303q-146 0 -250 78
q-209 -78 -372 -78h-192zM738 553q0 97 -117.5 97t-207.5 -58q20 -26 45 -61q106 -148 155 -193q82 54 116 164q9 30 9 51z" />
    <glyph glyph-name="uniFECE" unicode="&#x63a;" horiz-adv-x="1120" arabic-form="final" 
d="M303 -99q0 -79 256 -190l-123 -230q-414 161 -414 441q0 166 204 266q66 32 150 60l-219 281q50 156 98 207q151 151 371 151q183 0 283 -86.5t100 -206.5q1 -76 -37 -150q-67 -131 -158 -202h307q40 0 61 -22t21 -93.5t-20 -99t-62 -27.5h-307q-91 0 -189 48
q-32 16 -60 36q-221 -66 -253 -140q-8 -20 -9 -43zM739 553q0 97 -119.5 97t-206.5 -58q136 -196 193 -246q87 56 123 158q10 28 10 49zM524 1293q40 40 82.5 40t67 -10.5t43 -29.5t29.5 -44t11 -53q0 -56 -40.5 -96.5t-82.5 -40.5t-66 11q-24 12 -44 30q-40 39 -40 96
t40 97z" />
    <glyph glyph-name="uniFECF" unicode="&#x63a;" horiz-adv-x="1032" arabic-form="initial" 
d="M618 627q-96 0 -153 -50.5t-57 -131.5q0 -142 124 -187q44 -16 106 -16h334v-242h-972q-41 0 -61.5 21.5t-20.5 94.5t19.5 99.5t62.5 26.5h202q-41 86 -41 204q0 215 141.5 328t327.5 113q130 0 241 -43v-249q-211 32 -253 32zM546 1293q40 40 82.5 40t67 -10.5t43 -29.5
t29.5 -44t11 -53q0 -56 -40.5 -96.5t-82.5 -40.5t-66 11q-24 12 -44 30q-40 39 -40 96t40 97z" />
    <glyph glyph-name="uniFED0" unicode="&#x63a;" horiz-adv-x="1117" arabic-form="medial" 
d="M0 0q-41 0 -61.5 21.5t-20.5 94.5t19.5 99.5t62.5 26.5h183q108 0 187 14l-211 273q20 92 51 142.5t45 64.5q138 151 371 151q185 0 284 -86.5t99 -206.5q1 -76 -37 -150q-67 -131 -158 -202h303q41 0 61.5 -21.5t20.5 -93.5t-20 -99.5t-62 -27.5h-303q-146 0 -250 78
q-209 -78 -372 -78h-192zM738 553q0 97 -117.5 97t-207.5 -58q20 -26 45 -61q106 -148 155 -193q82 54 116 164q9 30 9 51zM530 1293q40 40 82.5 40t67 -10.5t43 -29.5t29.5 -44t11 -53q0 -56 -40.5 -96.5t-82.5 -40.5t-66 11q-24 12 -44 30q-40 39 -40 96t40 97z" />
    <glyph glyph-name="uniFED2" unicode="&#x641;" horiz-adv-x="2160" arabic-form="final" 
d="M1459 447q0 -94 48.5 -149.5t121.5 -55.5h121v182q0 98 -20 138q-38 77 -121 77q-150 0 -150 -192zM1193 416q0 206 116.5 338.5t309.5 132.5q283 0 373 -248q34 -95 34 -208v-189h134q40 0 61 -22t21 -93.5t-20 -99t-62 -27.5h-1682q-247 0 -342.5 75t-95.5 259v348h276
v-311q0 -78 47.5 -103.5t192.5 -25.5h668q-31 62 -31 174zM1507 1293q40 40 82.5 40t67 -10.5t43 -29.5t29.5 -44t11 -53q0 -56 -40.5 -96.5t-82.5 -40.5q-43 0 -67 11q-24 12 -43 30q-40 39 -40 96t40 97z" />
    <glyph glyph-name="uniFED3" unicode="&#x641;" horiz-adv-x="1121" arabic-form="initial" 
d="M180 417q0 206 115 338t313 132q282 0 370 -248q33 -94 33 -208v-431h-1011q-41 0 -61.5 21.5t-20.5 94.5t19.5 99.5t62.5 26.5h212q-32 64 -32 175zM737 424q0 215 -140 215q-151 0 -151 -182q0 -103 47.5 -159t124.5 -56h119v182zM503 1293q40 40 82.5 40t67 -10.5
t43 -29.5t29.5 -44t11 -53q0 -56 -40.5 -96.5t-82.5 -40.5q-43 0 -67 11q-24 12 -43 30q-40 39 -40 96t40 97z" />
    <glyph glyph-name="uniFED4" unicode="&#x641;" horiz-adv-x="1122" arabic-form="medial" 
d="M418 447q0 -93 47.5 -149t124.5 -56h121v182q-1 99 -21 138q-40 77 -121 77q-151 0 -151 -192zM154 417q0 205 116.5 337.5t309.5 132.5q282 0 372 -248q34 -95 35 -208v-189h135q41 0 61.5 -21.5t20.5 -93.5t-19.5 -99.5t-62.5 -27.5h-1122q-41 0 -61.5 21.5t-20.5 94.5
t19.5 99.5t62.5 26.5h186q-32 64 -32 175zM478 1293q40 40 82.5 40t67 -10.5t43 -29.5t29.5 -44t11 -53q0 -56 -40.5 -96.5t-82.5 -40.5t-66 11q-24 12 -44 30q-40 39 -40 96t40 97z" />
    <glyph glyph-name="uniFED6" unicode="&#x642;" horiz-adv-x="1622" arabic-form="final" 
d="M316 150q0 -351 428 -351q198 0 311 57.5t146 143.5h-131q-306 0 -394 230q-32 82 -32 184q0 200 116 336.5t314 136.5q416 0 416 -547v-98h133q41 0 61.5 -21.5t20.5 -93.5t-19.5 -99.5t-62.5 -27.5h-146q-45 -214 -233.5 -328.5t-509.5 -114.5q-510 0 -648 301
q-46 100 -46 233v224h276v-165zM1212 406q0 235 -148.5 235t-148.5 -215q0 -96 42.5 -140t114.5 -44h140v164zM1137 1292.5q39 40.5 82 40.5t68 -10.5t43.5 -29.5t29.5 -44t11 -53q0 -56 -40.5 -96.5t-82.5 -40.5q-44 0 -68 11q-24 12 -42 30q-40 40 -40 96t39 96.5z
M798 1293q40 40 82.5 40t67 -10.5t43 -29.5t29.5 -44t11 -53q0 -56 -40.5 -96.5t-82.5 -40.5t-66 11q-24 12 -44 30q-40 39 -40 96t40 97z" />
    <glyph glyph-name="uniFED7" unicode="&#x642;" horiz-adv-x="1121" arabic-form="initial" 
d="M180 417q0 206 115 338t313 132q282 0 370 -248q33 -94 33 -208v-431h-1011q-41 0 -61.5 21.5t-20.5 94.5t19.5 99.5t62.5 26.5h212q-32 64 -32 175zM737 424q0 215 -140 215q-151 0 -151 -182q0 -103 47.5 -159t124.5 -56h119v182zM647 1292.5q39 40.5 82 40.5t68 -10.5
t43.5 -29.5t29.5 -44t11 -53q0 -56 -40.5 -96.5t-82.5 -40.5q-44 0 -68 11q-24 12 -42 30q-40 40 -40 96t39 96.5zM308 1293q40 40 82.5 40t67 -10.5t43 -29.5t29.5 -44t11 -53q0 -56 -40.5 -96.5t-82.5 -40.5t-66 11q-24 12 -44 30q-40 39 -40 96t40 97z" />
    <glyph glyph-name="uniFED8" unicode="&#x642;" horiz-adv-x="1122" arabic-form="medial" 
d="M418 447q0 -93 47.5 -149t124.5 -56h121v182q-1 99 -21 138q-40 77 -121 77q-151 0 -151 -192zM154 417q0 205 116.5 337.5t309.5 132.5q282 0 372 -248q34 -95 35 -208v-189h135q41 0 61.5 -21.5t20.5 -93.5t-19.5 -99.5t-62.5 -27.5h-1122q-41 0 -61.5 21.5t-20.5 94.5
t19.5 99.5t62.5 26.5h186q-32 64 -32 175zM635 1292.5q39 40.5 82 40.5t68 -10.5t43.5 -29.5t29.5 -44t11 -53q0 -56 -40.5 -96.5t-82.5 -40.5q-44 0 -68 11q-24 12 -42 30q-40 40 -40 96t39 96.5zM296 1293q40 40 82.5 40t67 -10.5t43 -29.5t29.5 -44t11 -53
q0 -56 -40.5 -96.5t-82.5 -40.5t-66 11q-24 12 -44 30q-40 39 -40 96t40 97z" />
    <glyph glyph-name="uniFEDA" unicode="&#x643;" horiz-adv-x="1928" arabic-form="final" 
d="M1928 0q-165 0 -221 109q-68 -95 -219 -106q-43 -3 -86 -3h-926q-248 0 -342 74.5t-94 259.5v348h274v-311q0 -78 47.5 -103.5t192.5 -25.5h804q74 0 101.5 23t27.5 100v1065h271v-1041q0 -83 26 -107q43 -40 144 -40q41 0 61.5 -21.5t20.5 -93.5t-20 -99.5t-62 -27.5z
M927 829q0 -69 86 -69h110v-148h-411v148h84q-21 24 -21 79q0 98 60 150.5t124 52.5t121 -20v-139q-54 12 -86.5 12t-49.5 -20t-17 -46z" />
    <glyph glyph-name="uniFEDB" unicode="&#x643;" horiz-adv-x="983" arabic-form="initial" 
d="M479 242q124 0 124 92q0 80 -126 192t-333 207v294l724 384v-315l-411 -199v-7q398 -248 422 -486q4 -40 4 -71t-6 -65t-21 -70q-35 -85 -119 -141.5t-227 -56.5h-510q-41 0 -61.5 21.5t-20.5 94.5t19.5 99.5t62.5 26.5h479z" />
    <glyph glyph-name="uniFEDC" unicode="&#x643;" horiz-adv-x="1073" arabic-form="medial" 
d="M510 0h-510q-41 0 -61.5 21.5t-20.5 94.5t19.5 99.5t62.5 26.5h479q124 0 124 92q0 78 -132 194.5t-327 204.5v294l724 384v-315l-411 -199v-7q296 -183 380 -361q24 -51 43 -121.5t64.5 -118t128.5 -47.5q42 0 62 -21t20 -93.5t-19.5 -100t-57.5 -27.5
q-90 0 -153.5 21.5t-119.5 93.5q-101 -115 -295 -115z" />
    <glyph glyph-name="uniFEDE" unicode="&#x644;" horiz-adv-x="1371" arabic-form="final" 
d="M1384 0q-142 0 -190 74q-2 -233 -150 -375t-430 -142q-416 -1 -533 309q-40 106 -40 251v289h276v-291q0 -316 302 -316q227 1 285 207q18 64 18 144v1280h276v-1039q0 -76 51 -112.5t106.5 -36.5t69.5 -14q28 -29 28 -101q-1 -127 -69 -127z" />
    <glyph glyph-name="uniFEDF" unicode="&#x644;" horiz-adv-x="638" arabic-form="initial" 
d="M237 242v1188h276v-1430h-513q-41 0 -62 21q-20 21 -20 94.5t19.5 100t62.5 26.5h237z" />
    <glyph glyph-name="uniFEE0" unicode="&#x644;" horiz-adv-x="702" arabic-form="medial" 
d="M702 0q-172 0 -228 109q-68 -95 -220 -106q-44 -3 -87 -3h-167q-41 0 -62 21q-20 21 -20 94.5t19.5 100t62.5 26.5h122q74 0 102 23q27 23 27 100v1065h276v-1041q0 -81 37 -114t138 -33q40 0 61 -22t21 -93.5t-20 -99t-62 -27.5z" />
    <glyph glyph-name="uniFEE2" unicode="&#x645;" horiz-adv-x="1421" arabic-form="final" 
d="M952 256q67 56 67 180q1 124 -85 183q-30 21 -73 21q-85 0 -151.5 -93t-78.5 -254q102 -66 194 -66t127 29zM316 -254v-189h-276v193q0 251 73.5 377.5t258.5 210.5q45 288 189 428q123 120 308.5 120.5t305.5 -130t120 -336.5q0 -46 -6 -86q27 -67 99 -87q18 -5 34 -5
q39 0 59.5 -21.5t20.5 -93.5t-19.5 -99.5t-62.5 -27.5q-132 0 -206 141q-120 -166 -332 -166t-387 125q-135 -52 -167 -210q-12 -60 -12 -144z" />
    <glyph glyph-name="uniFEE3" unicode="&#x645;" horiz-adv-x="1167" arabic-form="initial" 
d="M0 0q-41 0 -61.5 21.5t-20.5 94.5t19.5 99.5t62.5 26.5h36q63 0 91 24q50 44 79 161q112 460 472 460q192 0 312 -130.5t120 -334.5t-117.5 -325.5t-303 -121.5t-355.5 111q-50 -55 -101.5 -70.5t-133.5 -15.5h-99zM446 293q102 -66 194 -66t127 29q67 55 67 179.5
t-86 183.5q-30 21 -72 21q-85 0 -151.5 -93t-78.5 -254z" />
    <glyph glyph-name="uniFEE4" unicode="&#x645;" horiz-adv-x="1235" arabic-form="medial" 
d="M446 293q102 -66 194 -66t127 29q67 55 67 179.5t-86 183.5q-30 21 -72 21q-85 0 -151.5 -93t-78.5 -254zM0 0q-41 0 -61.5 21.5t-20.5 94.5t19.5 99.5t62.5 26.5h36q61 0 97.5 33t67.5 133q93 378 325 455q72 24 160 24q183 0 303.5 -130.5t120.5 -336.5q0 -46 -6 -86
q28 -67 100 -87q18 -5 33 -5q39 0 59.5 -21.5t20.5 -93.5t-19.5 -99.5t-62.5 -27.5q-132 0 -206 141q-120 -166 -345 -166q-180 0 -350 111q-50 -55 -101.5 -70.5t-133.5 -15.5h-99z" />
    <glyph glyph-name="uniFEE6" unicode="&#x646;" horiz-adv-x="1371" arabic-form="final" 
d="M1384 0q-144 0 -192 74q-2 -233 -150 -375t-430 -142q-416 -1 -533 309q-40 106 -40 251v289h276v-291q0 -316 302 -316q227 1 285 207q18 64 18 144v489h276v-248q0 -77 52.5 -113t107.5 -36t69 -14q28 -29 28 -101q-1 -127 -69 -127zM542 880q40 40 82.5 40t67 -10.5
t43 -29.5t29.5 -44t11 -53q0 -56 -40.5 -96.5t-82.5 -40.5t-66.5 11t-43.5 29q-40 39 -40 96.5t40 97.5z" />
    <glyph glyph-name="uniFEE7" unicode="&#x646;" horiz-adv-x="643" arabic-form="initial" 
d="M242 242v598h276v-840h-518q-41 0 -61.5 21.5t-20.5 94.5t19.5 99.5t62.5 26.5h242zM283 1293q40 40 82.5 40t67 -10.5t43 -29.5t29.5 -44t11 -53q0 -56 -40.5 -96.5t-82.5 -40.5q-43 0 -67 11q-24 12 -43 30q-40 39 -40 96t40 97z" />
    <glyph glyph-name="uniFEE8" unicode="&#x646;" horiz-adv-x="706" arabic-form="medial" 
d="M706 0q-158 0 -227 109q-69 -95 -221 -106q-44 -3 -86 -3h-172q-41 0 -61.5 21.5t-20.5 94.5t19.5 99.5t62.5 26.5h127q74 0 101.5 23t27.5 100v475h276v-451q0 -82 36.5 -114.5t137.5 -32.5q40 0 61 -22t21 -93.5t-20 -99t-62 -27.5zM297 1293q40 40 82.5 40t67 -10.5
t43 -29.5t29.5 -44t11 -53q0 -56 -40.5 -96.5t-82.5 -40.5q-43 0 -67 11q-24 12 -43 30q-40 39 -40 96t40 97z" />
    <glyph glyph-name="uniFEE9" unicode="&#x647;" horiz-adv-x="1446" arabic-form="isolated" 
d="M906 450.5q0 -107.5 -38 -208.5h200v62q0 278 -212 340q50 -86 50 -193.5zM469 435.5q0 -46.5 8.5 -83t22.5 -61.5t32.5 -38.5t39.5 -13.5q43 0 73 53.5t30 121.5t-8.5 104.5t-22.5 62t-32.5 38.5t-39.5 13t-39.5 -13t-32.5 -38.5t-22.5 -62t-8.5 -83zM518 926
q408 0 604 -143q224 -163 224 -551v-232h-1064q-34 0 -38 -69q-2 -21 -3 -46h-172q-49 129 -49 190q0 106 74 142q51 25 147 25h39q-38 101 -38 217t72 244l-100 -4v211q124 16 304 16z" />
    <glyph glyph-name="uniFEEA" unicode="&#x647;" horiz-adv-x="1000" arabic-form="final" 
d="M439 152q-51 0 -95 6q-44 8 -88 24q-103 38 -169.5 124t-66.5 216q0 226 146 340q122 96 298 96h362v-630q0 -50 13.5 -68t57.5 -18h103q41 0 61.5 -21.5t20.5 -93.5t-19.5 -99.5t-62.5 -27.5h-124q-250 0 -303 170q-83 -18 -134 -18zM436 393q72 0 114 15v308h-106
q-75 0 -115.5 -47.5t-40.5 -119.5q0 -156 148 -156z" />
    <glyph glyph-name="uniFEEB" unicode="&#x647;" horiz-adv-x="1421" arabic-form="initial" 
d="M881 450.5q0 -107.5 -38 -208.5h200v62q0 278 -212 340q50 -86 50 -193.5zM444 435.5q0 -46.5 8.5 -83t22.5 -61.5t32.5 -38.5t39.5 -13.5q43 0 73 53.5t30 121.5t-8.5 104.5t-22.5 62t-32.5 38.5t-39.5 13t-39.5 -13t-32.5 -38.5t-22.5 -62t-8.5 -83zM217 459
q0 116 72 244l-100 -4v211q125 16 305 16q408 0 604 -143q224 -163 223 -551v-232h-1321q-41 0 -61.5 21.5t-20.5 94.5t19.5 99.5t62.5 26.5h255q-38 101 -38 217z" />
    <glyph glyph-name="uniFEEC" unicode="&#x647;" horiz-adv-x="1142" arabic-form="medial" 
d="M467 0v-22q-1 -124 89 -164q32 -14 82 -14.5t78 27t28 80.5t-76 81q-31 12 -80 12h-121zM1004 -122q0 -143 -92 -233t-264 -90q-217 0 -332 116.5t-115 297.5v31h-201q-41 0 -61.5 21.5t-20.5 94.5t19.5 99.5t62.5 26.5h201v107q0 259 111 398.5t304 139.5t292.5 -106
t99.5 -268.5t-75 -260.5v-10h209q41 0 62.5 -21.5t21.5 -93.5t-20.5 -99.5t-63.5 -27.5h-170q32 -53 32 -122zM467 242h66q102 0 155.5 74.5t53.5 157.5t-34.5 123t-83.5 40q-84 0 -120.5 -59.5t-36.5 -165.5v-170z" />
    <glyph glyph-name="uniFEEE" unicode="&#x648;" horiz-adv-x="1090" arabic-form="final" 
d="M676 406q0 235 -148.5 235t-148.5 -215q0 -96 42.5 -140t114.5 -44h140v164zM538 887q416 0 416 -547v-98h136q41 0 61.5 -21.5t20.5 -93.5t-19.5 -99.5t-62.5 -27.5h-149q-31 -218 -150 -320q-142 -123 -451 -123h-129v256h157q216 0 274 125q16 33 23 62h-131
q-306 0 -394 230q-32 82 -32 184q0 200 116 336.5t314 136.5z" />
    <glyph glyph-name="uniFEF0" unicode="&#x649;" horiz-adv-x="1540" arabic-form="final" 
d="M1522 -43q0 -257 -388 -339q-142 -30 -352 -30q-398 0 -580 142q-160 125 -161 368v287h276v-278q0 -209 258 -259q89 -18 223 -18q244 0 370 62q94 46 94 103q0 44 -231 122q-74 25 -168 54v252q97 -31 187 -63q343 -118 431 -118h59q39 0 60 -21t21 -93.5t-19.5 -100
t-61.5 -27.5h-25q7 -19 7 -43z" />
    <glyph glyph-name="uniFEF2" unicode="&#x64a;" horiz-adv-x="1540" arabic-form="final" 
d="M1522 -43q0 -257 -388 -339q-142 -30 -352 -30q-398 0 -580 142q-160 125 -161 368v287h276v-278q0 -209 258 -259q89 -18 223 -18q244 0 370 62q94 46 94 103q0 44 -231 122q-74 25 -168 54v252q97 -31 187 -63q343 -118 431 -118h59q39 0 60 -21t21 -93.5t-19.5 -100
t-61.5 -27.5h-25q7 -19 7 -43zM882 -518.5q39 40.5 82 40.5t68 -10.5t43.5 -29.5t29.5 -44t11 -53q0 -56 -40.5 -96.5t-83 -40.5t-66.5 11q-26 11 -44 29q-40 40 -39.5 96.5t39.5 97zM543 -518q40 40 82.5 40t67 -10.5t43 -29.5t29.5 -44t11 -53q0 -56 -40.5 -96.5
t-82.5 -40.5t-66.5 11t-43.5 29q-40 39 -40 96.5t40 97.5z" />
    <glyph glyph-name="uniFEF3" unicode="&#x64a;" horiz-adv-x="733" arabic-form="initial" 
d="M419 -206.5q39 40.5 82 40.5t68 -10.5t43.5 -29.5t29.5 -44t11 -53q0 -56 -40.5 -96.5t-83 -40.5t-67 11t-42.5 29q-40 40 -40 96.5t39 97zM80 -206q40 40 82.5 40t67 -10.5t43 -29.5t29.5 -44t11 -53q0 -56 -40.5 -96.5t-82.5 -40.5t-66.5 11t-43.5 29q-40 39 -40 96.5
t40 97.5zM0 0q-41 0 -61.5 21.5t-20.5 94.5t19.5 99.5t62.5 26.5h334v598h276v-840h-610z" />
    <glyph glyph-name="uniFEF4" unicode="&#x64a;" horiz-adv-x="756" arabic-form="medial" 
d="M493 -206.5q39 40.5 82 40.5t68 -10.5t43.5 -29.5t29.5 -44t11 -53q0 -56 -40.5 -96.5t-83 -40.5t-67 11t-42.5 29q-40 40 -40 96.5t39 97zM154 -206q40 40 82.5 40t67 -10.5t43 -29.5t29.5 -44t11 -53q0 -56 -40.5 -96.5t-82.5 -40.5t-66.5 11t-43.5 29q-40 39 -40 96.5
t40 97.5zM756 0q-173 0 -238 109q-64 -95 -220 -106q-44 -3 -85 -3h-213q-41 0 -61.5 21.5t-20.5 94.5t19.5 99.5t62.5 26.5h168q74 0 101.5 23t27.5 100v475h274v-451q0 -81 41 -114t144 -33q40 0 61 -22t21 -93.5t-20 -99t-62 -27.5z" />
    <glyph glyph-name=".notdef" horiz-adv-x="1049" 
d="M455 377h114v-137h-114v137zM525 1247q115 0 187 -74t72 -194q0 -82 -34 -136t-98 -112q-65 -58 -81 -94t-16 -158h-94l-4 40q1 65 9 111t46 96t73 81t65 71t30 102t-47 114t-111 51q-64 0 -109 -47.5t-57 -146.5l-102 16q14 138 85 209t186 71zM946 102v1264h-844v-1264
h844zM1049 1470v-1470h-1049v1470h1049z" />
    <glyph glyph-name=".null" 
 />
    <glyph glyph-name="nonmarkingreturn" unicode="&#xd;" horiz-adv-x="569" 
 />
    <glyph glyph-name="space" unicode=" " horiz-adv-x="569" 
 />
    <glyph glyph-name="exclam" unicode="!" horiz-adv-x="569" 
d="M446 315v-315h-321v315h321zM436 1462v-393l-80 -631h-145l-78 631v393h303z" />
    <glyph glyph-name="quotedbl" unicode="&#x22;" horiz-adv-x="948" 
d="M774 1462v-657h-219v657h219zM393 1462v-657h-219v657h219z" />
    <glyph glyph-name="numbersign" unicode="#" horiz-adv-x="1139" 
d="M498 844l-37 -254h198l35 254h-196zM1071 1028v-184h-178l-35 -254h152v-184h-179l-55 -406h-198l55 406h-197l-56 -400l-2 -6h-198l58 406h-170v184h194l37 254h-170v184h195l57 406h199l-58 -406h199l55 406h199l-55 -406h151z" />
    <glyph glyph-name="dollar" unicode="$" horiz-adv-x="1139" 
d="M850 402q0 80 -48 122q-49 41 -173 74v-393q97 11 159 64t62 133zM505 1257q-77 -1 -129 -47t-52 -118t44 -109.5t140 -58.5v333h-3zM508 1655h121v-158q208 -23 328 -133.5t133 -302.5h-291q-5 85 -53 140t-117 55v-361q216 -52 314 -113q98 -60 148 -146t50 -224
t-98 -262q-144 -163 -414 -185v-174h-121v174q-233 19 -359.5 144.5t-150.5 365.5h291v-7q0 -157 84.5 -205t134.5 -58v428q-23 8 -96 26q-179 43 -279 139.5t-100 273.5t131 293t344 132v158z" />
    <glyph glyph-name="percent" unicode="%" horiz-adv-x="2048" 
d="M1550 125q136 -1 136 245t-129 246q-72 0 -105 -58.5t-33 -191.5t33 -187t98 -54zM1559 770q335 0 335 -402q0 -185 -90 -291t-256 -106t-252 104.5t-86 292.5t92 295t257 107zM501 1309q-139 0 -139 -258q0 -136 34 -185t133.5 -49t99.5 246t-128 246zM492 664
q-338 0 -338 393q0 187 91 296t257 109t251 -107t85 -299t-90.5 -292t-255.5 -100zM1542 1479l-844 -1524h-178l848 1524h174z" />
    <glyph glyph-name="ampersand" unicode="&#x26;" horiz-adv-x="1403" 
d="M342 403q0 -77 63 -135q64 -57 155 -57q119 0 237 129l-250 305q-205 -86 -205 -242zM648 1284q-54 0 -92 -38t-38 -88t22 -94t93 -128q85 52 117 98t32 107q0 63 -40 103t-94 40zM66 409q0 269 327 425q-83 100 -111 170t-28 141q0 144 112 239t278 95q166 -1 280 -95
q112 -94 112 -256q0 -224 -260 -364l189 -232q40 78 53 175h252q-26 -216 -142 -361l297 -346h-356l-119 145q-174 -174 -395 -174q-221 -1 -355 119t-134 319z" />
    <glyph glyph-name="quotesingle" unicode="'" horiz-adv-x="569" 
d="M395 1462v-657h-219v657h219z" />
    <glyph glyph-name="parenleft" unicode="(" horiz-adv-x="606" 
d="M377 -373q-271 442 -271 928q0 234 70 491t201 451h244q-224 -419 -224 -928.5t221 -941.5h-241z" />
    <glyph glyph-name="parenright" unicode=")" horiz-adv-x="606" 
d="M209 561q0 507 -221 936h241q131 -213 201 -452q70 -240 70 -474t-70 -493t-200 -450h-244q223 426 223 933z" />
    <glyph glyph-name="asterisk" unicode="*" horiz-adv-x="834" 
d="M496 1462v-256l237 90l55 -157l-241 -80l151 -201l-135 -100l-151 211l-144 -211l-137 100l152 201l-238 80l55 157l232 -90v256h164z" />
    <glyph glyph-name="plus" unicode="+" horiz-adv-x="1229" 
d="M725 1034v-407h408v-219h-408v-408h-219v408h-408v219h408v407h219z" />
    <glyph glyph-name="comma" unicode="," horiz-adv-x="569" 
d="M446 315v-321q0 -117 -83 -212t-236 -122v147q67 17 107 69t39 110v14h-148v315h321z" />
    <glyph glyph-name="hyphen" unicode="-" horiz-adv-x="834" 
d="M725 684v-250h-616v250h616z" />
    <glyph glyph-name="period" unicode="." horiz-adv-x="569" 
d="M444 315v-315h-321v315h321z" />
    <glyph glyph-name="slash" unicode="/" horiz-adv-x="760" 
d="M782 1497l-571 -1532h-234l572 1532h233z" />
    <glyph glyph-name="zero" unicode="0" horiz-adv-x="1139" 
d="M566 1223q-232 1 -232 -471q0 -254 30 -354q57 -187 203 -187q115 1 177 113t61 392q0 280 -62 393.5t-177 113.5zM567 1462q257 0 393 -187t136 -555t-134.5 -558.5t-392.5 -190.5t-392 190.5t-134 556.5t133.5 555t390.5 189z" />
    <glyph glyph-name="one" unicode="1" horiz-adv-x="1139" 
d="M171 1149q358 0 400 285h232v-1434h-291v930h-360v219h19z" />
    <glyph glyph-name="two" unicode="2" horiz-adv-x="1139" 
d="M583 1462q223 0 363 -126t141 -322q-1 -138 -67 -250t-276 -243q-146 -93 -216 -153t-110 -118h678v-250h-1053q0 271 195 447q96 88 361 264q198 129 198 280q0 97 -59 159t-156 62q-161 0 -194 -126.5t-34 -202.5h-278v27q0 248 141 400q143 152 366 152z" />
    <glyph glyph-name="three" unicode="3" horiz-adv-x="1139" 
d="M554 1462q206 0 350 -113t143 -281q0 -168 -76 -224.5t-125 -71.5v-4q118 -28 186 -116t68 -210q0 -211 -154 -341t-387 -130q-233 1 -379 137t-145 369v17h276q7 -136 72 -209.5t175 -73.5q110 1 174 65t65 166q0 102 -64 154t-237 53h-31v205l49 -2q124 0 190 47
t66 133t-58 138t-150 53q-92 0 -153 -64.5t-63 -191.5h-276q6 227 142 361t342 134z" />
    <glyph glyph-name="four" unicode="4" horiz-adv-x="1139" 
d="M639 571v498h-6l-371 -498h377zM915 1434v-863h191v-239h-191v-332h-276v332h-606v266l622 836h260z" />
    <glyph glyph-name="five" unicode="5" horiz-adv-x="1139" 
d="M674 975q184 0 306 -137t122 -351t-153 -365t-379 -151t-377 121q-150 122 -156 334h291q11 -99 75 -157t165 -58q101 -1 172 81t71 198q-1 116 -69 191t-180 75q-77 0 -127 -28.5t-91 -86.5h-262l141 793h801v-240h-592l-57 -326l4 -4q111 111 295 111z" />
    <glyph glyph-name="six" unicode="6" horiz-adv-x="1139" 
d="M581 211q99 1 161 77t63 186q-1 110 -59 190t-162 79q-104 0 -168 -74q-62 -74 -62 -187t64 -192t163 -79zM606 1462q192 0 316 -106t149 -291h-276q-27 128 -93 153t-100 25q-118 1 -191 -117t-83 -319l4 -4q60 85 138 122.5t190 37.5t222 -65q110 -66 162 -174t52 -228
q0 -223 -143 -374t-359 -151q-270 0 -411 193q-140 194 -140 532q1 338 149 552t414 214z" />
    <glyph glyph-name="seven" unicode="7" horiz-adv-x="1139" 
d="M1059 1434v-250q-211 -190 -336 -522t-133 -662h-311q25 319 151 618t330 545h-680v271h979z" />
    <glyph glyph-name="eight" unicode="8" horiz-adv-x="1139" 
d="M571 662q-106 0 -179 -60t-73 -166t73.5 -176t179.5 -70t177 68q70 69 70 171q0 101 -71 167t-177 66zM574 1243q-102 -1 -162 -57t-60 -140t62 -138q62 -52 158 -52t155 51t59 139t-55 142.5t-157 54.5zM584 1462q212 0 340 -120t127 -266q0 -105 -52 -184t-157 -116v-4
q198 -48 233 -166t35 -184q0 -206 -155 -328t-387 -123q-232 0 -385.5 120t-153.5 329q0 137 70.5 229t199.5 123v4q-103 30 -157 108t-54 187q0 175 142 283t354 108z" />
    <glyph glyph-name="nine" unicode="9" horiz-adv-x="1139" 
d="M334 957q0 -113 59 -190t161 -77t166 73t64 189t-65 193.5t-163 77.5t-160 -76q-62 -77 -62 -190zM43 939q0 223 141 373t362 150q270 0 410 -194t140 -532t-150 -552t-414 -213q-186 1 -312 105t-152 293h276q16 -79 69 -129t124 -50q117 0 187.5 110t86.5 327l-4 4
q-113 -160 -323 -160q-119 0 -228 64t-162 172q-51 108 -51 232z" />
    <glyph glyph-name="colon" unicode=":" horiz-adv-x="569" 
d="M446 315v-315h-321v315h321zM446 1040v-315h-321v315h321z" />
    <glyph glyph-name="semicolon" unicode=";" horiz-adv-x="569" 
d="M446 315v-321q0 -117 -83 -212t-236 -122v147q67 17 107 69t39 110v14h-148v315h321zM446 1040v-315h-321v315h321z" />
    <glyph glyph-name="less" unicode="&#x3c;" horiz-adv-x="1229" 
d="M1135 817l-752 -299l752 -299v-236l-1041 414v242l1041 414v-236z" />
    <glyph glyph-name="equal" unicode="=" horiz-adv-x="1229" 
d="M1133 408v-220h-1035v220h1035zM1133 846v-219h-1035v219h1035z" />
    <glyph glyph-name="greater" unicode="&#x3e;" horiz-adv-x="1229" 
d="M94 1053l1041 -414v-242l-1041 -413v235l752 299l-752 299v236z" />
    <glyph glyph-name="question" unicode="?" horiz-adv-x="1139" 
d="M717 315v-315h-322v315h322zM752 1073q0 184 -174 184q-153 0 -182 -102t-29 -164h-301q6 227 142 367t366 139t364 -117t135 -289q-3 -92 -19 -139q-32 -96 -130 -179l-119 -87q-45 -39 -67 -71t-38 -98v-79h-276v92q7 103 51.5 182t134.5 148t116 112q26 44 26 101z
" />
    <glyph glyph-name="at" unicode="@" horiz-adv-x="1638" 
d="M848 954q-104 0 -178 -96t-74 -190t44 -146t116 -51q104 -1 178 97t74 212q0 70 -44 122t-116 52zM1164 453q91 1 166 111t75 265q0 230 -153 367q-154 137 -406 137q-252 -1 -414 -171t-162 -435t170 -431t434 -167q126 -1 243 43t198 125h172q-111 -166 -275 -249
t-350 -83q-328 0 -558 221t-230 544t230 545t534 222q306 0 516 -179t211 -446q0 -166 -74 -301t-195 -214q-122 -78 -200 -78t-117 31.5t-45 83.5h-4q-75 -118 -211 -118q-137 0 -235 104t-97 248q-1 208 129 364t317 157q76 0 141 -35t99 -108l33 110h168l-125 -512
q-21 -76 -21 -114q0 -37 36 -37z" />
    <glyph glyph-name="A" unicode="A" horiz-adv-x="1403" 
d="M700 1102l-190 -537h379l-184 537h-5zM870 1462l547 -1461h-334l-110 325h-547l-115 -326h-325l555 1462h329z" />
    <glyph glyph-name="B" unicode="B" horiz-adv-x="1442" 
d="M815 250q229 0 229 192q0 103 -57.5 156t-166.5 53h-357v-401h352zM985 1044q0 168 -213 168h-309v-342h331q86 0 138.5 44t52.5 130zM1366 424q0 -202 -146 -313t-361 -111h-718v1462h699q456 0 456 -361q0 -211 -198 -306q268 -80 268 -371z" />
    <glyph glyph-name="C" unicode="C" horiz-adv-x="1518" 
d="M797 1497q248 -1 424 -141t206 -385h-311q-21 114 -114 185q-94 71 -206 71q-188 1 -292 -137t-105 -360q0 -222 103 -358t295 -136q140 0 225.5 85t105.5 242h312q-29 -279 -203 -439t-440 -159q-211 0 -376 96q-163 97 -253 273t-90 391q0 336 197 554t522 218z" />
    <glyph glyph-name="D" unicode="D" horiz-adv-x="1518" 
d="M1114 728q0 464 -413 464h-238v-922h294q153 0 255 110q102 112 102 348zM782 1462q290 0 472 -190t182 -533t-177 -541t-477 -198h-641v1462h641z" />
    <glyph glyph-name="E" unicode="E" horiz-adv-x="1327" 
d="M1235 1462v-270h-772v-313h708v-250h-708v-359h788v-270h-1110v1462h1094z" />
    <glyph glyph-name="F" unicode="F" horiz-adv-x="1214" 
d="M1169 1462v-270h-706v-338h612v-250h-612v-604h-322v1462h1028z" />
    <glyph glyph-name="G" unicode="G" horiz-adv-x="1554" 
d="M796 -35q-209 1 -374 97t-255 272q-89 176 -89 391q0 337 196 555t522 217q238 1 414 -137t203 -379h-307q-31 124 -111.5 185t-197.5 61q-192 0 -295 -138q-103 -137 -103 -357q1 -220 103 -358t295 -138q318 0 348 315h-324v240h615v-791h-205l-33 165
q-158 -200 -402 -200z" />
    <glyph glyph-name="H" unicode="H" horiz-adv-x="1518" 
d="M463 1462v-561h592v561h321v-1462h-321v631h-592v-631h-322v1462h322z" />
    <glyph glyph-name="I" unicode="I" horiz-adv-x="604" 
d="M463 1462v-1462h-322v1462h322z" />
    <glyph glyph-name="J" unicode="J" horiz-adv-x="1139" 
d="M997 1462v-1011q0 -235 -122.5 -360.5t-349.5 -125.5t-362 120q-134 122 -134 325v135h290v-55q1 -146 47 -200t134 -54t133 45q43 46 43 182v999h321z" />
    <glyph glyph-name="K" unicode="K" horiz-adv-x="1479" 
d="M463 1462v-606l571 606h402l-572 -577l627 -885h-404l-440 657l-184 -186v-471h-322v1462h322z" />
    <glyph glyph-name="L" unicode="L" horiz-adv-x="1214" 
d="M463 1462v-1192h713v-270h-1035v1462h322z" />
    <glyph glyph-name="M" unicode="M" horiz-adv-x="1858" 
d="M1716 1462v-1462h-301v1036h-4l-358 -1036h-248l-359 1026h-4v-1026h-301v1462h453l342 -1005h4l323 1001l2 4h451z" />
    <glyph glyph-name="N" unicode="N" horiz-adv-x="1518" 
d="M1075 481v981h301v-1462h-321l-609 979h-4v-979h-301v1462h320l610 -981h4z" />
    <glyph glyph-name="O" unicode="O" horiz-adv-x="1593" 
d="M796 236q190 0 294 135t104 361t-106 360q-106 135 -292 135q-188 0 -292 -137q-104 -138 -105 -360q0 -222 103.5 -358t293.5 -136zM798 1497q324 -1 521 -219t197 -549t-198 -547t-521 -217q-213 -1 -377 97t-253 273t-89 390q0 337 197 555q199 217 523 217z" />
    <glyph glyph-name="P" unicode="P" horiz-adv-x="1366" 
d="M722 774q139 0 206 52t67 166t-65 167t-207 53h-260v-438h259zM811 1462q228 0 362 -128t134 -340t-134 -341t-362 -129h-348v-524h-322v1462h670z" />
    <glyph glyph-name="Q" unicode="Q" horiz-adv-x="1593" 
d="M1194 735q0 222 -105 357t-293 135t-292 -137q-104 -136 -105 -358t103 -362t332 -135q73 0 92 21l-138 125l150 160l166 -152q90 124 90 346zM78 734q0 328 197 546q199 217 523 217t521 -218t197 -547t-191 -546l182 -166l-149 -157l-207 188q-147 -86 -354 -86
q-330 0 -525 219q-194 222 -194 550z" />
    <glyph glyph-name="R" unicode="R" horiz-adv-x="1479" 
d="M822 801q214 0 214 209q0 105 -54 153.5t-160 48.5h-359v-411h359zM1358 1058q0 -272 -232 -366v-4q102 -27 158 -123q56 -95 60 -293t57 -272h-322q-29 70 -41 258t-70 251q-58 62 -176 62h-329v-571h-322v1462h797q176 0 298 -114t122 -290z" />
    <glyph glyph-name="S" unicode="S" horiz-adv-x="1329" 
d="M919 1026q-15 221 -265 221q-122 1 -183 -43q-62 -44 -62 -110q-1 -66 25 -94q26 -27 108 -57t357 -96q276 -66 328 -199t52 -214q0 -212 -159 -341q-160 -128 -442 -128t-456 136t-174 376v8h311q1 -135 90 -203t234 -67q203 0 244 69t41 113q0 133 -214 185t-346 93
t-222 135q-89 97 -89 245q0 198 157 320t406 122q250 0 410 -123t160 -348h-311z" />
    <glyph glyph-name="T" unicode="T" horiz-adv-x="1251" 
d="M1225 1462v-270h-439v-1192h-321v1192h-438v270h1198z" />
    <glyph glyph-name="U" unicode="U" horiz-adv-x="1518" 
d="M457 1462v-918q0 -158 72.5 -233t234.5 -75t230 74t67 233v919h321v-919q0 -272 -158 -425t-466 -153q-462 0 -542.5 220t-80.5 358v919h322z" />
    <glyph glyph-name="V" unicode="V" horiz-adv-x="1290" 
d="M315 1462l326 -1028h4l330 1028h332l-486 -1462h-362l-475 1462h331z" />
    <glyph glyph-name="W" unicode="W" horiz-adv-x="1933" 
d="M328 1462l231 -995h4l254 995h301l250 -1007h4l240 1007h315l-393 -1462h-320l-247 995h-4l-244 -995h-326l-387 1462h322z" />
    <glyph glyph-name="X" unicode="X" horiz-adv-x="1366" 
d="M401 1462l287 -467l297 467h352l-469 -698l510 -764h-383l-319 506l-326 -506h-362l512 766l-471 696h372z" />
    <glyph glyph-name="Y" unicode="Y" horiz-adv-x="1366" 
d="M842 0h-322v569l-538 893h362l342 -577l340 577h358l-542 -901v-561z" />
    <glyph glyph-name="Z" unicode="Z" horiz-adv-x="1327" 
d="M1260 1462v-254l-785 -938h805v-270h-1233v254l784 938h-722v270h1151z" />
    <glyph glyph-name="bracketleft" unicode="[" horiz-adv-x="682" 
d="M680 1497v-229h-250v-1411h250v-230h-541v1870h541z" />
    <glyph glyph-name="backslash" unicode="\" horiz-adv-x="760" 
d="M211 1497l571 -1532h-234l-572 1532h235z" />
    <glyph glyph-name="bracketright" unicode="]" horiz-adv-x="682" 
d="M543 1497v-1870h-541v230h250v1411h-250v229h541z" />
    <glyph glyph-name="asciicircum" unicode="^" horiz-adv-x="1229" 
d="M752 1434l352 -788h-240l-250 562l-249 -563h-240l352 789h275z" />
    <glyph glyph-name="underscore" unicode="_" horiz-adv-x="1024" 
d="M1024 -154v-102h-1024v102h1024z" />
    <glyph glyph-name="grave" unicode="`" horiz-adv-x="530" 
d="M222 1497l197 -291h-203l-315 291h321z" />
    <glyph glyph-name="a" unicode="a" horiz-adv-x="1176" 
d="M535 166q235 0 235 239v113q-26 -22 -70 -32t-148 -25q-104 -14 -150 -52.5t-46 -107.5q0 -135 179 -135zM66 286q0 150 92 230q92 78 299 100q208 22 260 46q53 25 53 94t-43 103t-139 34t-143.5 -38t-55.5 -122h-291q12 174 143 264t361 90t344.5 -77t114.5 -217v-568
q0 -162 37 -225h-295q-16 48 -21 101q-126 -130 -356 -130q-164 1 -262 83t-98 232z" />
    <glyph glyph-name="b" unicode="b" horiz-adv-x="1251" 
d="M887.5 527q-0.5 153 -65.5 247q-64 94 -180 94t-184 -92t-67 -246q0 -156 67 -248q66 -92 180 -92t182 92t67.5 245zM738 -29q-258 0 -347 164h-4v-135h-276v1462h290v-532h5q48 72 135 114.5t198 42.5q187 0 313 -150t126 -406t-126 -408t-314 -152z" />
    <glyph glyph-name="c" unicode="c" horiz-adv-x="1176" 
d="M618 1087q206 -1 346 -107t152 -294h-285q-26 182 -215 182q-118 0 -182 -96t-65 -248q0 -152 64 -243t169 -91q209 0 240 216h280q-30 -210 -164 -322t-358 -113t-374 151q-148 152 -148 400t146 407q147 158 394 158z" />
    <glyph glyph-name="d" unicode="d" horiz-adv-x="1251" 
d="M862 528q0 160 -63 250t-186 90t-190 -90t-67 -242t69 -250q69 -96 189 -96t184 89t64 249zM66 533q0 243 127 399t340 155q213 0 315 -157h4v532h291v-1462h-277v135h-4q-97 -164 -318 -164q-220 -1 -349 159t-129 403z" />
    <glyph glyph-name="e" unicode="e" horiz-adv-x="1176" 
d="M588 868q-104 0 -166 -59.5t-72 -165.5h473q-21 117 -76 171t-159 54zM600 -29q-244 1 -392 155t-149 397t151 403t388 161t378 -161q140 -162 140 -413l-2 -54h-764q12 -269 259 -269q79 0 146 40t85 98h256q-60 -181 -182 -269t-314 -88z" />
    <glyph glyph-name="f" unicode="f" horiz-adv-x="682" 
d="M528 1462q30 0 80 -3l74 -5v-217q-59 6 -113 6t-79 -26t-25 -109v-49h201v-195h-201v-864h-291v864h-174v195h174v73q0 164 95 247q97 83 259 83z" />
    <glyph glyph-name="g" unicode="g" horiz-adv-x="1251" 
d="M369 567q0 -229 89.5 -273t145.5 -44q116 0 182 84t66 224q0 142 -62.5 226t-178.5 84t-179 -82t-63 -219zM852 48v147h-4q-43 -78 -126 -121t-192 -43q-216 1 -334 143t-118 378t124 386t337 149q213 0 309 -169h4v141h276v-1000q0 -213 -135 -337t-412 -123
q-188 0 -321 89t-147 251h288q37 -146 217 -146q112 0 173 67t61 188z" />
    <glyph glyph-name="h" unicode="h" horiz-adv-x="1214" 
d="M401 1462v-551h7q46 79 130 127t184 49q197 0 289.5 -102.5t92.5 -322.5v-662h-291v607q0 124 -42.5 187.5t-153.5 63.5t-163.5 -71.5t-52.5 -221.5v-565h-290v1462h290z" />
    <glyph glyph-name="i" unicode="i" horiz-adv-x="528" 
d="M410 1059v-1059h-291v1059h291zM410 1462v-239h-291v239h291z" />
    <glyph glyph-name="j" unicode="j" horiz-adv-x="569" 
d="M24 -133q113 0 113 90v1102h291v-1121q0 -166 -82 -238t-289 -73q-46 0 -96 8v240q21 -8 63 -8zM428 1462v-239h-291v239h291z" />
    <glyph glyph-name="k" unicode="k" horiz-adv-x="1176" 
d="M428 1462v-784l367 381h344l-400 -389l445 -670h-353l-290 473l-113 -108v-365h-291v1462h291z" />
    <glyph glyph-name="l" unicode="l" horiz-adv-x="528" 
d="M410 1462v-1462h-291v1462h291z" />
    <glyph glyph-name="m" unicode="m" horiz-adv-x="1855" 
d="M721 1087q232 0 309 -176q124 176 321 176q285 0 335.5 -141t50.5 -228v-718h-291v612q0 146 -42 196t-136 50q-195 0 -195 -259v-599h-291v652q0 105 -40 155.5t-129 50.5t-146 -64t-57 -173v-621h-291v1059h274v-144h4q123 172 324 172z" />
    <glyph glyph-name="n" unicode="n" horiz-adv-x="1214" 
d="M713 1087q207 0 299 -103t92 -322v-662h-291v607q0 124 -42.5 187.5t-153.5 63.5t-163.5 -71.5t-52.5 -221.5v-565h-290v1059h276v-148h6q112 176 320 176z" />
    <glyph glyph-name="o" unicode="o" horiz-adv-x="1251" 
d="M369 530q0 -170 68.5 -255t190.5 -85t188.5 88t66.5 250q0 246 -97.5 293t-162.5 47q-117 0 -185.5 -84t-68.5 -254zM624 1087q250 1 400 -153t150 -406t-152 -404.5t-398 -152.5t-396 153t-150 404t148 405t398 154z" />
    <glyph glyph-name="p" unicode="p" horiz-adv-x="1251" 
d="M391 532q0 -158 65.5 -250t187.5 -92t187.5 88t65.5 244t-64.5 251t-188.5 95t-188.5 -89t-64.5 -247zM712 1087q220 0 348 -158t128 -402t-126 -400t-339 -156q-97 0 -181 41t-136 119h-5v-504h-290v1432h276v-135h4q101 163 321 163z" />
    <glyph glyph-name="q" unicode="q" horiz-adv-x="1251" 
d="M862 520q0 154 -64 251t-186 97t-190 -94q-66 -94 -66 -249q0 -156 67 -245.5t187 -89.5q121 0 186.5 88t65.5 242zM547 1087q224 0 315 -163h4v135h277v-1432h-291v506h-4q-71 -118 -175.5 -140t-158.5 -22q-185 0 -317 144q-131 145 -131 399t128 414q129 159 353 159z
" />
    <glyph glyph-name="r" unicode="r" horiz-adv-x="797" 
d="M689 817q-148 1 -218 -89t-70 -242v-486h-290v1059h276v-197h4q47 105 137 165t200 60q38 0 65 -10v-270q-50 10 -104 10z" />
    <glyph glyph-name="s" unicode="s" horiz-adv-x="1100" 
d="M536 893q-161 0 -161 -98q1 -49 51 -81t203 -60q243 -46 327 -120t84 -195q0 -180 -131 -274t-351 -94t-356 93q-134 95 -143 280h277q0 -86 64 -132t159 -46q133 0 162 52t29 83q0 55 -72 91t-207 63q-134 27 -260.5 75.5t-126.5 217.5t119 254t339 85q438 0 470 -337
h-277q-6 75 -55.5 109t-143.5 34z" />
    <glyph glyph-name="t" unicode="t" horiz-adv-x="721" 
d="M524 -12q-190 0 -263 64t-73 181v631h-176v195h176v317h291v-317h213v-195h-213v-531q1 -66 25 -91t86 -25t102 8v-227q-60 -10 -168 -10z" />
    <glyph glyph-name="u" unicode="u" horiz-adv-x="1214" 
d="M821 147q-109 -176 -351 -176q-74 0 -216.5 48.5t-142.5 376.5v663h290v-607q0 -189 68 -220t119 -31q120 0 172.5 72.5t52.5 220.5v565h291v-1059h-277v147h-6z" />
    <glyph glyph-name="v" unicode="v" horiz-adv-x="1065" 
d="M315 1059l224 -723h4l223 723h289l-359 -1059h-323l-363 1059h305z" />
    <glyph glyph-name="w" unicode="w" horiz-adv-x="1667" 
d="M319 1059l195 -719h4l176 719h283l180 -717h4l195 717h299l-335 -1059h-298l-188 711h-5l-180 -711h-301l-336 1059h307z" />
    <glyph glyph-name="x" unicode="x" horiz-adv-x="1100" 
d="M365 1059l186 -277l184 277h322l-348 -496l391 -563h-332l-221 334l-221 -334h-326l381 557l-348 502h332z" />
    <glyph glyph-name="y" unicode="y" horiz-adv-x="1063" 
d="M243 -133q63 0 96.5 38t33.5 84t-13 77l-373 993h312l240 -725h4l231 725h301l-450 -1212q-83 -220 -338 -220q-112 0 -196 11v239q89 -10 152 -10z" />
    <glyph glyph-name="z" unicode="z" horiz-adv-x="1063" 
d="M979 1059v-219l-551 -621h590v-219h-973v219l551 621h-510v219h893z" />
    <glyph glyph-name="braceleft" unicode="{" horiz-adv-x="948" 
d="M700 1120h136v-315h-291v327q0 123 80 218q81 94 211 112v-135q-75 -24 -105.5 -75t-30.5 -132zM264 1120h135v-315h-290v328q0 123 80 216t210 113v-135q-70 -24 -102.5 -72t-32.5 -135z" />
    <glyph glyph-name="bar" unicode="|" horiz-adv-x="457" 
d="M338 1610v-2048h-219v2048h219z" />
    <glyph glyph-name="braceright" unicode="}" horiz-adv-x="948" 
d="M838 1462v-322q0 -128 -80 -222t-211 -113v135q70 24 102.5 72t32.5 135h-135v315h291zM401 1462v-332q1 -117 -79 -211t-211 -114v135q70 24 102.5 72t32.5 135h-135v315h290z" />
    <glyph glyph-name="asciitilde" unicode="~" horiz-adv-x="1229" 
d="M393 696q89 0 189.5 -47t150.5 -69q49 -22 93 -23q44 1 84 29t100 119l82 -191q-74 -104 -132 -140t-138 -36t-212 70q-134 70 -218 69q-105 0 -173 -147l-82 190q95 176 256 176z" />
    <glyph glyph-name="exclamdown" unicode="&#xa1;" horiz-adv-x="569" 
d="M436 -375h-303v393l80 631h145l78 -631v-393zM446 1087v-315h-321v315h321z" />
    <glyph glyph-name="cent" unicode="&#xa2;" horiz-adv-x="1139" 
d="M334 536q0 -134 50.5 -223t147.5 -123v676q-97 -27 -147.5 -111.5t-50.5 -218.5zM531 1262h122v-175q183 -1 315 -114t144 -289h-285v2q-5 70 -55 122t-119 60v-678q78 16 128 82t50 144h285q-18 -194 -142 -310t-321 -135v-207h-121v207q-223 16 -356 170.5t-133 380.5
q1 226 127 384t361 181v175z" />
    <glyph glyph-name="sterling" unicode="&#xa3;" horiz-adv-x="1139" 
d="M285 496q0 48 -39 137h-203v174h131q-40 50 -66 129t-26 154q0 177 142 292t379 115q237 1 369 -131t132 -381h-277q-12 272 -223 272q-91 1 -146 -51t-55 -126q1 -74 17 -128t66 -144h274v-175h-215q16 -54 16 -134q0 -149 -168 -280l4 -4q69 39 94.5 43t55.5 4
q71 0 158 -24q87 -23 137 -23q78 0 116 22t80 66l123 -207q-131 -131 -321 -131q-136 0 -228 39t-214 39q-123 0 -218 -78l-127 191q114 70 173 159.5t59 180.5z" />
    <glyph glyph-name="currency" unicode="&#xa4;" horiz-adv-x="1139" 
d="M313 716q0 -124 71 -207q72 -81 186 -81t183 82q68 82 68 206q1 124 -67 208q-68 82 -182 82t-186.5 -83t-72.5 -207zM1075 718q0 -191 -94 -298l113 -115l-113 -112l-117 118q-109 -102 -297 -102t-296 100l-115 -119l-115 115l117 119q-99 116 -99 302q0 185 99 284
l-117 118l117 117l116 -115q50 43 134 69t162 26t154.5 -24t129.5 -68l119 116l125 -125l-115 -112q92 -103 92 -294z" />
    <glyph glyph-name="yen" unicode="&#xa5;" horiz-adv-x="1139" 
d="M1059 825v-194h-293l-31 -60v-94h324v-194h-324v-283h-311v283h-322v194h322v94l-29 60h-293v194h195l-315 637h333l271 -637l264 637h332l-318 -637h195z" />
    <glyph glyph-name="brokenbar" unicode="&#xa6;" horiz-adv-x="457" 
d="M338 330v-512h-219v512h219zM338 1354v-512h-219v512h219z" />
    <glyph glyph-name="section" unicode="&#xa7;" horiz-adv-x="1139" 
d="M371 799q-25 0 -61 -44q-36 -43 -36 -81q0 -76 67 -114l351 -191q94 -51 143 14q29 38 29 75q0 79 -93 131l-358 202q-16 8 -42 8zM727 -20q0 66 -59 116t-265 141q-207 91 -295 186t-88 208q0 230 220 305q-48 52 -68 99t-20 108q0 157 126 255t307 99q180 0 302 -104
t125 -291h-254q0 78 -48 127t-118 49t-117 -38t-47 -93q0 -82 96.5 -135t176.5 -88q253 -112 335 -204t82 -203t-60 -191t-153 -113q113 -83 113 -240q0 -156 -130 -251t-328 -95q-197 0 -318 103q-120 103 -120 295h253q8 -179 199 -179q66 0 109.5 34t43.5 100z" />
    <glyph glyph-name="dieresis" unicode="&#xa8;" horiz-adv-x="530" 
d="M614 1464v-239h-276v239h276zM193 1464v-239h-277v239h277z" />
    <glyph glyph-name="copyright" unicode="&#xa9;" horiz-adv-x="1638" 
d="M844 1194q150 0 250 -86t120 -231h-159q-19 75 -76 114t-135 39q-112 0 -176 -78t-64 -208t70 -215t162 -85t149 41t70 119h166q-29 -156 -132 -240t-241 -83q-194 1 -317 129t-123 331t121 328t315 125zM242 731q0 -256 167 -429t411 -173t410 174q167 175 167 427
t-165 428q-164 176 -410 175q-246 0 -413 -173t-167 -429zM33 731q0 333 230 549q229 216 557 217t557 -217t229 -549t-229 -549t-555 -217t-558 217q-231 216 -231 549z" />
    <glyph glyph-name="ordfeminine" unicode="&#xaa;" horiz-adv-x="705" 
d="M230 956.5q0 -55.5 108 -55.5q58 0 95.5 35.5t37.5 124.5v35q-23 -19 -100 -31q-77 -13 -109 -33t-32 -75.5zM360 1462q161 0 234.5 -48t73.5 -129v-354q0 -93 24 -145h-207q-10 34 -14 63q-81 -81 -207 -81t-185 55t-59 149t63 144q64 49 241 64q93 8 121 22t28 42
q0 49 -26 67t-83 18q-107 0 -114 -90h-209q32 223 319 223z" />
    <glyph glyph-name="guillemotleft" unicode="&#xab;" horiz-adv-x="909" 
d="M823 948v-246l-184 -145l184 -147v-246l-321 256v276zM408 948v-246l-185 -145l185 -147v-246l-322 256v276z" />
    <glyph glyph-name="logicalnot" unicode="&#xac;" horiz-adv-x="1229" 
d="M1114 831v-628h-219v409h-813v219h1032z" />
    <glyph glyph-name="registered" unicode="&#xae;" horiz-adv-x="1638" 
d="M845 805q87 0 123 28.5t36 84.5q0 112 -170 112h-150v-225h161zM1174 909q0 -207 -225 -229l229 -375h-179l-208 367h-107v-367h-170v858h334q162 0 244 -61t82 -193zM821 1333q-247 -1 -413 -173t-166 -428t166 -430q166 -173 410 -173q244 1 412 175t167 428
q0 254 -165 427.5t-411 173.5zM33.5 733q0.5 333 230.5 549t558 215q328 0 556 -218q228 -217 228 -547t-230 -548t-556 -219t-557 217q-230 218 -229.5 551z" />
    <glyph glyph-name="macron" unicode="&#xaf;" horiz-adv-x="530" 
d="M627 1421v-153h-723v153h723z" />
    <glyph glyph-name="degree" unicode="&#xb0;" horiz-adv-x="819" 
d="M240 1160q0 -71 51 -126t117 -55t120 54q52 55 52 127t-52 126q-52 53 -118 53q-68 0 -119 -54t-51 -125zM106 1160q0 122 88 212t215 90t215 -88t88 -215t-88 -215t-216 -88t-215 91t-87 213z" />
    <glyph glyph-name="plusminus" unicode="&#xb1;" horiz-adv-x="1229" 
d="M1133 219v-219h-1035v219h1035zM725 1036v-268h408v-219h-408v-268h-219v268h-408v219h408v268h219z" />
    <glyph glyph-name="twosuperior" unicode="&#xb2;" horiz-adv-x="799" 
d="M420 1698q222 0 266.5 -100t44.5 -171q0 -137 -166 -242q-42 -26 -83 -51.5t-84 -51.5q-84 -52 -95 -105h422v-164h-657v6q0 137 44 221t152 152l158 98q54 33 78 66.5t24 79.5t-29 75t-85 29q-116 0 -123 -156h-205q0 146 91 230t247 84z" />
    <glyph glyph-name="threesuperior" unicode="&#xb3;" horiz-adv-x="799" 
d="M570 1286q169 -32 169 -231q0 -105 -98 -183q-97 -78 -251 -77q-154 0 -245 75q-90 75 -90 209h197q16 -123 114 -123t139.5 33.5t41.5 76.5q0 75 -37 104.5t-133 29.5h-45v141h55q58 0 93.5 26.5t35.5 74.5t-32.5 74t-86.5 26q-127 0 -127 -135h-194q8 143 96 217
t229 74q142 0 223 -64t81 -168q0 -63 -35.5 -110t-99.5 -70z" />
    <glyph glyph-name="acute" unicode="&#xb4;" horiz-adv-x="530" 
d="M629 1497l-316 -291h-202l196 291h322z" />
    <glyph glyph-name="paragraph" unicode="&#xb6;" horiz-adv-x="1270" 
d="M4 1090q0 372 487 372h605v-1802h-209v1638h-225v-1638h-209v1071q-218 2 -334 98q-115 97 -115 261z" />
    <glyph glyph-name="periodcentered" unicode="&#xb7;" horiz-adv-x="569" 
d="M459 590q1 -68 -51 -121t-121 -53t-121 50t-53 121t51 123t122 52t121.5 -52t51.5 -120z" />
    <glyph glyph-name="cedilla" unicode="&#xb8;" horiz-adv-x="530" 
d="M214 -338q108 0 108 50.5t-24.5 68.5t-63.5 18t-76 -16l-43 49l121 168h100l-80 -106l4 -5q33 15 97 15t112.5 -42t48.5 -124t-66.5 -132t-166.5 -50q-155 0 -260 45l43 98q86 -37 146 -37z" />
    <glyph glyph-name="onesuperior" unicode="&#xb9;" horiz-adv-x="799" 
d="M551 1679v-866h-209v549h-225v147h20q128 0 179 43t63 127h172z" />
    <glyph glyph-name="ordmasculine" unicode="&#xba;" horiz-adv-x="752" 
d="M244 1116q0 -82 34 -138t96 -56t98 56t36 135.5t-34 137.5t-97 58q-62 0 -98 -55q-35 -56 -35 -138zM375 1462q162 0 257 -95t95 -253q1 -158 -95 -252t-258 -94t-255.5 93t-93.5 253t94 254t256 94z" />
    <glyph glyph-name="guillemotright" unicode="&#xbb;" horiz-adv-x="909" 
d="M502 948l321 -252v-276l-321 -256v246l184 147l-184 145v246zM408 696v-276l-322 -256v246l184 147l-184 145v246z" />
    <glyph glyph-name="onequarter" unicode="&#xbc;" horiz-adv-x="1708" 
d="M1305 326v315l-232 -315h232zM1501 866v-540h117v-156h-117v-170h-196v170h-385v172l395 524h186zM506 1440v-867h-209v549h-225v148h27q87 0 129 18q88 38 106 152h172zM1329 1479l-844 -1524h-178l848 1524h174z" />
    <glyph glyph-name="onehalf" unicode="&#xbd;" horiz-adv-x="1708" 
d="M1313 727q-123 0 -131 -156h-205q-1 143 91 229t247 85q222 0 266.5 -100t44.5 -173t-46 -134t-149 -125l-130 -80q-93 -54 -103 -109h422v-164h-657v6q0 144 48 228t162 154l145 90q52 32 76.5 64.5t24.5 78.5t-28.5 76t-77.5 30zM506 1440v-867h-209v549h-225v148h27
q87 0 129 18q88 38 106 152h172zM1288 1479l-844 -1524h-178l848 1524h174z" />
    <glyph glyph-name="threequarters" unicode="&#xbe;" horiz-adv-x="1708" 
d="M1366 326v315l-231 -315h231zM1563 866v-540h116v-156h-116v-170h-197v170h-385v172l395 524h187zM418 1303q-127 0 -127 -136h-195q6 138 94 214.5t230 76.5t224 -63t81 -168q0 -64 -36 -111t-99 -69q170 -35 170 -218q0 -121 -98 -197t-254 -77q-156 1 -244 77t-88 208
h196q18 -123 146 -123q69 0 109 32t40 76q0 77 -37 106.5t-132 29.5h-46v141h55q64 0 97 28.5t33 72.5t-31 72t-88 28zM1474 1479l-844 -1524h-178l847 1524h175z" />
    <glyph glyph-name="questiondown" unicode="&#xbf;" horiz-adv-x="1139" 
d="M387 28q0 -190 174 -190q97 0 151 69.5t56 196.5h301q-9 -232 -145 -368t-364 -137q-226 -1 -360 117t-134 279q0 114 40 197t156 166t146 131t30 110v58h277v-92q-11 -107 -53 -183t-133 -146q-92 -70 -117 -113q-25 -44 -25 -95zM743 1087v-315h-321v315h321z" />
    <glyph glyph-name="Agrave" unicode="&#xc0;" horiz-adv-x="1403" 
d="M700 1102l-190 -537h379l-184 537h-5zM870 1462l547 -1461h-334l-110 325h-547l-115 -326h-325l555 1462h329zM644 1886l197 -291h-203l-315 291h321z" />
    <glyph glyph-name="Aacute" unicode="&#xc1;" horiz-adv-x="1403" 
d="M700 1102l-190 -537h379l-184 537h-5zM870 1462l547 -1461h-334l-110 325h-547l-115 -326h-325l555 1462h329zM1082 1886l-316 -291h-202l196 291h322z" />
    <glyph glyph-name="Acircumflex" unicode="&#xc2;" horiz-adv-x="1403" 
d="M700 1102l-190 -537h379l-184 537h-5zM870 1462l547 -1461h-334l-110 325h-547l-115 -326h-325l555 1462h329zM839 1886l226 -291h-236l-126 165h-2l-130 -165h-225l227 291h266z" />
    <glyph glyph-name="Atilde" unicode="&#xc3;" horiz-adv-x="1403" 
d="M700 1102l-190 -537h379l-184 537h-5zM870 1462l547 -1461h-334l-110 325h-547l-115 -326h-325l555 1462h329zM549 1702q-67 0 -93 -86h-129q16 114 83.5 182t143.5 68t168 -36t138 -36q70 0 88 72h131q-46 -234 -229 -234q-69 0 -162 35t-139 35z" />
    <glyph glyph-name="Adieresis" unicode="&#xc4;" horiz-adv-x="1403" 
d="M700 1102l-190 -537h379l-184 537h-5zM870 1462l547 -1461h-334l-110 325h-547l-115 -326h-325l555 1462h329zM1052 1853v-239h-276v239h276zM631 1853v-239h-277v239h277z" />
    <glyph glyph-name="Aring" unicode="&#xc5;" horiz-adv-x="1403" 
d="M700 1102l-190 -537h379l-184 537h-5zM870 1462l547 -1461h-334l-110 325h-547l-115 -326h-325l555 1462h329zM614.5 1666q35.5 -36 91.5 -36t89.5 36t33.5 93t-34.5 93t-76.5 36t-64.5 -9.5t-48.5 -36.5t-26 -83.5t35.5 -92.5zM465 1758q1 100 71 168t170 67t169 -69
t69 -164t-69 -166q-71 -68 -171 -68t-170 66q-69 66 -69 166z" />
    <glyph glyph-name="AE" unicode="&#xc6;" horiz-adv-x="2009" 
d="M926 565v627h-70l-283 -627h353zM1917 1462v-270h-680v-313h639v-250h-639v-359h696v-270h-1007v326h-459l-148 -326h-342l699 1462h1241z" />
    <glyph glyph-name="Ccedilla" unicode="&#xc7;" horiz-adv-x="1518" 
d="M726 -201q-37 0 -79 -16l-43 49l97 139q-291 36 -458 245q-165 210 -165 528t196 536t523 217q248 -1 424 -141t206 -385h-311q-21 114 -114 185q-94 71 -206 71q-188 1 -292 -137t-105 -360q0 -222 103 -358t295 -136q140 0 225.5 85t105.5 242h312q-27 -277 -198 -435
t-443 -163l-54 -71l5 -5q33 15 98 15t112.5 -42.5t47.5 -124.5t-68 -131.5t-188 -49.5t-238 45l43 98q89 -37 147 -37q107 0 107 70q0 31 -24 49t-61 18z" />
    <glyph glyph-name="Egrave" unicode="&#xc8;" horiz-adv-x="1327" 
d="M1235 1462v-270h-772v-313h708v-250h-708v-359h788v-270h-1110v1462h1094zM601 1886l197 -291h-203l-315 291h321z" />
    <glyph glyph-name="Eacute" unicode="&#xc9;" horiz-adv-x="1327" 
d="M1235 1462v-270h-772v-313h708v-250h-708v-359h788v-270h-1110v1462h1094zM1077 1886l-316 -291h-202l196 291h322z" />
    <glyph glyph-name="Ecircumflex" unicode="&#xca;" horiz-adv-x="1327" 
d="M1235 1462v-270h-772v-313h708v-250h-708v-359h788v-270h-1110v1462h1094zM815 1886l226 -291h-236l-126 165h-2l-130 -165h-225l227 291h266z" />
    <glyph glyph-name="Edieresis" unicode="&#xcb;" horiz-adv-x="1327" 
d="M1235 1462v-270h-772v-313h708v-250h-708v-359h788v-270h-1110v1462h1094zM1028 1853v-239h-276v239h276zM607 1853v-239h-277v239h277z" />
    <glyph glyph-name="Igrave" unicode="&#xcc;" horiz-adv-x="604" 
d="M463 1462v-1462h-322v1462h322zM247 1886l197 -291h-203l-315 291h321z" />
    <glyph glyph-name="Iacute" unicode="&#xcd;" horiz-adv-x="604" 
d="M463 1462v-1462h-322v1462h322zM672 1886l-316 -291h-202l196 291h322z" />
    <glyph glyph-name="Icircumflex" unicode="&#xce;" horiz-adv-x="604" 
d="M463 1462v-1462h-322v1462h322zM436 1886l226 -291h-236l-126 165h-2l-130 -165h-225l227 291h266z" />
    <glyph glyph-name="Idieresis" unicode="&#xcf;" horiz-adv-x="604" 
d="M463 1462v-1462h-322v1462h322zM649 1853v-239h-276v239h276zM228 1853v-239h-277v239h277z" />
    <glyph glyph-name="Eth" unicode="&#xd0;" horiz-adv-x="1518" 
d="M1114 727q0 465 -413 465h-238v-336h328v-203h-328v-383h297q153 0 254 110q100 110 100 347zM784 1462q288 0 470 -190t182 -532.5t-175 -541.5q-176 -198 -485 -198h-635v655h-149v201h149v606h643z" />
    <glyph glyph-name="Ntilde" unicode="&#xd1;" horiz-adv-x="1518" 
d="M1075 481v981h301v-1462h-321l-609 979h-4v-979h-301v1462h320l610 -981h4zM594 1702q-67 0 -93 -86h-129q16 114 84 182t144 68t167 -36q92 -36 138 -36q70 0 88 72h131q-46 -234 -229 -234q-69 0 -162 35t-139 35z" />
    <glyph glyph-name="Ograve" unicode="&#xd2;" horiz-adv-x="1593" 
d="M796 236q190 0 294 135t104 361t-106 360q-106 135 -292 135q-188 0 -292 -137q-104 -138 -105 -360q0 -222 103.5 -358t293.5 -136zM798 1497q324 -1 521 -219t197 -549t-198 -547t-521 -217q-213 -1 -377 97t-253 273t-89 390q0 337 197 555q199 217 523 217zM718 1886
l197 -291h-203l-315 291h321z" />
    <glyph glyph-name="Oacute" unicode="&#xd3;" horiz-adv-x="1593" 
d="M796 236q190 0 294 135t104 361t-106 360q-106 135 -292 135q-188 0 -292 -137q-104 -138 -105 -360q0 -222 103.5 -358t293.5 -136zM798 1497q324 -1 521 -219t197 -549t-198 -547t-521 -217q-213 -1 -377 97t-253 273t-89 390q0 337 197 555q199 217 523 217z
M1196 1886l-316 -291h-202l196 291h322z" />
    <glyph glyph-name="Ocircumflex" unicode="&#xd4;" horiz-adv-x="1593" 
d="M796 236q190 0 294 135t104 361t-106 360q-106 135 -292 135q-188 0 -292 -137q-104 -138 -105 -360q0 -222 103.5 -358t293.5 -136zM798 1497q324 -1 521 -219t197 -549t-198 -547t-521 -217q-213 -1 -377 97t-253 273t-89 390q0 337 197 555q199 217 523 217zM934 1886
l226 -291h-236l-126 165h-2l-130 -165h-225l227 291h266z" />
    <glyph glyph-name="Otilde" unicode="&#xd5;" horiz-adv-x="1593" 
d="M796 236q190 0 294 135t104 361t-106 360q-106 135 -292 135q-188 0 -292 -137q-104 -138 -105 -360q0 -222 103.5 -358t293.5 -136zM798 1497q324 -1 521 -219t197 -549t-198 -547t-521 -217q-213 -1 -377 97t-253 273t-89 390q0 337 197 555q199 217 523 217zM643 1702
q-67 0 -93 -86h-129q16 114 83.5 182t143.5 68t168 -36t138 -36q70 0 88 72h131q-46 -234 -229 -234q-69 0 -162 35t-139 35z" />
    <glyph glyph-name="Odieresis" unicode="&#xd6;" horiz-adv-x="1593" 
d="M796 236q190 0 294 135t104 361t-106 360q-106 135 -292 135q-188 0 -292 -137q-104 -138 -105 -360q0 -222 103.5 -358t293.5 -136zM798 1497q324 -1 521 -219t197 -549t-198 -547t-521 -217q-213 -1 -377 97t-253 273t-89 390q0 337 197 555q199 217 523 217z
M1146 1853v-239h-276v239h276zM725 1853v-239h-277v239h277z" />
    <glyph glyph-name="multiply" unicode="&#xd7;" horiz-adv-x="1229" 
d="M290 1001l325 -327l328 327l156 -155l-330 -328l330 -328l-156 -155l-328 330l-329 -330l-156 155l330 328l-326 328z" />
    <glyph glyph-name="Oslash" unicode="&#xd8;" horiz-adv-x="1593" 
d="M1194 725q0 151 -55 279l-604 -668q96 -100 273 -100q178 0 282 135t104 354zM399 725q0 -164 58 -276l605 672q-104 106 -279 106t-279 -137t-105 -365zM1516 716q0 -318 -198 -534t-521 -217q-269 0 -456 156l-171 -189l-100 88l176 195q-168 198 -168 522
q0 325 197 543q198 217 522 217q278 0 460 -158l164 183l103 -90l-171 -190h-2q165 -208 165 -526z" />
    <glyph glyph-name="Ugrave" unicode="&#xd9;" horiz-adv-x="1518" 
d="M457 1462v-918q0 -158 72.5 -233t234.5 -75t230 74t67 233v919h321v-919q0 -272 -158 -425t-466 -153q-462 0 -542.5 220t-80.5 358v919h322zM679 1886l197 -291h-203l-315 291h321z" />
    <glyph glyph-name="Uacute" unicode="&#xda;" horiz-adv-x="1518" 
d="M457 1462v-918q0 -158 72.5 -233t234.5 -75t230 74t67 233v919h321v-919q0 -272 -158 -425t-466 -153q-462 0 -542.5 220t-80.5 358v919h322zM1157 1886l-316 -291h-202l196 291h322z" />
    <glyph glyph-name="Ucircumflex" unicode="&#xdb;" horiz-adv-x="1518" 
d="M457 1462v-918q0 -158 72.5 -233t234.5 -75t230 74t67 233v919h321v-919q0 -272 -158 -425t-466 -153q-462 0 -542.5 220t-80.5 358v919h322zM895 1886l226 -291h-236l-126 165h-2l-130 -165h-225l227 291h266z" />
    <glyph glyph-name="Udieresis" unicode="&#xdc;" horiz-adv-x="1518" 
d="M457 1462v-918q0 -158 72.5 -233t234.5 -75t230 74t67 233v919h321v-919q0 -272 -158 -425t-466 -153q-462 0 -542.5 220t-80.5 358v919h322zM1108 1853v-239h-276v239h276zM687 1853v-239h-277v239h277z" />
    <glyph glyph-name="Yacute" unicode="&#xdd;" horiz-adv-x="1366" 
d="M842 0h-322v569l-538 893h362l342 -577l340 577h358l-542 -901v-561zM1088 1886l-316 -291h-202l196 291h322z" />
    <glyph glyph-name="Thorn" unicode="&#xde;" horiz-adv-x="1366" 
d="M722 575q139 0 206 52.5t67 167.5t-67.5 167t-205.5 52h-259v-439h259zM463 1462v-198h348q229 0 363 -130t133 -340t-133 -339t-363 -129h-348v-326h-322v1462h322z" />
    <glyph glyph-name="germandbls" unicode="&#xdf;" horiz-adv-x="1251" 
d="M115 1016q0 481 480 481q213 0 339 -107t127 -285q0 -97 -53 -178t-138 -108v-4q126 -25 196 -127t71 -239q-1 -195 -129 -337t-318 -141q-82 0 -166 13v237q33 -10 83 -10q103 -1 171 71t68 185t-65 177.5t-185 64.5q-64 -2 -72 -4v192q24 -4 46 -4q90 -1 152 47t62 135
q0 182 -195 182q-132 0 -157.5 -76t-25.5 -118v-1063h-291v1016z" />
    <glyph glyph-name="agrave" unicode="&#xe0;" horiz-adv-x="1176" 
d="M535 166q235 0 235 239v113q-26 -22 -70 -32t-148 -25t-150 -53t-46 -107q0 -135 179 -135zM66 286q0 150 92 230q92 78 299 100q208 22 260 46q53 25 53 94t-43 103t-139 34t-144 -38t-55 -122h-291q12 174 143 264t361 90t344 -77t115 -217v-568q0 -162 37 -225h-295
q-16 48 -21 101q-126 -130 -356 -130q-164 1 -262 83t-98 232zM531 1497l197 -291h-203l-315 291h321z" />
    <glyph glyph-name="aacute" unicode="&#xe1;" horiz-adv-x="1176" 
d="M535 166q235 0 235 239v113q-26 -22 -70 -32t-148 -25t-150 -53t-46 -107q0 -135 179 -135zM66 286q0 150 92 230q92 78 299 100q208 22 260 46q53 25 53 94t-43 103t-139 34t-144 -38t-55 -122h-291q12 174 143 264t361 90t344 -77t115 -217v-568q0 -162 37 -225h-295
q-16 48 -21 101q-126 -130 -356 -130q-164 1 -262 83t-98 232zM994 1497l-316 -291h-202l196 291h322z" />
    <glyph glyph-name="acircumflex" unicode="&#xe2;" horiz-adv-x="1176" 
d="M535 166q235 0 235 239v113q-26 -22 -70 -32t-148 -25t-150 -53t-46 -107q0 -135 179 -135zM66 286q0 150 92 230q92 78 299 100q208 22 260 46q53 25 53 94t-43 103t-139 34t-144 -38t-55 -122h-291q12 174 143 264t361 90t344 -77t115 -217v-568q0 -162 37 -225h-295
q-16 48 -21 101q-126 -130 -356 -130q-164 1 -262 83t-98 232zM739 1497l226 -291h-236l-126 165h-2l-130 -165h-225l227 291h266z" />
    <glyph glyph-name="atilde" unicode="&#xe3;" horiz-adv-x="1176" 
d="M535 166q235 0 235 239v113q-26 -22 -70 -32t-148 -25t-150 -53t-46 -107q0 -135 179 -135zM66 286q0 150 92 230q92 78 299 100q208 22 260 46q53 25 53 94t-43 103t-139 34t-144 -38t-55 -122h-291q12 174 143 264t361 90t344 -77t115 -217v-568q0 -162 37 -225h-295
q-16 48 -21 101q-126 -130 -356 -130q-164 1 -262 83t-98 232zM449 1313q-67 0 -93 -86h-129q21 121 87 185t142 65q76 0 165 -36q90 -36 139 -36q71 0 88 72h131q-44 -234 -229 -234q-70 0 -163 35t-138 35z" />
    <glyph glyph-name="adieresis" unicode="&#xe4;" horiz-adv-x="1176" 
d="M535 166q235 0 235 239v113q-26 -22 -70 -32t-148 -25t-150 -53t-46 -107q0 -135 179 -135zM66 286q0 150 92 230q92 78 299 100q208 22 260 46q53 25 53 94t-43 103t-139 34t-144 -38t-55 -122h-291q12 174 143 264t361 90t344 -77t115 -217v-568q0 -162 37 -225h-295
q-16 48 -21 101q-126 -130 -356 -130q-164 1 -262 83t-98 232zM952 1464v-239h-276v239h276zM531 1464v-239h-277v239h277z" />
    <glyph glyph-name="aring" unicode="&#xe5;" horiz-adv-x="1176" 
d="M535 166q235 0 235 239v113q-26 -22 -70 -32t-148 -25t-150 -53t-46 -107q0 -135 179 -135zM66 286q0 150 92 230q92 78 299 100q208 22 260 46q53 25 53 94t-43 103t-139 34t-144 -38t-55 -122h-291q12 174 143 264t361 90t344 -77t115 -217v-568q0 -162 37 -225h-295
q-16 48 -21 101q-126 -130 -356 -130q-164 1 -262 83t-98 232zM510 1302q35 -38 95 -38q59 0 95 37t35 99t-35 100t-94 38t-96 -38q-35 -38 -35 -99t35 -99zM607 1647q109 -1 179 -71t70 -176t-74 -175q-74 -70 -180 -70q-106 1 -178 71q-70 70 -70 174t72 176t181 71z" />
    <glyph glyph-name="ae" unicode="&#xe6;" horiz-adv-x="1858" 
d="M369 304q0 -138 179 -138q98 0 169 59t71 155v136q-25 -34 -173 -52t-197 -55t-49 -105zM1281 893q-98 0 -167 -68t-72 -182h465q-2 113 -65 181t-161 69zM905 152q-139 -181 -455 -181q-158 0 -265 81t-107 235q0 195 167 274q77 37 249 58t233 47t61 92q0 135 -192 135
t-199 -164h-291q7 174 140 266q134 92 373 92t337 -143q66 74 148 108t206 35q230 1 358 -165t130 -463h-756v-11q0 -115 72 -199q74 -83 174 -83t150.5 40.5t66.5 125.5h283q-47 -167 -179 -264t-309 -97q-268 0 -395 181z" />
    <glyph glyph-name="ccedilla" unicode="&#xe7;" horiz-adv-x="1176" 
d="M562 -201q-38 0 -79 -16l-43 48l102 144q-216 25 -340 173t-124 366q0 258 147 416t393 157q206 -1 346 -107t152 -294h-285q-26 182 -215 182q-118 0 -182 -96t-65 -248q0 -152 64 -243t169 -91q209 0 240 216h280q-24 -191 -148 -308t-335 -127l-57 -77l4 -5
q37 15 101 15q63 0 110 -41.5t47 -124.5t-66.5 -132.5t-188.5 -49.5t-239 45l43 98q89 -37 147 -37q107 0 107 70q0 30 -23.5 48.5t-61.5 18.5z" />
    <glyph glyph-name="egrave" unicode="&#xe8;" horiz-adv-x="1176" 
d="M588 868q-104 0 -166 -60t-72 -165h473q-21 117 -75 171q-56 54 -160 54zM600 -29q-244 1 -392 155t-149 397t151 403t388 161t378 -161q140 -162 140 -413l-2 -54h-764q12 -269 259 -269q79 0 146 40t85 98h256q-60 -181 -182 -269t-314 -88zM529 1497l197 -291h-203
l-315 291h321z" />
    <glyph glyph-name="eacute" unicode="&#xe9;" horiz-adv-x="1176" 
d="M588 868q-104 0 -166 -60t-72 -165h473q-21 117 -75 171q-56 54 -160 54zM600 -29q-244 1 -392 155t-149 397t151 403t388 161t378 -161q140 -162 140 -413l-2 -54h-764q12 -269 259 -269q79 0 146 40t85 98h256q-60 -181 -182 -269t-314 -88zM991 1497l-316 -291h-202
l196 291h322z" />
    <glyph glyph-name="ecircumflex" unicode="&#xea;" horiz-adv-x="1176" 
d="M588 868q-104 0 -166 -60t-72 -165h473q-21 117 -75 171q-56 54 -160 54zM600 -29q-244 1 -392 155t-149 397t151 403t388 161t378 -161q140 -162 140 -413l-2 -54h-764q12 -269 259 -269q79 0 146 40t85 98h256q-60 -181 -182 -269t-314 -88zM737 1497l226 -291h-236
l-126 165h-2l-130 -165h-225l227 291h266z" />
    <glyph glyph-name="edieresis" unicode="&#xeb;" horiz-adv-x="1176" 
d="M588 868q-104 0 -166 -60t-72 -165h473q-21 117 -75 171q-56 54 -160 54zM600 -29q-244 1 -392 155t-149 397t151 403t388 161t378 -161q140 -162 140 -413l-2 -54h-764q12 -269 259 -269q79 0 146 40t85 98h256q-60 -181 -182 -269t-314 -88zM950 1464v-239h-276v239
h276zM529 1464v-239h-277v239h277z" />
    <glyph glyph-name="igrave" unicode="&#xec;" horiz-adv-x="528" 
d="M216 1497l197 -291h-203l-315 291h321zM410 1059v-1059h-291v1059h291z" />
    <glyph glyph-name="iacute" unicode="&#xed;" horiz-adv-x="528" 
d="M635 1497l-316 -291h-202l196 291h322zM410 1059v-1059h-291v1059h291z" />
    <glyph glyph-name="icircumflex" unicode="&#xee;" horiz-adv-x="528" 
d="M410 1059v-1059h-291v1059h291zM401 1497l226 -291h-236l-126 165h-2l-130 -165h-225l227 291h266z" />
    <glyph glyph-name="idieresis" unicode="&#xef;" horiz-adv-x="528" 
d="M614 1464v-239h-276v239h276zM193 1464v-239h-277v239h277zM410 1059v-1059h-291v1059h291z" />
    <glyph glyph-name="eth" unicode="&#xf0;" horiz-adv-x="1251" 
d="M624 842q-120 0 -188 -86t-67 -240q0 -156 68 -241t190 -85t189 89t67 237t-69.5 237t-189.5 89zM1174 557q0 -260 -153 -423t-396 -163t-395 151.5t-152 383.5t128 381q129 149 353 149q172 0 287 -102h4q-75 190 -199 280l-237 -113h-3l-94 120l190 88
q-34 16 -72.5 34.5t-80.5 34.5l152 144q144 -51 225 -103l217 103l94 -121l-182 -84q314 -283 314 -760z" />
    <glyph glyph-name="ntilde" unicode="&#xf1;" horiz-adv-x="1214" 
d="M713 1087q207 0 299 -103t92 -322v-662h-291v607q-1 123 -43 187t-153 64t-163 -72t-53 -221v-565h-290v1059h276v-148h6q112 176 320 176zM451 1313q-67 0 -93 -86h-129q21 121 87 185t142 65q76 0 165 -36q90 -36 139 -36q71 0 88 72h131q-44 -234 -229 -234
q-70 0 -163 35t-138 35z" />
    <glyph glyph-name="ograve" unicode="&#xf2;" horiz-adv-x="1251" 
d="M369 530q0 -170 68 -255q69 -85 191 -85t188 88t67 250q-1 246 -147 316q-48 24 -113 24q-117 0 -185 -84t-69 -254zM624 1087q250 1 400 -153t150 -406t-152 -405q-152 -152 -398 -152t-396 153t-150 404t148 405t398 154zM556 1497l197 -291h-203l-315 291h321z" />
    <glyph glyph-name="oacute" unicode="&#xf3;" horiz-adv-x="1251" 
d="M369 530q0 -170 68 -255q69 -85 191 -85t188 88t67 250q-1 246 -147 316q-48 24 -113 24q-117 0 -185 -84t-69 -254zM624 1087q250 1 400 -153t150 -406t-152 -405q-152 -152 -398 -152t-396 153t-150 404t148 405t398 154zM1018 1497l-316 -291h-202l196 291h322z" />
    <glyph glyph-name="ocircumflex" unicode="&#xf4;" horiz-adv-x="1251" 
d="M369 530q0 -170 68 -255q69 -85 191 -85t188 88t67 250q-1 246 -147 316q-48 24 -113 24q-117 0 -185 -84t-69 -254zM624 1087q250 1 400 -153t150 -406t-152 -405q-152 -152 -398 -152t-396 153t-150 404t148 405t398 154zM764 1497l226 -291h-236l-126 165h-2
l-130 -165h-225l227 291h266z" />
    <glyph glyph-name="otilde" unicode="&#xf5;" horiz-adv-x="1251" 
d="M369 530q0 -170 68 -255q69 -85 191 -85t188 88t67 250q-1 246 -147 316q-48 24 -113 24q-117 0 -185 -84t-69 -254zM624 1087q250 1 400 -153t150 -406t-152 -405q-152 -152 -398 -152t-396 153t-150 404t148 405t398 154zM473 1313q-67 0 -93 -86h-129q21 121 87 185
t142 65q76 0 165 -36q90 -36 139 -36q71 0 88 72h131q-44 -234 -229 -234q-70 0 -163 35t-138 35z" />
    <glyph glyph-name="odieresis" unicode="&#xf6;" horiz-adv-x="1251" 
d="M369 530q0 -170 68 -255q69 -85 191 -85t188 88t67 250q-1 246 -147 316q-48 24 -113 24q-117 0 -185 -84t-69 -254zM624 1087q250 1 400 -153t150 -406t-152 -405q-152 -152 -398 -152t-396 153t-150 404t148 405t398 154zM976 1464v-239h-276v239h276zM555 1464v-239
h-277v239h277z" />
    <glyph glyph-name="divide" unicode="&#xf7;" horiz-adv-x="1229" 
d="M442 92q0 68 52 120t122 52t120 -50q52 -50 52 -120t-53 -122q-53 -54 -120 -54t-120 53t-53 121zM1133 627v-219h-1035v219h1035zM616 1116q70 0 121 -52t51 -120q0 -70 -52 -122t-121 -52t-121 52t-52 120.5t51 121.5q53 52 123 52z" />
    <glyph glyph-name="oslash" unicode="&#xf8;" horiz-adv-x="1251" 
d="M632 190q118 0 184.5 88t66.5 250q0 98 -33 187l-399 -455q63 -70 181 -70zM369 528q0 -103 30 -176l396 451q-61 65 -175 65t-182.5 -84.5t-68.5 -255.5zM1174 523q0 -248 -152 -400t-397 -152q-199 0 -338 103l-121 -137l-76 65l123 139q-135 147 -135 393t148 400
q148 153 399 153q194 0 333 -98l109 125l76 -65l-111 -125q142 -153 142 -401z" />
    <glyph glyph-name="ugrave" unicode="&#xf9;" horiz-adv-x="1214" 
d="M821 147q-109 -176 -351 -176q-74 1 -146 25q-214 72 -213 400v663h290v-607q0 -188 100 -234q36 -16 87 -17q120 1 172 73t53 220v565h291v-1059h-277v147h-6zM539 1497l197 -291h-203l-315 291h321z" />
    <glyph glyph-name="uacute" unicode="&#xfa;" horiz-adv-x="1214" 
d="M821 147q-109 -176 -351 -176q-74 1 -146 25q-214 72 -213 400v663h290v-607q0 -188 100 -234q36 -16 87 -17q120 1 172 73t53 220v565h291v-1059h-277v147h-6zM1002 1497l-316 -291h-202l196 291h322z" />
    <glyph glyph-name="ucircumflex" unicode="&#xfb;" horiz-adv-x="1214" 
d="M821 147q-109 -176 -351 -176q-74 1 -146 25q-214 72 -213 400v663h290v-607q0 -188 100 -234q36 -16 87 -17q120 1 172 73t53 220v565h291v-1059h-277v147h-6zM747 1497l226 -291h-236l-126 165h-2l-130 -165h-225l227 291h266z" />
    <glyph glyph-name="udieresis" unicode="&#xfc;" horiz-adv-x="1214" 
d="M821 147q-109 -176 -351 -176q-74 1 -146 25q-214 72 -213 400v663h290v-607q0 -188 100 -234q36 -16 87 -17q120 1 172 73t53 220v565h291v-1059h-277v147h-6zM960 1464v-239h-276v239h276zM539 1464v-239h-277v239h277z" />
    <glyph glyph-name="yacute" unicode="&#xfd;" horiz-adv-x="1063" 
d="M243 -133q63 0 97 38t33 84q0 46 -13 77l-373 993h312l240 -725h4l231 725h301l-450 -1212q-83 -220 -338 -220q-112 0 -196 11v239q89 -10 152 -10zM932 1497l-316 -291h-202l196 291h322z" />
    <glyph glyph-name="thorn" unicode="&#xfe;" horiz-adv-x="1251" 
d="M391 532q0 -158 65.5 -250t187.5 -92t187.5 88t65.5 244t-64.5 251t-188.5 95t-188.5 -89t-64.5 -247zM718 1087q214 0 342 -158t128 -402t-126 -400t-339 -156q-97 0 -181 41t-136 119h-5v-504h-290v1835h290v-538h5q98 163 312 163z" />
    <glyph glyph-name="ydieresis" unicode="&#xff;" horiz-adv-x="1063" 
d="M243 -133q63 0 97 38t33 84q0 46 -13 77l-373 993h312l240 -725h4l231 725h301l-450 -1212q-83 -220 -338 -220q-112 0 -196 11v239q89 -10 152 -10zM890 1464v-239h-276v239h276zM469 1464v-239h-277v239h277z" />
    <glyph glyph-name="dotlessi" unicode="&#x131;" horiz-adv-x="528" 
d="M410 1059v-1059h-291v1059h291z" />
    <glyph glyph-name="Lslash" unicode="&#x141;" horiz-adv-x="1214" 
d="M463 1462v-569l432 303v-229l-432 -303v-394h713v-270h-1035v438l-164 -114v229l164 115v794h322z" />
    <glyph glyph-name="lslash" unicode="&#x142;" horiz-adv-x="528" 
d="M410 1462v-438l137 109v-209l-137 -109v-815h-291v586l-137 -109v209l137 109v667h291z" />
    <glyph glyph-name="OE" unicode="&#x152;" horiz-adv-x="2238" 
d="M784 1227q-179 0 -282 -137q-103 -136 -103 -356t100.5 -359t266.5 -139t251 94t85 232v362q0 124 -86 214t-232 89zM764 1497q237 0 346 -139h4v104h1024v-270h-725v-313h664v-250h-664v-359h739v-270h-1038v111h-4q-94 -106 -198.5 -126t-154.5 -20q-305 0 -492 217.5
t-187 541.5t190 548t496 225z" />
    <glyph glyph-name="oe" unicode="&#x153;" horiz-adv-x="1896" 
d="M1319 868q-106 0 -167.5 -57t-70.5 -168h465q-4 106 -62.5 165.5t-164.5 59.5zM594 190q233 0 233 339t-228 339q-166 0 -198 -131.5t-32 -212.5q0 -148 59 -241t166 -93zM609 1087q242 0 354 -167q51 76 151 122t204 45q244 0 381 -164t138 -464h-756q0 -127 68 -198
t184 -71q154 0 213 146h283q-51 -174 -183 -270t-313 -95q-124 0 -224.5 45.5t-158.5 135.5q-54 -89 -156 -135t-219 -46q-225 -1 -361 157t-136 401t144 401q145 157 387 157z" />
    <glyph glyph-name="Scaron" unicode="&#x160;" horiz-adv-x="1329" 
d="M919 1026q-15 221 -265 221q-122 1 -183 -43q-62 -44 -62 -110q-1 -66 25 -94q26 -27 108 -57t357 -96q276 -66 328 -199t52 -214q0 -212 -159 -341q-160 -128 -442 -128t-456 136t-174 376v8h311q1 -135 90 -203t234 -67q203 0 244 69t41 113q0 133 -214 185t-346 93
t-222 135q-89 97 -89 245q0 198 157 320t406 122q250 0 410 -123t160 -348h-311zM549 1886l126 -165h2l130 165h226l-228 -291h-266l-225 291h235z" />
    <glyph glyph-name="scaron" unicode="&#x161;" horiz-adv-x="1100" 
d="M536 893q-161 0 -161 -98q1 -49 51 -81t203 -60q243 -46 327 -120t84 -195q0 -180 -131 -274t-351 -94t-356 93q-134 95 -143 280h277q0 -86 64 -132t159 -46q133 0 177 79q14 25 14 56q0 55 -72 91t-207 63q-134 27 -199 52q-188 72 -188 241t118 254t340 85
q438 0 470 -337h-277q-5 75 -55 109t-144 34zM432 1497l126 -165h2l130 165h226l-228 -291h-266l-225 291h235z" />
    <glyph glyph-name="Ydieresis" unicode="&#x178;" horiz-adv-x="1366" 
d="M842 0h-322v569l-538 893h362l342 -577l340 577h358l-542 -901v-561zM1038 1853v-239h-276v239h276zM617 1853v-239h-277v239h277z" />
    <glyph glyph-name="Zcaron" unicode="&#x17d;" horiz-adv-x="1327" 
d="M1260 1462v-254l-785 -938h805v-270h-1233v254l784 938h-722v270h1151zM559 1886l126 -165h2l130 165h226l-228 -291h-266l-225 291h235z" />
    <glyph glyph-name="zcaron" unicode="&#x17e;" horiz-adv-x="1063" 
d="M979 1059v-219l-551 -621h590v-219h-973v219l551 621h-510v219h893zM411 1497l126 -165h2l130 165h226l-228 -291h-266l-225 291h235z" />
    <glyph glyph-name="florin" unicode="&#x192;" horiz-adv-x="1139" 
d="M121 -129q54 0 86 26t50 113l129 680h-187l37 195h186l48 255q39 205 133 281t289 76q83 0 155 -14l-37 -219q-31 14 -93 14q-61 0 -97 -28t-49 -104l-50 -261h200l-32 -188l-2 -7h-204l-112 -618q-35 -189 -81 -267q-46 -77 -126 -115t-243 -38q-65 0 -131 6l38 219
q39 -6 93 -6z" />
    <glyph glyph-name="circumflex" unicode="&#x2c6;" horiz-adv-x="530" 
d="M399 1497l226 -291h-236l-126 165h-2l-130 -165h-225l227 291h266z" />
    <glyph glyph-name="caron" unicode="&#x2c7;" horiz-adv-x="530" 
d="M141 1497l126 -165h2l130 165h226l-228 -291h-266l-225 291h235z" />
    <glyph glyph-name="breve" unicode="&#x2d8;" horiz-adv-x="530" 
d="M257 1360q189 0 224 137h129q-17 -142 -108.5 -216.5t-247.5 -74.5q-309 0 -334 291h133q18 -99 91 -118t113 -19z" />
    <glyph glyph-name="dotaccent" unicode="&#x2d9;" horiz-adv-x="530" 
d="M403 1464v-239h-276v239h276z" />
    <glyph glyph-name="ring" unicode="&#x2da;" horiz-adv-x="530" 
d="M170 1302.5q35 -38.5 95 -38.5q59 0 94.5 37t35.5 99t-34.5 100t-94.5 38t-95.5 -38.5t-35.5 -98.5t35 -98.5zM267 1647q109 -1 179 -71t70 -176t-74 -175q-74 -70 -180 -70q-106 1 -178 71q-70 70 -70 174t72 176t181 71z" />
    <glyph glyph-name="ogonek" unicode="&#x2db;" horiz-adv-x="530" 
d="M500 -309q-88 -135 -236 -135q-120 0 -180.5 46.5t-60.5 123.5q0 134 215 274h131q-60 -62 -105 -122t-45 -109t22.5 -70t53.5 -21q56 0 113 66z" />
    <glyph glyph-name="tilde" unicode="&#x2dc;" horiz-adv-x="530" 
d="M111 1313q-67 0 -93 -86h-129q21 121 87 185t142 65q76 0 165.5 -36t138.5 -36q71 0 88 72h131q-44 -234 -229 -234q-70 0 -163 35t-138 35z" />
    <glyph glyph-name="hungarumlaut" unicode="&#x2dd;" horiz-adv-x="530" 
d="M817 1497l-305 -291h-203l187 291h321zM393 1497l-305 -291h-203l187 291h321z" />
    <glyph glyph-name="pi" unicode="&#x3c0;" horiz-adv-x="1417" 
d="M860 196v644h-325v-840h-291v840h-213v219h1345v-219h-225v-562q0 -42 18 -63.5t64 -21.5t70 8v-189q-84 -41 -202 -41q-119 0 -180 59t-61 166z" />
    <glyph glyph-name="uni060C" unicode="&#x60c;" horiz-adv-x="729" 
d="M451 0h-336v328q0 205 133 270t201 80v-158q-62 -12 -106 -67t-44 -121h152v-332z" />
    <glyph glyph-name="uni061B" unicode="&#x61b;" horiz-adv-x="725" 
d="M483 498h-338v327q0 138 97.5 232t238.5 119v-158q-62 -12 -105.5 -67t-43.5 -122h151v-331zM154 326h331v-326h-331v326z" />
    <glyph glyph-name="uni061F" unicode="&#x61f;" horiz-adv-x="1245" 
d="M471 326h330v-326h-330v326zM621 1210q-156 0 -156 -166q0 -69 36 -114.5t99 -85.5q73 -58 116 -122.5t50 -176.5v-90h-264v77q-19 93 -71.5 135t-80.5 60l-18 14q-81 64 -126.5 137.5t-45.5 199.5q0 127 114.5 244.5t360.5 117.5q202 0 328.5 -134.5t134.5 -338.5h-285
q-7 169 -74.5 206t-117.5 37z" />
    <glyph glyph-name="uni0640" unicode="&#x640;" horiz-adv-x="311" 
d="M0 0q-41 0 -62 21q-20 21 -20 94.5t19.5 100t62.5 26.5h311q41 0 63 -22t21.5 -93.5t-20 -99t-64.5 -27.5h-311z" />
    <glyph glyph-name="uni0647" unicode="&#x647;" horiz-adv-x="974" 
d="M20 386q0 201 119.5 340.5t305.5 139.5t307.5 -127t121.5 -349q0 -170 -102.5 -284t-319.5 -114q-298 0 -398 220q-34 75 -34 174zM296 412q0 -181 156 -181q67 0 107 43.5t40 131t-29 132.5q-53 80 -125.5 80t-110.5 -64t-38 -142z" />
    <glyph glyph-name="uni064B" unicode="&#x64b;" 
d="M-250 948l500 71v-93l-500 -70v92zM-250 1105l500 71v-91l-500 -71v91z" />
    <glyph glyph-name="uni064C" unicode="&#x64c;" 
d="M220 1139q0 -252 -223 -252q-132 0 -203 116l-114 -64l-41 75l182 103q36 -74 77.5 -112.5t99.5 -38.5q103 0 131 74q-25 -13 -75 -13t-87 34.5t-37 80.5t11 73.5t30.5 47.5t45.5 31.5t56 11.5q64 0 105.5 -44.5t41.5 -122.5zM94 1103q23 0 46 13v14q0 48 -19 72.5
t-41 24.5q-35 0 -53.5 -20.5t-18.5 -42.5t7.5 -33t19 -17t24 -8.5t35.5 -2.5z" />
    <glyph glyph-name="uni064D" unicode="&#x64d;" 
d="M-250 -146l500 71v-93l-500 -70v92zM-250 -289l500 71v-93l-500 -70v92z" />
    <glyph glyph-name="uni064E" unicode="&#x64e;" 
d="M-250 953l500 71v-98l-500 -70v97z" />
    <glyph glyph-name="uni064F" unicode="&#x64f;" 
d="M-74 956q57 0 92 22.5t46 51.5q-26 -13 -76 -13t-87 34.5t-37 80.5t11 73.5t30 47.5t45.5 31.5t56.5 11.5q64 0 104.5 -44.5t40.5 -131.5q0 -242 -235 -242q-57 0 -89 9v78q41 -9 98 -9zM-59 1153q0 -60 87 -60q23 0 47 13v14q0 48 -19.5 72.5t-41.5 24.5
q-37 0 -55 -21.5t-18 -42.5z" />
    <glyph glyph-name="uni0650" unicode="&#x650;" 
d="M-250 -183l500 71v-98l-500 -70v97z" />
    <glyph glyph-name="uni0651" unicode="&#x651;" 
d="M-111 887q-133 0 -133 153v128h90v-118q0 -40 11.5 -58t39.5 -18q56 0 56 75v86h90v-85q0 -72 55 -72q31 0 40 17.5t9 49.5v123h90v-128q0 -81 -31.5 -117t-99 -36t-106.5 54q-36 -54 -111 -54z" />
    <glyph glyph-name="uni0652" unicode="&#x652;" 
d="M-89 1054q0 -37 26 -63.5t63 -26.5t63 26.5t26 63.5t-26 63t-63 26t-63 -26t-26 -63zM115.5 1169.5q49.5 -49.5 49.5 -118.5t-49 -116.5t-117.5 -47.5t-117 47t-48.5 117t49 119t116.5 49t117 -49.5z" />
    <glyph glyph-name="uni0653" unicode="&#x653;" 
d="M-196.5 1147q69.5 0 114.5 -16.5t127 -52.5t152 -36t146 35l39 -154q-89 -49 -166.5 -49t-129 16.5t-97 36.5t-86.5 36.5t-97 16.5t-122 -39l-39 152q89 54 158.5 54z" />
    <glyph glyph-name="uni0654" unicode="&#x654;" 
d="M55 1139q-69 0 -69 -61t78 -61h101v-130h-373v130h77q-18 31 -18 77q0 86 52.5 132.5t111.5 46.5t110 -18v-126q-50 10 -70 10z" />
    <glyph glyph-name="uni0655" unicode="&#x655;" 
d="M55 -248q-69 0 -69 -61t78 -61h101v-130h-373v130h77q-18 30 -18 76q0 86 52.5 133t111.5 47t110 -18v-126q-50 10 -70 10z" />
    <glyph glyph-name="uni0656" unicode="&#x656;" 
d="M-48 -78h102v-303h-102v303z" />
    <glyph glyph-name="uni0658" unicode="&#x658;" 
d="M-101 1097q0 -104 100 -104q45 0 70 26.5t25 77.5v167h112v-163q0 -107 -57 -160.5t-150 -53.5q-151 0 -196 121q-15 40 -15 93v163h111v-167z" />
    <glyph glyph-name="uni0660" unicode="&#x660;" horiz-adv-x="1055" 
d="M535 178l-252 252l252 240l245 -244z" />
    <glyph glyph-name="uni0661" unicode="&#x661;" horiz-adv-x="1055" 
d="M397 1253h269v-1253h-269v1253z" />
    <glyph glyph-name="uni0662" unicode="&#x662;" horiz-adv-x="1055" 
d="M583 786q-96 0 -169 17v-803h-267v1253h271v-213q43 -18 120 -18q76 0 123.5 16.5t47.5 87.5v127h264v-110q0 -172 -104 -264.5t-286 -92.5z" />
    <glyph glyph-name="uni0663" unicode="&#x663;" horiz-adv-x="1055" 
d="M422 786q-84 0 -115 9v-795h-266v1253h270v-213q42 -14 71 -14q44 0 55.5 26t11.5 74v127h239v-110q0 -66 -8 -103q35 -14 68.5 -14t46 19t12.5 81v127h237v-110q0 -173 -78.5 -265t-201.5 -92q-74 0 -189 60q-69 -60 -153 -60z" />
    <glyph glyph-name="uni0664" unicode="&#x664;" horiz-adv-x="1055" 
d="M184 324q0 210 142 317q-93 93 -93 244q0 366 408 366h201v-243h-203q-72 0 -102.5 -35t-30.5 -90q0 -133 133 -133h201v-246h-254q-96 0 -114.5 -44.5t-18.5 -84.5q0 -133 135 -133h325v-242h-329q-283 0 -341.5 129t-58.5 195z" />
    <glyph glyph-name="uni0665" unicode="&#x665;" horiz-adv-x="1055" 
d="M385 537q0 -281 152 -281q102 0 124.5 102t22.5 181q0 479 -147 479q-152 0 -152 -481zM240.5 111.5q-115.5 111.5 -115.5 347.5q0 426 113 611t299 185q284 0 346.5 -279.5t62.5 -458.5t-35.5 -270t-118 -169t-259.5 -78t-292.5 111.5z" />
    <glyph glyph-name="uni0666" unicode="&#x666;" horiz-adv-x="1055" 
d="M827 0h-268v975h-432v278h700v-1253z" />
    <glyph glyph-name="uni0667" unicode="&#x667;" horiz-adv-x="1055" 
d="M524 395h8l205 846h291l-377 -1241h-243l-377 1241h282z" />
    <glyph glyph-name="uni0668" unicode="&#x668;" horiz-adv-x="1055" 
d="M530 846h-8l-203 -848h-290l377 1241h243l377 -1241h-283z" />
    <glyph glyph-name="uni0669" unicode="&#x669;" horiz-adv-x="1055" 
d="M522 1008q-90 0 -90 -106.5t90 -106.5h72v213h-72zM860 1253v-1253h-266v555h-57q-166 0 -268.5 90t-102.5 256q0 254 140 303t229 49h325z" />
    <glyph glyph-name="uni066A" unicode="&#x66a;" horiz-adv-x="1343" 
d="M987 -16l-250 249l250 242l250 -246zM98 1040q147 147 252 242l244 -244l-244 -250zM119 84l895 1233l209 -148l-897 -1237z" />
    <glyph glyph-name="uni066B" unicode="&#x66b;" horiz-adv-x="666" 
d="M84 332h338v-328q0 -138 -97.5 -232t-238.5 -120v158q60 12 103.5 67t43.5 123h-149v332z" />
    <glyph glyph-name="uni066C" unicode="&#x66c;" horiz-adv-x="678" 
d="M84 332h338v-328q0 -138 -97 -232t-239 -120v158q60 12 104 67q43 55 43 123h-149v332z" />
    <glyph glyph-name="uni066D" unicode="&#x66d;" horiz-adv-x="723" 
d="M348 1180l-164 -170l-39 26l113 205l-213 107l16 45l230 -41l35 235h47l30 -235l234 41l16 -45l-213 -107l113 -207l-39 -24z" />
    <glyph glyph-name="uni0670" unicode="&#x670;" 
d="M-48 1227h102v-340h-102v340z" />
    <glyph glyph-name="uni06BE" unicode="&#x6be;" horiz-adv-x="1446" 
d="M906 450.5q0 -107.5 -38 -208.5h200v62q0 278 -212 340q50 -86 50 -193.5zM469 435.5q0 -46.5 8.5 -83t22.5 -61.5t32.5 -38.5t39.5 -13.5q43 0 73 53.5t30 121.5t-8.5 104.5t-22.5 62t-32.5 38.5t-39.5 13t-39.5 -13t-32.5 -38.5t-22.5 -62t-8.5 -83zM518 926
q408 0 604 -143q224 -163 224 -551v-232h-1064q-34 0 -38 -69q-2 -21 -3 -46h-172q-49 129 -49 190q0 106 74 142q51 25 147 25h39q-38 101 -38 217t72 244l-100 -4v211q124 16 304 16z" />
    <glyph glyph-name="uni06C2" unicode="&#x6c2;" horiz-adv-x="964" 
d="M20 386q0 201 119.5 340.5t305.5 139.5t307.5 -127t121.5 -349q0 -170 -102.5 -284t-319.5 -114q-298 0 -398 220q-34 75 -34 174zM296 412q0 -181 156 -181q67 0 107 43.5t40 131t-29 132.5q-53 80 -125.5 80t-110.5 -64t-38 -142zM434 1273q0 -80 103 -80h131v-172
h-482v172h97q-21 32 -21 94q0 114 64.5 173.5t160.5 59.5q55 0 127 -24v-164q-64 16 -102 16t-58 -22.5t-20 -52.5z" />
    <glyph glyph-name="uni06C3" unicode="&#x6c3;" horiz-adv-x="974" 
d="M20 386q0 201 119.5 340.5t305.5 139.5t307.5 -127t121.5 -349q0 -170 -102.5 -284t-319.5 -114q-298 0 -398 220q-34 75 -34 174zM296 412q0 -181 156 -181q67 0 107 43.5t40 131t-29 132.5q-53 80 -125.5 80t-110.5 -64t-38 -142zM514 1292.5q39 40.5 82 40.5t68 -10.5
t43.5 -29.5t29.5 -44t11 -53q0 -56 -40.5 -96.5t-83 -40.5t-66.5 11q-26 12 -44 30q-40 40 -39.5 96t39.5 96.5zM175 1293q40 40 82.5 40t67 -10.5t43 -29.5t29.5 -44t11 -53q0 -56 -40.5 -96.5t-82.5 -40.5q-43 0 -67 11q-24 12 -43 30q-40 39 -40 96t40 97z" />
    <glyph glyph-name="uni06D4" unicode="&#x6d4;" horiz-adv-x="590" 
d="M520 242v-242h-284q-120 0 -175 60t-55 253q164 -71 258 -71h256z" />
    <glyph glyph-name="uni06D5" unicode="&#x6d5;" horiz-adv-x="974" 
d="M20 386q0 201 119.5 340.5t305.5 139.5t307.5 -127t121.5 -349q0 -170 -102.5 -284t-319.5 -114q-298 0 -398 220q-34 75 -34 174zM296 412q0 -181 156 -181q67 0 107 43.5t40 131t-29 132.5q-53 80 -125.5 80t-110.5 -64t-38 -142z" />
    <glyph glyph-name="uni06F0" unicode="&#x6f0;" horiz-adv-x="1055" 
d="M535 178l-252 252l252 240l245 -244z" />
    <glyph glyph-name="uni06F1" unicode="&#x6f1;" horiz-adv-x="1055" 
d="M397 1253h269v-1253h-269v1253z" />
    <glyph glyph-name="uni06F2" unicode="&#x6f2;" horiz-adv-x="1055" 
d="M583 786q-96 0 -169 17v-803h-267v1253h271v-213q43 -18 120 -18q76 0 102 9q69 24 69 95v127h264v-110q0 -172 -104 -265q-104 -92 -286 -92z" />
    <glyph glyph-name="uni06F3" unicode="&#x6f3;" horiz-adv-x="1055" 
d="M422 786q-84 0 -115 9v-795h-266v1253h270v-213q42 -14 71 -14q44 0 55 26q12 26 12 74v127h239v-110q0 -66 -8 -103q36 -14 60 -14q42 0 54 19t13 81v127h237v-110q0 -173 -78 -265t-202 -92q-74 0 -189 60q-69 -60 -153 -60z" />
    <glyph glyph-name="uni06F4" unicode="&#x6f4;" horiz-adv-x="1055" 
d="M540 711q-115 0 -192 20v-731h-266v1253h270v-288q55 -19 135 -25q-63 111 -63 201q0 262 274 262h90v-201q-114 -3 -135.5 -52t-21.5 -94t39 -104q112 24 125.5 91t15.5 108h221q-6 -354 -191.5 -397t-300.5 -43z" />
    <glyph glyph-name="uni06F5" unicode="&#x6f5;" horiz-adv-x="1055" 
d="M442 260q25 0 50 25q1 0 17 12t28 12t34 -22q11 -8 24.5 -17.5t33.5 -9.5q29 0 38 59.5t9 171.5q0 240 -36.5 379.5t-104.5 139.5q-144 0 -144 -531q0 -219 51 -219zM121 458q0 417 116 606t296 189t295.5 -187t115.5 -603q0 -317 -93 -390t-161 -73t-99.5 17.5
t-53.5 35.5q-67 -51 -162 -51q-122 0 -188 116t-66 340z" />
    <glyph glyph-name="uni06F6" unicode="&#x6f6;" horiz-adv-x="1055" 
d="M539 913q0 -116 151 -116h150v-166l-342 -631h-297l313 582q-248 66 -248 329q0 153 98.5 247.5t260.5 94.5h213v-235h-174q-68 0 -96.5 -31.5t-28.5 -73.5z" />
    <glyph glyph-name="uni06F7" unicode="&#x6f7;" horiz-adv-x="1055" 
d="M524 395h8l205 846h291l-377 -1241h-243l-377 1241h282z" />
    <glyph glyph-name="uni06F8" unicode="&#x6f8;" horiz-adv-x="1055" 
d="M530 846h-8l-203 -848h-290l377 1241h243l377 -1241h-283z" />
    <glyph glyph-name="uni06F9" unicode="&#x6f9;" horiz-adv-x="1055" 
d="M522 1008q-90 0 -90 -106t90 -107h72v213h-72zM860 1253v-1253h-266v555h-57q-166 0 -268 90q-103 90 -103 256q0 254 212 328q68 24 157 24h325z" />
    <glyph glyph-name="uni2002" unicode="&#x2002;" horiz-adv-x="1024" 
 />
    <glyph glyph-name="uni2003" unicode="&#x2003;" horiz-adv-x="2048" 
 />
    <glyph glyph-name="uni2009" unicode="&#x2009;" horiz-adv-x="205" 
 />
    <glyph glyph-name="uni200A" unicode="&#x200a;" horiz-adv-x="41" 
 />
    <glyph glyph-name="uni200C" unicode="&#x200c;" horiz-adv-x="68" 
d="M68 4h-68v2701h68v-2701z" />
    <glyph glyph-name="uni200D" unicode="&#x200d;" horiz-adv-x="68" 
d="M68 0h-68v2613l-100 -100l-35 37l129 129l-129 131l35 35l131 -129l129 129l37 -35l-129 -129v-2l129 -129l-37 -37l-92 94v-2607z" />
    <glyph glyph-name="uni200E" unicode="&#x200e;" horiz-adv-x="66" 
d="M223 2638h-157v-2634h-66v2701h223v140l166 -166l-166 -166v125z" />
    <glyph glyph-name="uni200F" unicode="&#x200f;" horiz-adv-x="68" 
d="M68 2705v-2701h-68v2634h-158v-125l-166 166l166 166v-140h226z" />
    <glyph glyph-name="endash" unicode="&#x2013;" horiz-adv-x="1024" 
d="M1024 684v-250h-1024v250h1024z" />
    <glyph glyph-name="emdash" unicode="&#x2014;" horiz-adv-x="2048" 
d="M1782 684v-250h-1516v250h1516z" />
    <glyph glyph-name="quoteleft" unicode="&#x2018;" horiz-adv-x="569" 
d="M294 1125v-5h135v-315h-291v322q0 131 82 225t209 110v-135q-72 -25 -103.5 -73t-31.5 -129z" />
    <glyph glyph-name="quoteright" unicode="&#x2019;" horiz-adv-x="569" 
d="M430 1462v-322q0 -131 -82 -225t-209 -110v135q74 25 104.5 74.5t30.5 127.5v5h-135v315h291z" />
    <glyph glyph-name="quotesinglbase" unicode="&#x201a;" horiz-adv-x="569" 
d="M430 315v-322q0 -127 -79 -221t-212 -114v135q72 24 103.5 72.5t31.5 129.5v5h-135v315h291z" />
    <glyph glyph-name="quotedblleft" unicode="&#x201c;" horiz-adv-x="948" 
d="M700 1120h136v-315h-291v327q0 123 80 218q81 94 211 112v-135q-75 -24 -105.5 -75t-30.5 -132zM264 1120h135v-315h-290v328q0 123 80 216t210 113v-135q-70 -24 -102.5 -72t-32.5 -135z" />
    <glyph glyph-name="quotedblright" unicode="&#x201d;" horiz-adv-x="948" 
d="M838 1462v-322q0 -128 -80 -222t-211 -113v135q70 24 102.5 72t32.5 135h-135v315h291zM401 1462v-332q1 -117 -79 -211t-211 -114v135q70 24 102.5 72t32.5 135h-135v315h290z" />
    <glyph glyph-name="quotedblbase" unicode="&#x201e;" horiz-adv-x="948" 
d="M838 315v-322q0 -126 -78 -221t-213 -114v135q66 22 100.5 69.5t34.5 137.5h-135v315h291zM401 315v-332q1 -117 -77 -211t-213 -114v135q66 22 100.5 69.5t34.5 137.5h-135v315h290z" />
    <glyph glyph-name="dagger" unicode="&#x2020;" horiz-adv-x="1139" 
d="M707 1462v-403h383v-240h-383v-1159h-277v1159h-381v240h381v403h277z" />
    <glyph glyph-name="daggerdbl" unicode="&#x2021;" horiz-adv-x="1139" 
d="M707 1462v-403h383v-240h-383v-524h383v-240h-383v-395h-277v395h-381v240h381v524h-381v240h381v403h277z" />
    <glyph glyph-name="bullet" unicode="&#x2022;" horiz-adv-x="1026" 
d="M147 732q0 148 106 256t258 108t260 -108t108 -256q-1 -148 -107 -258t-260 -109.5t-260 109.5q-105 110 -105 258z" />
    <glyph glyph-name="ellipsis" unicode="&#x2026;" horiz-adv-x="2048" 
d="M1866 315v-315h-322v315h322zM1184 315v-315h-322v315h322zM502 315v-315h-322v315h322z" />
    <glyph glyph-name="uni202A" unicode="&#x202a;" horiz-adv-x="1024" 
 />
    <glyph glyph-name="uni202B" unicode="&#x202b;" horiz-adv-x="1024" 
 />
    <glyph glyph-name="uni202C" unicode="&#x202c;" horiz-adv-x="1024" 
 />
    <glyph glyph-name="uni202D" unicode="&#x202d;" horiz-adv-x="1024" 
 />
    <glyph glyph-name="uni202E" unicode="&#x202e;" horiz-adv-x="1024" 
 />
    <glyph glyph-name="perthousand" unicode="&#x2030;" horiz-adv-x="2349" 
d="M325 1103q0 -213 115 -213q56 0 86 38t29 151q0 114 -8 156q-18 94 -104 94q-61 -1 -89 -43t-29 -183zM442 1462q297 0 297 -359q0 -163 -76.5 -254.5t-218.5 -91.5t-223 94q-80 95 -80 255t78 258t223 98zM1794 317q0 -213 115 -213q55 0 85 38t30 151q0 114 -8 156
q-18 94 -104 94q-62 -1 -90 -43t-28 -183zM1911 676q297 0 297 -359q0 -163 -77 -254.5t-219 -91.5t-222 94q-80 95 -80 255t78 258t223 98zM1085 317q0 -213 115 -213q56 0 86 38t29 151q0 114 -8 156q-18 94 -104 94q-61 -1 -89 -43t-29 -183zM1202 676q297 0 297 -359
q0 -163 -76.5 -254.5t-218.5 -91.5t-223 94q-80 95 -80 255t78 258t223 98zM1329 1479l-844 -1524h-178l848 1524h174z" />
    <glyph glyph-name="guilsinglleft" unicode="&#x2039;" horiz-adv-x="494" 
d="M408 948v-246l-185 -145l185 -147v-246l-322 256v276z" />
    <glyph glyph-name="guilsinglright" unicode="&#x203a;" horiz-adv-x="494" 
d="M408 696v-276l-322 -256v246l184 147l-184 145v246z" />
    <glyph glyph-name="fraction" unicode="&#x2044;" horiz-adv-x="342" 
d="M682 1479l-844 -1524h-178l848 1524h174z" />
    <glyph glyph-name="Euro" unicode="&#x20ac;" horiz-adv-x="1139" 
d="M178 755q0 19 2 29h-149l63 148h105q49 250 210 398t398 149q172 0 373 -103l-125 -256q-150 92 -269 92q-216 0 -286 -280h499l-63 -148h-460v-86h435l-63 -147h-356q65 -324 303 -324q151 0 315 129l-2 -309q-135 -82 -315 -82q-249 1 -403 155t-200 431h-157l63 147
h82v57z" />
    <glyph glyph-name="liter" unicode="&#x2113;" horiz-adv-x="1024" 
d="M690 1153q0 59 -23 97t-57 38t-58 -46t-24 -108v-352q162 174 162 371zM582 -29q-110 1 -188 43q-148 81 -148 268v74l-113 -98h-4l-100 154l215 176v484q0 174 106 290t254 115t233 -85t85 -228q0 -288 -394 -621v-232q1 -60 34.5 -96.5t101.5 -36.5t170 78h4l96 -147
q-167 -138 -352 -138z" />
    <glyph glyph-name="trademark" unicode="&#x2122;" horiz-adv-x="2048" 
d="M1901 1462v-844h-197v599h-4l-217 -599h-142l-217 599h-4v-599h-196v844h278l211 -555l211 555h277zM815 1462v-164h-240v-680h-208v680h-240v164h688z" />
    <glyph glyph-name="estimated" unicode="&#x212e;" horiz-adv-x="1577" 
d="M395 815h787v391q-174 162 -397 162q-222 0 -390 -162v-391zM787 -29q-305 -1 -501 211t-196 534t195 534t501 212t501 -204t200 -543h-1092v-488q161 -159 403 -159t352 121.5t159 203.5l94 -57q-130 -201 -270 -283t-346 -82z" />
    <glyph glyph-name="partialdiff" unicode="&#x2202;" horiz-adv-x="1171" 
d="M592 709q-118 -1 -182 -77t-64 -195t58 -192t160 -73t172 99t73 252v73q-100 113 -217 113zM811 825q0 205 -74 325t-203 120t-251 -109l-144 164q107 89 195 121t184 31q271 0 418 -200.5t147 -560.5t-136.5 -551.5t-391.5 -191.5q-206 0 -338 133q-131 134 -131 338
t127 333.5t324 129.5q142 0 274 -98v16z" />
    <glyph glyph-name="uni2206" unicode="&#x2206;" horiz-adv-x="1395" 
d="M696 1102l-290 -832h577l-283 832h-4zM866 1462l543 -1462h-1423l551 1462h329z" />
    <glyph glyph-name="product" unicode="&#x220f;" horiz-adv-x="1534" 
d="M1419 1610v-2048h-270v1790h-764v-1790h-272v2048h1306z" />
    <glyph glyph-name="summation" unicode="&#x2211;" horiz-adv-x="1378" 
d="M1298 1610v-258h-856l539 -752l-575 -780h917v-258h-1268v225l604 811l-579 786v226h1218z" />
    <glyph glyph-name="minus" unicode="&#x2212;" horiz-adv-x="1229" 
d="M1133 627v-219h-1035v219h1035z" />
    <glyph glyph-name="radical" unicode="&#x221a;" horiz-adv-x="1167" 
d="M1188 1610l-446 -2042l-2 -6h-248l-302 620l-108 -53l-100 215l350 160l239 -522l332 1628h285z" />
    <glyph glyph-name="infinity" unicode="&#x221e;" horiz-adv-x="1737" 
d="M468 713q-67 0 -110 -49t-43 -102q0 -91 44 -137t111 -46q132 0 259 162q-146 172 -261 172zM1421 546q0 77 -44 123t-108 46t-123 -40.5t-140 -133.5q134 -164 262 -164q67 0 110 46t43 123zM467 948q111 0 203 -56t198 -194q143 193 244 221.5t158 28.5q167 0 271 -112
t104 -288q-1 -178 -105 -292t-272 -115q-102 0 -174 41t-122 86.5t-104 110.5q-108 -131 -198 -183t-195 -51q-171 0 -277 112t-106 289t101 290q102 112 274 112z" />
    <glyph glyph-name="integral" unicode="&#x222b;" horiz-adv-x="1286" 
d="M440 -315q39 0 39 62l-12 304v978q0 357 91 467t262 110q89 0 166 -47t77 -128t-49.5 -102.5t-85.5 -21.5q-79 0 -107 117q-16 61 -45 61q-39 0 -39 -74l13 -332v-1000q0 -395 -127 -455t-220 -60t-169 52t-76 130q0 54 39 86q39 31 87 31t74.5 -27.5t40.5 -89.5t41 -61z
" />
    <glyph glyph-name="approxequal" unicode="&#x2248;" horiz-adv-x="1229" 
d="M400 453q84 -1 230 -65t206 -64t91 29t42 98h172q-30 -336 -313 -336q-90 1 -229 65q-138 64 -214 64q-108 0 -125 -123h-172q13 160 92 246t220 86zM385 682q-107 0 -125 -123h-172q29 332 312 332q81 -1 228 -65t216 -64q104 0 125 127h172q-32 -336 -313 -336
q-92 1 -226 65t-217 64z" />
    <glyph glyph-name="notequal" unicode="&#x2260;" horiz-adv-x="1229" 
d="M1133 844v-213h-353l-112 -228h465v-213h-584l-146 -274l-178 88l101 186h-228v213h355l110 228h-465v213h584l147 276l179 -88l-103 -188h228z" />
    <glyph glyph-name="lessequal" unicode="&#x2264;" horiz-adv-x="1229" 
d="M1133 219v-219h-1035v219h1035zM1133 821l-729 -170l729 -170v-231l-1035 291v221l1035 291v-232z" />
    <glyph glyph-name="greaterequal" unicode="&#x2265;" horiz-adv-x="1229" 
d="M1133 219v-219h-1035v219h1035zM98 1053l1035 -291v-221l-1035 -291v229l729 170l-729 170v234z" />
    <glyph glyph-name="lozenge" unicode="&#x25ca;" horiz-adv-x="1214" 
d="M377 729l229 -536l230 536l-230 535zM727 1530l381 -801l-381 -801h-244l-377 801l379 801h242z" />
    <glyph glyph-name="uni25CC" unicode="&#x25cc;" horiz-adv-x="1866" 
d="M739 1322q0 -24 -17 -40t-41 -16t-40 16t-16 40t16 41t40 17t41 -17t17 -41zM518 1174.5q0 -23.5 -16.5 -41t-41 -17.5t-41 17.5t-16.5 41t16.5 41t41 17.5t41 -17.5t16.5 -41zM373 963.5q0 -23.5 -16.5 -40t-40 -16.5t-41 16.5t-17.5 40t17.5 41t41 17.5t40 -17.5
t16.5 -41zM319 703.5q0 -23.5 -16 -40t-40.5 -16.5t-41 16.5t-16.5 40t16.5 41t41 17.5t40.5 -17.5t16 -41zM371 449.5q0 -23.5 -17.5 -40t-41 -16.5t-40 16.5t-16.5 40t16.5 41t40 17.5t41 -17.5t17.5 -41zM518 229.5q0 -22.5 -16.5 -40t-41 -17.5t-41 17.5t-16.5 40
t16.5 40t41 17.5t41 -17.5t16.5 -40zM733 85q0 -24 -17.5 -40t-41 -16t-40 16t-16.5 40t16.5 41t40 17t41 -17t17.5 -41zM991 33.5q0 -23.5 -16.5 -41t-40 -17.5t-40.5 17.5t-17 41t17 41t40.5 17.5t40 -17.5t16.5 -41zM1245 82.5q0 -23.5 -16.5 -40.5t-40 -17t-41 17
t-17.5 40.5t17.5 40t41 16.5t40 -16.5t16.5 -40zM1466 229.5q0 -22.5 -16 -40t-41 -17.5t-41 17.5t-16 40t16 40t41 17.5t41 -17.5t16 -40zM1610 443.5q0 -23.5 -16.5 -40t-40 -16.5t-41 16.5t-17.5 40t17.5 41t41 17.5t40 -17.5t16.5 -41zM1661 703.5q0 -23.5 -16.5 -40
t-40 -16.5t-41 16.5t-17.5 40t17.5 41t41 17.5t40 -17.5t16.5 -41zM1610 957.5q0 -23.5 -16.5 -41t-40 -17.5t-41 17.5t-17.5 41t17.5 40t41 16.5t40 -16.5t16.5 -40zM1466 1174.5q0 -23.5 -16 -41t-41 -17.5t-41 17.5t-16 41t16 41t41 17.5t41 -17.5t16 -41zM1251 1319.5
q0 -23.5 -16 -40.5t-40 -17t-41 17t-17 40.5t17 40t41 16.5t40 -16.5t16 -40zM991 1373.5q0 -23.5 -16.5 -40t-40 -16.5t-40.5 16.5t-17 40t17 41t40.5 17.5t40 -17.5t16.5 -41z" />
    <glyph glyph-name="uni274A" unicode="&#x274a;" horiz-adv-x="680" 
d="M279 1296l-17 195h146l-15 -195l180 80l43 -141l-188 -49l125 -144l-115 -79l-100 155l-102 -157l-113 79l121 144l-187 45l41 139z" />
    <glyph glyph-name="fi" unicode="&#xfb01;" horiz-adv-x="1210" 
d="M528 1462q30 0 80 -3l74 -5v-217q-59 6 -113 6t-79 -26t-25 -109v-49h201v-195h-201v-864h-291v864h-174v195h174v73q0 164 95 247q97 83 259 83zM1092 1059v-1059h-291v1059h291zM1092 1462v-239h-291v239h291z" />
    <glyph glyph-name="fl" unicode="&#xfb02;" horiz-adv-x="1210" 
d="M528 1462q30 0 80 -3l74 -5v-217q-59 6 -113 6t-79 -26t-25 -109v-49h201v-195h-201v-864h-291v864h-174v195h174v73q0 164 95 247q97 83 259 83zM1092 1462v-1462h-291v1462h291z" />
    <glyph glyph-name="uniFD3E" unicode="&#xfd3e;" horiz-adv-x="1251" 
d="M500 815h49l39 68h4v-68h47v-59l125 129l-6 6l-131 -25q24 135 73 238v96q-85 -85 -121.5 -190.5t-43.5 -141.5l-142 33l107 -151v65zM1022 -428q-17 0 -60 29t-131 109.5t-195.5 227t-137.5 265.5l-150 -27q-2 -2 -12 -2q-25 0 -25 23q0 14 13 30l127 176q18 25 18 35
q-1 27 -21 27t-47 -27l-147 -127q-26 -20 -39 -20q-29 0 -29 51v115q-131 48 -131 108q0 48 131 113v127q0 41 29 41q11 0 33 -19l164 -141q22 -16 32 -16q27 0 27 22q0 16 -18 37l-127 176q-13 19 -13 31q0 22 25 22q10 0 12 -2l150 -26q45 181 210.5 362t231 225t81.5 44
t24 -19q0 -10 -13 -26q-314 -337 -340 -588l103 14l22 2q23 0 23 -20q0 -11 -13 -27l-139 -158q-24 -27 -24 -44t22 -17q12 0 33 10l164 123q26 20 40 20t17 -28v-125q133 -50 133 -111q0 -54 -133 -112v-117q0 -43 -18 -43q-12 0 -31 16l-172 131q-17 13 -37 13t-20 -21
q0 -13 24 -41l139 -157q13 -19 13 -27q0 -21 -23 -21l-22 2l-103 15q25 -246 340 -588q12 -12 12 -27q-5 -18 -22 -18zM637 317h-47v-67h-4l-39 67h-49v66l-107 -152l141 33q30 -132 83 -217t83 -115v97q-46 95 -57 152.5t-16 84.5l131 -24l6 6l-125 129v-60zM399 498h-96
v45q-29 6 -63 24q23 19 63 25v41h96v4l-157 123v-119q-133 -43 -133 -72q0 -40 133 -75v-115l157 115v4zM676 572q0 22 -8.5 41.5t-22.5 34.5t-34 23.5t-53 8.5t-64 -31t-31 -76t31 -75q28 -33 62 -33t54.5 8.5t34.5 23t22.5 34t8.5 41.5zM1022 567q0 28 -52.5 48.5
t-78.5 25.5v117l-156 -117l2 -4h88v-43q44 -6 70 -27q-28 -18 -70 -24v-41h-90l-6 -4l162 -119v117q131 36 131 71z" />
    <glyph glyph-name="uniFD3F" unicode="&#xfd3f;" horiz-adv-x="1251" 
d="M608 815h47v68h4l39 -68h50v-65l106 151l-141 -33q-64 230 -166 332v-96q43 -92 55.5 -151t18.5 -87l-132 25l-6 -6l125 -129v59zM222 1561q17 0 59.5 -29t129.5 -109t196 -226t141 -267l149 26q2 2 12 2q25 0 25 -22q0 -12 -12 -31l-127 -176q-19 -19 -19 -39t27 -20
q10 0 33 16l163 141q22 19 33 19q29 0 29 -41v-127q131 -65 131 -113q0 -60 -131 -108v-115q0 -51 -29 -51q-11 0 -39 20l-147 127q-28 27 -48 27t-20 -27q0 -10 19 -35l127 -176q12 -18 12 -30q0 -23 -25 -23q-10 0 -12 2l-149 27q-48 -181 -213 -361.5t-230.5 -225
t-82.5 -44.5t-21 18q0 15 12 27q151 164 239 312t101 276l-102 -15l-15 -2h-8q-22 0 -22 21q0 7 12 27l139 157q25 29 25 41q0 21 -21 21t-37 -13l-172 -131q-19 -16 -30 -16q-19 0 -19 43v117q-133 58 -133 112q0 34 41.5 64t91.5 47v125q3 28 17 28t40 -20l164 -123
q20 -10 38 -10t18 16t-25 45l-139 158q-12 18 -12 27q0 20 22 20q2 -2 4 -2h19l102 -14q-26 251 -340 588q-12 15 -12 26q4 19 21 19zM750 317h-50l-38 -67h-5v67h-47v60l-125 -129l7 -6l131 24q-6 -27 -18.5 -88t-55.5 -149v-97q100 100 166 332l141 -33l-106 152v-66z
M1139 569q0 29 -133 72v119l-158 -123v-4h96v-41q39 -6 64 -25q-35 -18 -64 -24v-45h-96v-4l158 -115v115q133 35 133 75zM601.5 497q30.5 -32 75.5 -32q43 -1 75 31t32 66q0 56 -31 87t-65 31t-53 -8.5t-41.5 -32.5t-22.5 -67t30.5 -75zM225 567q0 -35 131 -71v-117
l162 119l-6 4h-90v41q-41 6 -70 24q27 21 70 27v43h88l2 4l-156 117v-117q-38 -7 -85 -31q-46 -23 -46 -43z" />
    <glyph glyph-name="uni00B5" horiz-adv-x="1214" 
d="M401 -373h-290v1432h290v-607q0 -189 68 -220t119 -31q120 0 172.5 72.5t52.5 220.5v565h291v-1059h-277v147h-6q-119 -176 -266 -176q-86 0 -154 49v-393z" />
    <glyph glyph-name="uni2126" horiz-adv-x="1585" 
d="M1507 805q0 -341 -286 -533v-10h288v-262h-624v242q161 108 231 236t70 323t-106 311t-288 115q-180 1 -286 -115t-107 -326q0 -164 65 -292t234 -252v-242h-626v262h280v10q-131 82 -202.5 218.5t-71.5 314.5q0 295 203 493t516 199q313 0 511 -192t199 -500z" />
    <glyph glyph-name="uniFBA5" horiz-adv-x="926" 
d="M439 152q-51 0 -95 6q-44 8 -88 24q-103 38 -169.5 124t-66.5 216q0 226 146 340q122 96 298 96h362v-630q0 -50 13.5 -68t57.5 -18h103q41 0 61.5 -21.5t20.5 -93.5t-19.5 -99.5t-62.5 -27.5h-124q-250 0 -303 170q-83 -18 -134 -18zM436 393q72 0 114 15v308h-106
q-75 0 -115.5 -47.5t-40.5 -119.5q0 -156 148 -156zM451 1346q0 -80 103 -80h131v-172h-482v172h97q-21 32 -21 94q0 114 64.5 173.5t160.5 59.5q55 0 127 -24v-164q-64 16 -102 16t-58 -22.5t-20 -52.5z" />
    <glyph glyph-name="uni0640.narrow" horiz-adv-x="242" 
d="M0 0q-41 0 -62 21q-20 21 -20 94.5t19.5 100t62.5 26.5h242q40 0 62 -22t22 -93.5t-20.5 -99t-63.5 -27.5h-242z" />
    <glyph glyph-name="uni0640.long" horiz-adv-x="414" 
d="M0 0q-41 0 -62 21q-20 21 -20 94.5t19.5 100t62.5 26.5h414q41 0 62 -21q20 -21 20 -93.5t-20 -100t-62 -27.5h-414z" />
    <glyph glyph-name="uni0615" 
d="M325.5 1415q91.5 0 139 -53.5t47.5 -147.5v-157h-567v125h96v419h117v-264q76 78 167.5 78zM395 1198q0 92 -76 92q-48 0 -92 -29.5t-69 -78.5h237v16z" />
    <glyph glyph-name="uni064C0651" 
d="M-111 887q-133 0 -133 153v128h90v-118q0 -40 11.5 -58t39.5 -18q56 0 56 75v86h90v-85q0 -72 55 -72q31 0 40 17.5t9 49.5v123h90v-128q0 -81 -31.5 -117t-99 -36t-106.5 54q-36 -54 -111 -54zM272 1493q0 -252 -223 -252q-132 0 -203 116l-114 -64l-41 75l182 103
q36 -74 77.5 -112.5t99.5 -38.5q103 0 131 74q-25 -13 -75 -13t-87 34.5t-37 80.5t11 73.5t30.5 47.5t45.5 31.5t56 11.5q64 0 105.5 -44.5t41.5 -122.5zM146 1457q23 0 46 13v14q0 48 -19 72.5t-41 24.5q-35 0 -53.5 -20.5t-18.5 -42.5t7.5 -33t19 -17t24 -8.5t35.5 -2.5z
" />
    <glyph glyph-name="uni064D0651" 
d="M-111 1295q-133 0 -133 153v128h90v-118q0 -40 11.5 -58t39.5 -18q56 0 56 75v86h90v-85q0 -72 55 -72q31 0 40 17.5t9 49.5v123h90v-128q0 -81 -31.5 -117t-99 -36t-106.5 54q-36 -54 -111 -54zM-250 947l500 71v-98l-500 -70v97zM-250 1123l500 71v-98l-500 -70v97z
" />
    <glyph glyph-name="uni064B0651" 
d="M-111 887q-133 0 -133 153v128h90v-118q0 -40 11.5 -58t39.5 -18q56 0 56 75v86h90v-85q0 -72 55 -72q31 0 40 17.5t9 49.5v123h90v-128q0 -81 -31.5 -117t-99 -36t-106.5 54q-36 -54 -111 -54zM-250 1349l500 71v-93l-500 -70v92zM-250 1506l500 71v-91l-500 -71v91z
" />
    <glyph glyph-name="uni064E0651" 
d="M-111 887q-133 0 -133 153v128h90v-118q0 -40 11.5 -58t39.5 -18q56 0 56 75v86h90v-85q0 -72 55 -72q31 0 40 17.5t9 49.5v123h90v-128q0 -81 -31.5 -117t-99 -36t-106.5 54q-36 -54 -111 -54zM-248 1348l500 71v-98l-500 -70v97z" />
    <glyph glyph-name="uni064F0651" 
d="M-111 887q-133 0 -133 153v128h90v-118q0 -40 11.5 -58t39.5 -18q56 0 56 75v86h90v-85q0 -72 55 -72q31 0 40 17.5t9 49.5v123h90v-128q0 -81 -31.5 -117t-99 -36t-106.5 54q-36 -54 -111 -54zM-50 1313q57 0 92 22.5t46 51.5q-26 -13 -76 -13t-87 34.5t-37 80.5
t11 73.5t30 47.5t45.5 31.5t56.5 11.5q64 0 104.5 -44.5t40.5 -131.5q0 -242 -235 -242q-57 0 -89 9v78q41 -9 98 -9zM-35 1510q0 -60 87 -60q23 0 47 13v14q0 48 -19.5 72.5t-41.5 24.5q-37 0 -55 -21.5t-18 -42.5z" />
    <glyph glyph-name="uni06500651" 
d="M-250 953l500 71v-98l-500 -70v97zM-111 1091q-133 0 -133 153v128h90v-118q0 -40 11.5 -58t39.5 -18q56 0 56 75v86h90v-85q0 -72 55 -72q31 0 40 17.5t9 49.5v123h90v-128q0 -81 -31.5 -117t-99 -36t-106.5 54q-36 -54 -111 -54z" />
    <glyph glyph-name="uni06510670" 
d="M-111 887q-133 0 -133 153v128h90v-118q0 -40 11.5 -58t39.5 -18q56 0 56 75v86h90v-85q0 -72 55 -72q31 0 40 17.5t9 49.5v123h90v-128q0 -81 -31.5 -117t-99 -36t-106.5 54q-36 -54 -111 -54zM-50 1577h102v-340h-102v340z" />
    <glyph glyph-name="uni06540651" 
d="M55 1139q-69 0 -69 -61t78 -61h101v-130h-373v130h77q-18 31 -18 77q0 86 52.5 132.5t111.5 46.5t110 -18v-126q-50 10 -70 10zM-250 1427l500 71v-93l-500 -70v92zM-250 1584l500 71v-91l-500 -71v91z" />
    <glyph glyph-name="uni0654064E" 
d="M55 1139q-69 0 -69 -61t78 -61h101v-130h-373v130h77q-18 31 -18 77q0 86 52.5 132.5t111.5 46.5t110 -18v-126q-50 10 -70 10zM-250 1426l500 71v-98l-500 -70v97z" />
    <glyph glyph-name="uni0654064C" 
d="M55 1129q-69 0 -69 -61t78 -61h101v-130h-373v130h77q-18 31 -18 77q0 86 52.5 132.5t111.5 46.5t110 -18v-126q-50 10 -70 10zM249 1616q0 -252 -223 -252q-132 0 -203 116l-114 -64l-41 75l182 103q36 -74 77.5 -112.5t99.5 -38.5q103 0 131 74q-25 -13 -75 -13
t-87 34.5t-37 80.5t11 73.5t30.5 47.5t45.5 31.5t56 11.5q64 0 105.5 -44.5t41.5 -122.5zM123 1580q23 0 46 13v14q0 49 -19 73q-20 24 -42 24q-35 0 -53 -20.5t-18 -42.5t7.5 -33t19 -17t24 -8.5t35.5 -2.5z" />
    <glyph glyph-name="uni0654064F" 
d="M55 1139q-69 0 -69 -61t78 -61h101v-130h-373v130h77q-18 31 -18 77q0 86 52.5 132.5t111.5 46.5t110 -18v-126q-50 10 -70 10zM-66 1436q57 0 92 22.5t46 51.5q-26 -13 -76 -13t-87 34.5t-37 80.5t11 73.5t30 47.5t45.5 31.5t56.5 11.5q64 0 104.5 -44.5t40.5 -131.5
q0 -242 -235 -242q-57 0 -89 9v78q41 -9 98 -9zM-51 1633q0 -60 87 -60q23 0 47 13v14q0 48 -19.5 72.5t-41.5 24.5q-37 0 -55 -21.5t-18 -42.5z" />
    <glyph glyph-name="uni06540652" 
d="M55 1139q-69 0 -69 -61t78 -61h101v-130h-373v130h77q-18 31 -18 77q0 86 52.5 132.5t111.5 46.5t110 -18v-126q-50 10 -70 10zM-89 1527q0 -37 26 -63.5t63 -26.5t63 26.5t26 63.5t-26 63t-63 26t-63 -26t-26 -63zM115.5 1642.5q49.5 -49.5 49.5 -118.5t-49 -116.5
t-117.5 -47.5t-117 47t-48.5 117t49 119t116.5 49t117 -49.5z" />
    <glyph glyph-name="uni06550650" 
d="M55 -17q-69 0 -69 -61t78 -61h101v-130h-373v130h77q-18 31 -18 77q0 86 52.5 132.5t111.5 46.5t110 -18v-126q-50 10 -70 10zM-250 -384l500 71v-98l-500 -70v97z" />
    <glyph glyph-name="uni0655064D" 
d="M55 -17q-69 0 -69 -61t78 -61h101v-130h-373v130h77q-18 31 -18 77q0 86 52.5 132.5t111.5 46.5t110 -18v-126q-50 10 -70 10zM-248 -387l500 71v-93l-500 -70v92zM-248 -530l500 71v-93l-500 -70v92z" />
    <glyph glyph-name="uni064406440647" horiz-adv-x="2406" 
d="M420 414q74 0 112 14v270h-104q-81 0 -119.5 -40t-38.5 -109q0 -135 150 -135zM422 152q-50 0 -94 6q-44 8 -90 24q-105 38 -171.5 123.5t-66.5 216.5q0 226 147 340q123 96 302 96h358v-630q0 -50 13.5 -68t58.5 -18h251q73 0 100 23.5t27 99.5v1065h276v-1041
q0 -85 21 -108q37 -39 135 -39h304v1188h276v-1430h-579q-150 0 -209 109q-65 -95 -219 -106q-44 -3 -86 -3h-318q-250 0 -303 170q-83 -18 -133 -18z" />
    <glyph glyph-name="uniFDFA.Farsi" horiz-adv-x="2165" 
d="M326 -217q14 0 28 8l-80 88q0 -59 19 -77.5t33 -18.5zM214 350q18 0 30.5 3t23.5 5l-30 60l-72 -62q30 -6 48 -6zM236 1104q-27 -42 -74 -72q13 -16 110 -2zM1151 506q-26 -54 -111 -94v-4q106 -5 160 4zM805 584q-9 -6 -24.5 -18.5t-82.5 -49.5l-106 -57l20 51
q98 37 226 127zM418 1391q-15 8 -15 45q0 10 17 22q26 -37 26 -62q0 -40 -21.5 -44.5t-39.5 8.5q-13 -27 -49.5 -17t-36.5 49q0 40 18 40q0 -50 29 -50q14 0 14 15l-10 33q0 18 10 18t15 -22q11 -40 43 -35zM2028 776l-25 -45q-3 -10 -31 -22l-274 -125l22 51zM1280.5 -304
q12.5 -11 21.5 -11q10 0 17.5 5.5t12.5 11.5t7.5 11.5t6.5 5.5t8 -13t16 -13l8 2q0 21 15 29q6 -8 6 -24q0 -30 -24 -39.5t-38 9.5q-13 -22 -35 -22q-25 0 -33 11t-18 11t-23 -10t-52 -34t-102 -23q-64 0 -64 8t30 8t67.5 13.5t68.5 30t53 30.5t31 14q8 0 20.5 -11z
M1989 188q12 7 27.5 14.5t21.5 12.5q-2 -19 -14 -40t-29 -28l-277 -131l19 56zM1781 986.5q-43 -25.5 -63 -52.5h70q139 0 199 10q-15 33 -61.5 50.5t-73.5 17.5q-28 0 -71 -25.5zM357 803q15 0 42.5 11t53.5 23.5t46.5 23.5t32.5 11t24.5 -10t12.5 -25t-14 -32
q-11 14 -28 14t-34.5 -11t-56 -34.5t-67.5 -23.5q0 -62 -13 -66q-10 48 -36 67.5t-39 24.5q-16 51 4 51q4 0 11 -4t16.5 -8.5t19.5 -8t25 -3.5zM1399 213l84 -43l28 57l82 -49l-45 -78l-71 39l-35 -53l-82 39zM1176 1303q215 75 411 180q-20 -55 -86 -84l-371 -170zM772 10
l315 125q48 20 57 25l95 51q12 8 16.5 4t-2.5 -12l-24 -33q-45 -37 -207 -111l-213 -88q21 -32 -6.5 -68t-52.5 -36q20 30 17.5 55t-26.5 29q-8 0 -9.5 5.5t3.5 10.5zM1460 1104q0 22 -23.5 21.5t-23.5 10.5t43 46l39 30l461 203l-35 -51q-121 -72 -422 -201
q31 -22 9.5 -59.5t-37 -53.5t-23.5 -18h-10l-2 4q0 7 12 31q12 25 12 37zM1978.5 -288q-36.5 -36 -62.5 -36q-39 0 -96 7.5t-59 11.5q-10 3 -10 7t24 7q60 5 131.5 41.5t71.5 67.5q0 6 -7 14t-13 10q-54 -11 -72 3.5t-18 32.5q0 37 16.5 72.5t44.5 35.5t57 -41t29 -119
t-36.5 -114zM728 217q-80 -1 -79 9q0 10 10.5 13t30.5 7q42 8 109 48t67 64q0 12 -20 25q-46 -21 -69 -1t-23 32q0 30 16.5 72t45.5 42q28 0 57.5 -42t29.5 -102t-12.5 -90t-29.5 -47t-35 -23.5t-98 -6.5zM604 303q0 -38 -16 -94q-6 -16 -15 -16l-4 2v16q0 73 -18 111
l-96 190q-37 86 -37 100q0 22 12 55t23 33q5 0 11 -14q12 -28 41 -63.5t50 -46.5q20 -12 20 -22q-1 -9 -21 -9t-36 12l-4 -4q90 -177 90 -250zM675 1403q7 -1 11 -11q6 -18 39 -55t54 -51q20 -14 20 -20q0 -13 -68 -2q89 -193 98 -249t9 -93t-11 -64l-6 -4l-4 25
q-6 39 -68 168q-61 130 -85 184.5t-20 89.5t14 58.5t17 23.5zM175 281q-54 0 -54 26q0 48 8 59q33 45 90 78l-22 39q10 12 15.5 41t10.5 29q10 0 21 -25l67 -137q31 -65 83 -65q32 0 32 8t-10 28.5t-25 47t-32.5 56t-42.5 74t-25 58.5q0 19 11 51.5t21 32.5q9 0 13 -10
q19 -47 55 -81q37 -34 37 -40q0 -14 -37 -14q68 -125 73 -152t5 -45q0 -113 -76 -113q-45 0 -70.5 20t-39.5 68q-54 -34 -108 -34zM1649 397q-29 -102 -89 -102q-28 0 -52 19t-25 42h-4q-15 -69 -101 -69t-120 33t-41 53q-84 -54 -164 -54q-72 4 -72 46q0 25 13.5 51
t19.5 30l116 86l-30 52l12 57q6 23 17 23t20 -21l98 -186q27 -52 112.5 -67.5t113.5 20.5l10 57q3 20 11 20t9 -17q0 -38 43 -66.5t70 6.5q0 82 -40 168t-77 157l14 64q5 12 6.5 17t7 5t19.5 -22l133 -307q23 -61 54.5 -78t46.5 -17q0 53 30 106.5t80 53.5t76.5 -48.5
t26.5 -56.5t-7 -8t-14 7l-20 14q-26 22 -74.5 22t-48.5 -36q0 -21 24.5 -39.5t36.5 -18.5l109 6q26 0 26 -17t-22 -63q-13 -2 -45.5 -5.5t-91 -10t-83.5 -6.5q-49 0 -77 19.5t-53 80.5h-4zM309 -309q-58 0 -67 88h-4q-20 -42 -84 -74.5t-83 -32.5q-18 0 -18 6t18 14
q38 16 98 86t64 128q11 6 20 25.5t9 38.5t12 22q19 0 51 -46t44.5 -54.5t29.5 -8.5t28 9.5t11 23.5q0 28 -31 101t-61 118l10 47q10 31 19 31t33 -59l92 -203q31 -69 99.5 -96t208.5 -27t236 7t165 18t114.5 23t72.5 23t39.5 18t16.5 7t15 -9t37 -29.5t55 -20.5l26 4
q0 92 13.5 91.5t13.5 -14.5q0 -32 27 -58.5t69 -26.5l-37 53q12 63 28 63t38 -38.5t22 -75.5q0 -74 -49 -93.5t-90 25.5q-51 -68 -103 -28t-67 61q-112 -67 -325.5 -84.5t-303.5 -17.5q-173 0 -247 29.5t-105 109.5h-4q-8 -29 -27 -52.5t-45 -23.5q-17 -51 -36 -74.5
t-48 -23.5zM211 1140q0 11 -27 38l13 59q4 23 12 23q28 0 108 -185q28 -61 72 -65.5t62 4.5t18 23q0 23 -30.5 83t-61.5 103l16 51q9 22 16 22q13 0 64 -100t79.5 -142t76.5 -42l39 6q-152 183 -161 213.5t-9 42.5q0 26 11.5 54t21.5 28t17 -16q18 -43 59 -78q40 -34 40 -39
q0 -15 -41 -15q66 -93 87.5 -136.5t21.5 -83.5t-20 -67t-77 -8q6 -71 73 -117t121 -43q116 7 208 48v8q-125 10 -146 29l29 57q83 29 102 44t19 54q0 89 -119 293l19 72q4 16 12 16t22 -28l127 -269q19 -41 34.5 -67t48 -45t118.5 -19q196 0 232 49q10 15 4 32t4 17
q12 0 44 -51t95 -51q118 143 221 143q83 0 121 -83q18 -40 23 -48.5t16 -13.5l-21 -68q-5 -17 -19.5 -19.5t-33.5 -4.5l-223 -10h-47q-47 0 -55 4q-50 -78 -65.5 -78t26.5 86q-56 42 -76 111h-4q-13 -61 -59.5 -86t-169.5 -25t-157 18.5t-49.5 42t-25.5 60.5h-4
q-11 -47 -53 -80v-4q47 0 68.5 -16t21.5 -23l-21 -74q-146 -121 -286 -121q-214 0 -199 262q-47 14 -92 91q-26 -103 -92 -103q-45 0 -72 21t-49 69q-76 -54 -131.5 -47.5t-55.5 48.5q0 22 13 48t33 38t33 21t19.5 14t8.5 9.5t2 15.5z" />
    <glyph glyph-name="uni0660.pnum" horiz-adv-x="666" 
d="M339 178l-252 252l252 240l245 -244z" />
    <glyph glyph-name="uni0661.pnum" horiz-adv-x="586" 
d="M162 1253h269v-1253h-269v1253z" />
    <glyph glyph-name="uni0662.pnum" horiz-adv-x="1004" 
d="M593 786q-96 0 -169 17v-803h-267v1253h271v-213q43 -18 120 -18q76 0 102 9q69 24 69 95v127h264v-110q0 -172 -104 -265q-104 -92 -286 -92z" />
    <glyph glyph-name="uni0663.pnum" horiz-adv-x="1184" 
d="M541 786q-84 0 -115 9v-795h-266v1253h270v-213q42 -14 70 -14q44 0 56 26t12 74v127h239v-110q0 -66 -8 -103q35 -14 59 -14q44 0 56 19t12 81v127h237v-110q0 -173 -78 -265t-202 -92q-74 0 -189 60q-69 -60 -153 -60z" />
    <glyph glyph-name="uni0664.pnum" horiz-adv-x="899" 
d="M109 324q0 210 142 317q-93 93 -93 244q0 366 408 366h201v-243h-203q-72 0 -102 -35t-31 -90q0 -133 133 -133h201v-246h-254q-97 0 -123 -64q-10 -25 -10 -65q0 -133 135 -133h325v-242h-329q-283 0 -369 190q-30 68 -31 134z" />
    <glyph glyph-name="uni0665.pnum" horiz-adv-x="1034" 
d="M370 537q0 -281 152 -281q102 0 135 150q12 54 12 133q0 479 -147 479q-152 0 -152 -481zM236 101q-126 122 -126 358q0 425 122 625q104 170 290 171q284 1 376 -409q34 -150 33 -329q1 -179 -35 -270t-94 -146q-107 -101 -284 -101t-282 101z" />
    <glyph glyph-name="uni0666.pnum" horiz-adv-x="881" 
d="M726 0h-268v975h-432v278h700v-1253z" />
    <glyph glyph-name="uni0667.pnum" horiz-adv-x="1038" 
d="M517 395h8l205 846h291l-377 -1241h-243l-377 1241h282z" />
    <glyph glyph-name="uni0668.pnum" horiz-adv-x="1038" 
d="M525 846h-8l-203 -848h-290l377 1241h243l377 -1241h-283z" />
    <glyph glyph-name="uni0669.pnum" horiz-adv-x="872" 
d="M380 1008q-90 0 -90 -106t90 -107h72v213h-72zM718 1253v-1253h-266v555h-57q-166 0 -268 90q-103 90 -103 256q0 254 212 328q68 24 157 24h325z" />
    <glyph glyph-name="uni06F0.pnum" horiz-adv-x="666" 
d="M339 178l-252 252l252 240l245 -244z" />
    <glyph glyph-name="uni06F1.pnum" horiz-adv-x="586" 
d="M162 1253h269v-1253h-269v1253z" />
    <glyph glyph-name="uni06F2.pnum" horiz-adv-x="1004" 
d="M593 786q-96 0 -169 17v-803h-267v1253h271v-213q43 -18 120 -18q76 0 102 9q69 24 69 95v127h264v-110q0 -172 -104 -265q-104 -92 -286 -92z" />
    <glyph glyph-name="uni06F3.pnum" horiz-adv-x="1184" 
d="M541 786q-84 0 -115 9v-795h-266v1253h270v-213q42 -14 70 -14q44 0 56 26t12 74v127h239v-110q0 -66 -8 -103q35 -14 59 -14q44 0 56 19t12 81v127h237v-110q0 -173 -78 -265t-202 -92q-74 0 -189 60q-69 -60 -153 -60z" />
    <glyph glyph-name="uni06F4.pnum" horiz-adv-x="1065" 
d="M552 711q-115 0 -192 20v-731h-266v1253h270v-288q55 -19 135 -25q-63 111 -63 201q0 262 274 262h90v-201q-114 -4 -148 -80q-10 -22 -9 -66q0 -45 39 -104q112 24 132 126q6 32 9 73h221q-6 -353 -288 -419q-89 -20 -204 -21z" />
    <glyph glyph-name="uni06F5.pnum" horiz-adv-x="1036" 
d="M431 260q25 0 50 25q1 0 17 12t28 12t34 -22q10 -7 24 -17t34 -10q29 0 38 60t9 171q0 240 -37 380q-37 139 -104 139q-144 0 -144 -531q0 -219 51 -219zM110 458q0 417 124 619q108 176 288 176q180 -1 288 -175q123 -199 123 -615q0 -317 -140 -427q-46 -36 -114 -36
t-99 18q-32 18 -54 35q-67 -51 -162 -51q-122 0 -188 116t-66 340z" />
    <glyph glyph-name="uni06F6.pnum" horiz-adv-x="766" 
d="M362 913q0 -116 151 -116h150v-166l-342 -631h-297l313 582q-248 66 -248 329q0 153 99 248q99 94 260 94h213v-235h-174q-68 0 -97 -32q-28 -31 -28 -73z" />
    <glyph glyph-name="uni06F7.pnum" horiz-adv-x="1038" 
d="M517 395h8l205 846h291l-377 -1241h-243l-377 1241h282z" />
    <glyph glyph-name="uni06F8.pnum" horiz-adv-x="1038" 
d="M525 846h-8l-203 -848h-290l377 1241h243l377 -1241h-283z" />
    <glyph glyph-name="uni06F9.pnum" horiz-adv-x="872" 
d="M380 1008q-90 0 -90 -106t90 -107h72v213h-72zM718 1253v-1253h-266v555h-57q-166 0 -268 90q-103 90 -103 256q0 254 212 328q68 24 157 24h325z" />
    <glyph glyph-name="uni06F4.Urdu" horiz-adv-x="1055" 
d="M442 918v-918h-270v961q0 134 82 219.5t221 85.5t238 -125q77 65 200 127l127 -217q-149 -85 -219 -137.5t-104 -77.5q-11 -11 -22.5 -19.5t-22.5 -19.5q-113 200 -176 200q-25 0 -39.5 -15t-14.5 -64z" />
    <glyph glyph-name="uni06F7.Urdu" horiz-adv-x="1055" 
d="M899 242v-242h-739l2 217q58 119 120 247t146 301.5t234 487.5h268l-475 -1011h444z" />
    <glyph glyph-name="uni06F4.Urdupnum" horiz-adv-x="1036" 
d="M420 918v-918h-270v961q0 134 82 220q82 85 221 85t238 -125q77 65 200 127l127 -217q-149 -85 -219 -138q-70 -52 -104 -77q-11 -12 -23 -20t-22 -19q-113 200 -176 200q-26 0 -40 -15t-14 -64z" />
    <glyph glyph-name="uni06F7.Urdupnum" horiz-adv-x="874" 
d="M783 242v-242h-739l2 217q58 119 120 247t146 302t234 487h268l-475 -1011h444z" />
    <glyph glyph-name="xx.beh" horiz-adv-x="1865" 
d="M1740 0h-1262q-247 0 -342.5 75t-95.5 259v348h276v-309q0 -78 48 -104.5t192 -26.5h908v598h276v-840z" />
    <glyph glyph-name="xx.beh.fina" horiz-adv-x="1932" 
d="M1932 0q-169 0 -225 109q-68 -95 -165 -102t-140 -7h-926q-248 0 -342 74.5t-94 259.5v348h276v-311q0 -78 47.5 -103.5t192.5 -25.5h797q74 0 101.5 23t27.5 100v475h276v-451q0 -83 36 -115t138 -32q41 0 61.5 -21.5t20.5 -93.5t-20 -99.5t-62 -27.5z" />
    <glyph glyph-name="xx.feh" horiz-adv-x="2132" 
d="M1189 418q0 204 117.5 336.5t310.5 132.5q282 0 343.5 -170t61.5 -286v-431h-1546q-248 0 -342 74.5t-94 259.5v348h276v-311q0 -78 47.5 -103.5t192.5 -25.5h666q-33 66 -33 176zM1746 424q0 215 -139 215q-150 0 -150 -182q0 -103 47.5 -159t124.5 -56h117v182z" />
    <glyph glyph-name="xx.feh.init" horiz-adv-x="1121" 
d="M180 417q0 206 115 338t313 132q282 0 342.5 -170.5t60.5 -285.5v-431h-1011q-41 0 -61.5 21.5t-20.5 94.5t19.5 99.5t62.5 26.5h212q-32 64 -32 175zM737 424q0 215 -145.5 215t-145.5 -182q0 -103 47.5 -159t124.5 -56h119v182z" />
    <glyph glyph-name="xx.feh.medi" horiz-adv-x="1122" 
d="M418 447q0 -93 47.5 -149t124.5 -56h121v182q0 99 -30 157t-112 58q-151 0 -151 -192zM154 417q0 205 116.5 337.5t309.5 132.5q283 0 345 -171.5t62 -284.5v-189h135q41 0 61.5 -21.5t20.5 -93.5t-19.5 -99.5t-62.5 -27.5h-1122q-41 0 -61.5 21.5t-20.5 94.5t19.5 99.5
t62.5 26.5h186q-32 64 -32 175z" />
    <glyph glyph-name="xx.feh.fina" horiz-adv-x="2160" 
d="M1459 447q0 -94 48.5 -149.5t121.5 -55.5h121v182q0 98 -29 156.5t-112 58.5q-150 0 -150 -192zM1193 416q0 206 116.5 338.5t309.5 132.5q283 0 345 -171.5t62 -284.5v-189h134q40 0 61 -22t21 -93q0 -72 -20 -99.5t-62 -27.5h-1682q-247 0 -342.5 75t-95.5 259v348h276
v-311q0 -78 47.5 -103.5t192.5 -25.5h668q-31 62 -31 174z" />
    <glyph glyph-name="xx.qaf" horiz-adv-x="1601" 
d="M917 426q-1 -190 161 -190q82 0 136 30v140q0 235 -148.5 235t-148.5 -215zM1490 160q0 -277 -198.5 -440t-557.5 -163q-510 0 -602 200.5t-92 333.5v224h276v-165q0 -262 159 -306.5t278 -44.5q214 0 320 68.5t130 150.5q-65 -18 -153 -18q-183 0 -293.5 107t-110.5 306
t114.5 336.5t324.5 137.5t307.5 -136t97.5 -360v-231z" />
    <glyph glyph-name="xx.qaf.fina" horiz-adv-x="1622" 
d="M316 150q0 -351 428 -351q198 0 311 57.5t146 143.5h-131q-306 0 -366 156t-60 258q0 200 116 336.5t314 136.5q416 0 416 -547v-98h133q41 0 61.5 -21.5t20.5 -93.5t-19.5 -99.5t-62.5 -27.5h-146q-45 -214 -233.5 -328.5t-509.5 -114.5q-510 0 -602 200.5t-92 333.5
v224h276v-165zM1212 406q0 235 -148 235t-149 -215q0 -96 42.5 -140t114.5 -44h140v164z" />
    <glyph glyph-name="xx.wasla" 
d="M67 1925q68 0 105 -43t37 -119v-125h-449v103h74v164h100v-31q65 51 133 51zM66 1819q-76 0 -132 -57v-21h177v10q-1 68 -45 68z" />
    <glyph glyph-name="xx.1dot" horiz-adv-x="678" 
d="M242 1293q40 40 82 40t67 -10.5t43.5 -29.5t29.5 -44t11 -67t-40.5 -82.5t-82.5 -40.5t-66.5 11t-54 39.5t-29.5 86t40 97.5z" />
    <glyph glyph-name="xx.2dots" horiz-adv-x="774" 
d="M447 1292.5q39 40.5 82 40.5t68 -10.5t43.5 -29.5t29.5 -44t11 -67t-40.5 -82.5t-82.5 -40.5t-67 11t-54 40t-29 85.5t39 97zM108 1293q40 40 82 40t67 -10.5t43.5 -29.5t29.5 -44t11 -67t-40.5 -82.5t-82.5 -40.5t-66.5 11t-54 39.5t-29.5 86t40 97.5z" />
    <glyph glyph-name="xx.3dots" horiz-adv-x="774" 
d="M283.5 1568q40.5 40 82.5 40t66.5 -10.5t43 -29.5t29.5 -44t11 -67t-40.5 -82.5t-82.5 -40.5t-66.5 11t-54 39.5t-29.5 86t40.5 97.5zM445 1292.5q39 40.5 82 40.5t68 -10.5t43.5 -29.5t29.5 -44t11 -67t-40.5 -82.5t-82.5 -40.5t-67 11t-54 40t-29 85.5t39 97zM106 1293
q40 40 82 40t67 -10.5t43.5 -29.5t29.5 -44t11 -67t-40.5 -82.5t-82.5 -40.5t-66.5 11t-54 39.5t-29.5 86t40 97.5z" />
    <glyph glyph-name="xx.2dots.b" horiz-adv-x="774" 
d="M447 -206.5q39 40.5 82 40.5t68 -10.5t43.5 -29.5t29.5 -44t11 -67t-40.5 -82.5t-82.5 -40.5t-67 11t-54 40t-29 85.5t39 97zM108 -206q40 40 82 40t67 -10.5t43.5 -29.5t29.5 -44t11 -67t-40.5 -82.5t-82.5 -40.5t-66.5 11t-54 39.5t-29.5 86t40 97.5z" />
    <glyph glyph-name="xx.1dot.b" horiz-adv-x="610" 
d="M204 -206.5q39 40.5 82 40.5t68 -10.5t43.5 -29.5t29.5 -44t11 -67t-41 -82.5t-83 -40.5t-66.5 11t-53.5 40t-29 85.5t39 97z" />
    <glyph glyph-name="xx.3dots.b" horiz-adv-x="774" 
d="M397 -150q0 32 22 54t53 22t54 -22t23 -54t-23 -53.5t-54 -21.5t-53 21.5t-22 53.5zM223 -150q0 32 21.5 54t53.5 22t54 -22t22 -54t-22 -53.5t-54 -21.5t-53.5 21.5t-21.5 53.5zM310 -304q0 31 22 53.5t46 22.5q40 0 62.5 -23t22.5 -54t-23.5 -53.5t-54.5 -22.5t-53 23
t-22 54z" />
    <glyph glyph-name="xx.hamza" horiz-adv-x="856" 
d="M436 1303q0 -80 103 -80h131v-172h-482v172h97q-21 32 -21 94q0 114 64.5 173.5t160.5 59.5q55 0 127 -24v-164q-64 16 -102 16t-58 -22.5t-20 -52.5z" />
    <glyph glyph-name="xx.gaf" 
d="M-86 1146v260l721 384v-257z" />
    <glyph glyph-name="uni0627.short" horiz-adv-x="524" 
d="M403 1238v-1238h-276v1238h276z" />
    <glyph glyph-name="uniFE8E.short" horiz-adv-x="541" 
d="M625 111q0 -111 -82 -111h-90q-237 0 -281.5 113.5t-44.5 205.5v919h276v-882q0 -70 23 -92t78 -22h39q40 0 61 -22t21 -109z" />
    </font>
</defs>
</svg>
