<?xml version="1.0" standalone="no"?>
<!DOCTYPE svg PUBLIC "-//W3C//DTD SVG 1.1//EN" "http://www.w3.org/Graphics/SVG/1.1/DTD/svg11.dtd" >
<svg xmlns="http://www.w3.org/2000/svg" xmlns:xlink="http://www.w3.org/1999/xlink" version="1.1">
<metadata>
Created by FontForge 20170910 at Sat Jun 11 12:46:03 2016
 By jimmywarting
Copyright (c) 2012 Monotype Imaging Inc. All rights reserved. This software is the property of Monotype Imaging Inc., and may not be reproduced, used, displayed, modified, disclosed or transferred without the express written approval of Monotype Imaging Inc. and/or its affiliated companies.
</metadata>
<defs>
<font id="HelveticaNeueW23forSKY-Reg" horiz-adv-x="1139" >
  <font-face 
    font-family="HelveticaNeueW23forSKY-Reg"
    font-weight="400"
    font-stretch="normal"
    units-per-em="2048"
    panose-1="2 11 6 4 2 2 2 2 2 4"
    ascent="1638"
    descent="-410"
    x-height="1059"
    cap-height="1462"
    bbox="-393 -683 2812 2845"
    underline-thickness="102"
    underline-position="-205"
    unicode-range="U+000D-FEFC"
  />
<missing-glyph horiz-adv-x="1049" 
d="M455 377h114v-137h-114v137zM525 1247q115 0 187 -74t72 -194q0 -82 -34 -136t-98 -112q-65 -58 -81 -94t-16 -158h-94l-4 40q1 117 35 176t80 101t78 82q30 40 30 102t-47 114t-111 51q-64 0 -109 -47.5t-57 -146.5l-102 16q14 138 85 209t186 71zM946 102v1264h-844
v-1264h844zM1049 1470v-1470h-1049v1470h1049z" />
    <glyph glyph-name="uniFEF5" unicode="&#xfedf;&#xfe82;" horiz-adv-x="1257" arabic-form="isolated" 
d="M200.5 1432q69.5 0 114.5 -16.5t127 -52.5t152 -36t146 35l23 -91q-89 -49 -166.5 -49t-129 16.5t-97 36.5t-86.5 36.5t-97 16.5t-122 -39l-23 89q89 54 158.5 54zM1117 1429v-1429h-1047v170h412l-153 945h174l153 -945h287v1259h174z" />
    <glyph glyph-name="uniFEF6" unicode="&#xfee0;&#xfe82;" horiz-adv-x="1303" arabic-form="final" 
d="M209.5 1436q69.5 0 114.5 -16.5t127 -52.5t152 -36t146 35l23 -91q-89 -49 -166.5 -49t-129 16.5t-97 36.5t-86.5 36.5t-97 16.5t-122 -39l-23 89q89 54 158.5 54zM70 0v170h410l-157 945h176l157 -945h120q88 0 115 19q51 36 51 130v1110h176v-1034q0 -114 26.5 -153.5
t61 -55.5t88.5 -16q82 0 82 -82q0 -51 -19.5 -69.5t-57.5 -18.5q-72 0 -127.5 32.5t-79.5 82.5q-62 -115 -266 -115h-756z" />
    <glyph glyph-name="uniFEF7" unicode="&#xfedf;&#xfe84;" horiz-adv-x="1257" arabic-form="isolated" 
d="M1117 1429v-1429h-1047v170h412l-153 945h174l153 -945h287v1259h174zM469 1509q-105 0 -105 -93q0 -41 26 -70t80 -29h115v-93h-375v93h92q-29 48 -29 98.5t15 84.5t39.5 57t56 34.5t84 11.5t78.5 -18v-94q-41 18 -77 18z" />
    <glyph glyph-name="uniFEF8" unicode="&#xfee0;&#xfe84;" horiz-adv-x="1303" arabic-form="final" 
d="M70 0v170h410l-157 945h176l157 -945h120q88 0 115 19q51 36 51 130v1110h176v-1034q0 -166 96 -209q36 -16 90 -16q82 0 82 -82q0 -51 -19.5 -69.5t-57.5 -18.5q-73 0 -133 33t-84 82q-62 -115 -266 -115h-756zM469 1509q-105 0 -105 -93q0 -41 26 -70t80 -29h115v-93
h-375v93h92q-29 48 -29 98.5t15 84.5t39.5 57t56 34.5t84 11.5t78.5 -18v-94q-41 18 -77 18z" />
    <glyph glyph-name="uniFEF9" unicode="&#xfedf;&#xfe88;" horiz-adv-x="1257" arabic-form="isolated" 
d="M1117 1429v-1429h-1047v170h412l-167 989h174l167 -989h287v1259h174zM572 -215q-106 0 -106 -93q0 -40 26 -69t80 -29h115v-94h-375v94h92q-29 48 -29 98t15 84.5t39.5 57.5t56 35t84 12t78.5 -18v-97q-39 19 -76 19z" />
    <glyph glyph-name="uniFEFA" unicode="&#xfee0;&#xfe88;" horiz-adv-x="1303" arabic-form="final" 
d="M70 0v170h410l-165 989h176l165 -989h120q88 0 115 19q51 36 51 130v1110h176v-1034q0 -114 26.5 -153.5t61 -55.5t88.5 -16q82 0 82 -82q0 -51 -19.5 -69.5t-57.5 -18.5q-72 0 -127.5 32.5t-79.5 82.5q-62 -115 -266 -115h-756zM571 -215q-106 0 -106 -93q0 -40 26 -69
t80 -29h115v-94h-375v94h92q-29 48 -29 98t15 84.5t39.5 57.5t56 35t84 12t78.5 -18v-97q-39 19 -76 19z" />
    <glyph glyph-name="uniFEFB" unicode="&#xfedf;&#xfe8e;" horiz-adv-x="1257" arabic-form="isolated" 
d="M1117 1429v-1429h-1047v170h412l-167 989h174l167 -989h287v1259h174z" />
    <glyph glyph-name="uniFEFC" unicode="&#xfee0;&#xfe8e;" horiz-adv-x="1303" arabic-form="final" 
d="M70 0v170h410l-165 989h176l165 -989h120q88 0 115 19q51 36 51 130v1110h176v-1034q0 -114 26.5 -153.5t61 -55.5t88.5 -16q82 0 82 -82q0 -51 -19.5 -69.5t-57.5 -18.5q-72 0 -127.5 32.5t-79.5 82.5q-62 -115 -266 -115h-756z" />
    <glyph glyph-name="uni06440671" unicode="&#xfedf;&#xfb51;" horiz-adv-x="1257" 
d="M1117 1429v-1429h-1047v170h412l-167 989h174l167 -989h287v1259h174zM454 1578q60 0 93.5 -37.5t33.5 -105.5v-108h-416v67h73v164h66v-66q61 86 150 86zM519 1423q0 86 -76 86q-63 0 -113 -71q-14 -21 -24 -44h213v29z" />
    <glyph glyph-name="uni06440671.fina" unicode="&#xfee0;&#xfb51;" horiz-adv-x="1303" 
d="M70 0v170h410l-165 989h176l165 -989h120q88 0 115 19q51 36 51 130v1110h176v-1034q0 -114 26.5 -153.5t61 -55.5t88.5 -16q82 0 82 -82q0 -51 -19.5 -69.5t-57.5 -18.5q-72 0 -127.5 32.5t-79.5 82.5q-62 -115 -266 -115h-756zM454 1578q60 0 93.5 -37.5t33.5 -105.5
v-108h-416v67h73v164h66v-66q61 86 150 86zM519 1423q0 86 -76 86q-63 0 -113 -71q-14 -21 -24 -44h213v29z" />
    <glyph glyph-name="uni0621" unicode="&#x621;" horiz-adv-x="733" arabic-form="isolated" 
d="M324 450.5q-43 -49.5 -43 -102.5q0 -201 196 -201h193v-147h-617v147h150q-68 82 -68 176q0 163 88.5 244.5t209 81.5t165.5 -16v-160q-62 27 -146.5 27t-127.5 -49.5z" />
    <glyph glyph-name="uni0622" unicode="&#x622;" horiz-adv-x="454" arabic-form="isolated" 
d="M314 1238v-1238h-174v1238h174zM35.5 1576q69.5 0 114.5 -16.5t127 -52.5t152 -36t146 35l23 -91q-89 -49 -166.5 -49t-129 16.5t-97 36.5t-86.5 36.5t-97 16.5t-122 -39l-23 89q89 54 158.5 54z" />
    <glyph glyph-name="uni0623" unicode="&#x623;" horiz-adv-x="454" arabic-form="isolated" 
d="M314 1238v-1238h-174v1238h174zM299 1615q-105 0 -105 -93q0 -41 26 -70t80 -29h115v-93h-375v93h92q-29 48 -29 98.5t15 84.5t39.5 57t56 34.5t84 11.5t78.5 -18v-94q-41 18 -77 18z" />
    <glyph glyph-name="uni0624" unicode="&#x624;" horiz-adv-x="1035" arabic-form="isolated" 
d="M346.5 224.5q62.5 -60.5 153.5 -60.5q157 0 240 65v94q0 235 -118 307q-42 26 -105 25.5t-107 -24.5q-44 -23 -72 -61q-54 -73 -54 -179t62.5 -166.5zM525 817q387 0 387 -533v-225q0 -283 -139.5 -392t-451.5 -109h-86v170h63q250 0 346 55.5t96 216.5v59
q-104 -59 -243 -59q-265 0 -348 206q-29 72 -29 164q0 187 109.5 317t295.5 130zM468.5 1354.5q-32.5 -36.5 -32.5 -89t35 -91.5t106 -39h141v-109h-446v109h104q-47 56 -47 126q0 120 64.5 179t150 59t123.5 -16v-111q-49 19 -107.5 19t-91 -36.5z" />
    <glyph glyph-name="uni0625" unicode="&#x625;" horiz-adv-x="454" arabic-form="isolated" 
d="M314 1429v-1429h-174v1429h174zM280 -215q-106 0 -106 -93q0 -40 26 -69t80 -29h115v-94h-375v94h92q-29 48 -29 98t15 84.5t39.5 57.5t56 35t84 12t78.5 -18v-97q-39 19 -76 19z" />
    <glyph glyph-name="uni0626" unicode="&#x626;" horiz-adv-x="1559" arabic-form="isolated" 
d="M1296 639q-144 0 -214.5 -52t-70.5 -140q0 -87 143 -149q41 -18 83 -36q107 -46 155 -88q70 -64 71 -152q1 -187 -151 -288q-171 -115 -548 -115q-714 0 -714 500v205h174v-168q0 -185 120.5 -276t443.5 -91q323 -1 441 95q44 36 44 80.5t-18.5 70.5t-49.5 46.5t-70 38
t-79 36.5q-102 48 -160 106q-58 56 -58 146q0 179 118 294t333 115q83 0 129.5 -16t50.5 -19v-172q-94 29 -173 29zM233 755.5q0 -52.5 35 -91.5t106 -39h141v-109h-446v109h104q-47 56 -47 126q0 120 64 179t150 59t124 -16v-111q-49 19 -93 19q-73 0 -105.5 -36.5
t-32.5 -89z" />
    <glyph glyph-name="uni0627" unicode="&#x627;" horiz-adv-x="454" arabic-form="isolated" 
d="M314 1429v-1429h-174v1429h174z" />
    <glyph glyph-name="uni0628" unicode="&#x628;" horiz-adv-x="1845" arabic-form="isolated" 
d="M1705 0h-1241q-235 0 -324.5 67t-89.5 232v317h174v-256q0 -122 64 -156t266 -34h977v618h174v-788zM793 -333.5q0 44.5 32 76.5q31 32 65 32q56 0 88 -32q32 -31 32 -65q0 -56 -32 -88t-65.5 -32t-53 8.5t-34.5 23.5q-32 32 -32 76.5z" />
    <glyph glyph-name="uni0629" unicode="&#x629;" horiz-adv-x="954" arabic-form="isolated" 
d="M731.5 694q112.5 -123 112.5 -314.5t-110 -290.5t-295 -99t-297 94.5t-112 285.5t114.5 319t294.5 128t292.5 -123zM271.5 570.5q-67.5 -80.5 -67.5 -191.5t66.5 -166t167.5 -55q155 0 211 120q19 41 19 101t-18 111t-50 87q-65 74 -163 74t-165.5 -80.5zM447 1132.5
q0 44.5 32 76.5q31 32 65 32q56 0 88 -32q32 -31 32 -65q0 -56 -32 -88t-65.5 -32t-53 8.5t-34.5 23.5q-32 32 -32 76.5zM181 1132.5q0 44.5 32 76.5q31 32 65 32q56 0 88 -32q32 -31 32 -65q0 -56 -32 -88t-65.5 -32t-53 8.5t-34.5 23.5q-32 32 -32 76.5z" />
    <glyph glyph-name="uni062A" unicode="&#x62a;" horiz-adv-x="1845" arabic-form="isolated" 
d="M1705 0h-1241q-235 0 -324.5 67t-89.5 232v317h174v-256q0 -122 64 -156t266 -34h977v618h174v-788zM914 1010.5q0 44.5 32 76.5t66 32q56 0 88 -32q32 -31 31 -65q0 -56 -32 -88t-65.5 -32t-53 8.5t-34.5 23.5q-32 32 -32 76.5zM648 1010.5q0 44.5 32 76.5t66 32
q56 0 88 -32q32 -31 31 -65q0 -56 -32 -88t-65.5 -32t-53 8.5t-34.5 23.5q-32 32 -32 76.5z" />
    <glyph glyph-name="uni062B" unicode="&#x62b;" horiz-adv-x="1845" arabic-form="isolated" 
d="M1705 0h-1241q-235 0 -324.5 67t-89.5 232v317h174v-256q0 -122 64 -156t266 -34h977v618h174v-788zM811 1333q32 32 65.5 32t53 -8.5t34.5 -23.5t23.5 -35t8.5 -42q0 -44 -32 -76t-65.5 -32t-53 8.5t-34.5 23.5q-32 32 -32 76.5t32 76.5zM908 1010.5q0 44.5 32 76.5
t66 32q56 0 88 -32q32 -31 31 -65q0 -56 -32 -88t-65.5 -32t-53 8.5t-34.5 23.5q-32 32 -32 76.5zM642 1010.5q0 44.5 32 76.5t66 32q56 0 88 -32q32 -31 31 -65q0 -56 -32 -88t-65.5 -32t-53 8.5t-34.5 23.5q-32 32 -32 76.5z" />
    <glyph glyph-name="uni062C" unicode="&#x62c;" horiz-adv-x="1234" arabic-form="isolated" 
d="M436 -519q-406 162 -406 411q0 139 107 208.5t290 69.5h520q0 247 -120.5 361t-315.5 114q-112 0 -235 -35v164q132 43 246 43t198.5 -24.5t150.5 -68.5q126 -83 189.5 -234.5t63.5 -339.5v-150h-732q-130 0 -171 -65q-14 -21 -14 -53q0 -59 80.5 -119.5t230.5 -127.5z
M683 -333.5q0 44.5 32 76.5q31 32 65 32q56 0 88 -32q32 -31 32 -65q0 -56 -32 -88t-65.5 -32t-53 8.5t-34.5 23.5q-32 32 -32 76.5z" />
    <glyph glyph-name="uni062D" unicode="&#x62d;" horiz-adv-x="1234" arabic-form="isolated" 
d="M436 -519q-406 162 -406 411q0 139 107 208.5t290 69.5h520q0 247 -120.5 361t-315.5 114q-112 0 -235 -35v164q132 43 246 43t198.5 -24.5t150.5 -68.5q126 -83 189.5 -234.5t63.5 -339.5v-150h-732q-130 0 -171 -65q-14 -21 -14 -53q0 -59 80.5 -119.5t230.5 -127.5z
" />
    <glyph glyph-name="uni062E" unicode="&#x62e;" horiz-adv-x="1234" arabic-form="isolated" 
d="M436 -519q-406 162 -406 411q0 139 107 208.5t290 69.5h520q0 247 -120.5 361t-315.5 114q-112 0 -235 -35v164q132 43 246 43t198.5 -24.5t150.5 -68.5q126 -83 189.5 -234.5t63.5 -339.5v-150h-732q-130 0 -171 -65q-14 -21 -14 -53q0 -59 80.5 -119.5t230.5 -127.5z
M521 1132.5q0 44.5 32 76.5q31 32 65 32q56 0 88 -32q32 -31 32 -65q0 -56 -32 -88t-65.5 -32t-53 8.5t-34.5 23.5q-32 32 -32 76.5z" />
    <glyph glyph-name="uni062F" unicode="&#x62f;" horiz-adv-x="927" arabic-form="isolated" 
d="M551 0h-490v170h475q70 0 95 43q24 43 -23 117l-263 411l151 95l278 -452q38 -62 42 -129.5t-24.5 -124t-89 -93.5t-151.5 -37z" />
    <glyph glyph-name="uni0630" unicode="&#x630;" horiz-adv-x="927" arabic-form="isolated" 
d="M551 0h-490v170h475q70 0 94.5 43.5t-22.5 116.5l-263 411l151 95l278 -452q38 -62 42 -129.5t-24.5 -124t-89 -93.5t-151.5 -37zM295 1132.5q0 44.5 32 76.5q31 32 65 32q56 0 88 -32q32 -31 32 -65q0 -56 -32 -88t-65.5 -32t-53 8.5t-34.5 23.5q-32 32 -32 76.5z" />
    <glyph glyph-name="uni0631" unicode="&#x631;" horiz-adv-x="625" arabic-form="isolated" 
d="M311 788h174v-687q0 -305 -79 -424t-305 -119h-61v170h68q136 0 174 94q28 70 29 301v665z" />
    <glyph glyph-name="uni0632" unicode="&#x632;" horiz-adv-x="625" arabic-form="isolated" 
d="M311 788h174v-687q0 -305 -78.5 -424t-305.5 -119h-61v170h68q136 0 174 94q28 70 29 301v665zM294 1132.5q0 44.5 32 76.5t66 32q56 0 88 -32q32 -31 31 -65q0 -56 -32 -88t-65.5 -32t-53 8.5t-34.5 23.5q-32 32 -32 76.5z" />
    <glyph glyph-name="uni0633" unicode="&#x633;" horiz-adv-x="2390" arabic-form="isolated" 
d="M1442 0q-204 0 -268 89v-23q0 -390 -322 -479q-104 -29 -239 -29q-280 0 -421.5 118.5t-141.5 372.5v275h174v-240q0 -282 220 -338q74 -18 175 -18q212 0 296.5 70.5t84.5 269.5v618h174v-291q0 -115 29 -154t69 -55t96 -16q115 0 153 26t38 123v367h174v-291
q0 -113 27 -153t61.5 -56t88.5 -16h166v618h174v-788h-290q-205 0 -263 120q-58 -106 -173 -116q-37 -4 -82 -4z" />
    <glyph glyph-name="uni0634" unicode="&#x634;" horiz-adv-x="2390" arabic-form="isolated" 
d="M1442 0q-204 0 -268 89v-23q0 -390 -322 -479q-104 -29 -239 -29q-280 0 -421.5 118.5t-141.5 372.5v275h174v-240q0 -282 220 -338q74 -18 175 -18q212 0 296.5 70.5t84.5 269.5v618h174v-291q0 -115 29 -154t69 -55t96 -16q115 0 153 26t38 123v367h174v-291
q0 -113 27 -153t61.5 -56t88.5 -16h166v618h174v-788h-290q-205 0 -263 120q-58 -106 -173 -116q-37 -4 -82 -4zM1577 1455q32 32 65.5 32t53 -8.5t34.5 -23.5t23.5 -35t8.5 -42q0 -44 -32 -76t-65.5 -32t-53 8.5t-34.5 23.5q-32 32 -32 76.5t32 76.5zM1674 1132.5
q0 44.5 32 76.5t66 32q56 0 88 -32q32 -31 31 -65q0 -56 -32 -88t-65.5 -32t-53 8.5t-34.5 23.5q-32 32 -32 76.5zM1408 1132.5q0 44.5 32 76.5t66 32q56 0 88 -32q32 -31 31 -65q0 -56 -32 -88t-65.5 -32t-53 8.5t-34.5 23.5q-32 32 -32 76.5z" />
    <glyph glyph-name="uni0635" unicode="&#x635;" horiz-adv-x="2707" arabic-form="isolated" 
d="M1432 0q-119 0 -173.5 23.5t-84.5 65.5v-23q0 -390 -322 -479q-104 -29 -239 -29q-280 0 -421.5 118.5t-141.5 372.5v275h174v-240q0 -282 220 -338q74 -18 175 -18q212 0 296.5 70.5t84.5 269.5v618h174v-291q0 -115 29 -154t68.5 -55t103.5 -16h27q88 257 271 437
q213 210 478 210q205 0 319.5 -124t114.5 -347v-346h-1153zM2411 321q0 328 -286 328q-182 0 -329 -145.5t-214 -333.5h829v151z" />
    <glyph glyph-name="uni0636" unicode="&#x636;" horiz-adv-x="2707" arabic-form="isolated" 
d="M1432 0q-119 0 -173.5 23.5t-84.5 65.5v-23q0 -390 -322 -479q-104 -29 -239 -29q-280 0 -421.5 118.5t-141.5 372.5v275h174v-240q0 -282 220 -338q74 -18 175 -18q212 0 296.5 70.5t84.5 269.5v618h174v-291q0 -115 29 -154t68.5 -55t103.5 -16h27q88 257 271 437
q213 210 478 210q205 0 319.5 -124t114.5 -347v-346h-1153zM2411 321q0 328 -286 328q-182 0 -329 -145.5t-214 -333.5h829v151zM2020 1132.5q0 44.5 32 76.5t66 32q56 0 88 -32q32 -31 31 -65q0 -56 -32 -88t-65.5 -32t-53 8.5t-34.5 23.5q-32 32 -32 76.5z" />
    <glyph glyph-name="uni0637" unicode="&#x637;" horiz-adv-x="1573" arabic-form="isolated" 
d="M1017 817q204 0 319 -125t115 -346v-346h-1421v170h254v1259h174v-953q218 341 559 341zM1277 340q0 309 -287 309q-182 0 -327 -145t-205 -334h819v170z" />
    <glyph glyph-name="uni0638" unicode="&#x638;" horiz-adv-x="1573" arabic-form="isolated" 
d="M1017 817q204 0 319 -125t115 -346v-346h-1421v170h254v1259h174v-953q218 341 559 341zM1277 340q0 309 -287 309q-182 0 -327 -145t-205 -334h819v170zM933 1132.5q0 44.5 32 76.5q31 32 65 32q56 0 88 -32q32 -31 32 -65q0 -56 -32 -88t-65.5 -32t-53 8.5t-34.5 23.5
q-32 32 -32 76.5z" />
    <glyph glyph-name="uni0639" unicode="&#x639;" horiz-adv-x="1064" arabic-form="isolated" 
d="M30 -110q0 238 288 279q-88 88 -88 241q0 198 144 310q124 97 303 97q134 0 200 -26v-183q-91 31 -175 31q-149 0 -222.5 -61.5t-73.5 -169.5q0 -166 148 -220q50 -18 116 -18h320v-170h-598q-130 0 -171 -65q-14 -21 -14 -53q0 -59 80.5 -119.5t230.5 -127.5l-82 -154
q-296 119 -379 289q-27 56 -27 120z" />
    <glyph glyph-name="uni063A" unicode="&#x63a;" horiz-adv-x="1064" arabic-form="isolated" 
d="M30 -110q0 238 288 279q-88 88 -88 241q0 198 144 310q124 97 303 97q134 0 200 -26v-183q-91 31 -175 31q-149 0 -222.5 -61.5t-73.5 -169.5q0 -166 148 -220q50 -18 116 -18h320v-170h-598q-130 0 -171 -65q-14 -21 -14 -53q0 -59 80.5 -119.5t230.5 -127.5l-82 -154
q-296 119 -379 289q-27 56 -27 120zM585 1129.5q0 44.5 32 76.5q31 32 65 32q56 0 88 -32t32 -66q0 -56 -32 -87.5t-65.5 -31.5t-53 8.5t-34.5 23.5q-32 32 -32 76.5z" />
    <glyph glyph-name="uni0641" unicode="&#x641;" horiz-adv-x="2101" arabic-form="isolated" 
d="M1188 382q0 196 112 316q110 120 308 119q198 1 296 -145q76 -113 75 -291v-381h-1515q-235 0 -324.5 67t-89.5 232v317h174v-256q0 -121 64 -155.5t268 -34.5h690q-58 109 -58 212zM1432.5 231.5q69.5 -61.5 184.5 -61.5h188v205q0 122 -33 176t-77 79t-104 25
q-60 1 -100 -19q-41 -20 -69 -53q-60 -69 -59.5 -179.5t70 -172zM1510 1132.5q0 44.5 32 76.5t66 32q56 0 88 -32q32 -31 31 -65q0 -56 -32 -88t-65.5 -32t-53 8.5t-34.5 23.5q-32 32 -32 76.5z" />
    <glyph glyph-name="uni0642" unicode="&#x642;" horiz-adv-x="1536" arabic-form="isolated" 
d="M848.5 224.5q62.5 -60.5 153.5 -60.5q157 0 240 65v94q0 235 -118 307q-42 26 -105 25.5t-107 -24.5q-44 -23 -72 -61q-54 -73 -54 -179t62.5 -166.5zM1027 817q387 0 387 -533v-190q0 -422 -396 -508q-126 -28 -300 -28q-344 0 -516 143q-152 126 -152 357v266h166v-229
q0 -369 518 -369q332 0 435 102q73 72 73 199v32q-104 -59 -243 -59q-265 0 -348 206q-29 72 -29 164q0 187 109.5 317t295.5 130zM1035 1132.5q0 44.5 32 76.5q31 32 65 32q56 0 88 -32q32 -31 32 -65q0 -56 -32 -88t-65.5 -32t-53 8.5t-34.5 23.5q-32 32 -32 76.5z
M769 1132.5q0 44.5 32 76.5q31 32 65 32q56 0 88 -32q32 -31 32 -65q0 -56 -32 -88t-65.5 -32t-53 8.5t-34.5 23.5q-32 32 -32 76.5z" />
    <glyph glyph-name="uni0643" unicode="&#x643;" horiz-adv-x="1845" arabic-form="isolated" 
d="M1705 0h-1241q-235 0 -324.5 67t-89.5 232v317h174v-256q0 -122 64 -156t266 -34h977v1259h174v-1429zM990 889q-106 0 -106 -93q0 -40 26 -69t80 -29h115v-94h-375v94h92q-29 48 -29 98t15 84.5t39.5 58t56 35t84 11.5t78.5 -18v-97q-39 19 -76 19z" />
    <glyph glyph-name="uni0644" unicode="&#x644;" horiz-adv-x="1314" arabic-form="isolated" 
d="M224 125q0 -397 393 -397q207 0 295 88t88 293v1320h174v-1322q0 -269 -138.5 -409t-422.5 -140q-417 0 -527 308q-36 99 -36 224v274h174v-239z" />
    <glyph glyph-name="uni0645" unicode="&#x645;" horiz-adv-x="1242" arabic-form="isolated" 
d="M957 362q-1 167 -115 219q-38 17 -85 17q-208 0 -291 -340q142 -111 288 -111q203 0 203 215zM763 -27q-184 0 -379 144q-100 -27 -131 -89.5t-31 -224.5v-245h-172v249q0 211 51.5 309.5t206.5 161.5q76 350 294 452q77 36 161 36q166 0 267.5 -107t101.5 -279
q0 -292 -206 -378q-70 -29 -163 -29z" />
    <glyph glyph-name="uni0646" unicode="&#x646;" horiz-adv-x="1314" arabic-form="isolated" 
d="M50 559h174v-280q0 -194 94.5 -275.5t303 -81.5t293.5 70.5t85 269.5v526h174v-528q0 -402 -322 -482q-104 -26 -239 -26q-280 0 -421.5 127.5t-141.5 364.5v315zM511 863.5q0 44.5 32 76.5q31 32 65 32q56 0 88 -32t32 -66q0 -56 -32 -87.5t-65.5 -31.5t-53 8.5
t-34.5 23.5q-32 32 -32 76.5z" />
    <glyph glyph-name="uni0648" unicode="&#x648;" horiz-adv-x="1035" arabic-form="isolated" 
d="M346.5 224.5q62.5 -60.5 153.5 -60.5q157 0 240 65v94q0 235 -118 307q-42 26 -105 25.5t-107 -24.5q-44 -23 -72 -61q-54 -73 -54 -179t62.5 -166.5zM525 817q387 0 387 -533v-225q0 -283 -139.5 -392t-451.5 -109h-86v170h63q250 0 346 55.5t96 216.5v59
q-104 -59 -243 -59q-265 0 -348 206q-29 72 -29 164q0 187 109.5 317t295.5 130z" />
    <glyph glyph-name="uni0649" unicode="&#x649;" horiz-adv-x="1559" arabic-form="isolated" 
d="M1296 639q-144 0 -214.5 -52t-70.5 -140q0 -87 143 -149q41 -18 83 -36q107 -46 155 -88q70 -64 71 -152q1 -187 -151 -288q-171 -115 -548 -115q-714 0 -714 500v205h174v-168q0 -185 120.5 -276t443.5 -91q323 -1 441 95q44 36 44 80.5t-18.5 70.5t-49.5 46.5t-70 38
t-79 36.5q-102 48 -160 106q-58 56 -58 146q0 179 118 294t333 115q83 0 129.5 -16t50.5 -19v-172q-94 29 -173 29z" />
    <glyph glyph-name="uni064A" unicode="&#x64a;" horiz-adv-x="1559" arabic-form="isolated" 
d="M1296 732q-144 0 -214.5 -52t-70.5 -140t143 -150q41 -18 83 -34q107 -44 155 -88q70 -64 71 -153q1 -187 -151 -288q-171 -115 -548 -115q-714 0 -714 500v205h174v-168q0 -185 120.5 -276t443.5 -91t441 96q44 36 44 80t-18.5 70t-49.5 46.5t-70 38t-79 36.5
q-103 48 -160.5 105.5t-57.5 147.5q0 179 118 293.5t333 114.5q83 0 129.5 -16t50.5 -19v-172q-94 29 -173 29zM800 -507.5q0 44.5 32 76.5t66 32q56 0 88 -32q32 -31 31 -65q0 -56 -32 -88t-65.5 -32t-53 8.5t-34.5 23.5q-32 32 -32 76.5zM534 -507.5q0 44.5 32 76.5t66 32
q56 0 88 -32q32 -31 31 -65q0 -56 -32 -88t-65.5 -32t-53 8.5t-34.5 23.5q-32 32 -32 76.5z" />
    <glyph glyph-name="uni0671" unicode="&#x671;" horiz-adv-x="454" arabic-form="isolated" 
d="M314 1238v-1238h-174v1238h174zM296 1615q60 0 93.5 -37.5t33.5 -105.5v-108h-416v67h73v164h66v-66q61 86 150 86zM361 1460q0 86 -76 86q-63 0 -113 -71q-14 -21 -24 -44h213v29z" />
    <glyph glyph-name="uni0679" unicode="&#x679;" horiz-adv-x="1845" arabic-form="isolated" 
d="M1705 0h-1241q-235 0 -324.5 67t-89.5 232v317h174v-256q0 -122 64 -156t266 -34h977v618h174v-788zM999 1152q75 0 118.5 -48t43.5 -134v-140h-533v86h96v424h82v-297q81 109 193 109zM1081 955q0 109 -95 109q-54 0 -103.5 -42t-72.5 -106h271v39z" />
    <glyph glyph-name="uni067E" unicode="&#x67e;" horiz-adv-x="1845" arabic-form="isolated" 
d="M1705 0h-1241q-235 0 -324.5 67t-89.5 232v317h174v-256q0 -122 64 -156t266 -34h977v618h174v-788zM957 -310q0 -29 -21.5 -50.5t-50.5 -21.5t-50.5 21.5t-21.5 50.5t21.5 50.5t50.5 21.5t50.5 -21.5t21.5 -50.5zM871 -147.5q0 -29.5 -21 -50.5t-50.5 -21t-50.5 21
t-21 50.5t21 50.5t50.5 21t50.5 -21t21 -50.5zM1047 -147.5q0 -29.5 -21 -50.5t-50.5 -21t-50.5 21t-21 50.5t21 50.5t50.5 21t50.5 -21t21 -50.5z" />
    <glyph glyph-name="uni0686" unicode="&#x686;" horiz-adv-x="1229" arabic-form="isolated" 
d="M810 -375q0 -29 -21.5 -50.5t-50.5 -21.5t-50.5 21.5t-21.5 50.5t21.5 50.5t50.5 21.5t50.5 -21.5t21.5 -50.5zM724 -212.5q0 -29.5 -21 -50.5t-50.5 -21t-50.5 21t-21 50.5t21 50.5t50.5 21t50.5 -21t21 -50.5zM900 -212.5q0 -29.5 -21 -50.5t-50.5 -21t-50.5 21
t-21 50.5t21 50.5t50.5 21t50.5 -21t21 -50.5zM393 -519q-406 162 -406 411q0 139 107 208.5t290 69.5h520q0 247 -120.5 361t-315.5 114q-113 0 -235 -35v164q132 43 246 43t198.5 -24.5t150.5 -68.5q126 -83 189.5 -234.5t63.5 -339.5v-150h-732q-130 0 -171 -65
q-14 -21 -14 -53q0 -59 80.5 -119.5t230.5 -127.5z" />
    <glyph glyph-name="uni0688" unicode="&#x688;" horiz-adv-x="927" arabic-form="isolated" 
d="M551 0h-490v170h475q70 0 94.5 43.5t-22.5 116.5l-263 411l151 95l278 -452q38 -62 42 -129.5t-24.5 -124t-89 -93.5t-151.5 -37zM536 1274q75 0 118.5 -48t43.5 -134v-140h-533v86h96v424h82v-297q81 109 193 109zM618 1077q0 109 -95 109q-54 0 -103.5 -42t-72.5 -106
h271v39z" />
    <glyph glyph-name="uni0691" unicode="&#x691;" horiz-adv-x="625" arabic-form="isolated" 
d="M311 788h174v-687q0 -305 -78.5 -424t-305.5 -119h-61v170h68q136 0 174 94q28 70 29 301v665zM456 1274q75 0 118.5 -48t43.5 -134v-140h-533v86h96v424h82v-297q81 109 193 109zM538 1077q0 109 -95 109q-54 0 -103.5 -42t-72.5 -106h271v39z" />
    <glyph glyph-name="uni0698" unicode="&#x698;" horiz-adv-x="625" arabic-form="isolated" 
d="M311 788h174v-687q0 -305 -78.5 -424t-305.5 -119h-61v170h68q136 0 174 94q28 70 29 301v665zM328 1455q32 32 65.5 32t53 -8.5t34.5 -23.5t23.5 -35t8.5 -42q0 -44 -32 -76t-65.5 -32t-53 8.5t-34.5 23.5q-32 32 -32 76.5t32 76.5zM425 1132.5q0 44.5 32 76.5
q31 32 65 32q56 0 88 -32q32 -31 32 -65q0 -56 -32 -88t-65.5 -32t-53 8.5t-34.5 23.5q-32 32 -32 76.5zM159 1132.5q0 44.5 32 76.5q31 32 65 32q56 0 88 -32q32 -31 32 -65q0 -56 -32 -88t-65.5 -32t-53 8.5t-34.5 23.5q-32 32 -32 76.5z" />
    <glyph glyph-name="uni06A4" unicode="&#x6a4;" horiz-adv-x="2101" arabic-form="isolated" 
d="M1188 382q0 196 112 316q110 120 308 119q198 1 296 -145q76 -113 75 -291v-381h-1515q-235 0 -324.5 67t-89.5 232v317h174v-256q0 -121 64 -155.5t268 -34.5h690q-58 109 -58 212zM1432.5 231.5q69.5 -61.5 184.5 -61.5h188v205q0 122 -33 176t-77 79t-104 25
q-60 1 -100 -19q-41 -20 -69 -53q-60 -69 -59.5 -179.5t70 -172zM1501 1455q32 32 65.5 32t53 -8.5t34.5 -23.5t23.5 -35t8.5 -42q0 -44 -32 -76t-65.5 -32t-53 8.5t-34.5 23.5q-32 32 -32 76.5t32 76.5zM1598 1132.5q0 44.5 32 76.5t66 32q56 0 88 -32q32 -31 31 -65
q0 -56 -32 -88t-65.5 -32t-53 8.5t-34.5 23.5q-32 32 -32 76.5zM1332 1132.5q0 44.5 32 76.5t66 32q56 0 88 -32q32 -31 31 -65q0 -56 -32 -88t-65.5 -32t-53 8.5t-34.5 23.5q-32 32 -32 76.5z" />
    <glyph glyph-name="uni06A9" unicode="&#x6a9;" horiz-adv-x="1812" arabic-form="isolated" 
d="M1364 170q177 0 177 129q0 118 -157 256t-366 222v180l665 432v-200l-485 -298q263 -123 383 -282q121 -159 121 -320q0 -189 -157 -261q-62 -28 -160 -28h-921q-235 0 -325 67q-89 67 -89 232v317h174v-256q0 -122 64 -156t266 -34h810z" />
    <glyph glyph-name="uni06AF" unicode="&#x6af;" horiz-adv-x="1812" arabic-form="isolated" 
d="M1364 170q177 0 177 129q0 118 -157 256t-366 222v180l665 432v-200l-485 -298q263 -123 383 -282q121 -159 121 -320q0 -189 -157 -261q-62 -28 -160 -28h-921q-235 0 -325 67q-89 67 -89 232v317h174v-256q0 -122 64 -156t266 -34h810zM1017 1077v181l667 412v-178z
" />
    <glyph glyph-name="uni06BA" unicode="&#x6ba;" horiz-adv-x="1314" arabic-form="isolated" 
d="M50 559h174v-280q0 -194 94 -275q94 -82 303 -82q208 0 294 70q85 70 85 270v526h174v-528q0 -402 -322 -482q-104 -26 -239 -26q-280 0 -421.5 127.5t-141.5 364.5v315z" />
    <glyph glyph-name="uni06C0" unicode="&#x6c0;" horiz-adv-x="954" arabic-form="isolated" 
d="M731.5 694q112.5 -123 112.5 -314.5t-110 -290.5t-295 -99t-297 94.5t-112 285.5t114.5 319t294.5 128t292.5 -123zM271.5 570.5q-67.5 -80.5 -67.5 -191.5t66.5 -166t167.5 -55q155 0 211 120q19 41 19 101t-18 111t-50 87q-65 74 -163 74t-165.5 -80.5zM497 1313
q-105 0 -105 -93q0 -41 26 -70t80 -29h115v-93h-375v93h92q-29 48 -29 98.5t15 84.5t39.5 57t56 34.5t84 11.5t78.5 -18v-94q-41 18 -77 18z" />
    <glyph glyph-name="uni06C1" unicode="&#x6c1;" horiz-adv-x="954" arabic-form="isolated" 
d="M731.5 694q112.5 -123 112.5 -314.5t-110 -290.5t-295 -99t-297 94.5t-112 285.5t114.5 319t294.5 128t292.5 -123zM271.5 570.5q-67.5 -80.5 -67.5 -191.5t66.5 -166t167.5 -55q155 0 211 120q19 41 19 101t-18 111t-50 87q-65 74 -163 74t-165.5 -80.5z" />
    <glyph glyph-name="uni06C2.fina" unicode="&#x6c2;" horiz-adv-x="767" 
d="M849 88q0 -51 -19.5 -69.5t-80 -18.5t-113.5 25t-89 63t-61 82t-47 82t-47 63t-61 25q-117 0 -117 -269q0 -74 6 -120h-164q-6 36 -6 147q0 209 79 310.5t194 101.5t187 -88q32 -38 56 -82t52 -82q64 -88 147.5 -88t83.5 -82zM379 998q-105 0 -105 -93q0 -41 26 -70
t80 -29h115v-93h-375v93h92q-29 48 -29 98.5t15 84.5t39.5 57t56 34.5t84 11.5t78.5 -18v-94q-41 18 -77 18z" />
    <glyph glyph-name="uni06C3.fina" unicode="&#x6c3;" horiz-adv-x="969" 
d="M442 168q-72 0 -114 5.5t-84 20.5q-96 34 -155 112t-59 201q0 217 133 321q113 88 291 87h332v-587q0 -90 21 -115q35 -43 124 -43h38q82 0 82 -82q0 -51 -19 -69.5t-63 -18.5h-64q-260 0 -287 205q-104 -37 -176 -37zM447 342q85 0 167 37v364h-182q-162 -1 -211 -115
q-17 -40 -17 -87.5t12 -83t38 -61t67 -40t126 -14.5zM505 1288.5q0 44.5 32 76.5q31 32 65 32q56 0 88 -32q32 -31 32 -65q0 -56 -32 -88t-65.5 -32t-53 8.5t-34.5 23.5q-32 32 -32 76.5zM239 1288.5q0 44.5 32 76.5q31 32 65 32q56 0 88 -32q32 -31 32 -65q0 -56 -32 -88
t-65.5 -32t-53 8.5t-34.5 23.5q-32 32 -32 76.5z" />
    <glyph glyph-name="uni06CC" unicode="&#x6cc;" horiz-adv-x="1559" arabic-form="isolated" 
d="M1296 639q-144 0 -214.5 -52t-70.5 -140q0 -87 143 -149q41 -18 83 -36q107 -46 155 -88q70 -64 71 -152q1 -187 -151 -288q-171 -115 -548 -115q-714 0 -714 500v205h174v-168q0 -185 120.5 -276t443.5 -91q323 -1 441 95q44 36 44 80.5t-18.5 70.5t-49.5 46.5t-70 38
t-79 36.5q-102 48 -160 106q-58 56 -58 146q0 179 118 294t333 115q83 0 129.5 -16t50.5 -19v-172q-94 29 -173 29z" />
    <glyph glyph-name="uni06D2" unicode="&#x6d2;" horiz-adv-x="1693" arabic-form="isolated" 
d="M1641 35q-367 -80 -930 -80q-333 -1 -495 55q-186 64 -186 237q0 219 366 309q72 18 109.5 31t65.5 41t44 150h168q-16 -148 -42 -198t-52 -72.5t-66 -40.5t-143.5 -41.5t-150.5 -41.5t-77 -38t-42 -41q-12 -23 -12 -55q0 -68 142 -96q140 -28 474 -29q334 1 726 63
q60 10 101 19v-172z" />
    <glyph glyph-name="uni06D3" unicode="&#x6d3;" horiz-adv-x="1693" arabic-form="isolated" 
d="M1641 35q-367 -80 -930 -80q-333 -1 -495 55q-186 64 -186 237q0 219 366 309q72 18 109.5 31t65.5 41t44 150h168q-16 -148 -42 -198t-52 -72.5t-66 -40.5t-143.5 -41.5t-150.5 -41.5t-77 -38t-42 -41q-12 -23 -12 -55q0 -68 142 -96q140 -28 474 -29q334 1 726 63
q60 10 101 19v-172zM387 1169q-105 0 -105 -93q0 -41 26 -70t80 -29h115v-93h-375v93h92q-29 48 -29 98.5t15 84.5t39.5 57t56 34.5t84 11.5t78.5 -18v-94q-41 18 -77 18z" />
    <glyph glyph-name="uni06D5.fina" unicode="&#x6d5;" horiz-adv-x="969" 
d="M442 168q-72 0 -114 5.5t-84 20.5q-96 34 -155 112t-59 201q0 217 133 321q113 88 291 87h332v-587q0 -90 21 -115q35 -43 124 -43h38q82 0 82 -82q0 -51 -19 -69.5t-63 -18.5h-64q-260 0 -287 205q-104 -37 -176 -37zM447 342q85 0 167 37v364h-182q-162 -1 -211 -115
q-17 -40 -17 -87.5t12 -83t38 -61t67 -40t126 -14.5z" />
    <glyph glyph-name="uniFB51" unicode="&#x671;" horiz-adv-x="463" arabic-form="final" 
d="M464 170q81 0 81 -82q0 -51 -19 -69.5t-63 -18.5h-30q-142 0 -217.5 65t-75.5 218v954h174v-909q0 -90 22 -115q36 -43 124 -43h4zM296 1615q60 0 93.5 -37.5t33.5 -105.5v-108h-416v67h73v164h66v-66q61 86 150 86zM361 1460q0 86 -76 86q-63 0 -113 -71
q-14 -21 -24 -44h213v29z" />
    <glyph glyph-name="uniFB57" unicode="&#x67e;" horiz-adv-x="1890" arabic-form="final" 
d="M464 0q-235 0 -324.5 67t-89.5 232v317h174v-256q0 -122 64 -156t266 -34h811q88 0 115 19q51 36 51 130v469h176v-393q0 -114 26.5 -153.5t61 -55.5t88.5 -16q82 0 82 -82q0 -51 -19.5 -69.5t-57.5 -18.5q-72 0 -127.5 32.5t-79.5 82.5q-62 -115 -266 -115h-951z
M955 -310q0 -29 -21.5 -50.5t-50.5 -21.5t-50.5 21.5t-21.5 50.5t21.5 50.5t50.5 21.5t50.5 -21.5t21.5 -50.5zM869 -147.5q0 -29.5 -21 -50.5t-50.5 -21t-50.5 21t-21 50.5t21 50.5t50.5 21t50.5 -21t21 -50.5zM1045 -147.5q0 -29.5 -21 -50.5t-50.5 -21t-50.5 21t-21 50.5
t21 50.5t50.5 21t50.5 -21t21 -50.5z" />
    <glyph glyph-name="uniFB58" unicode="&#x67e;" horiz-adv-x="627" arabic-form="initial" 
d="M0 0q-82 0 -82 82q0 51 19.5 69.5t62.5 18.5h313v618h174v-788h-487zM351 -310q0 -29 -21.5 -50.5t-50.5 -21.5t-50.5 21.5t-21.5 50.5t21.5 50.5t50.5 21.5t50.5 -21.5t21.5 -50.5zM265 -147.5q0 -29.5 -21 -50.5t-50.5 -21t-50.5 21t-21 50.5t21 50.5t50.5 21t50.5 -21
t21 -50.5zM441 -147.5q0 -29.5 -21 -50.5t-50.5 -21t-50.5 21t-21 50.5t21 50.5t50.5 21t50.5 -21t21 -50.5z" />
    <glyph glyph-name="uniFB59" unicode="&#x67e;" horiz-adv-x="680" arabic-form="medial" 
d="M0 0q-82 0 -82 82q0 51 19.5 69.5t62.5 18.5h154q88 0 115 19q51 36 51 130v469h176v-393q0 -166 94 -209q36 -16 90 -16q82 0 82 -82q0 -51 -19.5 -69.5t-57.5 -18.5q-73 0 -132 32.5t-83 82.5q-62 -115 -266 -115h-204zM410 -310q0 -29 -21.5 -50.5t-50.5 -21.5
t-50.5 21.5t-21.5 50.5t21.5 50.5t50.5 21.5t50.5 -21.5t21.5 -50.5zM324 -147.5q0 -29.5 -21 -50.5t-50.5 -21t-50.5 21t-21 50.5t21 50.5t50.5 21t50.5 -21t21 -50.5zM500 -147.5q0 -29.5 -21 -50.5t-50.5 -21t-50.5 21t-21 50.5t21 50.5t50.5 21t50.5 -21t21 -50.5z" />
    <glyph glyph-name="uniFB67" unicode="&#x679;" horiz-adv-x="1890" arabic-form="final" 
d="M464 0q-235 0 -324.5 67t-89.5 232v317h174v-256q0 -122 64 -156t266 -34h811q88 0 115 19q51 36 51 130v469h176v-393q0 -114 26.5 -153.5t61 -55.5t88.5 -16q82 0 82 -82q0 -51 -19.5 -69.5t-57.5 -18.5q-72 0 -127.5 32.5t-79.5 82.5q-62 -115 -266 -115h-951z
M999 1152q75 0 118.5 -48t43.5 -134v-140h-533v86h96v424h82v-297q81 109 193 109zM1081 955q0 109 -95 109q-54 0 -103.5 -42t-72.5 -106h271v39z" />
    <glyph glyph-name="uniFB68" unicode="&#x679;" horiz-adv-x="627" arabic-form="initial" 
d="M0 0q-82 0 -82 82q0 51 19.5 69.5t62.5 18.5h313v618h174v-788h-487zM438 1276q75 0 118.5 -48t43.5 -134v-140h-533v86h96v424h82v-297q81 109 193 109zM520 1079q0 109 -95 109q-54 0 -103.5 -42t-72.5 -106h271v39z" />
    <glyph glyph-name="uniFB69" unicode="&#x679;" horiz-adv-x="680" arabic-form="medial" 
d="M0 0q-82 0 -82 82q0 51 19.5 69.5t62.5 18.5h154q88 0 115 19q51 36 51 130v469h176v-393q0 -166 94 -209q36 -16 90 -16q82 0 82 -82q0 -51 -19.5 -69.5t-57.5 -18.5q-73 0 -132 32.5t-83 82.5q-62 -115 -266 -115h-204zM438 1276q75 0 118.5 -48t43.5 -134v-140h-533
v86h96v424h82v-297q81 109 193 109zM520 1079q0 109 -95 109q-54 0 -103.5 -42t-72.5 -106h271v39z" />
    <glyph glyph-name="uniFB6B" unicode="&#x6a4;" horiz-adv-x="2124" arabic-form="final" 
d="M1432.5 231.5q69.5 -61.5 184.5 -61.5h188v205q0 122 -33 176t-77 79t-104 25q-60 1 -100 -19q-41 -20 -69 -53q-60 -69 -59.5 -179.5t70 -172zM1188 382q0 196 112 316q110 119 308 119q198 1 296 -145q76 -113 75 -291v-211h145q82 0 82 -82q0 -51 -19.5 -69.5
t-62.5 -18.5h-1660q-235 0 -324.5 67t-89.5 232v317h166v-256q0 -121 64.5 -155.5t267.5 -34.5h698q-58 109 -58 212zM1503 1455q32 32 65.5 32t53 -8.5t34.5 -23.5t23.5 -35t8.5 -42q0 -44 -32 -76t-65.5 -32t-53 8.5t-34.5 23.5q-32 32 -32 76.5t32 76.5zM1600 1132.5
q0 44.5 32 76.5t66 32q56 0 88 -32q32 -31 31 -65q0 -56 -32 -88t-65.5 -32t-53 8.5t-34.5 23.5q-32 32 -32 76.5zM1334 1132.5q0 44.5 32 76.5t66 32q56 0 88 -32q32 -31 31 -65q0 -56 -32 -88t-65.5 -32t-53 8.5t-34.5 23.5q-32 32 -32 76.5z" />
    <glyph glyph-name="uniFB6C" unicode="&#x6a4;" horiz-adv-x="1104" arabic-form="initial" 
d="M435.5 231.5q69.5 -61.5 184.5 -61.5h188v205q0 122 -33 176t-77 79t-104 25t-100 -19.5t-68 -52.5q-60 -69 -60 -179.5t69.5 -172zM191 382q0 196 111.5 315.5t309.5 119.5q196 1 294 -145q76 -113 76 -291v-381h-982q-82 0 -82 82q0 51 19.5 69.5t62.5 18.5h249
q-58 109 -58 212zM530 1455q32 32 65.5 32t53 -8.5t34.5 -23.5t23.5 -35t8.5 -42q0 -44 -32 -76t-65.5 -32t-53 8.5t-34.5 23.5q-32 32 -32 76.5t32 76.5zM627 1132.5q0 44.5 32 76.5q31 32 65 32q56 0 88 -32q32 -31 32 -65q0 -56 -32 -88t-65.5 -32t-53 8.5t-34.5 23.5
q-32 32 -32 76.5zM361 1132.5q0 44.5 32 76.5q31 32 65 32q56 0 88 -32q32 -31 32 -65q0 -56 -32 -88t-65.5 -32t-53 8.5t-34.5 23.5q-32 32 -32 76.5z" />
    <glyph glyph-name="uniFB6D" unicode="&#x6a4;" horiz-adv-x="1128" arabic-form="medial" 
d="M191 382q0 196 111.5 315.5t309.5 119.5q196 1 294 -145q76 -113 76 -291v-211h146q82 0 82 -82q0 -51 -19.5 -69.5t-62.5 -18.5h-1128q-82 0 -82 82q0 51 19.5 69.5t62.5 18.5h249q-58 109 -58 212zM435.5 231.5q69.5 -61.5 184.5 -61.5h188v205q0 122 -33 176t-77 79
t-104 25t-100 -19.5t-68 -52.5q-60 -69 -60 -179.5t69.5 -172zM522 1455q32 32 65.5 32t53 -8.5t34.5 -23.5t23.5 -35t8.5 -42q0 -44 -32 -76t-65.5 -32t-53 8.5t-34.5 23.5q-32 32 -32 76.5t32 76.5zM619 1132.5q0 44.5 32 76.5q31 32 65 32q56 0 88 -32q32 -31 32 -65
q0 -56 -32 -88t-65.5 -32t-53 8.5t-34.5 23.5q-32 32 -32 76.5zM353 1132.5q0 44.5 32 76.5q31 32 65 32q56 0 88 -32q32 -31 32 -65q0 -56 -32 -88t-65.5 -32t-53 8.5t-34.5 23.5q-32 32 -32 76.5z" />
    <glyph glyph-name="uniFB7B" unicode="&#x686;" horiz-adv-x="1240" arabic-form="final" 
d="M437 -519q-406 162 -406 411q0 139 107 208.5t290 69.5h519q0 247 -120.5 361t-315.5 114q-112 0 -235 -35v164q132 43 270.5 43t249.5 -51.5t183 -139.5q139 -170 145 -456h115q81 0 81 -82q0 -51 -19 -69.5t-62 -18.5h-846q-130 0 -171 -65q-14 -21 -14 -53
q0 -59 80.5 -119.5t230.5 -127.5zM810 -375q0 -29 -21.5 -50.5t-50.5 -21.5t-50.5 21.5t-21.5 50.5t21.5 50.5t50.5 21.5t50.5 -21.5t21.5 -50.5zM724 -212.5q0 -29.5 -21 -50.5t-50.5 -21t-50.5 21t-21 50.5t21 50.5t50.5 21t50.5 -21t21 -50.5zM900 -212.5
q0 -29.5 -21 -50.5t-50.5 -21t-50.5 21t-21 50.5t21 50.5t50.5 21t50.5 -21t21 -50.5z" />
    <glyph glyph-name="uniFB7C" unicode="&#x686;" horiz-adv-x="1107" arabic-form="initial" 
d="M0 0q-82 0 -82 82q0 51 19.5 69.5t62.5 18.5h821q0 247 -120.5 361t-315.5 114q-112 0 -235 -35v164q132 43 272 43t252 -53.5t184 -144.5q139 -176 139 -469v-150h-997zM514 -310q0 -29 -21.5 -50.5t-50.5 -21.5t-50.5 21.5t-21.5 50.5t21.5 50.5t50.5 21.5t50.5 -21.5
t21.5 -50.5zM428 -147.5q0 -29.5 -21 -50.5t-50.5 -21t-50.5 21t-21 50.5t21 50.5t50.5 21t50.5 -21t21 -50.5zM604 -147.5q0 -29.5 -21 -50.5t-50.5 -21t-50.5 21t-21 50.5t21 50.5t50.5 21t50.5 -21t21 -50.5z" />
    <glyph glyph-name="uniFB7D" unicode="&#x686;" horiz-adv-x="1113" arabic-form="medial" 
d="M1114 170q82 0 82 -82q0 -51 -19 -69.5t-63 -18.5h-1114q-82 0 -82 82q0 51 19.5 69.5t62.5 18.5h821q0 247 -120.5 361t-315.5 114q-112 0 -235 -35v164q132 43 270.5 43t249.5 -51.5t183 -139.5q140 -172 144 -456h117zM514 -310q0 -29 -21.5 -50.5t-50.5 -21.5
t-50.5 21.5t-21.5 50.5t21.5 50.5t50.5 21.5t50.5 -21.5t21.5 -50.5zM428 -147.5q0 -29.5 -21 -50.5t-50.5 -21t-50.5 21t-21 50.5t21 50.5t50.5 21t50.5 -21t21 -50.5zM604 -147.5q0 -29.5 -21 -50.5t-50.5 -21t-50.5 21t-21 50.5t21 50.5t50.5 21t50.5 -21t21 -50.5z" />
    <glyph glyph-name="uniFB89" unicode="&#x688;" horiz-adv-x="979" arabic-form="final" 
d="M1061 88q0 -51 -19 -69.5t-63 -18.5q-158 0 -223 115q-52 -99 -160 -111q-32 -4 -67 -4h-468v170h457q108 0 118 60q8 44 -28 100l-263 411l151 95l249 -405q92 -150 124 -190q58 -71 110 -71q82 0 82 -82zM536 1274q75 0 118.5 -48t43.5 -134v-140h-533v86h96v424h82
v-297q81 109 193 109zM618 1077q0 109 -95 109q-54 0 -103.5 -42t-72.5 -106h271v39z" />
    <glyph glyph-name="uniFB8B" unicode="&#x698;" horiz-adv-x="671" arabic-form="final" 
d="M671 170q82 0 82 -82q0 -51 -19.5 -69.5t-55.5 -18.5q-64 0 -119 26t-74 63q0 -291 -80 -411t-304 -120h-61v170h68q142 0 179 94q19 48 22.5 122.5t3.5 178.5v665h174v-393q0 -225 184 -225zM328 1455q32 32 65.5 32t53 -8.5t34.5 -23.5t23.5 -35t8.5 -42q0 -44 -32 -76
t-65.5 -32t-53 8.5t-34.5 23.5q-32 32 -32 76.5t32 76.5zM425 1132.5q0 44.5 32 76.5q31 32 65 32q56 0 88 -32q32 -31 32 -65q0 -56 -32 -88t-65.5 -32t-53 8.5t-34.5 23.5q-32 32 -32 76.5zM159 1132.5q0 44.5 32 76.5q31 32 65 32q56 0 88 -32q32 -31 32 -65
q0 -56 -32 -88t-65.5 -32t-53 8.5t-34.5 23.5q-32 32 -32 76.5z" />
    <glyph glyph-name="uniFB8D" unicode="&#x691;" horiz-adv-x="671" arabic-form="final" 
d="M671 170q82 0 82 -82q0 -51 -19.5 -69.5t-55.5 -18.5q-64 0 -119 26t-74 63q0 -291 -80 -411t-304 -120h-61v170h68q142 0 179 94q19 48 22.5 122.5t3.5 178.5v665h174v-393q0 -225 184 -225zM456 1274q75 0 118.5 -48t43.5 -134v-140h-533v86h96v424h82v-297
q81 109 193 109zM538 1077q0 109 -95 109q-54 0 -103.5 -42t-72.5 -106h271v39z" />
    <glyph glyph-name="uniFB8F" unicode="&#x6a9;" horiz-adv-x="1912" arabic-form="final" 
d="M464 0q-235 0 -324.5 67t-89.5 232v317h174v-256q0 -122 64 -156t266 -34h804q177 0 177 129q0 118 -156.5 256t-366.5 222v180l665 432v-200l-485 -298q302 -143 440 -373q40 -66 62 -131q44 -131 90 -174t127.5 -43t81.5 -82q0 -52 -19 -70q-20 -18 -62 -18
q-91 0 -148.5 34.5t-93.5 125.5q-63 -160 -299 -160h-907z" />
    <glyph glyph-name="uniFB90" unicode="&#x6a9;" horiz-adv-x="937" arabic-form="initial" 
d="M489 170q177 0 177 129q0 118 -157 256t-366 222v180l665 432v-200l-485 -298q263 -123 383 -282q121 -159 121 -320q0 -189 -157 -261q-62 -28 -160 -28h-510q-82 0 -82 82q0 51 19.5 69.5t62.5 18.5h489z" />
    <glyph glyph-name="uniFB91" unicode="&#x6a9;" horiz-adv-x="1025" arabic-form="medial" 
d="M489 170q177 0 177 129q0 118 -156.5 256t-366.5 222v180l665 432v-200l-485 -298q303 -143 441 -373q40 -66 59 -124q42 -122 85 -173t117 -51q82 0 82 -82q0 -52 -19 -70q-18 -18 -82 -18q-135 0 -211 154q-67 -154 -293 -154h-502q-82 0 -82 82q0 51 19.5 69.5
t62.5 18.5h489z" />
    <glyph glyph-name="uniFB93" unicode="&#x6af;" horiz-adv-x="1912" arabic-form="final" 
d="M464 0q-235 0 -324.5 67t-89.5 232v317h174v-256q0 -122 64 -156t266 -34h804q177 0 177 129q0 118 -156.5 256t-366.5 222v180l665 432v-200l-485 -298q302 -143 440 -373q40 -66 62 -131q44 -131 90 -174t127.5 -43t81.5 -82q0 -52 -19 -70q-20 -18 -62 -18
q-91 0 -148.5 34.5t-93.5 125.5q-63 -160 -299 -160h-907zM1009 1077v181l667 412v-178z" />
    <glyph glyph-name="uniFB94" unicode="&#x6af;" horiz-adv-x="937" arabic-form="initial" 
d="M489 170q177 0 177 129q0 118 -157 256t-366 222v180l665 432v-200l-485 -298q263 -123 383 -282q121 -159 121 -320q0 -189 -157 -261q-62 -28 -160 -28h-510q-82 0 -82 82q0 51 19.5 69.5t62.5 18.5h489zM142 1077v181l667 412v-178z" />
    <glyph glyph-name="uniFB95" unicode="&#x6af;" horiz-adv-x="1025" arabic-form="medial" 
d="M489 170q177 0 177 129q0 118 -156.5 256t-366.5 222v180l665 432v-200l-485 -298q303 -143 441 -373q40 -66 59 -124q42 -122 85 -173t117 -51q82 0 82 -82q0 -52 -19 -70q-18 -18 -82 -18q-135 0 -211 154q-67 -154 -293 -154h-502q-82 0 -82 82q0 51 19.5 69.5
t62.5 18.5h489zM143 1077v181l667 412v-178z" />
    <glyph glyph-name="uniFB9F" unicode="&#x6ba;" horiz-adv-x="1357" arabic-form="final" 
d="M1357 170q81 0 81 -82q0 -51 -19 -69.5t-59 -18.5q-69 0 -118.5 26.5t-67.5 62.5v-23q0 -390 -322 -479q-104 -29 -239 -29q-280 0 -421.5 118.5t-141.5 372.5v316h174v-281q0 -282 220 -338q74 -18 175 -18q212 0 296.5 70.5t84.5 269.5v618h174v-291q0 -113 27.5 -153
t63 -56t92.5 -16z" />
    <glyph glyph-name="uniFBA7" unicode="&#x6c1;" horiz-adv-x="767" arabic-form="final" 
d="M849 88q0 -51 -19.5 -69.5t-80 -18.5t-113.5 25t-89 63t-61 82t-47 82t-47 63t-61 25q-117 0 -117 -269q0 -74 6 -120h-164q-6 36 -6 147q0 209 79 310.5t194 101.5t187 -88q32 -38 56 -82t52 -82q64 -88 147.5 -88t83.5 -82z" />
    <glyph glyph-name="uniFBA8" unicode="&#x6c1;" horiz-adv-x="627" arabic-form="initial" 
d="M428 -246q-20 -133 -140 -133q-62 0 -99 43.5t-37 114.5q0 114 81 221h-233q-82 0 -82 82q0 51 19.5 69.5t62.5 18.5h313v618h174v-788h-114q-72 -105 -72 -176q0 -34 17 -57t44.5 -23t65.5 10z" />
    <glyph glyph-name="uniFBA9" unicode="&#x6c1;" horiz-adv-x="880" arabic-form="medial" 
d="M151 -65q0 40 6 65h-157q-82 0 -82 82q0 51 19.5 69.5t62.5 18.5h339q-29 -90 -29 -145q0 -94 22 -146t83 -87q83 293 281 357q65 21 143 21h41q82 0 82 -82q0 -51 -19.5 -69.5t-62.5 -18.5h-47q-138 0 -202 -92.5t-126 -349.5q-354 123 -354 377z" />
    <glyph glyph-name="uniFBAB" unicode="&#x6be;" horiz-adv-x="1165" arabic-form="final" 
d="M860 -154q0 70 -30 98q-59 56 -193 56h-152q0 -142 49.5 -212t169.5 -70q156 0 156 128zM485 170h92q142 0 219 103q62 83 62 180.5t-47 147.5t-117 50q-100 0 -154.5 -89.5t-54.5 -256.5v-135zM966 0q47 -65 47 -175.5t-84.5 -188.5t-250 -78t-263.5 103.5t-98 292.5v46
h-47q-72 0 -93 -35q-12 -21 -15 -92h-117q-15 80 -15 150q0 147 174 147h113v119q0 250 101 389t272 139q172 -1 258 -115q70 -93 70 -215q0 -178 -131 -309v-8h279q82 0 82 -82q0 -51 -19.5 -69.5t-62.5 -18.5h-200z" />
    <glyph glyph-name="uniFBAC" unicode="&#x6be;" horiz-adv-x="1287" arabic-form="initial" 
d="M802 400q0 -129 -57 -230h258v38q0 322 -269 427q68 -106 68 -235zM341 392q0 -46 12 -86.5t33 -70.5t49.5 -47.5t60.5 -17.5t60.5 17.5t49.5 47.5t33 70.5t12 86.5t-12 86.5t-33 70.5t-49.5 47.5t-60.5 17.5t-60.5 -17.5t-49.5 -47.5t-33 -70.5t-12 -86.5zM190 393
q0 176 105 290l-96 -7v165q483 37 730.5 -127t247.5 -564v-150h-1177q-82 0 -82 82q0 51 19.5 69.5t62.5 18.5h246q-56 103 -56 223z" />
    <glyph glyph-name="uniFBAD" unicode="&#x6be;" horiz-adv-x="1061" arabic-form="medial" 
d="M755 -154q1 70 -29 98q-59 56 -194 56h-152q0 -142 49.5 -212t169.5 -70q156 0 156 128zM380 170h92q142 0 219 103q62 83 62 180.5t-47 147.5t-117 50q-100 0 -154.5 -89.5t-54.5 -256.5v-135zM861 0q47 -65 47 -175.5t-84.5 -188.5t-250 -78t-263.5 103.5t-98 292.5v46
h-212q-82 0 -82 82q0 51 19.5 69.5t62.5 18.5h212v119q0 250 101 389t272 139q171 -1 257 -115q70 -93 71 -215q0 -178 -131 -309v-8h279q82 0 82 -82q0 -51 -19.5 -69.5t-62.5 -18.5h-200z" />
    <glyph glyph-name="uniFBAF" unicode="&#x6d2;" horiz-adv-x="952" arabic-form="final" 
d="M952 170q82 0 82 -82q0 -51 -19.5 -69.5t-62.5 -18.5h-525q-232 0 -232 -132q0 -141 525 -141q197 0 598 58v-165q-401 -62 -587.5 -62t-291 12t-177.5 33q-132 38 -182 104.5t-50 143.5q0 151 105.5 235t324.5 84h492z" />
    <glyph glyph-name="uniFBB1" unicode="&#x6d3;" horiz-adv-x="952" arabic-form="final" 
d="M952 170q82 0 82 -82q0 -51 -19.5 -69.5t-62.5 -18.5h-525q-232 0 -232 -132q0 -141 525 -141q197 0 598 58v-165q-401 -62 -587.5 -62t-291 12t-177.5 33q-132 38 -182 104.5t-50 143.5q0 151 105.5 235t324.5 84h492zM357 685q-105 0 -105 -93q0 -41 26 -70t80 -29h115
v-93h-375v93h92q-29 48 -29 98.5t15 84.5t39.5 57t56 34.5t84 11.5t78.5 -18v-94q-41 18 -77 18z" />
    <glyph glyph-name="uniFBE8" unicode="&#x649;" horiz-adv-x="627" arabic-form="initial" 
d="M0 0q-82 0 -82 82q0 51 19.5 69.5t62.5 18.5h313v618h174v-788h-487z" />
    <glyph glyph-name="uniFBE9" unicode="&#x649;" horiz-adv-x="680" arabic-form="medial" 
d="M0 0q-82 0 -82 82q0 51 19.5 69.5t62.5 18.5h154q88 0 115 19q51 36 51 130v469h176v-393q0 -166 94 -209q36 -16 90 -16q82 0 82 -82q0 -51 -19.5 -69.5t-57.5 -18.5q-73 0 -132 32.5t-83 82.5q-62 -115 -266 -115h-204z" />
    <glyph glyph-name="uniFBFD" unicode="&#x6cc;" horiz-adv-x="1504" arabic-form="final" 
d="M1492 -35q0 -134 -163 -216q-184 -92 -555.5 -92t-557.5 141q-166 125 -166 349v177h174v-146q0 -183 146 -267t428 -84q373 -1 495 85q45 32 45 70.5t-29 71t-105 79.5l-277 174l86 140l251 -161q182 -116 242 -116q82 0 82 -82q0 -51 -19.5 -69.5t-62.5 -18.5h-23
q9 -15 9 -35z" />
    <glyph glyph-name="uniFBFE" unicode="&#x6cc;" horiz-adv-x="627" arabic-form="initial" 
d="M0 0q-82 0 -82 82q0 51 19.5 69.5t62.5 18.5h313v618h174v-788h-487zM347 -333.5q0 44.5 32 76.5q31 32 65 32q56 0 88 -32q32 -31 32 -65q0 -56 -32 -88t-65.5 -32t-53 8.5t-34.5 23.5q-32 32 -32 76.5zM81 -333.5q0 44.5 32 76.5q31 32 65 32q56 0 88 -32
q32 -31 32 -65q0 -56 -32 -88t-65.5 -32t-53 8.5t-34.5 23.5q-32 32 -32 76.5z" />
    <glyph glyph-name="uniFBFF" unicode="&#x6cc;" horiz-adv-x="680" arabic-form="medial" 
d="M0 0q-82 0 -82 82q0 51 19.5 69.5t62.5 18.5h154q88 0 115 19q51 36 51 130v469h176v-393q0 -166 94 -209q36 -16 90 -16q82 0 82 -82q0 -51 -19.5 -69.5t-57.5 -18.5q-73 0 -132 32.5t-83 82.5q-62 -115 -266 -115h-204zM428 -333.5q0 44.5 32 76.5t66 32q56 0 88 -32
q32 -31 31 -65q0 -56 -32 -88t-65.5 -32t-53 8.5t-34.5 23.5q-32 32 -32 76.5zM162 -333.5q0 44.5 32 76.5t66 32q56 0 88 -32q32 -31 31 -65q0 -56 -32 -88t-65.5 -32t-53 8.5t-34.5 23.5q-32 32 -32 76.5z" />
    <glyph glyph-name="uniFDF2" unicode="&#xfdf2;" horiz-adv-x="2720" arabic-form="isolated" 
d="M879 0q-258 0 -285 205q-104 -37 -176 -37t-114 5.5t-84 20.5q-96 34 -155 112t-59 201q0 217 133 321q113 88 291 87h332v-587q0 -90 21 -115q35 -43 124 -43h186q88 0 115 19q51 36 51 130v1143h176v-1067q0 -114 26.5 -153.5t61 -55.5t88.5 -16h308v1292h174v-1462
h-482q-101 0 -169 69q-20 21 -33 46q-62 -115 -266 -115h-264zM423 342q85 0 167 37v364h-182q-162 -1 -211 -115q-17 -40 -17 -87.5t12 -83t38 -61t67 -40t126 -14.5zM2582 1462v-1462h-174v1462h174z" />
    <glyph glyph-name="uniFDFA" unicode="&#xfdfa;" horiz-adv-x="2165" arabic-form="isolated" 
d="M1952 86q-31 0 -41 -51q7 -37 63 -37q27 0 31 22q-12 66 -53 66zM322 20q-30 0 -31 -25q0 -25 53 -54q49 -31 72 -31t22 12q-8 42 -47 70t-69 28zM287 891q55 0 102 27l-2 79q-40 -18 -84 -34q-67 -31 -70 -50q-1 -22 54 -22zM664 1362q0 -66 -43 -66q-26 0 -43 17
q-37 -31 -62 -31q-43 0 -43 48t6 63l13 12q-4 -76 34 -76q22 0 39 33l-4 47l19 29l8 -62q4 -33 30 -33t23 31l-6 45l14 21q15 -39 15 -78zM166 432q0 -20 66 -20t118 49l-4 78q-180 -72 -180 -107zM1669 1444l-12 -45l-400 -197l9 51zM1219 -262q8 0 8 -10t-2 -21
q5 -8 22 -12q25 1 25 29t22 28q0 -48 -8 -68t-36 -20t-40 8q-30 -32 -53 -32t-41 17t-30 17t-72 -36t-147 -35q-87 0 -87 15t66 15q66 -1 94 5q27 6 80 38q54 32 72 33q18 -1 40 -17t27 -16q31 0 36 31t24 31zM1716 793q14 -2 69 -2q55 -1 148 17q92 18 92 52q0 14 -35 32
t-67 19q-32 0 -103 -44t-104 -74zM1233 76l-53 -64l-99 72l-57 -74l-102 74l59 72l96 -72l56 68zM975 915q-6 -136 -27 -149l-51 496l45 116zM1552 1079q0 -24 54 -51l-19 -49q-67 23 -67 83t53 89q264 151 432 209l-18 -51q-71 -25 -253 -113t-182 -117zM1956 176
q24 0 66 -52t42 -136t-83 -210t-179 -126q-44 0 -120 32t-76 48q0 8 9 8t55 -16t73 -15q138 -4 287 217l-15 45q-38 -53 -78 -53t-63 53.5t17 128.5q41 76 65 76zM1354 -115q-96 -71 -406 -71q-172 0 -266 57q-119 72 -123 258l-45 -66q-35 -51 -53 -53q24 -44 24 -90
t-32 -80q-15 -16 -49 -16t-119 47q-43 -101 -135 -105q-34 -2 -44 -6l-22 -8q-12 0 -12 11t54 33t75 36l69 53q-20 38 -20 81.5t37 85.5t69 42q6 0 28 -12t52 -12q28 0 66 47l47 86q-80 24 -113 55q-60 54 -80 174h-4q-59 -102 -162 -102q-40 0 -76 14t-36 27q0 51 86 117
t176 92l-4 34l41 68q16 -220 44 -287t114 -94l-27 270l39 88l35 -368q108 -12 194 -12q213 0 363 81q25 78 39 78q8 0 8 -18t-8 -51q73 -72 120 -72q55 0 86 88l-26 330q-152 -6 -180 151h-4q-34 -130 -84 -147l4 -4q143 11 143 -80q0 -60 -51 -94q-173 -121 -328 -121
q-94 0 -151.5 47.5t-57.5 122.5t33 149q-57 16 -78 88h-4q-32 -104 -113 -104q-101 0 -96 158l-55 -50q-16 -14 -98 -14t-82 37q0 20 28 64t49 55l156 76v20l35 74l8 -246q5 -86 66 -86q30 -1 60 21t34 47l-33 233l37 80l57 -330q19 -43 67 -43t48 27q0 55 -74 284l27 68
q82 -256 82 -310t-22 -106q-22 -53 -50 -53q-11 0 -18 6q-15 -44 -15 -80q0 -153 187 -153q145 0 291 98q4 4 4 6q0 11 -78 25l-125 20q-25 19 27 82q122 51 131 109q2 10 2 28q0 190 -41 473l34 115q50 -434 78 -524q38 -117 148 -135l-10 196l43 92l16 -286q58 20 123 73
l61 -43q39 -24 80 -30q52 54 145 122t131 68t88 -30q50 -31 50 -63t-32 -82t-64 -64q-93 -43 -238 -43q-46 0 -98 4q-49 -97 -78 -97q-8 0 -8 22t45 87q-85 33 -99 53q-80 -53 -102 -53q13 -287 51 -361t172 -81l4 4q-43 31 -43 94q-1 63 57 139t125 76t117 -34t50 -64
q-52 18 -116 18t-120 -29t-57 -57t51 -78q52 -52 90 -59q38 5 140 37t136 51l-34 -76q-208 -108 -398 -108t-237 149q-61 -133 -115 -133t-139 90q-130 -115 -404 -115q-75 0 -143 11q19 -164 66 -209q90 -90 341 -90t357 65q31 76 57 76q8 0 8 -23t-24 -84q12 -26 60 -26
t95 24q43 136 68 136q8 0 8 -30t-20 -81q63 -27 84 -27q20 0 22 7t-16 79l35 74q24 -74 24 -106q0 -138 -90 -138q-47 0 -98 39q-31 -53 -125 -53t-94 53z" />
    <glyph glyph-name="uniFE82" unicode="&#x622;" horiz-adv-x="463" arabic-form="final" 
d="M464 170q81 0 81 -82q0 -51 -19 -69.5t-63 -18.5h-30q-142 0 -217.5 65t-75.5 218v954h174v-909q0 -90 22 -115q36 -43 124 -43h4zM35.5 1576q69.5 0 114.5 -16.5t127 -52.5t152 -36t146 35l23 -91q-89 -49 -166.5 -49t-129 16.5t-97 36.5t-86.5 36.5t-97 16.5t-122 -39
l-23 89q89 54 158.5 54z" />
    <glyph glyph-name="uniFE84" unicode="&#x623;" horiz-adv-x="463" arabic-form="final" 
d="M464 170q81 0 81 -82q0 -51 -19 -69.5t-63 -18.5h-30q-142 0 -217.5 65t-75.5 218v954h174v-909q0 -90 22 -115q36 -43 124 -43h4zM299 1615q-105 0 -105 -93q0 -41 26 -70t80 -29h115v-93h-375v93h92q-29 48 -29 98.5t15 84.5t39.5 57t56 34.5t84 11.5t78.5 -18v-94
q-41 18 -77 18z" />
    <glyph glyph-name="uniFE86" unicode="&#x624;" horiz-adv-x="1056" arabic-form="final" 
d="M740 323q0 332 -227 332q-110 0 -169.5 -79.5t-59.5 -183.5t61 -163t176 -59h219v153zM1056 170q82 0 82 -82q0 -51 -19.5 -69.5t-62.5 -18.5h-148q-16 -246 -150.5 -344t-436.5 -98h-86v170h63q249 0 343.5 55.5t98.5 216.5h-231q-275 0 -359 203q-30 71 -30 163
q0 186 111 318.5t294 132.5q301 1 367 -313q20 -98 20 -220v-114h144zM488.5 1354.5q-32.5 -36.5 -32.5 -89t35 -91.5t106 -39h141v-109h-446v109h104q-47 56 -47 126q0 120 64.5 179t150 59t123.5 -16v-111q-49 19 -107.5 19t-91 -36.5z" />
    <glyph glyph-name="uniFE88" unicode="&#x625;" horiz-adv-x="463" arabic-form="final" 
d="M464 170q81 0 81 -82q0 -51 -19 -69.5t-63 -18.5h-30q-142 0 -217.5 65t-75.5 218v1146h174v-1101q0 -90 22 -115q36 -43 124 -43h4zM294 -215q-106 0 -106 -93q0 -40 26 -69t80 -29h115v-94h-375v94h92q-29 48 -29 98t15 84.5t39.5 57.5t56 35t84 12t78.5 -18v-97
q-39 19 -76 19z" />
    <glyph glyph-name="uniFE8A" unicode="&#x626;" horiz-adv-x="1504" arabic-form="final" 
d="M1492 -35q0 -134 -163 -216q-184 -92 -555.5 -92t-557.5 141q-166 125 -166 349v177h174v-146q0 -183 146 -267t428 -84q373 -1 495 85q45 32 45 70.5t-29 71t-105 79.5l-277 174l86 140l251 -161q182 -116 242 -116q82 0 82 -82q0 -51 -19.5 -69.5t-62.5 -18.5h-23
q9 -15 9 -35zM233 755.5q0 -52.5 35 -91.5t106 -39h141v-109h-446v109h104q-47 56 -47 126q0 120 64 179t150 59t124 -16v-111q-49 19 -93 19q-73 0 -105.5 -36.5t-32.5 -89z" />
    <glyph glyph-name="uniFE8B" unicode="&#x626;" horiz-adv-x="627" arabic-form="initial" 
d="M0 0q-82 0 -82 82q0 51 19.5 69.5t62.5 18.5h313v618h174v-788h-487zM311 1265.5q0 -52.5 35 -91.5t106 -39h141v-109h-446v109h104q-47 56 -47 126q0 120 64.5 179t150 59t123.5 -16v-111q-49 19 -93 19q-73 0 -105.5 -36.5t-32.5 -89z" />
    <glyph glyph-name="uniFE8C" unicode="&#x626;" horiz-adv-x="680" arabic-form="medial" 
d="M0 0q-82 0 -82 82q0 51 19.5 69.5t62.5 18.5h154q88 0 115 19q51 36 51 130v469h176v-393q0 -166 94 -209q36 -16 90 -16q82 0 82 -82q0 -51 -19.5 -69.5t-57.5 -18.5q-73 0 -132 32.5t-83 82.5q-62 -115 -266 -115h-204zM375.5 1354.5q-32.5 -36.5 -32.5 -89t35 -91.5
t106 -39h141v-109h-446v109h104q-47 56 -47 126q0 120 64 179t150 59t124 -16v-111q-49 19 -107.5 19t-91 -36.5z" />
    <glyph glyph-name="uniFE8E" unicode="&#x627;" horiz-adv-x="463" arabic-form="final" 
d="M464 170q81 0 81 -82q0 -51 -19 -69.5t-63 -18.5h-30q-142 0 -217 65q-76 65 -76 218v1146h174v-1101q0 -90 22 -115q36 -43 124 -43h4z" />
    <glyph glyph-name="uniFE90" unicode="&#x628;" horiz-adv-x="1890" arabic-form="final" 
d="M464 0q-235 0 -324.5 67t-89.5 232v317h174v-256q0 -122 64 -156t266 -34h811q88 0 115 19q51 36 51 130v469h176v-393q0 -114 26.5 -153.5t61 -55.5t88.5 -16q82 0 82 -82q0 -51 -19.5 -69.5t-57.5 -18.5q-72 0 -127.5 32.5t-79.5 82.5q-62 -115 -266 -115h-951z
M779 -334.5q0 44.5 32 76.5q31 32 65 32q56 0 88 -32t32 -66q0 -56 -32 -87.5t-65.5 -31.5t-53 8.5t-34.5 23.5q-32 32 -32 76.5z" />
    <glyph glyph-name="uniFE91" unicode="&#x628;" horiz-adv-x="627" arabic-form="initial" 
d="M0 0q-82 0 -82 82q0 51 19.5 69.5t62.5 18.5h313v618h174v-788h-487zM260 -327.5q0 44.5 32 76.5t66 32q56 0 88 -32q32 -31 31 -65q0 -56 -32 -88t-65.5 -32t-53 8.5t-34.5 23.5q-32 32 -32 76.5z" />
    <glyph glyph-name="uniFE92" unicode="&#x628;" horiz-adv-x="680" arabic-form="medial" 
d="M0 0q-82 0 -82 82q0 51 19.5 69.5t62.5 18.5h154q88 0 115 19q51 36 51 130v469h176v-393q0 -166 94 -209q36 -16 90 -16q82 0 82 -82q0 -51 -19.5 -69.5t-57.5 -18.5q-73 0 -132 32.5t-83 82.5q-62 -115 -266 -115h-204zM264 -327.5q0 44.5 32 76.5t66 32q56 0 88 -32
q32 -31 31 -65q0 -56 -32 -88t-65.5 -32t-53 8.5t-34.5 23.5q-32 32 -32 76.5z" />
    <glyph glyph-name="uniFE94" unicode="&#x629;" horiz-adv-x="969" arabic-form="final" 
d="M442 168q-72 0 -114 5.5t-84 20.5q-96 34 -155 112t-59 201q0 217 133 321q113 88 291 87h332v-587q0 -90 21 -115q35 -43 124 -43h38q82 0 82 -82q0 -51 -19 -69.5t-63 -18.5h-64q-260 0 -287 205q-104 -37 -176 -37zM447 342q85 0 167 37v364h-182q-162 -1 -211 -115
q-17 -40 -17 -87.5t12 -83t38 -61t67 -40t126 -14.5zM505 1288.5q0 44.5 32 76.5q31 32 65 32q56 0 88 -32q32 -31 32 -65q0 -56 -32 -88t-65.5 -32t-53 8.5t-34.5 23.5q-32 32 -32 76.5zM239 1288.5q0 44.5 32 76.5q31 32 65 32q56 0 88 -32q32 -31 32 -65q0 -56 -32 -88
t-65.5 -32t-53 8.5t-34.5 23.5q-32 32 -32 76.5z" />
    <glyph glyph-name="uniFE96" unicode="&#x62a;" horiz-adv-x="1890" arabic-form="final" 
d="M464 0q-235 0 -324.5 67t-89.5 232v317h174v-256q0 -122 64 -156t266 -34h811q88 0 115 19q51 36 51 130v469h176v-393q0 -114 26.5 -153.5t61 -55.5t88.5 -16q82 0 82 -82q0 -51 -19.5 -69.5t-57.5 -18.5q-72 0 -127.5 32.5t-79.5 82.5q-62 -115 -266 -115h-951z
M908 1010.5q0 44.5 32 76.5t66 32q56 0 88 -32q32 -31 31 -65q0 -56 -32 -88t-65.5 -32t-53 8.5t-34.5 23.5q-32 32 -32 76.5zM642 1010.5q0 44.5 32 76.5t66 32q56 0 88 -32q32 -31 31 -65q0 -56 -32 -88t-65.5 -32t-53 8.5t-34.5 23.5q-32 32 -32 76.5z" />
    <glyph glyph-name="uniFE97" unicode="&#x62a;" horiz-adv-x="627" arabic-form="initial" 
d="M0 0q-82 0 -82 82q0 51 19.5 69.5t62.5 18.5h313v618h174v-788h-487zM403 1132.5q0 44.5 32 76.5q31 32 65 32q56 0 88 -32q32 -31 32 -65q0 -56 -32 -88t-65.5 -32t-53 8.5t-34.5 23.5q-32 32 -32 76.5zM137 1132.5q0 44.5 32 76.5q31 32 65 32q56 0 88 -32
q32 -31 32 -65q0 -56 -32 -88t-65.5 -32t-53 8.5t-34.5 23.5q-32 32 -32 76.5z" />
    <glyph glyph-name="uniFE98" unicode="&#x62a;" horiz-adv-x="680" arabic-form="medial" 
d="M0 0q-82 0 -82 82q0 51 19.5 69.5t62.5 18.5h154q88 0 115 19q51 36 51 130v469h176v-393q0 -166 94 -209q36 -16 90 -16q82 0 82 -82q0 -51 -19.5 -69.5t-57.5 -18.5q-73 0 -132 32.5t-83 82.5q-62 -115 -266 -115h-204zM428 1132.5q0 44.5 32 76.5t66 32q56 0 88 -32
q32 -31 31 -65q0 -56 -32 -88t-65.5 -32t-53 8.5t-34.5 23.5q-32 32 -32 76.5zM162 1132.5q0 44.5 32 76.5t66 32q56 0 88 -32q32 -31 31 -65q0 -56 -32 -88t-65.5 -32t-53 8.5t-34.5 23.5q-32 32 -32 76.5z" />
    <glyph glyph-name="uniFE9A" unicode="&#x62b;" horiz-adv-x="1890" arabic-form="final" 
d="M464 0q-235 0 -324.5 67t-89.5 232v317h174v-256q0 -122 64 -156t266 -34h811q88 0 115 19q51 36 51 130v469h176v-393q0 -114 26.5 -153.5t61 -55.5t88.5 -16q82 0 82 -82q0 -51 -19.5 -69.5t-57.5 -18.5q-72 0 -127.5 32.5t-79.5 82.5q-62 -115 -266 -115h-951z
M813 1333q32 32 65.5 32t53 -8.5t34.5 -23.5t23.5 -35t8.5 -42q0 -44 -32 -76t-65.5 -32t-53 8.5t-34.5 23.5q-32 32 -32 76.5t32 76.5zM910 1010.5q0 44.5 32 76.5t66 32q56 0 88 -32q32 -31 31 -65q0 -56 -32 -88t-65.5 -32t-53 8.5t-34.5 23.5q-32 32 -32 76.5z
M644 1010.5q0 44.5 32 76.5t66 32q56 0 88 -32q32 -31 31 -65q0 -56 -32 -88t-65.5 -32t-53 8.5t-34.5 23.5q-32 32 -32 76.5z" />
    <glyph glyph-name="uniFE9B" unicode="&#x62b;" horiz-adv-x="627" arabic-form="initial" 
d="M0 0q-82 0 -82 82q0 51 19.5 69.5t62.5 18.5h313v618h174v-788h-487zM308 1455q32 32 65.5 32t53 -8.5t34.5 -23.5t23.5 -35t8.5 -42q0 -44 -32 -76t-65.5 -32t-53 8.5t-34.5 23.5q-32 32 -32 76.5t32 76.5zM405 1132.5q0 44.5 32 76.5q31 32 65 32q56 0 88 -32
q32 -31 32 -65q0 -56 -32 -88t-65.5 -32t-53 8.5t-34.5 23.5q-32 32 -32 76.5zM139 1132.5q0 44.5 32 76.5q31 32 65 32q56 0 88 -32q32 -31 32 -65q0 -56 -32 -88t-65.5 -32t-53 8.5t-34.5 23.5q-32 32 -32 76.5z" />
    <glyph glyph-name="uniFE9C" unicode="&#x62b;" horiz-adv-x="680" arabic-form="medial" 
d="M0 0q-82 0 -82 82q0 51 19.5 69.5t62.5 18.5h154q88 0 115 19q51 36 51 130v469h176v-393q0 -166 94 -209q36 -16 90 -16q82 0 82 -82q0 -51 -19.5 -69.5t-57.5 -18.5q-73 0 -132 32.5t-83 82.5q-62 -115 -266 -115h-204zM335 1455q32 32 65.5 32t53 -8.5t34.5 -23.5
t23.5 -35t8.5 -42q0 -44 -32 -76t-65.5 -32t-53 8.5t-34.5 23.5q-32 32 -32 76.5t32 76.5zM432 1132.5q0 44.5 32 76.5t66 32q56 0 88 -32q32 -31 31 -65q0 -56 -32 -88t-65.5 -32t-53 8.5t-34.5 23.5q-32 32 -32 76.5zM166 1132.5q0 44.5 32 76.5t66 32q56 0 88 -32
q32 -31 31 -65q0 -56 -32 -88t-65.5 -32t-53 8.5t-34.5 23.5q-32 32 -32 76.5z" />
    <glyph glyph-name="uniFE9E" unicode="&#x62c;" horiz-adv-x="1240" arabic-form="final" 
d="M437 -519q-406 162 -406 411q0 139 107 208.5t290 69.5h519q0 247 -120.5 361t-315.5 114q-112 0 -235 -35v164q132 43 270.5 43t249.5 -51.5t183 -139.5q139 -170 145 -456h115q81 0 81 -82q0 -51 -19 -69.5t-62 -18.5h-846q-130 0 -171 -65q-14 -21 -14 -53
q0 -59 80.5 -119.5t230.5 -127.5zM683 -333.5q0 44.5 32 76.5q31 32 65 32q56 0 88 -32q32 -31 32 -65q0 -56 -32 -88t-65.5 -32t-53 8.5t-34.5 23.5q-32 32 -32 76.5z" />
    <glyph glyph-name="uniFE9F" unicode="&#x62c;" horiz-adv-x="1107" arabic-form="initial" 
d="M0 0q-82 0 -82 82q0 51 19.5 69.5t62.5 18.5h821q0 247 -120.5 361t-315.5 114q-112 0 -235 -35v164q132 43 272 43t252 -53.5t184 -144.5q139 -176 139 -469v-150h-997zM323 -329.5q0 44.5 32 76.5q31 32 65 32q56 0 88 -32q32 -31 32 -65q0 -56 -32 -88t-65.5 -32
t-53 8.5t-34.5 23.5q-32 32 -32 76.5z" />
    <glyph glyph-name="uniFEA0" unicode="&#x62c;" horiz-adv-x="1113" arabic-form="medial" 
d="M1114 170q82 0 82 -82q0 -51 -19 -69.5t-63 -18.5h-1114q-82 0 -82 82q0 51 19.5 69.5t62.5 18.5h821q0 247 -120.5 361t-315.5 114q-112 0 -235 -35v164q132 43 270.5 43t249.5 -51.5t183 -139.5q140 -172 144 -456h117zM323 -329.5q0 44.5 32 76.5q31 32 65 32
q56 0 88 -32q32 -31 32 -65q0 -56 -32 -88t-65.5 -32t-53 8.5t-34.5 23.5q-32 32 -32 76.5z" />
    <glyph glyph-name="uniFEA2" unicode="&#x62d;" horiz-adv-x="1240" arabic-form="final" 
d="M437 -519q-406 162 -406 411q0 139 107 208.5t290 69.5h519q0 247 -120.5 361t-315.5 114q-112 0 -235 -35v164q132 43 270.5 43t249.5 -51.5t183 -139.5q139 -170 145 -456h115q81 0 81 -82q0 -51 -19 -69.5t-62 -18.5h-846q-130 0 -171 -65q-14 -21 -14 -53
q0 -59 80.5 -119.5t230.5 -127.5z" />
    <glyph glyph-name="uniFEA3" unicode="&#x62d;" horiz-adv-x="1107" arabic-form="initial" 
d="M0 0q-82 0 -82 82q0 51 19.5 69.5t62.5 18.5h821q0 247 -120 361t-316 114q-112 0 -235 -35v164q132 43 272 43t252 -53.5t184 -144.5q139 -176 139 -469v-150h-997z" />
    <glyph glyph-name="uniFEA4" unicode="&#x62d;" horiz-adv-x="1113" arabic-form="medial" 
d="M1114 170q82 0 82 -82q0 -51 -19 -69.5t-63 -18.5h-1114q-82 0 -82 82q0 51 19.5 69.5t62.5 18.5h821q0 247 -120 361t-316 114q-112 0 -235 -35v164q132 43 270.5 43t249.5 -51.5t183 -139.5q140 -172 144 -456h117z" />
    <glyph glyph-name="uniFEA6" unicode="&#x62e;" horiz-adv-x="1240" arabic-form="final" 
d="M437 -519q-406 162 -406 411q0 139 107 208.5t290 69.5h519q0 247 -120.5 361t-315.5 114q-112 0 -235 -35v164q132 43 270.5 43t249.5 -51.5t183 -139.5q139 -170 145 -456h115q81 0 81 -82q0 -51 -19 -69.5t-62 -18.5h-846q-130 0 -171 -65q-14 -21 -14 -53
q0 -59 80.5 -119.5t230.5 -127.5zM521 1131.5q0 44.5 32 76.5q31 32 65 32q56 0 88 -32t32 -66q0 -56 -32 -87.5t-65.5 -31.5t-53 8.5t-34.5 23.5q-32 32 -32 76.5z" />
    <glyph glyph-name="uniFEA7" unicode="&#x62e;" horiz-adv-x="1107" arabic-form="initial" 
d="M0 0q-82 0 -82 82q0 51 19.5 69.5t62.5 18.5h821q0 247 -120.5 361t-315.5 114q-112 0 -235 -35v164q132 43 272 43t252 -53.5t184 -144.5q139 -176 139 -469v-150h-997zM313 1129.5q0 44.5 32 76.5q31 32 65 32q56 0 88 -32t32 -66q0 -56 -32 -87.5t-65.5 -31.5t-53 8.5
t-34.5 23.5q-32 32 -32 76.5z" />
    <glyph glyph-name="uniFEA8" unicode="&#x62e;" horiz-adv-x="1113" arabic-form="medial" 
d="M1114 170q82 0 82 -82q0 -51 -19 -69.5t-63 -18.5h-1114q-82 0 -82 82q0 51 19.5 69.5t62.5 18.5h821q0 247 -120.5 361t-315.5 114q-112 0 -235 -35v164q132 43 270.5 43t249.5 -51.5t183 -139.5q140 -172 144 -456h117zM313 1129.5q0 44.5 32 76.5q31 32 65 32
q56 0 88 -32t32 -66q0 -56 -32 -87.5t-65.5 -31.5t-53 8.5t-34.5 23.5q-32 32 -32 76.5z" />
    <glyph glyph-name="uniFEAA" unicode="&#x62f;" horiz-adv-x="979" arabic-form="final" 
d="M1061 88q0 -51 -19 -69.5t-63 -18.5q-158 0 -223 115q-52 -99 -160 -111q-32 -4 -67 -4h-468v170h457q108 0 118 60q8 44 -28 100l-263 411l151 95l249 -405q92 -150 124 -190q58 -71 110 -71q82 0 82 -82z" />
    <glyph glyph-name="uniFEAC" unicode="&#x630;" horiz-adv-x="979" arabic-form="final" 
d="M1061 88q0 -51 -19 -69.5t-63 -18.5q-158 0 -223 115q-52 -99 -160 -111q-32 -4 -67 -4h-468v170h457q108 0 118 60q8 44 -28 100l-263 411l151 95l249 -405q92 -150 124 -190q58 -71 110 -71q82 0 82 -82zM295 1132.5q0 44.5 32 76.5q31 32 65 32q56 0 88 -32
q32 -31 32 -65q0 -56 -32 -88t-65.5 -32t-53 8.5t-34.5 23.5q-32 32 -32 76.5z" />
    <glyph glyph-name="uniFEAE" unicode="&#x631;" horiz-adv-x="671" arabic-form="final" 
d="M671 170q82 0 82 -82q0 -51 -19.5 -69.5t-55.5 -18.5q-64 0 -119 26t-74 63q0 -291 -80 -411t-304 -120h-61v170h68q142 0 179 94q19 48 22.5 122.5t3.5 178.5v665h174v-393q0 -225 184 -225z" />
    <glyph glyph-name="uniFEB0" unicode="&#x632;" horiz-adv-x="671" arabic-form="final" 
d="M671 170q82 0 82 -82q0 -51 -19.5 -69.5t-55.5 -18.5q-64 0 -119 26t-74 63q0 -291 -80 -411t-304 -120h-61v170h68q142 0 179 94q19 48 22.5 122.5t3.5 178.5v665h174v-393q0 -225 184 -225zM292 1132.5q0 44.5 32 76.5t66 32q56 0 88 -32q32 -31 31 -65q0 -56 -32 -88
t-65.5 -32t-53 8.5t-34.5 23.5q-32 32 -32 76.5z" />
    <glyph glyph-name="uniFEB2" unicode="&#x633;" horiz-adv-x="2436" arabic-form="final" 
d="M1442 0q-204 0 -268 89v-23q0 -390 -322 -479q-104 -29 -239 -29q-280 0 -421.5 118.5t-141.5 372.5v275h174v-240q0 -282 220 -338q74 -18 175 -18q212 0 296.5 70.5t84.5 269.5v618h174v-291q0 -115 29 -154t69 -55t96 -16q115 0 153 26t38 123v367h174v-291
q0 -113 27 -153t61.5 -56t80.5 -16q96 0 135 27.5t39 121.5v469h176v-393q0 -167 94 -209q36 -16 89 -16q82 0 82 -82q0 -51 -19.5 -69.5t-57.5 -18.5q-72 0 -131 32.5t-83 82.5q-62 -115 -266.5 -115t-262.5 120q-58 -106 -173 -116q-37 -4 -82 -4z" />
    <glyph glyph-name="uniFEB3" unicode="&#x633;" horiz-adv-x="1654" arabic-form="initial" 
d="M0 0q-82 0 -82 82q0 51 19.5 69.5t62.5 18.5h30q145 0 179 19t45 49t11 81v369h174v-293q0 -118 28.5 -155.5t70 -53.5t99.5 -16q113 0 150 26t37 123v367h174v-291q0 -113 27 -153t61.5 -56t88.5 -16h165v618h174v-788h-305q-187 0 -247 120q-58 -104 -196 -116
q-42 -4 -87 -4q-203 0 -276 127q-49 -81 -121 -104t-256 -23h-26z" />
    <glyph glyph-name="uniFEB4" unicode="&#x633;" horiz-adv-x="1700" arabic-form="medial" 
d="M682 0q-205 0 -279 127q-50 -83 -120.5 -105t-256.5 -22h-26q-82 0 -82 82q0 51 19.5 69.5t62.5 18.5h30q145 0 179 19t45 49t11 81v369h174v-293q0 -118 28.5 -155.5t70.5 -53.5q40 -16 98 -16q111 0 149.5 26t38.5 123v367h174v-291q0 -113 27 -153t61 -56t80 -16
q96 0 135.5 27.5t39.5 121.5v469h176v-393q-1 -167 93 -209q36 -16 90 -16q82 0 82 -82q0 -51 -19.5 -69.5t-57.5 -18.5q-72 0 -131 32.5t-83 82.5q-62 -115 -266.5 -115t-262.5 120q-57 -104 -189 -116q-37 -4 -91 -4z" />
    <glyph glyph-name="uniFEB6" unicode="&#x634;" horiz-adv-x="2436" arabic-form="final" 
d="M1442 0q-204 0 -268 89v-23q0 -390 -322 -479q-104 -29 -239 -29q-280 0 -421.5 118.5t-141.5 372.5v275h174v-240q0 -282 220 -338q74 -18 175 -18q212 0 296.5 70.5t84.5 269.5v618h174v-291q0 -115 29 -154t69 -55t96 -16q115 0 153 26t38 123v367h174v-291
q0 -113 27 -153t61.5 -56t80.5 -16q96 0 135 27.5t39 121.5v469h176v-393q0 -167 94 -209q36 -16 89 -16q82 0 82 -82q0 -51 -19.5 -69.5t-57.5 -18.5q-72 0 -131 32.5t-83 82.5q-62 -115 -266.5 -115t-262.5 120q-58 -106 -173 -116q-37 -4 -82 -4zM1571 1455
q32 32 65.5 32t53 -8.5t34.5 -23.5t23.5 -35t8.5 -42q0 -44 -32 -76t-65.5 -32t-53 8.5t-34.5 23.5q-32 32 -32 76.5t32 76.5zM1668 1132.5q0 44.5 32 76.5t66 32q56 0 88 -32q32 -31 31 -65q0 -56 -32 -88t-65.5 -32t-53 8.5t-34.5 23.5q-32 32 -32 76.5zM1402 1132.5
q0 44.5 32 76.5t66 32q56 0 88 -32q32 -31 31 -65q0 -56 -32 -88t-65.5 -32t-53 8.5t-34.5 23.5q-32 32 -32 76.5z" />
    <glyph glyph-name="uniFEB7" unicode="&#x634;" horiz-adv-x="1654" arabic-form="initial" 
d="M0 0q-82 0 -82 82q0 51 19.5 69.5t62.5 18.5h30q145 0 179 19t45 49t11 81v369h174v-293q0 -118 28.5 -155.5t70 -53.5t99.5 -16q113 0 150 26t37 123v367h174v-291q0 -113 27 -153t61.5 -56t88.5 -16h165v618h174v-788h-305q-187 0 -247 120q-58 -104 -196 -116
q-42 -4 -87 -4q-203 0 -276 127q-49 -81 -121 -104t-256 -23h-26zM827 1455q32 32 65.5 32t53 -8.5t34.5 -23.5t23.5 -35t8.5 -42q0 -44 -32 -76t-65.5 -32t-53 8.5t-34.5 23.5q-32 32 -32 76.5t32 76.5zM924 1132.5q0 44.5 32 76.5t66 32q56 0 88 -32q32 -31 31 -65
q0 -56 -32 -88t-65.5 -32t-53 8.5t-34.5 23.5q-32 32 -32 76.5zM658 1132.5q0 44.5 32 76.5t66 32q56 0 88 -32q32 -31 31 -65q0 -56 -32 -88t-65.5 -32t-53 8.5t-34.5 23.5q-32 32 -32 76.5z" />
    <glyph glyph-name="uniFEB8" unicode="&#x634;" horiz-adv-x="1700" arabic-form="medial" 
d="M682 0q-205 0 -279 127q-50 -83 -120.5 -105t-256.5 -22h-26q-82 0 -82 82q0 51 19.5 69.5t62.5 18.5h30q145 0 179 19t45 49t11 81v369h174v-293q0 -118 28.5 -155.5t70.5 -53.5q40 -16 98 -16q111 0 149.5 26t38.5 123v367h174v-291q0 -113 27 -153t61 -56t80 -16
q96 0 135.5 27.5t39.5 121.5v469h176v-393q-1 -167 93 -209q36 -16 90 -16q82 0 82 -82q0 -51 -19.5 -69.5t-57.5 -18.5q-72 0 -131 32.5t-83 82.5q-62 -115 -266.5 -115t-262.5 120q-57 -104 -189 -116q-37 -4 -91 -4zM836 1455q32 32 65.5 32t53 -8.5t34.5 -23.5t23.5 -35
t8.5 -42q0 -44 -32 -76t-65.5 -32t-53 8.5t-34.5 23.5q-32 32 -32 76.5t32 76.5zM933 1132.5q0 44.5 32 76.5q31 32 65 32q56 0 88 -32q32 -31 32 -65q0 -56 -32 -88t-65.5 -32t-53 8.5t-34.5 23.5q-32 32 -32 76.5zM667 1132.5q0 44.5 32 76.5q31 32 65 32q56 0 88 -32
q32 -31 32 -65q0 -56 -32 -88t-65.5 -32t-53 8.5t-34.5 23.5q-32 32 -32 76.5z" />
    <glyph glyph-name="uniFEBA" unicode="&#x635;" horiz-adv-x="2730" arabic-form="final" 
d="M2730 170q82 0 82 -82q0 -51 -19.5 -69.5t-62.5 -18.5h-1298q-119 0 -173.5 23.5t-84.5 65.5v-23q0 -390 -322 -479q-104 -29 -239 -29q-280 0 -421.5 118.5t-141.5 372.5v275h174v-240q0 -282 220 -338q74 -18 175 -18q212 0 296.5 70.5t84.5 269.5v618h174v-291
q0 -115 29 -154t68.5 -55t103.5 -16h27q88 257 271 437q213 210 478 210q205 0 319.5 -124t114.5 -347v-176h145zM2411 321q0 328 -286 328q-182 0 -329 -145.5t-214 -333.5h829v151z" />
    <glyph glyph-name="uniFEBB" unicode="&#x635;" horiz-adv-x="1894" arabic-form="initial" 
d="M0 0q-82 0 -82 82q0 51 19.5 69.5t62.5 18.5h101q88 0 115 19q51 36 51 130v366h176v-290q0 -105 23 -147.5t51 -60t72 -17.5q88 257 271 437q213 210 478 210q205 0 319 -124q115 -124 115 -347v-346h-1153q-101 0 -169 69q-20 21 -33 46q-62 -115 -266 -115h-151z
M1598 321q0 328 -286 328q-182 0 -329 -145t-214 -334h829v151z" />
    <glyph glyph-name="uniFEBC" unicode="&#x635;" horiz-adv-x="1917" arabic-form="medial" 
d="M0 0q-82 0 -82 82q0 51 19.5 69.5t62.5 18.5h101q88 0 115 19q51 36 51 130v366h176v-290q0 -105 23 -147.5t51 -60t72 -17.5q88 257 271 437q213 210 478 210q205 0 319 -124q115 -124 115 -347v-176h145q82 0 82 -82q0 -51 -19.5 -69.5t-62.5 -18.5h-1298
q-101 0 -169 69q-20 21 -33 46q-62 -115 -266 -115h-151zM1598 321q0 328 -286 328q-182 0 -329 -145t-214 -334h829v151z" />
    <glyph glyph-name="uniFEBE" unicode="&#x636;" horiz-adv-x="2730" arabic-form="final" 
d="M2730 170q82 0 82 -82q0 -51 -19.5 -69.5t-62.5 -18.5h-1298q-119 0 -173.5 23.5t-84.5 65.5v-23q0 -390 -322 -479q-104 -29 -239 -29q-280 0 -421.5 118.5t-141.5 372.5v275h174v-240q0 -282 220 -338q74 -18 175 -18q212 0 296.5 70.5t84.5 269.5v618h174v-291
q0 -115 29 -154t68.5 -55t103.5 -16h27q88 257 271 437q213 210 478 210q205 0 319.5 -124t114.5 -347v-176h145zM2411 321q0 328 -286 328q-182 0 -329 -145.5t-214 -333.5h829v151zM2022 1132.5q0 44.5 32 76.5t66 32q56 0 88 -32q32 -31 31 -65q0 -56 -32 -88t-65.5 -32
t-53 8.5t-34.5 23.5q-32 32 -32 76.5z" />
    <glyph glyph-name="uniFEBF" unicode="&#x636;" horiz-adv-x="1894" arabic-form="initial" 
d="M0 0q-82 0 -82 82q0 51 19.5 69.5t62.5 18.5h101q88 0 115 19q51 36 51 130v366h176v-290q0 -105 23 -147.5t51 -60t72 -17.5q88 257 271 437q213 210 478 210q205 0 319.5 -124t114.5 -347v-346h-1153q-101 0 -169 69q-20 21 -33 46q-62 -115 -266 -115h-151zM1598 321
q0 328 -286 328q-182 0 -329 -145.5t-214 -333.5h829v151zM1219 1132.5q0 44.5 32 76.5q31 32 65 32q56 0 88 -32q32 -31 32 -65q0 -56 -32 -88t-65.5 -32t-53 8.5t-34.5 23.5q-32 32 -32 76.5z" />
    <glyph glyph-name="uniFEC0" unicode="&#x636;" horiz-adv-x="1917" arabic-form="medial" 
d="M0 0q-82 0 -82 82q0 51 19.5 69.5t62.5 18.5h101q88 0 115 19q51 36 51 130v366h176v-290q0 -105 23 -147.5t51 -60t72 -17.5q88 257 271 437q213 210 478 210q205 0 319.5 -124t114.5 -347v-176h145q82 0 82 -82q0 -51 -19.5 -69.5t-62.5 -18.5h-1298q-101 0 -169 69
q-20 21 -33 46q-62 -115 -266 -115h-151zM1598 321q0 328 -286 328q-182 0 -329 -145.5t-214 -333.5h829v151zM1215 1132.5q0 44.5 32 76.5q31 32 65 32q56 0 88 -32q32 -31 32 -65q0 -56 -32 -88t-65.5 -32t-53 8.5t-34.5 23.5q-32 32 -32 76.5z" />
    <glyph glyph-name="uniFEC2" unicode="&#x637;" horiz-adv-x="1596" arabic-form="final" 
d="M1017 817q204 0 319 -125t115 -346v-176h145q82 0 82 -82q0 -51 -19.5 -69.5t-62.5 -18.5h-1566v170h254v1259h174v-953q218 341 559 341zM1277 340q0 309 -287 309q-182 0 -327 -145t-205 -334h819v170z" />
    <glyph glyph-name="uniFEC3" unicode="&#x637;" horiz-adv-x="1546" arabic-form="initial" 
d="M1250 340q0 309 -287 309q-182 0 -327 -145t-205 -334h819v170zM0 0q-82 0 -82 82q0 51 19.5 69.5t62.5 18.5h257v1259h174v-953q218 341 559 341q204 0 319 -125t115 -346v-346h-1424z" />
    <glyph glyph-name="uniFEC4" unicode="&#x637;" horiz-adv-x="1569" arabic-form="medial" 
d="M1250 340q0 309 -287 309q-182 0 -327 -145t-205 -334h819v170zM990 817q204 0 319 -125t115 -346v-176h145q82 0 82 -82q0 -51 -19 -69.5t-63 -18.5h-1569q-82 0 -82 82q0 51 19.5 69.5t62.5 18.5h257v1259h174v-953q218 341 559 341z" />
    <glyph glyph-name="uniFEC6" unicode="&#x638;" horiz-adv-x="1596" arabic-form="final" 
d="M1017 817q204 0 319 -125t115 -346v-176h145q82 0 82 -82q0 -51 -19.5 -69.5t-62.5 -18.5h-1566v170h254v1259h174v-953q218 341 559 341zM1277 340q0 309 -287 309q-182 0 -327 -145t-205 -334h819v170zM894 1132.5q0 44.5 32 76.5t66 32q56 0 88 -32q32 -31 31 -65
q0 -56 -32 -88t-65.5 -32t-53 8.5t-34.5 23.5q-32 32 -32 76.5z" />
    <glyph glyph-name="uniFEC7" unicode="&#x638;" horiz-adv-x="1546" arabic-form="initial" 
d="M1250 340q0 309 -287 309q-182 0 -327 -145t-205 -334h819v170zM0 0q-82 0 -82 82q0 51 19.5 69.5t62.5 18.5h257v1259h174v-953q218 341 559 341q204 0 319 -125t115 -346v-346h-1424zM891 1132.5q0 44.5 32 76.5q31 32 65 32q56 0 88 -32q32 -31 32 -65q0 -56 -32 -88
t-65.5 -32t-53 8.5t-34.5 23.5q-32 32 -32 76.5z" />
    <glyph glyph-name="uniFEC8" unicode="&#x638;" horiz-adv-x="1569" arabic-form="medial" 
d="M1250 340q0 309 -287 309q-182 0 -327 -145t-205 -334h819v170zM990 817q204 0 319 -125t115 -346v-176h145q82 0 82 -82q0 -51 -19 -69.5t-63 -18.5h-1569q-82 0 -82 82q0 51 19.5 69.5t62.5 18.5h257v1259h174v-953q218 341 559 341zM858 1132.5q0 44.5 32 76.5t66 32
q56 0 88 -32q32 -31 31 -65q0 -56 -32 -88t-65.5 -32t-53 8.5t-34.5 23.5q-32 32 -32 76.5z" />
    <glyph glyph-name="uniFECA" unicode="&#x639;" horiz-adv-x="1041" arabic-form="final" 
d="M436 -519q-406 162 -406 411q0 181 218 277q62 27 125 53l-262 282q20 73 45 115.5t37 54.5q65 65 162 104t197 39q180 0 275 -75.5t95 -178.5q0 -213 -245 -385q35 -8 103 -8h261q82 0 82 -82q0 -51 -19 -69.5t-63 -18.5h-317q-135 0 -235 90q-149 -52 -199.5 -88
t-66.5 -62t-16 -58q0 -59 80.5 -119.5t230.5 -127.5zM555 652q-171 0 -275 -113l250 -265q155 79 203 187q16 36 16 66.5t-12 51.5t-37 37q-54 36 -145 36z" />
    <glyph glyph-name="uniFECB" unicode="&#x639;" horiz-adv-x="978" arabic-form="initial" 
d="M349 408q1 -166 149 -220q50 -18 115 -18h295v-170h-908q-82 0 -82 82q0 51 19.5 69.5t62.5 18.5h259q-86 88 -86 240q0 198 144 310q124 97 280.5 97t222.5 -26v-183q-91 31 -175 31q-150 0 -223 -61.5t-73 -169.5z" />
    <glyph glyph-name="uniFECC" unicode="&#x639;" horiz-adv-x="1077" arabic-form="medial" 
d="M591 652q-171 0 -275 -113l250 -265q155 79 203 187q16 36 16 66.5t-12 51.5t-37 37q-54 36 -145 36zM0 0q-82 0 -82 82q0 51 19.5 69.5t62.5 18.5h111q164 0 299 43l-263 291q20 73 45 115.5t37 54.5q65 65 162 104t197 39q180 0 275 -75.5t95 -178.5q0 -213 -245 -385
q35 -8 103 -8h260q82 0 82 -82q0 -51 -19 -69.5t-63 -18.5h-316q-59 0 -114 15.5t-113 66.5q-207 -82 -414 -82h-119z" />
    <glyph glyph-name="uniFECE" unicode="&#x63a;" horiz-adv-x="1041" arabic-form="final" 
d="M436 -519q-406 162 -406 411q0 181 218 277q62 27 125 53l-262 282q20 73 45 115.5t37 54.5q65 65 162 104t197 39q180 0 275 -75.5t95 -178.5q0 -213 -245 -385q35 -8 103 -8h261q82 0 82 -82q0 -51 -19 -69.5t-63 -18.5h-317q-135 0 -235 90q-149 -52 -199.5 -88
t-66.5 -62t-16 -58q0 -59 80.5 -119.5t230.5 -127.5zM555 652q-171 0 -275 -113l250 -265q155 79 203 187q16 36 16 66.5t-12 51.5t-37 37q-54 36 -145 36zM514 1132.5q0 44.5 32 76.5t66 32q56 0 88 -32q32 -31 31 -65q0 -56 -32 -88t-65.5 -32t-53 8.5t-34.5 23.5
q-32 32 -32 76.5z" />
    <glyph glyph-name="uniFECF" unicode="&#x63a;" horiz-adv-x="978" arabic-form="initial" 
d="M349 408q1 -166 149 -220q50 -18 115 -18h295v-170h-908q-82 0 -82 82q0 51 19.5 69.5t62.5 18.5h259q-86 88 -86 240q0 198 144 310q124 97 280.5 97t222.5 -26v-183q-91 31 -175 31q-150 0 -223 -61.5t-73 -169.5zM478 1132.5q0 44.5 32 76.5t66 32q56 0 88 -32
q32 -31 31 -65q0 -56 -32 -88t-65.5 -32t-53 8.5t-34.5 23.5q-32 32 -32 76.5z" />
    <glyph glyph-name="uniFED0" unicode="&#x63a;" horiz-adv-x="1077" arabic-form="medial" 
d="M591 652q-171 0 -275 -113l250 -265q155 79 203 187q16 36 16 66.5t-12 51.5t-37 37q-54 36 -145 36zM0 0q-82 0 -82 82q0 51 19.5 69.5t62.5 18.5h111q164 0 299 43l-263 291q20 73 45 115.5t37 54.5q65 65 162 104t197 39q180 0 275 -75.5t95 -178.5q0 -213 -245 -385
q35 -8 103 -8h260q82 0 82 -82q0 -51 -19 -69.5t-63 -18.5h-316q-59 0 -114 15.5t-113 66.5q-207 -82 -414 -82h-119zM482 1132.5q0 44.5 32 76.5t66 32q56 0 88 -32q32 -31 31 -65q0 -56 -32 -88t-65.5 -32t-53 8.5t-34.5 23.5q-32 32 -32 76.5z" />
    <glyph glyph-name="uniFED2" unicode="&#x641;" horiz-adv-x="2124" arabic-form="final" 
d="M1432.5 231.5q69.5 -61.5 184.5 -61.5h188v205q0 122 -33 176t-77 79t-104 25q-60 1 -100 -19q-41 -20 -69 -53q-60 -69 -59.5 -179.5t70 -172zM1188 382q0 196 112 316q110 119 308 119q198 1 296 -145q76 -113 75 -291v-211h145q82 0 82 -82q0 -51 -19.5 -69.5
t-62.5 -18.5h-1660q-235 0 -324.5 67t-89.5 232v317h166v-256q0 -121 64.5 -155.5t267.5 -34.5h698q-58 109 -58 212zM1510 1132.5q0 44.5 32 76.5t66 32q56 0 88 -32q32 -31 31 -65q0 -56 -32 -88t-65.5 -32t-53 8.5t-34.5 23.5q-32 32 -32 76.5z" />
    <glyph glyph-name="uniFED3" unicode="&#x641;" horiz-adv-x="1104" arabic-form="initial" 
d="M435.5 231.5q69.5 -61.5 184.5 -61.5h188v205q0 122 -33 176t-77 79t-104 25t-100 -19.5t-68 -52.5q-60 -69 -60 -179.5t69.5 -172zM191 382q0 196 111.5 315.5t309.5 119.5q196 1 294 -145q76 -113 76 -291v-381h-982q-82 0 -82 82q0 51 19.5 69.5t62.5 18.5h249
q-58 109 -58 212zM503 1132.5q0 44.5 32 76.5q31 32 65 32q56 0 88 -32q32 -31 32 -65q0 -56 -32 -88t-65.5 -32t-53 8.5t-34.5 23.5q-32 32 -32 76.5z" />
    <glyph glyph-name="uniFED4" unicode="&#x641;" horiz-adv-x="1128" arabic-form="medial" 
d="M191 382q0 196 111.5 315.5t309.5 119.5q196 1 294 -145q76 -113 76 -291v-211h146q82 0 82 -82q0 -51 -19.5 -69.5t-62.5 -18.5h-1128q-82 0 -82 82q0 51 19.5 69.5t62.5 18.5h249q-58 109 -58 212zM435.5 231.5q69.5 -61.5 184.5 -61.5h188v205q0 122 -33 176t-77 79
t-104 25t-100 -19.5t-68 -52.5q-60 -69 -60 -179.5t69.5 -172zM499 1132.5q0 44.5 32 76.5q31 32 65 32q56 0 88 -32q32 -31 32 -65q0 -56 -32 -88t-65.5 -32t-53 8.5t-34.5 23.5q-32 32 -32 76.5z" />
    <glyph glyph-name="uniFED6" unicode="&#x642;" horiz-adv-x="1557" arabic-form="final" 
d="M1240 323q0 332 -227 332q-110 0 -169.5 -79.5t-59.5 -183.5t61 -163t176 -59h219v153zM216 95q0 -369 518 -369q326 0 435 98q73 65 73 176h-233q-275 0 -359 203q-30 71 -30 163q0 186 111 318.5t294 132.5q301 1 367 -313q20 -98 20 -220v-114h145q82 0 82 -82
q0 -51 -19.5 -69.5t-62.5 -18.5h-149q-42 -350 -411 -420q-118 -22 -286 -22q-337 0 -509 143q-152 126 -152 357v266h166v-229zM1068 1132.5q0 44.5 32 76.5t66 32q56 0 88 -32q32 -31 31 -65q0 -56 -32 -88t-65.5 -32t-53 8.5t-34.5 23.5q-32 32 -32 76.5zM802 1132.5
q0 44.5 32 76.5t66 32q56 0 88 -32q32 -31 31 -65q0 -56 -32 -88t-65.5 -32t-53 8.5t-34.5 23.5q-32 32 -32 76.5z" />
    <glyph glyph-name="uniFED7" unicode="&#x642;" horiz-adv-x="1104" arabic-form="initial" 
d="M435.5 231.5q69.5 -61.5 184.5 -61.5h188v205q0 122 -33 176t-77 79t-104 25t-100 -19.5t-68 -52.5q-60 -69 -60 -179.5t69.5 -172zM191 382q0 196 111.5 315.5t309.5 119.5q196 1 294 -145q76 -113 76 -291v-381h-982q-82 0 -82 82q0 51 19.5 69.5t62.5 18.5h249
q-58 109 -58 212zM611 1132.5q0 44.5 32 76.5q31 32 65 32q56 0 88 -32q32 -31 32 -65q0 -56 -32 -88t-65.5 -32t-53 8.5t-34.5 23.5q-32 32 -32 76.5zM345 1132.5q0 44.5 32 76.5q31 32 65 32q56 0 88 -32q32 -31 32 -65q0 -56 -32 -88t-65.5 -32t-53 8.5t-34.5 23.5
q-32 32 -32 76.5z" />
    <glyph glyph-name="uniFED8" unicode="&#x642;" horiz-adv-x="1128" arabic-form="medial" 
d="M191 382q0 196 111.5 315.5t309.5 119.5q196 1 294 -145q76 -113 76 -291v-211h146q82 0 82 -82q0 -51 -19.5 -69.5t-62.5 -18.5h-1128q-82 0 -82 82q0 51 19.5 69.5t62.5 18.5h249q-58 109 -58 212zM435.5 231.5q69.5 -61.5 184.5 -61.5h188v205q0 122 -33 176t-77 79
t-104 25t-100 -19.5t-68 -52.5q-60 -69 -60 -179.5t69.5 -172zM605 1132.5q0 44.5 32 76.5q31 32 65 32q56 0 88 -32q32 -31 32 -65q0 -56 -32 -88t-65.5 -32t-53 8.5t-34.5 23.5q-32 32 -32 76.5zM339 1132.5q0 44.5 32 76.5q31 32 65 32q56 0 88 -32q32 -31 32 -65
q0 -56 -32 -88t-65.5 -32t-53 8.5t-34.5 23.5q-32 32 -32 76.5z" />
    <glyph glyph-name="uniFEDA" unicode="&#x643;" horiz-adv-x="1891" arabic-form="final" 
d="M464 0q-235 0 -324.5 67t-89.5 232v317h174v-256q0 -122 64 -156t266 -34h811q88 0 115 19q51 36 51 130v1110h176v-1034q1 -166 95 -209q36 -16 89 -16q82 0 82 -82q0 -51 -19.5 -69.5t-57.5 -18.5q-73 0 -132 32.5t-83 82.5q-62 -115 -266 -115h-951zM990 889
q-106 0 -106 -93q0 -40 26 -69t80 -29h115v-94h-375v94h92q-29 48 -29 98t15 84.5t39.5 58t56 35t84 11.5t78.5 -18v-97q-39 19 -76 19z" />
    <glyph glyph-name="uniFEDB" unicode="&#x643;" horiz-adv-x="937" arabic-form="initial" 
d="M489 170q177 0 177 129q0 118 -157 256t-366 222v180l665 432v-200l-485 -298q263 -123 383 -282q121 -159 121 -320q0 -189 -157 -261q-62 -28 -160 -28h-510q-82 0 -82 82q0 51 19.5 69.5t62.5 18.5h489z" />
    <glyph glyph-name="uniFEDC" unicode="&#x643;" horiz-adv-x="1025" arabic-form="medial" 
d="M489 170q177 0 177 129q0 118 -156.5 256t-366.5 222v180l665 432v-200l-485 -298q303 -143 441 -373q40 -66 59 -124q42 -122 85 -173t117 -51q82 0 82 -82q0 -52 -19 -70q-18 -18 -82 -18q-135 0 -211 154q-67 -154 -293 -154h-502q-82 0 -82 82q0 51 19.5 69.5
t62.5 18.5h489z" />
    <glyph glyph-name="uniFEDE" unicode="&#x644;" horiz-adv-x="1357" arabic-form="final" 
d="M1357 170q82 0 82 -82q0 -51 -19.5 -69.5t-62.5 -18.5h-183q-26 -342 -330 -417q-101 -25 -236 -25q-270 0 -414 140.5t-144 391.5v274h174v-239q0 -399 393 -399q206 0 294.5 88.5t88.5 294.5v1320h174v-1259h183z" />
    <glyph glyph-name="uniFEDF" unicode="&#x644;" horiz-adv-x="565" arabic-form="initial" 
d="M0 0q-82 0 -82 82q0 51 19.5 69.5t62.5 18.5h251v1259h174v-1429h-425z" />
    <glyph glyph-name="uniFEE0" unicode="&#x644;" horiz-adv-x="626" arabic-form="medial" 
d="M0 0q-82 0 -82 82q0 51 19.5 69.5t62.5 18.5h100q88 0 115 19q51 36 51 130v1110h176v-1034q0 -166 94 -209q36 -16 90 -16q82 0 82 -82q0 -51 -19.5 -69.5t-57.5 -18.5q-73 0 -132 32.5t-83 82.5q-62 -115 -266 -115h-150z" />
    <glyph glyph-name="uniFEE2" unicode="&#x645;" horiz-adv-x="1271" arabic-form="final" 
d="M957 362q-1 167 -115 219q-38 17 -85 17q-208 0 -291 -340q142 -111 288 -111q203 0 203 215zM1352 88q0 -51 -19 -69.5t-62 -18.5q-127 0 -192 138q-91 -165 -316 -165q-184 0 -379 144q-100 -27 -131 -89.5t-31 -224.5v-245h-172v249q0 211 51.5 309.5t206.5 161.5
q76 350 294 452q77 36 161 36q166 0 267.5 -107t101.5 -279q0 -39 -4 -77q41 -133 143 -133q81 0 81 -82z" />
    <glyph glyph-name="uniFEE3" unicode="&#x645;" horiz-adv-x="1192" arabic-form="initial" 
d="M907 362q-1 167 -115 219q-38 17 -85 17q-208 0 -291 -340q142 -111 288 -111q203 0 203 215zM713 -27q-184 0 -379 144q-69 -104 -176 -114q-33 -3 -70 -3h-88q-82 0 -82 82q0 51 19.5 69.5t62.5 18.5h84q62 0 96 26q69 51 103 168q63 219 196 322q103 80 251.5 80
t250 -107t101.5 -279q0 -292 -206 -378q-70 -29 -163 -29z" />
    <glyph glyph-name="uniFEE4" unicode="&#x645;" horiz-adv-x="1141" arabic-form="medial" 
d="M22 0h-22q-82 0 -82 82q0 51 19.5 69.5t62.5 18.5h18q58 0 90 26q61 50 95 167q63 219 196 323q103 80 251.5 80t250 -107t101.5 -279q0 -39 -4 -77q41 -133 143 -133q81 0 81 -82q0 -51 -19 -69.5t-62 -18.5q-127 0 -192 138q-91 -165 -316 -165q-184 0 -379 144
q-68 -105 -164 -114q-30 -3 -68 -3zM827 362q-1 167 -115 219q-38 17 -85 17q-208 0 -291 -340q142 -111 288 -111q203 0 203 215z" />
    <glyph glyph-name="uniFEE6" unicode="&#x646;" horiz-adv-x="1357" arabic-form="final" 
d="M1357 170q81 0 81 -82q0 -51 -19 -69.5t-59 -18.5q-69 0 -118.5 26.5t-67.5 62.5v-23q0 -390 -322 -479q-104 -29 -239 -29q-280 0 -421.5 118.5t-141.5 372.5v316h174v-281q0 -282 220 -338q74 -18 175 -18q212 0 296.5 70.5t84.5 269.5v618h174v-291q0 -113 27.5 -153
t63 -56t92.5 -16zM521 730.5q0 44.5 32 76.5q31 32 65 32q56 0 88 -32q32 -31 32 -65q0 -56 -32 -88t-65.5 -32t-53 8.5t-34.5 23.5q-32 32 -32 76.5z" />
    <glyph glyph-name="uniFEE7" unicode="&#x646;" horiz-adv-x="627" arabic-form="initial" 
d="M0 0q-82 0 -82 82q0 51 19.5 69.5t62.5 18.5h313v618h174v-788h-487zM290 1132.5q0 44.5 32 76.5t66 32q56 0 88 -32q32 -31 31 -65q0 -56 -32 -88t-65.5 -32t-53 8.5t-34.5 23.5q-32 32 -32 76.5z" />
    <glyph glyph-name="uniFEE8" unicode="&#x646;" horiz-adv-x="680" arabic-form="medial" 
d="M0 0q-82 0 -82 82q0 51 19.5 69.5t62.5 18.5h154q88 0 115 19q51 36 51 130v469h176v-393q0 -166 94 -209q36 -16 90 -16q82 0 82 -82q0 -51 -19.5 -69.5t-57.5 -18.5q-73 0 -132 32.5t-83 82.5q-62 -115 -266 -115h-204zM307 1132.5q0 44.5 32 76.5q31 32 65 32
q56 0 88 -32q32 -31 32 -65q0 -56 -32 -88t-65.5 -32t-53 8.5t-34.5 23.5q-32 32 -32 76.5z" />
    <glyph glyph-name="uniFEE9" unicode="&#x647;" horiz-adv-x="1365" arabic-form="isolated" 
d="M880 391q0 -137 -47 -221h248q0 217 -73.5 329.5t-247.5 173.5q120 -95 120 -282zM723 369q0 247 -152 247q-68 0 -109.5 -64t-41.5 -161q0 -145 77 -200q28 -20 70 -21h10q79 0 117 76q30 58 29 123zM327 170q-57 80 -57 228.5t94 248.5q32 34 76 55q-84 7 -135 7v153
q251 0 430.5 -34t295 -116.5t170 -219.5t54.5 -342v-150h-985q-72 0 -93 -35q-12 -21 -15 -92h-117q-15 80 -15 150q0 147 174 147h123z" />
    <glyph glyph-name="uniFEEA" unicode="&#x647;" horiz-adv-x="969" arabic-form="final" 
d="M442 168q-72 0 -114 5.5t-84 20.5q-96 34 -155 112t-59 201q0 217 133 321q113 88 291 87h332v-587q0 -90 21 -115q35 -43 124 -43h38q82 0 82 -82q0 -51 -19 -69.5t-63 -18.5h-64q-260 0 -287 205q-104 -37 -176 -37zM447 342q85 0 167 37v364h-182q-162 -1 -211 -115
q-17 -40 -17 -87.5t12 -83t38 -61t67 -40t126 -14.5z" />
    <glyph glyph-name="uniFEEB" unicode="&#x647;" horiz-adv-x="1287" arabic-form="initial" 
d="M802 400q0 -129 -57 -230h258v38q0 322 -269 427q68 -106 68 -235zM341 392q0 -46 12 -86.5t33 -70.5t49.5 -47.5t60.5 -17.5t60.5 17.5t49.5 47.5t33 70.5t12 86.5t-12 86.5t-33 70.5t-49.5 47.5t-60.5 17.5t-60.5 -17.5t-49.5 -47.5t-33 -70.5t-12 -86.5zM190 393
q0 176 105 290l-96 -7v165q483 37 730.5 -127t247.5 -564v-150h-1177q-82 0 -82 82q0 51 19.5 69.5t62.5 18.5h246q-56 103 -56 223z" />
    <glyph glyph-name="uniFEEC" unicode="&#x647;" horiz-adv-x="1061" arabic-form="medial" 
d="M755 -154q1 70 -29 98q-59 56 -194 56h-152q0 -142 49.5 -212t169.5 -70q156 0 156 128zM380 170h92q142 0 219 103q62 83 62 180.5t-47 147.5t-117 50q-100 0 -154.5 -89.5t-54.5 -256.5v-135zM861 0q47 -65 47 -175.5t-84.5 -188.5t-250 -78t-263.5 103.5t-98 292.5v46
h-212q-82 0 -82 82q0 51 19.5 69.5t62.5 18.5h212v119q0 250 101 389t272 139q171 -1 257 -115q70 -93 71 -215q0 -178 -131 -309v-8h279q82 0 82 -82q0 -51 -19.5 -69.5t-62.5 -18.5h-200z" />
    <glyph glyph-name="uniFEEE" unicode="&#x648;" horiz-adv-x="1056" arabic-form="final" 
d="M740 323q0 332 -227 332q-110 0 -169.5 -79.5t-59.5 -183.5t61 -163t176 -59h219v153zM1056 170q82 0 82 -82q0 -51 -19.5 -69.5t-62.5 -18.5h-148q-16 -246 -150.5 -344t-436.5 -98h-86v170h63q249 0 343.5 55.5t98.5 216.5h-231q-275 0 -359 203q-30 71 -30 163
q0 186 111 318.5t294 132.5q301 1 367 -313q20 -98 20 -220v-114h144z" />
    <glyph glyph-name="uniFEF0" unicode="&#x649;" horiz-adv-x="1504" arabic-form="final" 
d="M1492 -35q0 -134 -163 -216q-184 -92 -555.5 -92t-557.5 141q-166 125 -166 349v177h174v-146q0 -183 146 -267t428 -84q373 -1 495 85q45 32 45 70.5t-29 71t-105 79.5l-277 174l86 140l251 -161q182 -116 242 -116q82 0 82 -82q0 -51 -19.5 -69.5t-62.5 -18.5h-23
q9 -15 9 -35z" />
    <glyph glyph-name="uniFEF2" unicode="&#x64a;" horiz-adv-x="1504" arabic-form="final" 
d="M1492 -35q0 -134 -163 -216q-184 -92 -555.5 -92t-557.5 141q-166 125 -166 349v177h174v-146q0 -183 146 -267t428 -84q373 -1 495 85q45 32 45 70.5t-29 71t-105 79.5l-277 174l86 140l251 -161q182 -116 242 -116q82 0 82 -82q0 -51 -19.5 -69.5t-62.5 -18.5h-23
q9 -15 9 -35zM801 -574.5q0 44.5 32 76.5q31 32 65 32q56 0 88 -32t32 -66q0 -56 -32 -87.5t-65.5 -31.5t-53 8.5t-34.5 23.5q-32 32 -32 76.5zM535 -574.5q0 44.5 32 76.5q31 32 65 32q56 0 88 -32t32 -66q0 -56 -32 -87.5t-65.5 -31.5t-53 8.5t-34.5 23.5q-32 32 -32 76.5
z" />
    <glyph glyph-name="uniFEF3" unicode="&#x64a;" horiz-adv-x="627" arabic-form="initial" 
d="M0 0q-82 0 -82 82q0 51 19.5 69.5t62.5 18.5h313v618h174v-788h-487zM347 -333.5q0 44.5 32 76.5q31 32 65 32q56 0 88 -32q32 -31 32 -65q0 -56 -32 -88t-65.5 -32t-53 8.5t-34.5 23.5q-32 32 -32 76.5zM81 -333.5q0 44.5 32 76.5q31 32 65 32q56 0 88 -32
q32 -31 32 -65q0 -56 -32 -88t-65.5 -32t-53 8.5t-34.5 23.5q-32 32 -32 76.5z" />
    <glyph glyph-name="uniFEF4" unicode="&#x64a;" horiz-adv-x="680" arabic-form="medial" 
d="M0 0q-82 0 -82 82q0 51 19.5 69.5t62.5 18.5h154q88 0 115 19q51 36 51 130v469h176v-393q0 -166 94 -209q36 -16 90 -16q82 0 82 -82q0 -51 -19.5 -69.5t-57.5 -18.5q-73 0 -132 32.5t-83 82.5q-62 -115 -266 -115h-204zM428 -333.5q0 44.5 32 76.5t66 32q56 0 88 -32
q32 -31 31 -65q0 -56 -32 -88t-65.5 -32t-53 8.5t-34.5 23.5q-32 32 -32 76.5zM162 -333.5q0 44.5 32 76.5t66 32q56 0 88 -32q32 -31 31 -65q0 -56 -32 -88t-65.5 -32t-53 8.5t-34.5 23.5q-32 32 -32 76.5z" />
    <glyph glyph-name=".notdef" horiz-adv-x="1049" 
d="M455 377h114v-137h-114v137zM525 1247q115 0 187 -74t72 -194q0 -82 -34 -136t-98 -112q-65 -58 -81 -94t-16 -158h-94l-4 40q1 117 35 176t80 101t78 82q30 40 30 102t-47 114t-111 51q-64 0 -109 -47.5t-57 -146.5l-102 16q14 138 85 209t186 71zM946 102v1264h-844
v-1264h844zM1049 1470v-1470h-1049v1470h1049z" />
    <glyph glyph-name=".null" horiz-adv-x="0" 
 />
    <glyph glyph-name="nonmarkingreturn" unicode="&#xd;" horiz-adv-x="569" 
 />
    <glyph glyph-name="space" unicode=" " horiz-adv-x="569" 
 />
    <glyph glyph-name="exclam" unicode="!" horiz-adv-x="530" 
d="M379 227v-227h-227v227h227zM362 1462v-450l-51 -637h-92l-51 637v450h194z" />
    <glyph glyph-name="quotedbl" unicode="&#x22;" horiz-adv-x="872" 
d="M649 1462v-528h-139v528h139zM362 1462v-528h-139v528h139z" />
    <glyph glyph-name="numbersign" unicode="#" 
d="M430 561h254l43 307h-254zM1069 1008v-140h-201l-43 -307h187v-139h-207l-60 -421h-141l60 421h-254l-60 -421h-141l59 421h-198v139h219l43 307h-209v140h227l59 412l2 7h140l-59 -419h253l59 412l2 7h140l-59 -419h182z" />
    <glyph glyph-name="dollar" unicode="$" 
d="M891 391q0 90 -55 148t-209 104v-514q264 20 264 262zM279 1066q0 -72 52 -124t183 -88v479q-235 -27 -235 -267zM514 1632h113v-137q162 -19 260 -119.5t143 -285.5h-174q-41 205 -229 237v-504l128 -34q76 -21 155 -73q165 -110 165 -303q1 -193 -119 -311t-328 -137
v-168h-114v168q-209 23 -327 147.5t-136 333.5h174q6 -132 81 -213t208 -104v543q-235 55 -328 141q-92 87 -92 256t112 289t308 139v135z" />
    <glyph glyph-name="percent" unicode="%" horiz-adv-x="2048" 
d="M1526 88q180 0 180 298t-176 298t-176 -298t172 -298zM1532 797q328 0 328 -409q0 -185 -86 -299t-244 -114t-244 103.5t-86 302.5t85 307.5t247 108.5zM514 743q180 0 180 298t-176 298t-176 -298t172 -298zM520 1452q328 0 328 -409q0 -189 -86 -301t-246 -111
q-160 0 -244 105t-84 302t85 305.5t247 108.5zM1661 1479l-1100 -1524h-176l1102 1524h174z" />
    <glyph glyph-name="ampersand" unicode="&#x26;" horiz-adv-x="1290" 
d="M252 376q0 -104 84 -176q85 -71 188 -71q200 0 318 174l-337 404q-137 -76 -195 -151q-58 -76 -58 -180zM758 1152q0 64 -46 110t-118 47q-72 0 -122 -42t-50 -101t29 -113t112 -154q115 72 165 145q30 44 30 108zM523 -25q-220 0 -338 114q-117 115 -117 287
q0 137 79 242t263 199l-69 93q-93 127 -93 253q0 125 90 212q91 87 242 87q152 0 252 -82t100 -217q0 -221 -275 -379l265 -321q42 119 47 227h166q-14 -128 -31 -188t-68 -172l285 -330h-227l-156 181q-62 -96 -174 -151t-241 -55z" />
    <glyph glyph-name="quotesingle" unicode="'" horiz-adv-x="569" 
d="M354 1462v-528h-139v528h139z" />
    <glyph glyph-name="parenleft" unicode="(" horiz-adv-x="530" 
d="M281 552q-1 -270 65 -504q66 -232 205 -454h-133q-176 274 -249 500t-73 463t82 483t240 457h133q-138 -215 -204 -445t-66 -500z" />
    <glyph glyph-name="parenright" unicode=")" horiz-adv-x="530" 
d="M250 542q0 521 -270 955h133q162 -251 241 -481q80 -230 80 -478q0 -508 -321 -944h-133q270 427 270 948z" />
    <glyph glyph-name="asterisk" unicode="*" horiz-adv-x="721" 
d="M303 1462h109v-231l219 82l41 -99l-223 -77l135 -187l-84 -63l-142 196l-133 -196l-92 63l133 187l-217 77l37 99l217 -82v231z" />
    <glyph glyph-name="plus" unicode="+" horiz-adv-x="1229" 
d="M684 1036v-448h446v-139h-446v-449h-139v449h-447v139h447v448h139z" />
    <glyph glyph-name="comma" unicode="," horiz-adv-x="569" 
d="M397 227v-218q0 -113 -55.5 -194t-169.5 -116v102q54 19 86.5 69t32.5 119v11h-121v227h227z" />
    <glyph glyph-name="hyphen" unicode="-" horiz-adv-x="797" 
d="M694 651v-164h-592v164h592z" />
    <glyph glyph-name="period" unicode="." horiz-adv-x="569" 
d="M397 227v-227h-227v227h227z" />
    <glyph glyph-name="slash" unicode="/" horiz-adv-x="682" 
d="M719 1497l-606 -1532h-150l606 1532h150z" />
    <glyph glyph-name="zero" unicode="0" 
d="M576 129q154 0 224 138q68 138 68 412q0 273 -36 401.5t-111 173t-149 44.5q-145 0 -224 -118q-78 -119 -78 -460t76 -470q76 -121 230 -121zM930 1294q123 -158 123 -580q0 -421 -122 -580t-363 -159q-242 -1 -362 161t-120 578t121 577t361 161q239 0 362 -158z" />
    <glyph glyph-name="one" unicode="1" 
d="M729 1452v-1452h-174v1040h-377v140h6q184 0 285 66t127 206h133z" />
    <glyph glyph-name="two" unicode="2" 
d="M551 1452q205 0 333 -113t128 -305q0 -150 -84 -270t-356 -279q-165 -95 -235 -172t-85 -159h745v-154h-948q15 180 93 317q79 136 314 278q235 141 303 229t68 206t-80 194q-80 74 -205 74q-126 0 -202 -98t-76 -248v-14h-174l-1 36q0 216 128 347t334 131z" />
    <glyph glyph-name="three" unicode="3" 
d="M538 827q72 1 132 33q128 69 128 205q0 109 -70 171t-194 62q-122 0 -194 -82.5t-75 -232.5h-174q9 225 127 347t324 122t324 -104q116 -104 116 -284q0 -88 -51 -165t-150 -125v-4q128 -29 195 -121t67 -231q1 -203 -139 -323t-359 -120t-352 121t-133 346v7h175
q9 -233 124.5 -276.5t184.5 -43.5q136 0 226 79q90 78 89 204q0 126 -85 201q-86 75 -231 75q-46 0 -98 -6v147q22 -2 93 -2z" />
    <glyph glyph-name="four" unicode="4" 
d="M694 494v710h-4l-483 -710h487zM858 1452v-958h197v-154h-197v-340h-164v340h-637v168l662 944h139z" />
    <glyph glyph-name="five" unicode="5" 
d="M1042 472q0 -220 -140 -358.5t-351 -138.5q-211 1 -342 113t-137 301v2h174q6 -116 92 -189t216 -73q130 -1 218 91q86 92 86 246t-94 246t-242 91q-146 0 -262 -137l-149 8l135 753h717v-153h-586l-78 -418l4 -4q94 104 288 104q195 0 323 -132t128 -352z" />
    <glyph glyph-name="six" unicode="6" 
d="M285 454q1 -143 83 -234t214 -91t214.5 90.5t82.5 236.5q1 146 -79 235t-216 89t-218 -91q-81 -92 -81 -235zM578 -25q-500 0 -500 700q0 570 202 673.5t312 103.5q199 0 305.5 -95.5t124.5 -275.5h-174q-14 105 -79 161t-165 56q-338 0 -352 -550l4 -5q118 191 362 191
q198 0 322 -130t123.5 -339.5t-128.5 -349.5t-357 -140z" />
    <glyph glyph-name="seven" unicode="7" 
d="M1042 1427v-149q-223 -223 -378 -578t-179 -700h-194q24 340 169 662t404 602h-762v163h940z" />
    <glyph glyph-name="eight" unicode="8" 
d="M572 129q134 0 216 79q84 80 84 200t-88 200t-216 80q-126 0 -214 -77t-88 -203t86 -202.5t220 -76.5zM570 1298q-114 0 -184 -62t-69 -164t69 -166t183 -64t181 63t65 169q0 106 -65.5 165t-179.5 59zM1057 418q0 -200 -136 -322q-137 -122 -353 -121q-216 -1 -351 117
t-135 321t96.5 274.5t157.5 92.5q-96 40 -150 123q-53 83 -53 179q1 166 123 268t316 102t310 -101t117 -269q0 -94 -50.5 -174t-149.5 -128q258 -79 258 -362z" />
    <glyph glyph-name="nine" unicode="9" 
d="M546 647q124 1 208 93t84 230t-80 232q-80 96 -218 96q-136 0 -211 -92t-75 -235q0 -142 84 -233t208 -91zM547 1452q252 0 374.5 -172t122.5 -548q0 -756 -503 -757q-187 0 -305 95q-117 96 -136 280h174q12 -105 86 -163t181 -58q159 0 239 138t88 423l-4 4
q-79 -143 -181 -171.5t-156 -28.5q-213 0 -335 130t-122 346q0 214 134 348t343 134z" />
    <glyph glyph-name="colon" unicode=":" horiz-adv-x="569" 
d="M397 227v-227h-227v227h227zM397 1059v-228h-227v228h227z" />
    <glyph glyph-name="semicolon" unicode=";" horiz-adv-x="569" 
d="M397 227v-229q0 -99 -54 -181t-171 -118v102q54 18 86.5 69.5t32.5 118.5v11h-121v227h227zM397 1059v-228h-227v228h227z" />
    <glyph glyph-name="less" unicode="&#x3c;" horiz-adv-x="1229" 
d="M1135 913l-871 -395l871 -395v-139l-1041 471v127l1041 471v-140z" />
    <glyph glyph-name="equal" unicode="=" horiz-adv-x="1229" 
d="M1130 381v-139h-1032v139h1032zM1130 795v-140h-1032v140h1032z" />
    <glyph glyph-name="greater" unicode="&#x3e;" horiz-adv-x="1229" 
d="M94 1053l1041 -471v-127l-1041 -471v139l871 395l-871 395v140z" />
    <glyph glyph-name="question" unicode="?" 
d="M672 227v-227h-228v227h228zM111 1028q1 196 125 332t326 137q202 0 322 -110q118 -110 118 -300q0 -101 -44 -183t-132 -163t-120 -128t-46 -88t-13 -107v-62h-174v88q0 97 39 175q40 79 144 175t134 160q28 64 28 126q0 118 -65 190t-184 73q-205 0 -244 -129t-39 -208
h-175v22z" />
    <glyph glyph-name="at" unicode="@" horiz-adv-x="1638" 
d="M532 606q0 -83 48 -141q49 -57 129 -57q123 0 220 148t97 287q0 71 -50 131t-118 60q-130 0 -228 -140t-98 -288zM860 1174q164 0 230 -168l47 129h129l-170 -577q-8 -28 -16.5 -56t-8.5 -53q0 -64 49 -64q94 1 188 155t95 316q0 228 -163 378q-164 150 -406 150
t-425.5 -197t-183.5 -463t187 -456t446 -190q143 0 282 67t226 181h129q-97 -166 -271 -264t-376 -97q-203 1 -382 103q-180 102 -280 280t-100 389q0 312 224 536q226 224 526 224q300 1 504 -181q202 -182 202 -450q0 -161 -75 -298q-75 -136 -191 -216t-213 -80
q-57 0 -92 35.5t-39 98.5h-6q-120 -138 -250 -138t-214 92q-83 94 -83 233q0 229 140 405q141 176 341 176z" />
    <glyph glyph-name="A" unicode="A" horiz-adv-x="1327" 
d="M659 1286l-247 -682h495l-243 682h-5zM772 1462l571 -1462h-215l-159 440h-619l-164 -440h-200l571 1462h215z" />
    <glyph glyph-name="B" unicode="B" horiz-adv-x="1403" 
d="M1116 426q0 244 -325 244h-437v-506h495q119 0 193 70t74 192zM753 834q146 0 224 54.5t78 174.5q-1 119 -65 177t-235 58h-401v-464h399zM784 1462q270 0 368 -110t97 -237q0 -251 -217 -339v-4q135 -30 207 -124t72 -228q0 -178 -125 -299t-312 -121h-714v1462h624z
" />
    <glyph glyph-name="C" unicode="C" horiz-adv-x="1479" 
d="M780 1497q242 -1 406 -127t196 -348h-194q-32 149 -139.5 230t-270.5 81q-232 0 -364 -164t-131 -436q0 -272 129 -438t368 -166q178 -1 293 113t129 309h195q-32 -284 -197 -435t-436 -151q-314 0 -495 207.5t-181 551.5t188 558t504 215z" />
    <glyph glyph-name="D" unicode="D" horiz-adv-x="1442" 
d="M685 164q219 0 351 142t133 433q0 427 -179.5 493t-297.5 66h-338v-1134h331zM673 1462q331 0 511 -176t180 -542t-177.5 -555t-513.5 -189h-513v1462h513z" />
    <glyph glyph-name="E" unicode="E" horiz-adv-x="1251" 
d="M1169 1462v-164h-815v-464h760v-164h-760v-506h822v-164h-1016v1462h1009z" />
    <glyph glyph-name="F" unicode="F" horiz-adv-x="1176" 
d="M1120 1462v-164h-766v-464h672v-164h-672v-670h-194v1462h960z" />
    <glyph glyph-name="G" unicode="G" horiz-adv-x="1554" 
d="M785 1497q259 0 425 -124t203 -361h-194q-45 235 -195 278t-240 43q-234 -1 -368 -173t-133 -436q0 -264 138 -429.5t355 -165.5t348 126q130 127 130 328v23h-468v164h641v-770h-122l-52 182q-81 -105 -204 -161t-265 -56q-299 0 -498 214q-198 215 -198 543t188 552
t509 223z" />
    <glyph glyph-name="H" unicode="H" horiz-adv-x="1479" 
d="M354 1462v-628h770v628h195v-1462h-195v670h-770v-670h-194v1462h194z" />
    <glyph glyph-name="I" unicode="I" horiz-adv-x="530" 
d="M362 1462v-1462h-194v1462h194z" />
    <glyph glyph-name="J" unicode="J" horiz-adv-x="1063" 
d="M903 1462v-1104q1 -174 -109 -284t-314 -109q-204 0 -321 104q-114 105 -114 361v51h195v-45q0 -180 58 -244t178 -63q120 0 176.5 63t56.5 193v1077h194z" />
    <glyph glyph-name="K" unicode="K" horiz-adv-x="1366" 
d="M354 1462v-729l742 729h252l-617 -590l641 -872h-246l-528 739l-244 -227v-512h-194v1462h194z" />
    <glyph glyph-name="L" unicode="L" 
d="M354 1462v-1298h774v-164h-968v1462h194z" />
    <glyph glyph-name="M" unicode="M" horiz-adv-x="1784" 
d="M1620 1462v-1462h-184v1217h-4l-457 -1217h-166l-457 1217h-4v-1217h-184v1462h266l461 -1228l463 1228h266z" />
    <glyph glyph-name="N" unicode="N" horiz-adv-x="1479" 
d="M1139 276v1186h184v-1462h-213l-764 1174h-4v-1174h-184v1462h207l770 -1186h4z" />
    <glyph glyph-name="O" unicode="O" horiz-adv-x="1556" 
d="M272 731q0 -162 60 -304t174.5 -220t271.5 -78q234 0 370 169q136 168 136 430t-134 434t-372 171q-238 0 -372 -172q-134 -173 -134 -430zM778 1497q213 -1 371 -99t244 -278t86 -390q0 -211 -86 -390q-85 -179 -245 -277t-370 -98t-370 98q-158 99 -244 277t-86 391
q0 332 190 549t510 217z" />
    <glyph glyph-name="P" unicode="P" horiz-adv-x="1327" 
d="M1055 1030q0 268 -311 268h-390v-536h402q218 0 258.5 99.5t40.5 168.5zM810 1462q202 0 320 -110t119 -322q0 -214 -119 -323t-306 -109h-470v-598h-194v1462h650z" />
    <glyph glyph-name="Q" unicode="Q" horiz-adv-x="1556" 
d="M272 731q0 -162 60 -304t174.5 -220t271.5 -78q106 0 203 41l-162 129l103 119l194 -156q81 81 124.5 203t43.5 266q0 259 -134 431t-372 171q-238 0 -372 -172q-134 -173 -134 -430zM778 1497q213 0 371 -98t244 -277.5t86 -367.5q0 -383 -222 -604l193 -154l-98 -123
l-224 180q-144 -88 -352 -88t-368 98q-158 100 -244 277t-86 391q0 331 190 549t510 217z" />
    <glyph glyph-name="R" unicode="R" horiz-adv-x="1403" 
d="M770 788q328 0 328 252q0 126 -66 192t-187 66h-491v-510h416zM1292 1079q0 -299 -254 -370v-4q111 -23 164 -105q52 -82 58 -244t26 -235t57 -121h-217q-23 31 -27 61t-7 51l-8 161q-2 115 -48 231t-201 121h-481v-625h-194v1462h697q191 0 313 -101t122 -282z" />
    <glyph glyph-name="S" unicode="S" horiz-adv-x="1327" 
d="M658 1497q238 -1 380 -119t152 -344h-184q-34 299 -363 299q-157 0 -242.5 -64t-85.5 -185q0 -86 73 -141t412 -124t395 -199.5t56 -218.5q0 -204 -167 -320t-419 -116q-252 -1 -420 133t-169 383h184q2 -167 119 -260q119 -92 302 -92t279.5 68t96.5 185q-1 117 -89 180
t-323 108q-311 58 -418 152q-106 94 -106 247q0 196 149 312q150 116 388 116z" />
    <glyph glyph-name="T" unicode="T" horiz-adv-x="1176" 
d="M1174 1462v-164h-488v-1298h-194v1298h-488v164h1170z" />
    <glyph glyph-name="U" unicode="U" horiz-adv-x="1479" 
d="M346 1462v-942q0 -179 102 -285t298 -106q195 -1 291 105t96 286v942h194v-944q-1 -258 -145 -406t-430 -147q-447 0 -523.5 210.5t-76.5 342.5v944h194z" />
    <glyph glyph-name="V" unicode="V" horiz-adv-x="1251" 
d="M209 1462l418 -1267h4l422 1267h202l-520 -1462h-221l-516 1462h211z" />
    <glyph glyph-name="W" unicode="W" horiz-adv-x="1896" 
d="M223 1462l287 -1216h4l328 1216h211l323 -1216h4l297 1216h195l-391 -1462h-203l-334 1229h-4l-338 -1229h-203l-374 1462h198z" />
    <glyph glyph-name="X" unicode="X" horiz-adv-x="1251" 
d="M260 1462l365 -571l381 571h217l-484 -710l514 -752h-237l-393 604l-406 -604h-219l510 752l-481 710h233z" />
    <glyph glyph-name="Y" unicode="Y" horiz-adv-x="1327" 
d="M764 0h-195v598l-565 864h232l438 -696l428 696h221l-559 -864v-598z" />
    <glyph glyph-name="Z" unicode="Z" horiz-adv-x="1251" 
d="M1184 1462v-164l-908 -1134h932v-164h-1163v164l909 1134h-839v164h1069z" />
    <glyph glyph-name="bracketleft" unicode="[" horiz-adv-x="530" 
d="M530 1497v-139h-219v-1624h219v-140h-383v1903h383z" />
    <glyph glyph-name="backslash" unicode="\" horiz-adv-x="682" 
d="M113 1497l606 -1532h-150l-606 1532h150z" />
    <glyph glyph-name="bracketright" unicode="]" horiz-adv-x="530" 
d="M383 1497v-1903h-383v140h219v1624h-219v139h383z" />
    <glyph glyph-name="asciicircum" unicode="^" horiz-adv-x="1229" 
d="M680 1427l446 -886h-143l-371 737l-364 -737h-146l447 886h131z" />
    <glyph glyph-name="underscore" unicode="_" horiz-adv-x="1024" 
d="M1024 -154v-102h-1024v102h1024z" />
    <glyph glyph-name="grave" unicode="`" horiz-adv-x="455" 
d="M176 1499l176 -293h-131l-269 293h224z" />
    <glyph glyph-name="a" unicode="a" horiz-adv-x="1100" 
d="M258 290q0 -80 54 -120.5t151 -40.5q147 0 235 73t88 163v182q-44 -32 -114 -42l-186 -27q-117 -17 -172.5 -62.5t-55.5 -125.5zM945 -25q-148 0 -148 164q-138 -164 -373 -164q-163 0 -257 77q-93 78 -93 221t92 226t427 125q113 15 154 44t41 102t-56 116.5t-183 43.5
t-191 -49t-69 -152h-174q8 176 124 265t328 89q212 -1 303 -77t91 -206v-611q0 -60 55 -60q20 0 53 10v-135q-49 -29 -124 -29z" />
    <glyph glyph-name="b" unicode="b" horiz-adv-x="1214" 
d="M305 526q1 -179 89 -288t241 -109t237 108.5t84 290.5t-88 292t-240 110q-154 0 -239 -112q-84 -113 -84 -292zM640 1083q239 -1 370 -157t131 -402q-1 -246 -131 -397q-130 -152 -352 -152q-98 1 -192 41t-151 125h-4v-141h-174v1462h174v-547h4q86 168 325 168z" />
    <glyph glyph-name="c" unicode="c" horiz-adv-x="1100" 
d="M573 1083q193 1 315 -91t142 -273h-180q-21 103 -89 157t-161 54q-172 0 -257 -107t-85 -295t82 -293q82 -106 219 -106q136 0 209 68.5t90 189.5h178q-29 -199 -148.5 -305.5t-334.5 -106.5t-347 145t-132 401t133 409t366 153z" />
    <glyph glyph-name="d" unicode="d" horiz-adv-x="1214" 
d="M258 530q0 -181 88 -291t242 -110q152 0 236 110t85 290q0 181 -87 291t-243 110q-157 0 -239 -110t-82 -290zM1077 1462v-1462h-174v143h-4q-42 -82 -131 -125t-207 -43q-222 0 -355 154q-132 155 -132 401t128 400q129 153 354 153q104 1 197 -41t146 -124h4v544h174z
" />
    <glyph glyph-name="e" unicode="e" horiz-adv-x="1100" 
d="M563 930q-124 0 -209 -81t-96 -218h608q-7 127 -93 213t-210 86zM588 129q231 0 274 207h172q-54 -265 -208 -313t-244 -48q-168 0 -283 75q-114 76 -170 210q-55 134 -55 276q0 234 141 390t363 157q222 0 347.5 -164t125.5 -421v-21h-793v-13q0 -152 88 -244t242 -91z
" />
    <glyph glyph-name="f" unicode="f" horiz-adv-x="606" 
d="M510 1325q-133 0 -133 -114v-152h205v-154h-205v-905h-174v905h-178v154h178v165q0 117 73.5 186t217.5 69q63 0 114 -17v-151q-40 14 -98 14z" />
    <glyph glyph-name="g" unicode="g" horiz-adv-x="1176" 
d="M258 538q0 -183 80 -290t220 -107q142 0 228 112q86 113 86 291t-80 282t-224 104q-146 0 -228 -104t-82 -288zM1044 79q0 -509 -490 -509q-182 0 -307 80t-132 231h174q5 -82 87 -127t187 -45q155 0 236.5 101.5t81.5 303.5v66h-4q-39 -87 -128 -140q-90 -52 -203 -52
q-215 0 -344 148q-128 149 -128 390t128 399q129 158 360 158q112 0 192 -47.5t125 -128.5h2v152h163v-980z" />
    <glyph glyph-name="h" unicode="h" 
d="M644 1083q364 0 364 -378v-705h-174v723q0 91 -58 149t-159 58q-148 0 -230 -90t-82 -235v-605h-174v1462h174v-559h4q37 85 129 133t206 47z" />
    <glyph glyph-name="i" unicode="i" horiz-adv-x="455" 
d="M315 1059v-1059h-174v1059h174zM315 1462v-213h-174v213h174z" />
    <glyph glyph-name="j" unicode="j" horiz-adv-x="455" 
d="M141 -115v1174h174v-1201q0 -124 -63.5 -194t-190.5 -70q-50 0 -90 9v149q19 -4 64 -4t59 9q26 15 36.5 41.5t10.5 86.5zM315 1462v-213h-174v213h174z" />
    <glyph glyph-name="k" unicode="k" horiz-adv-x="1063" 
d="M315 1462v-866l484 463h233l-420 -385l451 -674h-221l-363 553l-164 -152v-401h-174v1462h174z" />
    <glyph glyph-name="l" unicode="l" horiz-adv-x="455" 
d="M315 1462v-1462h-174v1462h174z" />
    <glyph glyph-name="m" unicode="m" horiz-adv-x="1747" 
d="M786 702q0 228 -188 228q-181 0 -257 -150q-36 -69 -36 -117v-663h-174v1059h164v-156h4q119 180 347 180t286 -180q54 85 140.5 132.5t184.5 47.5q183 0 271 -79t88 -221v-783h-174v702q0 114 -48.5 171t-167.5 57t-192 -76t-73 -189v-665h-175v702z" />
    <glyph glyph-name="n" unicode="n" 
d="M644 1083q364 0 364 -378v-705h-174v723q0 91 -58 149t-159 58q-148 0 -230 -90t-82 -235v-605h-174v1059h164v-168h4q111 192 345 192z" />
    <glyph glyph-name="o" unicode="o" horiz-adv-x="1176" 
d="M918 528.5q0 181.5 -93 291.5t-236 110t-237 -108t-94 -292t93 -292t237 -109q144 0 236 109q94 109 94 290.5zM74 528q0 252 140 404t376 151q238 0 375 -154.5t137 -400.5t-140 -400t-372 -153t-374 151t-142 402z" />
    <glyph glyph-name="p" unicode="p" horiz-adv-x="1214" 
d="M305 526q1 -179 89 -288t241 -109t237 108.5t84 290.5t-88 292t-240 110q-154 0 -239 -112q-84 -113 -84 -292zM640 1083q239 -1 370 -157t131 -402q-1 -246 -131 -397q-130 -152 -352 -152q-98 1 -192 41t-151 125h-4v-547h-174v1465h174v-144h4q86 168 325 168z" />
    <glyph glyph-name="q" unicode="q" horiz-adv-x="1214" 
d="M258 530q0 -181 88 -291t242 -110q152 0 236 110t85 290q0 181 -87 291t-243 110q-157 0 -239 -110t-82 -290zM556 1083q104 1 197 -41t146 -124h4v141h174v-1465h-174v549h-4q-42 -82 -131 -125t-207 -43q-222 0 -355 154q-132 154 -132 401t129 400q130 153 353 153z
" />
    <glyph glyph-name="r" unicode="r" horiz-adv-x="682" 
d="M658 1084h8t16 -1v-184q-196 0 -289.5 -104t-93.5 -321v-474h-174v1059h164v-223h4q61 127 150 187.5t215 60.5z" />
    <glyph glyph-name="s" unicode="s" horiz-adv-x="1024" 
d="M741 754q-13 176 -272 176q-79 0 -139 -35.5t-60 -96.5t53 -98t162 -60l164 -37q154 -34 234 -104.5t80 -189.5q1 -157 -121 -245t-328 -89t-325 91t-126 268h175q3 -100 77.5 -152.5t206.5 -52.5q256 0 256 158q0 71 -64 112t-264 81t-283 111q-81 72 -81 201t112 210
t306 81q391 0 411 -331h-174v2z" />
    <glyph glyph-name="t" unicode="t" horiz-adv-x="645" 
d="M373 1376v-317h211v-154h-211v-663q0 -80 52 -84t110 -4h49v-154h-144q-143 0 -192 50t-49 172v683h-181v154h181v317h174z" />
    <glyph glyph-name="u" unicode="u" 
d="M495 -25q-186 0 -275 95t-89 283v706h174v-722q0 -91 58 -149t158 -59q149 0 231 91t82 234v605h174v-1059h-164v168h-4q-110 -193 -345 -193z" />
    <glyph glyph-name="v" unicode="v" horiz-adv-x="1024" 
d="M223 1059l297 -883h4l289 883h182l-387 -1059h-186l-393 1059h194z" />
    <glyph glyph-name="w" unicode="w" horiz-adv-x="1552" 
d="M227 1059l240 -866h4l213 866h190l221 -861l2 -5h3l237 866h181l-337 -1056l-2 -3h-184l-214 837l-2 5h-3l-213 -842h-188l-340 1059h192z" />
    <glyph glyph-name="x" unicode="x" horiz-adv-x="1061" 
d="M270 1059l253 -369h2l263 369h209l-364 -488l409 -571h-223l-295 438l-295 -438h-211l398 557l-369 502h223z" />
    <glyph glyph-name="y" unicode="y" horiz-adv-x="1024" 
d="M221 -270q106 0 148 106l67 170l-420 1053h197l309 -866h4l297 866h185l-450 -1172q-70 -181 -136 -246t-182 -65q-69 0 -121 18v160q75 -24 102 -24z" />
    <glyph glyph-name="z" unicode="z" horiz-adv-x="983" 
d="M909 1059v-119l-647 -786h676v-154h-893v133l639 772h-598v154h823z" />
    <glyph glyph-name="braceleft" unicode="{" horiz-adv-x="872" 
d="M735 1360q-117 0 -119 -199h121v-227h-227v225q0 135 58 219t167 84v-102zM360 1360q-57 0 -87 -52.5t-31 -146.5h120v-227h-227v217q1 143 59 227t166 84v-102z" />
    <glyph glyph-name="bar" unicode="|" horiz-adv-x="455" 
d="M297 1610v-2048h-139v2048h139z" />
    <glyph glyph-name="braceright" unicode="}" horiz-adv-x="872" 
d="M737 1462v-235q1 -125 -57 -209t-168 -84v102q117 0 119 199h-121v227h227zM362 1462v-235q0 -129 -58 -211t-167 -82v102q117 0 119 199h-121v227h227z" />
    <glyph glyph-name="asciitilde" unicode="~" horiz-adv-x="1229" 
d="M820 375q-88 1 -208 73t-224 74q-52 0 -92.5 -34.5t-80.5 -120.5l-74 102q90 176 256 176q87 0 180.5 -43.5t153.5 -73.5q59 -30 101 -30q73 0 133 85l49 70l73 -102q-59 -92 -119 -134t-148 -42z" />
    <glyph glyph-name="exclamdown" unicode="&#xa1;" horiz-adv-x="530" 
d="M362 -406h-194v451l51 637h92l51 -637v-451zM379 1059v-228h-227v228h227z" />
    <glyph glyph-name="cent" unicode="&#xa2;" 
d="M279 517q0 -165 72 -271q74 -105 206 -117v801q-200 -22 -239 -169.5t-39 -243.5zM637 -238h-80v213q-216 11 -340 158q-123 148 -123 386q0 237 124 393t339 171v195h80v-195q180 -5 286.5 -96.5t129.5 -267.5h-179q-44 202 -237 211v-801q206 22 248 258h174
q-23 -180 -135 -295t-287 -117v-213z" />
    <glyph glyph-name="sterling" unicode="&#xa3;" 
d="M119 1092q0 174 133 289q133 116 350 116q217 1 342 -133t125 -375v-20h-174q-10 374 -299 374q-125 0 -209 -78t-84 -191q0 -68 21 -132t86 -180h325v-92h-280q41 -82 41 -168t-49 -172t-189 -199l4 -4q86 39 128 49t117 10q74 0 177 -34t159 -33q92 0 183 76l88 -136
q-112 -94 -298 -94q-82 0 -205 42t-220 42t-198 -72l-97 136q114 78 170 173.5t56 180.5t-52 203h-174v92h119q-96 156 -96 330z" />
    <glyph glyph-name="currency" unicode="&#xa4;" 
d="M231 717q1 -149 101 -253t240 -104t237 105q98 105 98 251t-96 251.5t-238 105.5t-242 -103t-100 -253zM1081 723q0 -187 -106 -311l112 -115l-96 -96l-114 118q-124 -112 -306 -112t-309 110l-112 -118l-99 98l113 119q-107 131 -107 308t111 294l-117 119l101 100
l114 -115q124 105 309 105q81 -1 161 -29t132 -74l117 115l102 -104l-112 -113q106 -112 106 -299z" />
    <glyph glyph-name="yen" unicode="&#xa5;" 
d="M965 756v-123h-258l-37 -68v-86h295v-123h-295v-356h-195v356h-289v123h289v86l-37 68h-252v123h189l-375 706h223l357 -723l346 723h213l-365 -706h191z" />
    <glyph glyph-name="brokenbar" unicode="&#xa6;" horiz-adv-x="455" 
d="M297 330v-512h-139v512h139zM297 1354v-512h-139v512h139z" />
    <glyph glyph-name="section" unicode="&#xa7;" 
d="M240 674q0 -76 51 -133t195 -133q144 -77 255 -154q73 30 110.5 80t37.5 110t-47 116q-47 57 -213 153t-240 147q-104 -36 -126.5 -96t-22.5 -90zM197 1165q0 148 112 240t278 92t263.5 -98.5t101.5 -280.5h-174q-2 102 -58 164t-149 61.5t-143.5 -47t-50.5 -120.5
t62 -136t205 -134q262 -135 338 -230q76 -94 75 -198q0 -104 -56 -186t-157 -124q121 -91 121 -241q0 -149 -109 -241q-108 -92 -278 -92t-282 100t-126 288h174q3 -110 67 -172t158 -62q95 0 155 46t60 116q0 125 -167 222q-129 74 -219 122q-326 173 -326 396
q0 110 62 190t157 108q-94 104 -94 217z" />
    <glyph glyph-name="dieresis" unicode="&#xa8;" horiz-adv-x="455" 
d="M512 1446v-213h-184v213h184zM127 1446v-213h-184v213h184z" />
    <glyph glyph-name="copyright" unicode="&#xa9;" horiz-adv-x="1638" 
d="M840 1198q152 0 256 -82t129 -229h-129q-21 94 -89 146t-165 52q-144 0 -228 -98t-84 -251t88 -257t228 -104q98 0 166 55t84 154h131q-36 -153 -139 -238q-104 -84 -243 -84q-200 0 -327 130t-127 338t121 338t328 130zM1450 732q0 274 -181 463t-449 189t-450 -188
t-182 -464q0 -274 182 -464t449 -190q268 0 450 189q181 191 181 465zM49 732q1 318 227 542t544 223q318 0 544 -222t225 -543q0 -321 -226 -544t-544 -223t-544 224.5t-226 542.5z" />
    <glyph glyph-name="ordfeminine" unicode="&#xaa;" horiz-adv-x="774" 
d="M190 967q0 -44 27.5 -65t113.5 -21t140.5 40t54.5 103v94q-24 -18 -82 -27t-122 -19t-98 -35.5t-34 -69.5zM532 1256q0 94 -120.5 94t-161.5 -27.5t-45 -87.5h-123q2 100 81.5 158.5t217.5 58.5t203 -47t65 -126v-312q0 -57 5 -71t24 -15h18q17 0 27 4v-90
q-40 -17 -88 -17q-95 0 -105 93q-90 -93 -249 -93t-194.5 70.5t-35.5 112.5q1 89 63 139t161 61q175 19 216 33q41 16 41 62z" />
    <glyph glyph-name="guillemotleft" unicode="&#xab;" horiz-adv-x="948" 
d="M815 905v-176l-205 -160l205 -159v-177l-311 246v180zM414 905v-176l-205 -160l205 -159v-177l-312 246v180z" />
    <glyph glyph-name="logicalnot" unicode="&#xac;" horiz-adv-x="1229" 
d="M1130 795v-572h-139v432h-893v140h1032z" />
    <glyph glyph-name="registered" unicode="&#xae;" horiz-adv-x="1638" 
d="M822 782q124 0 172 34t48 114q0 137 -189 137h-191v-285h160zM1182 924q0 -215 -235 -244l255 -395h-149l-244 385h-147v-385h-140v895h355q305 0 305 -256zM1450 733q0 275 -182 463t-448 188q-268 0 -450 -188t-182 -464t182 -464q182 -190 449 -190q268 0 450 189
q181 190 181 466zM49 732q1 318 227 542t544 223q318 0 544 -222t225 -543q0 -321 -226 -544t-544 -223t-544 224.5t-226 542.5z" />
    <glyph glyph-name="macron" unicode="&#xaf;" horiz-adv-x="455" 
d="M578 1397v-113h-699v113h699z" />
    <glyph glyph-name="degree" unicode="&#xb0;" horiz-adv-x="819" 
d="M602 1157.5q0 76.5 -54 134.5t-138 58t-138 -56q-55 -56 -55 -135q0 -78 53 -137q54 -57 140 -57t139 58t53 134.5zM410 1452q120 0 208 -88q87 -88 87 -208q-1 -120 -87 -207t-208 -87t-208 84q-87 84 -87 210q0 125 87 211q88 85 208 85z" />
    <glyph glyph-name="plusminus" unicode="&#xb1;" horiz-adv-x="1229" 
d="M1130 139v-139h-1032v139h1032zM684 1034v-340h446v-139h-446v-342h-139v342h-447v139h447v340h139z" />
    <glyph glyph-name="twosuperior" unicode="&#xb2;" horiz-adv-x="758" 
d="M395 1585q-170 0 -176 -203h-139q0 142 87 229q89 87 223 87t214 -72t80 -174q0 -104 -48 -176t-182 -141t-179 -115q-46 -46 -56 -94h453v-113h-609q7 137 69 232t196 161t176 110t41 115q0 71 -39 112.5t-111 41.5z" />
    <glyph glyph-name="threesuperior" unicode="&#xb3;" horiz-adv-x="758" 
d="M382 1698q130 0 206 -66q78 -66 78 -163t-55 -136t-87 -51v-4q176 -42 176 -207q0 -124 -91 -200t-235 -76q-144 1 -230 77t-85 213h136q0 -87 48.5 -133.5t136.5 -46.5t135.5 43.5t47.5 115.5t-47 112.5t-134 40.5h-67v102h22q73 0 97 9q94 34 94 120q0 67 -39.5 103
t-103.5 36q-159 0 -170 -182h-135q4 137 88 215t214 78z" />
    <glyph glyph-name="acute" unicode="&#xb4;" horiz-adv-x="455" 
d="M502 1499l-269 -293h-131l177 293h223z" />
    <glyph glyph-name="paragraph" unicode="&#xb6;" horiz-adv-x="1229" 
d="M1055 1462v-1779h-140v1667h-249v-1667h-140v976q-198 5 -313 116t-115 266q0 197 125 309t333 112h499z" />
    <glyph glyph-name="periodcentered" unicode="&#xb7;" horiz-adv-x="569" 
d="M154 637.5q0 54.5 39 92.5t93 38t92 -40t38 -91t-39 -91t-91 -40t-92 38q-40 39 -40 93.5z" />
    <glyph glyph-name="cedilla" unicode="&#xb8;" horiz-adv-x="455" 
d="M297 -98q57 0 107 -41q49 -43 49 -119t-71 -124t-173 -48t-199 39l37 90q69 -27 133 -27q119 0 119 64q0 27 -26 45t-70 18t-84 -16l-35 57l125 160h86l-86 -109l4 -4q27 15 84 15z" />
    <glyph glyph-name="onesuperior" unicode="&#xb9;" horiz-adv-x="758" 
d="M121 1538q242 0 272 145h103v-870h-140v623h-235v102z" />
    <glyph glyph-name="ordmasculine" unicode="&#xba;" horiz-adv-x="786" 
d="M396 881q100 0 150 62.5t50 175.5t-54.5 172t-147.5 59t-148.5 -62.5t-55.5 -171.5t53 -172t153 -63zM51 1110q1 150 93 246t248 96t250 -93t93 -249q1 -156 -91 -244t-248 -88t-250.5 91t-94.5 241z" />
    <glyph glyph-name="guillemotright" unicode="&#xbb;" horiz-adv-x="948" 
d="M535 905l311 -246v-180l-311 -246v177l204 159l-204 160v176zM133 905l311 -246v-180l-311 -246v177l205 159l-205 160v176z" />
    <glyph glyph-name="onequarter" unicode="&#xbc;" horiz-adv-x="1708" 
d="M1333 322v370h-4l-276 -370h280zM1468 866v-544h115v-113h-115v-209h-135v209h-393v139l393 518h135zM100 1307q230 0 267 145h102v-879h-139v631h-236v103h6zM1329 1485l-891 -1542h-131l891 1542h131z" />
    <glyph glyph-name="onehalf" unicode="&#xbd;" horiz-adv-x="1708" 
d="M1323 772q-172 0 -176 -203h-139q1 148 89 232t221 84q134 0 214 -71t80 -173t-47 -175t-225 -166t-193 -187h452v-113h-608q9 206 107 284.5t199 128.5t139 95q37 44 37 112t-39 110t-111 42zM100 1307q230 0 267 145h102v-879h-139v631h-236v103h6zM1288 1485
l-891 -1542h-131l891 1542h131z" />
    <glyph glyph-name="threequarters" unicode="&#xbe;" horiz-adv-x="1708" 
d="M1333 322v370h-4l-276 -370h280zM1468 866v-544h115v-113h-115v-209h-135v209h-393v139l393 518h135zM424 1348q-160 0 -170 -183h-135q4 137 88 215t214 78t207 -66t77 -168q0 -57 -36.5 -106.5t-105.5 -75.5v-4q176 -41 176 -207q0 -122 -92 -199t-229 -77
q-228 0 -273.5 110t-46.5 181h135q6 -180 189 -180q84 0 132 42t48 114t-45 113.5t-129 41.5h-74v102h22q191 0 191 129q0 66 -40 103t-103 37zM1434 1485l-891 -1542h-131l891 1542h131z" />
    <glyph glyph-name="questiondown" unicode="&#xbf;" 
d="M668 694v-42q0 -122 -35 -196t-145 -178q-110 -103 -137.5 -165t-27.5 -126q0 -123 65.5 -193t182.5 -70q205 0 245 129t40 208h174v-3q0 -224 -128 -356t-328 -132t-318 111q-117 111 -117 299q0 88 34 168q33 80 145 182t144 164.5t32 167.5v32h174zM690 1059v-228
h-227v228h227z" />
    <glyph glyph-name="Agrave" unicode="&#xc0;" horiz-adv-x="1327" 
d="M659 1286l-247 -682h495l-243 682h-5zM772 1462l571 -1462h-215l-159 440h-619l-164 -440h-200l571 1462h215zM588 1888l176 -293h-131l-268 293h223z" />
    <glyph glyph-name="Aacute" unicode="&#xc1;" horiz-adv-x="1327" 
d="M659 1286l-247 -682h495l-243 682h-5zM772 1462l571 -1462h-215l-159 440h-619l-164 -440h-200l571 1462h215zM957 1888l-269 -293h-131l177 293h223z" />
    <glyph glyph-name="Acircumflex" unicode="&#xc2;" horiz-adv-x="1327" 
d="M659 1286l-247 -682h495l-243 682h-5zM772 1462l571 -1462h-215l-159 440h-619l-164 -440h-200l571 1462h215zM762 1888l213 -293h-173l-141 197l-143 -197h-158l211 293h191z" />
    <glyph glyph-name="Atilde" unicode="&#xc3;" horiz-adv-x="1327" 
d="M659 1286l-247 -682h495l-243 682h-5zM772 1462l571 -1462h-215l-159 440h-619l-164 -440h-200l571 1462h215zM819 1767q66 0 94 91h107q-16 -92 -66 -160t-141 -68q-48 0 -94 18t-102 40t-111 22t-82 -86h-107q48 225 217 225q63 0 151 -41t134 -41z" />
    <glyph glyph-name="Adieresis" unicode="&#xc4;" horiz-adv-x="1327" 
d="M659 1286l-247 -682h495l-243 682h-5zM772 1462l571 -1462h-215l-159 440h-619l-164 -440h-200l571 1462h215zM950 1837v-213h-184v213h184zM565 1837v-213h-184v213h184z" />
    <glyph glyph-name="Aring" unicode="&#xc5;" horiz-adv-x="1327" 
d="M659 1286l-247 -682h495l-243 682h-5zM772 1462l571 -1462h-215l-159 440h-619l-164 -440h-200l571 1462h215zM526 1760q0 -60 39 -99q40 -39 100 -39t98 40t38 98t-39 99.5t-98 41.5t-99 -40q-39 -41 -39 -101zM664 1993q92 0 162 -68t69 -161.5t-69 -161.5t-163 -68
t-163 68t-68 162t70 161.5t162 67.5z" />
    <glyph glyph-name="AE" unicode="&#xc6;" horiz-adv-x="1896" 
d="M918 590v708h-84l-345 -708h429zM1821 1462v-164h-719v-464h676v-164h-676v-506h731v-164h-915v426h-504l-209 -426h-219l739 1462h1096z" />
    <glyph glyph-name="Ccedilla" unicode="&#xc7;" horiz-adv-x="1479" 
d="M715 -201q-44 0 -84 -16l-35 57l100 129q-291 24 -450 229q-158 206 -158 529q0 215 82 393t240 278t385 99t391 -127t196 -348h-194q-32 149 -139.5 230t-270.5 81q-232 0 -364 -164t-131 -436q0 -272 129 -438t368 -166q178 -1 293 113t129 309h195q-30 -274 -190 -426
t-427 -158l-59 -76l4 -4q27 15 84 15t107 -41q49 -43 49 -119t-71 -124t-173 -48t-199 39l37 90q69 -27 133 -27q119 0 119 64q0 27 -26 45t-70 18z" />
    <glyph glyph-name="Egrave" unicode="&#xc8;" horiz-adv-x="1251" 
d="M1169 1462v-164h-815v-464h760v-164h-760v-506h822v-164h-1016v1462h1009zM563 1888l176 -293h-131l-268 293h223z" />
    <glyph glyph-name="Eacute" unicode="&#xc9;" horiz-adv-x="1251" 
d="M1169 1462v-164h-815v-464h760v-164h-760v-506h822v-164h-1016v1462h1009zM953 1888l-269 -293h-131l177 293h223z" />
    <glyph glyph-name="Ecircumflex" unicode="&#xca;" horiz-adv-x="1251" 
d="M1169 1462v-164h-815v-464h760v-164h-760v-506h822v-164h-1016v1462h1009zM748 1888l213 -293h-173l-141 197l-143 -197h-158l211 293h191z" />
    <glyph glyph-name="Edieresis" unicode="&#xcb;" horiz-adv-x="1251" 
d="M1169 1462v-164h-815v-464h760v-164h-760v-506h822v-164h-1016v1462h1009zM938 1837v-213h-184v213h184zM553 1837v-213h-184v213h184z" />
    <glyph glyph-name="Igrave" unicode="&#xcc;" horiz-adv-x="530" 
d="M362 1462v-1462h-194v1462h194zM186 1888l176 -293h-131l-268 293h223z" />
    <glyph glyph-name="Iacute" unicode="&#xcd;" horiz-adv-x="530" 
d="M362 1462v-1462h-194v1462h194zM563 1888l-269 -293h-131l177 293h223z" />
    <glyph glyph-name="Icircumflex" unicode="&#xce;" horiz-adv-x="530" 
d="M362 1462v-1462h-194v1462h194zM363 1888l213 -293h-173l-141 197l-143 -197h-158l211 293h191z" />
    <glyph glyph-name="Idieresis" unicode="&#xcf;" horiz-adv-x="530" 
d="M362 1462v-1462h-194v1462h194zM551 1837v-213h-184v213h184zM166 1837v-213h-184v213h184z" />
    <glyph glyph-name="Eth" unicode="&#xd0;" horiz-adv-x="1442" 
d="M793 829v-131h-439v-534h331q219 0 351 142t133 433q0 427 -179.5 493t-297.5 66h-338v-469h439zM673 1462q331 0 511 -176t180 -542t-177.5 -555t-513.5 -189h-513v698h-144v131h144v633h513z" />
    <glyph glyph-name="Ntilde" unicode="&#xd1;" horiz-adv-x="1479" 
d="M1139 276v1186h184v-1462h-213l-764 1174h-4v-1174h-184v1462h207l770 -1186h4zM895 1767q66 0 94 91h107q-16 -92 -66 -160t-141 -68q-48 0 -94 18t-102 40t-111 22t-82 -86h-107q48 225 217 225q63 0 151 -41t134 -41z" />
    <glyph glyph-name="Ograve" unicode="&#xd2;" horiz-adv-x="1556" 
d="M272 731q0 -162 60 -304t174.5 -220t271.5 -78q234 0 370 169q136 168 136 430t-134 434t-372 171q-238 0 -372 -172q-134 -173 -134 -430zM778 1497q213 -1 371 -99t244 -278t86 -390q0 -211 -86 -390q-85 -179 -245 -277t-370 -98t-370 98q-158 99 -244 277t-86 391
q0 332 190 549t510 217zM692 1888l176 -293h-131l-268 293h223z" />
    <glyph glyph-name="Oacute" unicode="&#xd3;" horiz-adv-x="1556" 
d="M272 731q0 -162 60 -304t174.5 -220t271.5 -78q234 0 370 169q136 168 136 430t-134 434t-372 171q-238 0 -372 -172q-134 -173 -134 -430zM778 1497q213 -1 371 -99t244 -278t86 -390q0 -211 -86 -390q-85 -179 -245 -277t-370 -98t-370 98q-158 99 -244 277t-86 391
q0 332 190 549t510 217zM1082 1888l-269 -293h-131l177 293h223z" />
    <glyph glyph-name="Ocircumflex" unicode="&#xd4;" horiz-adv-x="1556" 
d="M272 731q0 -162 60 -304t174.5 -220t271.5 -78q234 0 370 169q136 168 136 430t-134 434t-372 171q-238 0 -372 -172q-134 -173 -134 -430zM778 1497q213 -1 371 -99t244 -278t86 -390q0 -211 -86 -390q-85 -179 -245 -277t-370 -98t-370 98q-158 99 -244 277t-86 391
q0 332 190 549t510 217zM877 1888l213 -293h-173l-141 197l-143 -197h-158l211 293h191z" />
    <glyph glyph-name="Otilde" unicode="&#xd5;" horiz-adv-x="1556" 
d="M272 731q0 -162 60 -304t174.5 -220t271.5 -78q234 0 370 169q136 168 136 430t-134 434t-372 171q-238 0 -372 -172q-134 -173 -134 -430zM778 1497q213 -1 371 -99t244 -278t86 -390q0 -211 -86 -390q-85 -179 -245 -277t-370 -98t-370 98q-158 99 -244 277t-86 391
q0 332 190 549t510 217zM934 1767q66 0 94 91h107q-15 -92 -65 -160t-142 -68q-48 0 -94 18t-102 40t-111 22t-82 -86h-107q48 225 217 225q63 0 151 -41t134 -41z" />
    <glyph glyph-name="Odieresis" unicode="&#xd6;" horiz-adv-x="1556" 
d="M272 731q0 -162 60 -304t174.5 -220t271.5 -78q234 0 370 169q136 168 136 430t-134 434t-372 171q-238 0 -372 -172q-134 -173 -134 -430zM778 1497q213 -1 371 -99t244 -278t86 -390q0 -211 -86 -390q-85 -179 -245 -277t-370 -98t-370 98q-158 99 -244 277t-86 391
q0 332 190 549t510 217zM1065 1837v-213h-184v213h184zM680 1837v-213h-184v213h184z" />
    <glyph glyph-name="multiply" unicode="&#xd7;" horiz-adv-x="1229" 
d="M245 987l370 -369l369 369l98 -98l-368 -369l370 -373l-98 -98l-371 373l-372 -373l-99 98l373 373l-371 369z" />
    <glyph glyph-name="Oslash" unicode="&#xd8;" horiz-adv-x="1556" 
d="M787 129q225 0 361 169t136 433q0 218 -98 377l-756 -834q132 -145 357 -145zM406 1160q-134 -173 -134 -414t103 -398l754 833h2q-139 152 -365 152t-360 -173zM78 739q0 324 190 541t495 217t490 -180l162 178l66 -61l-168 -185q166 -210 166 -518q0 -212 -86 -391
q-85 -179 -245 -277t-370 -98q-276 0 -469 176l-166 -182l-67 61l172 189q-170 206 -170 530z" />
    <glyph glyph-name="Ugrave" unicode="&#xd9;" horiz-adv-x="1479" 
d="M346 1462v-942q0 -179 102 -285t298 -106q195 -1 291 105t96 286v942h194v-944q-1 -258 -145 -406t-430 -147q-447 0 -523.5 210.5t-76.5 342.5v944h194zM655 1888l176 -293h-131l-268 293h223z" />
    <glyph glyph-name="Uacute" unicode="&#xda;" horiz-adv-x="1479" 
d="M346 1462v-942q0 -179 102 -285t298 -106q195 -1 291 105t96 286v942h194v-944q-1 -258 -145 -406t-430 -147q-447 0 -523.5 210.5t-76.5 342.5v944h194zM1045 1888l-269 -293h-131l177 293h223z" />
    <glyph glyph-name="Ucircumflex" unicode="&#xdb;" horiz-adv-x="1479" 
d="M346 1462v-942q0 -179 102 -285t298 -106q195 -1 291 105t96 286v942h194v-944q-1 -258 -145 -406t-430 -147q-447 0 -523.5 210.5t-76.5 342.5v944h194zM840 1888l213 -293h-173l-141 197l-143 -197h-158l211 293h191z" />
    <glyph glyph-name="Udieresis" unicode="&#xdc;" horiz-adv-x="1479" 
d="M346 1462v-942q0 -179 102 -285t298 -106q195 -1 291 105t96 286v942h194v-944q-1 -258 -145 -406t-430 -147q-447 0 -523.5 210.5t-76.5 342.5v944h194zM1028 1837v-213h-184v213h184zM643 1837v-213h-184v213h184z" />
    <glyph glyph-name="Yacute" unicode="&#xdd;" horiz-adv-x="1327" 
d="M764 0h-195v598l-565 864h232l438 -696l428 696h221l-559 -864v-598zM973 1888l-269 -293h-131l177 293h223z" />
    <glyph glyph-name="Thorn" unicode="&#xde;" horiz-adv-x="1327" 
d="M744 528q311 0 311 268t-311 269h-390v-537h390zM354 1462v-233h446q206 1 328 -109t121 -324q1 -214 -117 -322t-322 -109h-456v-365h-194v1462h194z" />
    <glyph glyph-name="germandbls" unicode="&#xdf;" 
d="M465 135q24 -6 62 -6q151 -1 233 83t82 232t-78 220t-281 71h-18v139h41q193 0 231.5 90t38.5 148q0 95 -65 163t-181 68q-225 0 -225 -277v-1066h-174v1081q-1 185 109 301t290 115q180 0 305.5 -99t125.5 -260q0 -247 -213 -317v-4q128 -15 203 -119t75 -247
q0 -212 -134 -344t-339 -132q-56 0 -88 9v151z" />
    <glyph glyph-name="agrave" unicode="&#xe0;" horiz-adv-x="1100" 
d="M258 290q0 -80 54 -120t151 -41q147 0 235 73t88 163v182q-44 -32 -114 -42l-186 -27q-116 -16 -172 -62t-56 -126zM945 -25q-148 0 -148 164q-138 -164 -373 -164q-163 0 -257 77q-93 78 -93 221t92 226t427 125q113 15 154 44t41 102q0 72 -56 116t-183 44t-191 -49
t-69 -152h-174q8 176 124 265t328 89q212 -1 303 -77t91 -206v-611q0 -60 55 -60q20 0 53 10v-135q-49 -29 -124 -29zM473 1499l176 -293h-131l-269 293h224z" />
    <glyph glyph-name="aacute" unicode="&#xe1;" horiz-adv-x="1100" 
d="M258 290q0 -80 54 -120t151 -41q147 0 235 73t88 163v182q-44 -32 -114 -42l-186 -27q-116 -16 -172 -62t-56 -126zM945 -25q-148 0 -148 164q-138 -164 -373 -164q-163 0 -257 77q-93 78 -93 221t92 226t427 125q113 15 154 44t41 102q0 72 -56 116t-183 44t-191 -49
t-69 -152h-174q8 176 124 265t328 89q212 -1 303 -77t91 -206v-611q0 -60 55 -60q20 0 53 10v-135q-49 -29 -124 -29zM854 1499l-269 -293h-131l177 293h223z" />
    <glyph glyph-name="acircumflex" unicode="&#xe2;" horiz-adv-x="1100" 
d="M258 290q0 -80 54 -120t151 -41q147 0 235 73t88 163v182q-44 -32 -114 -42l-186 -27q-116 -16 -172 -62t-56 -126zM945 -25q-148 0 -148 164q-138 -164 -373 -164q-163 0 -257 77q-93 78 -93 221t92 226t427 125q113 15 154 44t41 102q0 72 -56 116t-183 44t-191 -49
t-69 -152h-174q8 176 124 265t328 89q212 -1 303 -77t91 -206v-611q0 -60 55 -60q20 0 53 10v-135q-49 -29 -124 -29zM654 1499l213 -293h-173l-141 197l-143 -197h-158l211 293h191z" />
    <glyph glyph-name="atilde" unicode="&#xe3;" horiz-adv-x="1100" 
d="M258 290q0 -80 54 -120t151 -41q147 0 235 73t88 163v182q-44 -32 -114 -42l-186 -27q-116 -16 -172 -62t-56 -126zM945 -25q-148 0 -148 164q-138 -164 -373 -164q-163 0 -257 77q-93 78 -93 221t92 226t427 125q113 15 154 44t41 102q0 72 -56 116t-183 44t-191 -49
t-69 -152h-174q8 176 124 265t328 89q212 -1 303 -77t91 -206v-611q0 -60 55 -60q20 0 53 10v-135q-49 -29 -124 -29zM711 1378q66 0 94 90h107q-16 -92 -66 -160t-141 -67q-48 -1 -94 17t-102 40t-93 23q-73 0 -100 -86h-107q48 225 217 225q63 0 151 -41t134 -41z" />
    <glyph glyph-name="adieresis" unicode="&#xe4;" horiz-adv-x="1100" 
d="M258 290q0 -80 54 -120t151 -41q147 0 235 73t88 163v182q-44 -32 -114 -42l-186 -27q-116 -16 -172 -62t-56 -126zM945 -25q-148 0 -148 164q-138 -164 -373 -164q-163 0 -257 77q-93 78 -93 221t92 226t427 125q113 15 154 44t41 102q0 72 -56 116t-183 44t-191 -49
t-69 -152h-174q8 176 124 265t328 89q212 -1 303 -77t91 -206v-611q0 -60 55 -60q20 0 53 10v-135q-49 -29 -124 -29zM842 1446v-213h-184v213h184zM457 1446v-213h-184v213h184z" />
    <glyph glyph-name="aring" unicode="&#xe5;" horiz-adv-x="1100" 
d="M258 290q0 -80 54 -120t151 -41q147 0 235 73t88 163v182q-44 -32 -114 -42l-186 -27q-116 -16 -172 -62t-56 -126zM945 -25q-148 0 -148 164q-138 -164 -373 -164q-163 0 -257 77q-93 78 -93 221t92 226t427 125q113 15 154 44t41 102q0 72 -56 116t-183 44t-191 -49
t-69 -152h-174q8 176 124 265t328 89q212 -1 303 -77t91 -206v-611q0 -60 55 -60q20 0 53 10v-135q-49 -29 -124 -29zM557 1243q61 1 99 41t39 98q-1 58 -39 99t-98 41t-98 -40q-40 -40 -40 -98q0 -59 38 -100t99 -41zM558 1614q94 0 162 -68t69 -162q-1 -94 -69 -162
q-68 -67 -162 -67t-163 67q-69 68 -69 162t69 162t163 68z" />
    <glyph glyph-name="ae" unicode="&#xe6;" horiz-adv-x="1782" 
d="M258 291q0 -81 54 -121.5t151 -40.5q149 -1 239 73t91 163v181q-63 -35 -237 -56q-174 -22 -236 -70t-62 -129zM1256 930q-132 0 -214 -80q-83 -80 -86 -219h592q-4 131 -82 215t-210 84zM1262 -25q-292 0 -383 207q-117 -207 -446 -207q-171 0 -265 75.5t-94 209.5
t63 210t198 107t255 49q121 19 162 47q41 29 41 101q0 156 -239 156q-134 0 -197 -50t-68 -151h-174q8 176 124 265t325 89q279 0 354 -153q45 70 133 111.5t205 41.5q475 0 477 -606h-777q2 -165 88 -257t230 -91q105 0 175 53t93 152h178q-39 -174 -160 -266t-298 -93z
" />
    <glyph glyph-name="ccedilla" unicode="&#xe7;" horiz-adv-x="1100" 
d="M529 -201q-39 0 -87 -16l-34 57l108 140h-2q-208 16 -324 159t-116 391t133 400q133 153 366 153q193 1 315 -91t142 -273h-180q-21 103 -89 157t-161 54q-172 0 -257 -107t-85 -295t82 -293q82 -106 219 -106q136 0 209 68.5t90 189.5h178q-29 -193 -141 -297t-295 -110
l-68 -89l5 -4q27 15 84 15t106 -42t49 -118q0 -78 -72 -125t-173 -47q-102 0 -197 39l37 90q69 -27 127 -27q125 0 125 64q0 28 -27.5 45.5t-66.5 17.5z" />
    <glyph glyph-name="egrave" unicode="&#xe8;" horiz-adv-x="1100" 
d="M563 930q-124 0 -209 -81t-96 -218h608q-7 127 -93 213t-210 86zM588 129q231 0 274 207h172q-54 -266 -287 -338q-75 -24 -165 -23q-168 0 -283 75q-114 76 -170 210q-55 134 -55 276q0 234 141 390t363 157q222 0 347 -164q126 -164 126 -421v-21h-793v-13
q0 -152 88 -244t242 -91zM491 1499l176 -293h-131l-269 293h224z" />
    <glyph glyph-name="eacute" unicode="&#xe9;" horiz-adv-x="1100" 
d="M563 930q-124 0 -209 -81t-96 -218h608q-7 127 -93 213t-210 86zM588 129q231 0 274 207h172q-54 -266 -287 -338q-75 -24 -165 -23q-168 0 -283 75q-114 76 -170 210q-55 134 -55 276q0 234 141 390t363 157q222 0 347 -164q126 -164 126 -421v-21h-793v-13
q0 -152 88 -244t242 -91zM873 1499l-269 -293h-131l177 293h223z" />
    <glyph glyph-name="ecircumflex" unicode="&#xea;" horiz-adv-x="1100" 
d="M563 930q-124 0 -209 -81t-96 -218h608q-7 127 -93 213t-210 86zM588 129q231 0 274 207h172q-54 -266 -287 -338q-75 -24 -165 -23q-168 0 -283 75q-114 76 -170 210q-55 134 -55 276q0 234 141 390t363 157q222 0 347 -164q126 -164 126 -421v-21h-793v-13
q0 -152 88 -244t242 -91zM672 1499l213 -293h-173l-141 197l-143 -197h-158l211 293h191z" />
    <glyph glyph-name="edieresis" unicode="&#xeb;" horiz-adv-x="1100" 
d="M563 930q-124 0 -209 -81t-96 -218h608q-7 127 -93 213t-210 86zM588 129q231 0 274 207h172q-54 -266 -287 -338q-75 -24 -165 -23q-168 0 -283 75q-114 76 -170 210q-55 134 -55 276q0 234 141 390t363 157q222 0 347 -164q126 -164 126 -421v-21h-793v-13
q0 -152 88 -244t242 -91zM860 1446v-213h-184v213h184zM475 1446v-213h-184v213h184z" />
    <glyph glyph-name="igrave" unicode="&#xec;" horiz-adv-x="455" 
d="M315 1059v-1059h-174v1059h174zM147 1499l176 -293h-131l-269 293h224z" />
    <glyph glyph-name="iacute" unicode="&#xed;" horiz-adv-x="455" 
d="M315 1059v-1059h-174v1059h174zM527 1499l-269 -293h-131l177 293h223z" />
    <glyph glyph-name="icircumflex" unicode="&#xee;" horiz-adv-x="455" 
d="M315 1059v-1059h-174v1059h174zM326 1499l213 -293h-173l-141 197l-143 -197h-158l211 293h191z" />
    <glyph glyph-name="idieresis" unicode="&#xef;" horiz-adv-x="455" 
d="M315 1059v-1059h-174v1059h174zM514 1446v-213h-184v213h184zM129 1446v-213h-184v213h184z" />
    <glyph glyph-name="eth" unicode="&#xf0;" horiz-adv-x="1176" 
d="M258 520q0 -174 93 -282t237 -109q144 0 236 109q94 109 94 279t-89 268t-246 98t-241 -94.5t-84 -268.5zM1102 529q0 -247 -140 -401t-374 -153q-234 0 -374 151q-140 152 -140 386t135 378q135 146 333 146t300 -114h4q-41 86 -112 172q-71 87 -138 137l-236 -111
l-77 82l221 104h3q-69 57 -145 99l144 92l81 -57q39 -27 77 -58l245 115l72 -76l-236 -108q357 -290 357 -784z" />
    <glyph glyph-name="ntilde" unicode="&#xf1;" 
d="M644 1083q364 0 364 -378v-705h-174v723q0 91 -58 149t-159 58q-148 0 -230 -90t-82 -235v-605h-174v1059h164v-168h4q111 192 345 192zM729 1378q66 0 94 90h107q-16 -92 -66 -160t-141 -67q-48 -1 -94 17t-102 40t-93 23q-73 0 -100 -86h-107q48 225 217 225
q63 0 151 -41t134 -41z" />
    <glyph glyph-name="ograve" unicode="&#xf2;" horiz-adv-x="1176" 
d="M918 528q0 182 -93 292t-236 110t-237 -108t-94 -292t93 -292t237 -109q144 0 236 109q94 109 94 290zM74 528q0 252 140 404t376 151q238 0 375 -155q137 -154 137 -400t-140 -400t-372 -153t-374 151t-142 402zM502 1499l176 -293h-131l-269 293h224z" />
    <glyph glyph-name="oacute" unicode="&#xf3;" horiz-adv-x="1176" 
d="M918 528q0 182 -93 292t-236 110t-237 -108t-94 -292t93 -292t237 -109q144 0 236 109q94 109 94 290zM74 528q0 252 140 404t376 151q238 0 375 -155q137 -154 137 -400t-140 -400t-372 -153t-374 151t-142 402zM891 1499l-269 -293h-131l177 293h223z" />
    <glyph glyph-name="ocircumflex" unicode="&#xf4;" horiz-adv-x="1176" 
d="M918 528q0 182 -93 292t-236 110t-237 -108t-94 -292t93 -292t237 -109q144 0 236 109q94 109 94 290zM74 528q0 252 140 404t376 151q238 0 375 -155q137 -154 137 -400t-140 -400t-372 -153t-374 151t-142 402zM687 1499l213 -293h-173l-141 197l-143 -197h-158
l211 293h191z" />
    <glyph glyph-name="otilde" unicode="&#xf5;" horiz-adv-x="1176" 
d="M918 528q0 182 -93 292t-236 110t-237 -108t-94 -292t93 -292t237 -109q144 0 236 109q94 109 94 290zM74 528q0 252 140 404t376 151q238 0 375 -155q137 -154 137 -400t-140 -400t-372 -153t-374 151t-142 402zM743 1378q66 0 94 90h107q-16 -92 -66 -160t-141 -67
q-48 -1 -94 17t-102 40t-93 23q-73 0 -100 -86h-107q48 225 217 225q63 0 151 -41t134 -41z" />
    <glyph glyph-name="odieresis" unicode="&#xf6;" horiz-adv-x="1176" 
d="M918 528q0 182 -93 292t-236 110t-237 -108t-94 -292t93 -292t237 -109q144 0 236 109q94 109 94 290zM74 528q0 252 140 404t376 151q238 0 375 -155q137 -154 137 -400t-140 -400t-372 -153t-374 151t-142 402zM874 1446v-213h-184v213h184zM489 1446v-213h-184v213
h184z" />
    <glyph glyph-name="divide" unicode="&#xf7;" horiz-adv-x="1229" 
d="M483 95q-1 52 37 92t94 40t93.5 -38.5t37.5 -90.5q1 -52 -39 -92t-92 -41q-52 0 -91.5 39t-39.5 91zM1130 588v-139h-1032v139h1032zM483 940q-1 50 37 90t92 41q54 -1 94 -39q39 -38 39 -90q1 -52 -39 -93q-40 -40 -92 -40t-92 40q-39 41 -39 91z" />
    <glyph glyph-name="oslash" unicode="&#xf8;" horiz-adv-x="1176" 
d="M592 129q138 -1 232 107t94 292q0 134 -58 244l-494 -550q87 -93 226 -93zM258 528q0 -138 61 -247l494 551h3q-92 98 -230 98q-140 0 -234 -110t-94 -292zM1102 521q0 -239 -140 -393t-361 -153q-221 0 -351 117l-123 -137l-57 49l127 141q-123 150 -123 392
q0 243 140 395t363 151q224 0 355 -120l119 133l55 -54l-123 -135q119 -147 119 -386z" />
    <glyph glyph-name="ugrave" unicode="&#xf9;" 
d="M495 -25q-186 0 -275 95t-89 283v706h174v-722q0 -91 58 -149t158 -59q149 0 231 91t82 234v605h174v-1059h-164v168h-4q-110 -193 -345 -193zM485 1499l176 -293h-131l-269 293h224z" />
    <glyph glyph-name="uacute" unicode="&#xfa;" 
d="M495 -25q-186 0 -275 95t-89 283v706h174v-722q0 -91 58 -149t158 -59q149 0 231 91t82 234v605h174v-1059h-164v168h-4q-110 -193 -345 -193zM867 1499l-269 -293h-131l177 293h223z" />
    <glyph glyph-name="ucircumflex" unicode="&#xfb;" 
d="M495 -25q-186 0 -275 95t-89 283v706h174v-722q0 -91 58 -149t158 -59q149 0 231 91t82 234v605h174v-1059h-164v168h-4q-110 -193 -345 -193zM666 1499l213 -293h-173l-141 197l-143 -197h-158l211 293h191z" />
    <glyph glyph-name="udieresis" unicode="&#xfc;" 
d="M495 -25q-186 0 -275 95t-89 283v706h174v-722q0 -91 58 -149t158 -59q149 0 231 91t82 234v605h174v-1059h-164v168h-4q-110 -193 -345 -193zM854 1446v-213h-184v213h184zM469 1446v-213h-184v213h184z" />
    <glyph glyph-name="yacute" unicode="&#xfd;" horiz-adv-x="1024" 
d="M221 -270q106 0 148 106l67 170l-420 1053h197l309 -866h4l297 866h185l-450 -1172q-70 -181 -136 -246t-182 -65q-69 0 -121 18v160q75 -24 102 -24zM819 1499l-269 -293h-131l177 293h223z" />
    <glyph glyph-name="thorn" unicode="&#xfe;" horiz-adv-x="1214" 
d="M305 526q1 -179 89 -288t241 -109t237 108.5t84 290.5t-88 292t-240 110q-154 0 -239 -112q-84 -113 -84 -292zM640 1083q239 -1 370 -157t131 -402q-1 -246 -131 -397q-130 -152 -352 -152q-98 1 -192 41t-151 125h-4v-547h-174v1868h174v-547h4q86 168 325 168z" />
    <glyph glyph-name="ydieresis" unicode="&#xff;" horiz-adv-x="1024" 
d="M221 -270q106 0 148 106l67 170l-420 1053h197l309 -866h4l297 866h185l-450 -1172q-70 -181 -136 -246t-182 -65q-69 0 -121 18v160q75 -24 102 -24zM807 1446v-213h-184v213h184zM422 1446v-213h-184v213h184z" />
    <glyph glyph-name="dotlessi" unicode="&#x131;" horiz-adv-x="455" 
d="M315 1059v-1059h-174v1059h174z" />
    <glyph glyph-name="Lslash" unicode="&#x141;" 
d="M354 1462v-676l467 328v-156l-467 -327v-467h774v-164h-968v492l-162 -115v155l162 115v815h194z" />
    <glyph glyph-name="lslash" unicode="&#x142;" horiz-adv-x="455" 
d="M315 1462v-520l144 115v-146l-144 -114v-797h-174v657l-143 -112v145l143 115v657h174z" />
    <glyph glyph-name="OE" unicode="&#x152;" horiz-adv-x="2200" 
d="M272 719q0 -259 131 -425q132 -165 359 -165q154 1 260 83t106 201v642q0 91 -44 143t-124 94t-216 41q-134 0 -246 -80t-169 -224t-57 -310zM763 1497q123 1 223 -43t138 -113h4v121h977v-164h-782v-464h717v-164h-717v-506h795v-164h-990v141h-4q-54 -84 -156 -130
t-221 -46q-304 0 -487 210q-182 211 -182 555t187 555q187 212 498 212z" />
    <glyph glyph-name="oe" unicode="&#x153;" horiz-adv-x="1825" 
d="M1585 631q0 139 -78 219q-79 80 -209 80t-213 -80t-84 -219h584zM850 532q0 398 -296 398q-138 0 -217 -114t-79 -294t80 -286t220 -107q141 0 216.5 105.5t75.5 297.5zM74 530q0 256 128 404t354 149q146 0 232.5 -45t133.5 -141q56 92 156 139t218 47q234 0 359 -155
q111 -137 116 -386v-24q0 -24 -2 -41h-768v-13q1 -146 83 -240t233 -95q151 0 206 79.5t70 127.5h166q-104 -361 -453 -361q-295 0 -384 209q-93 -209 -367 -209q-225 0 -353 150q-128 149 -128 405z" />
    <glyph glyph-name="Scaron" unicode="&#x160;" horiz-adv-x="1327" 
d="M658 1497q238 -1 380 -119t152 -344h-184q-34 299 -363 299q-157 0 -242.5 -64t-85.5 -185q0 -86 73 -141t412 -124t395 -199.5t56 -218.5q0 -204 -167 -320t-419 -116q-252 -1 -420 133t-169 383h184q2 -167 119 -260q119 -92 302 -92t279.5 68t96.5 185q-1 117 -89 180
t-323 108q-311 58 -418 152q-106 94 -106 247q0 196 149 312q150 116 388 116zM529 1888l141 -196l144 196h158l-211 -293h-191l-213 293h172z" />
    <glyph glyph-name="scaron" unicode="&#x161;" horiz-adv-x="1024" 
d="M741 754q-13 176 -272 176q-79 0 -139 -36t-60 -96q0 -61 53 -98t162 -60l164 -37q154 -35 234 -105t80 -189q1 -157 -121 -245t-328 -89t-325 91t-126 268h175q4 -100 78 -152t206 -53q256 0 256 158q0 71 -64 112t-264 81t-283 111q-81 72 -81 201t112 210t306 81
q391 0 411 -331h-174v2zM374 1499l141 -196l144 196h158l-211 -293h-191l-213 293h172z" />
    <glyph glyph-name="Ydieresis" unicode="&#x178;" horiz-adv-x="1327" 
d="M764 0h-195v598l-565 864h232l438 -696l428 696h221l-559 -864v-598zM956 1837v-213h-184v213h184zM571 1837v-213h-184v213h184z" />
    <glyph glyph-name="Zcaron" unicode="&#x17d;" horiz-adv-x="1251" 
d="M1184 1462v-164l-908 -1134h932v-164h-1163v164l909 1134h-839v164h1069zM501 1888l141 -196l144 196h158l-211 -293h-191l-213 293h172z" />
    <glyph glyph-name="zcaron" unicode="&#x17e;" horiz-adv-x="983" 
d="M909 1059v-119l-647 -786h676v-154h-893v133l639 772h-598v154h823zM359 1499l141 -196l144 196h158l-211 -293h-191l-213 293h172z" />
    <glyph glyph-name="florin" unicode="&#x192;" 
d="M856 1309q-101 0 -123 -102l-65 -287h209l-29 -140h-205l-111 -626q-52 -296 -136 -394t-247 -98h-143l29 154h69q51 5 91 11q40 7 68 39t38 74l162 840h-189l27 140h186l50 256q19 103 85.5 194.5t230.5 91.5h155l-29 -153h-123z" />
    <glyph glyph-name="circumflex" unicode="&#x2c6;" horiz-adv-x="455" 
d="M322 1499l213 -293h-173l-141 197l-143 -197h-158l211 293h191z" />
    <glyph glyph-name="caron" unicode="&#x2c7;" horiz-adv-x="455" 
d="M92 1499l141 -196l144 196h158l-211 -293h-191l-213 293h172z" />
    <glyph glyph-name="breve" unicode="&#x2d8;" horiz-adv-x="455" 
d="M240 1323q75 0 120.5 37t81.5 133h105q-26 -138 -109.5 -210.5t-217.5 -72.5q-270 0 -312 283h102q49 -170 230 -170z" />
    <glyph glyph-name="dotaccent" unicode="&#x2d9;" horiz-adv-x="455" 
d="M319 1450v-213h-184v213h184z" />
    <glyph glyph-name="ring" unicode="&#x2da;" horiz-adv-x="455" 
d="M227 1253.5q61 0.5 99 40.5t39 98q-1 58 -39 99t-98 41t-98 -40q-40 -40 -40 -98q0 -59 38 -100t99 -40.5zM228 1624q94 0 162 -68t69 -162q-1 -94 -69 -162q-68 -67 -162 -67t-163 67q-69 68 -69 162t69 162t163 68z" />
    <glyph glyph-name="ogonek" unicode="&#x2db;" horiz-adv-x="455" 
d="M467 0q-172 -145 -172 -236q0 -92 84 -92q72 0 121 62l65 -37q-71 -127 -221 -127q-88 0 -138 40t-50 115q0 142 229 275h82z" />
    <glyph glyph-name="tilde" unicode="&#x2dc;" horiz-adv-x="455" 
d="M383 1378q66 0 94 90h107q-16 -92 -66 -160t-141 -67q-48 0 -94 17.5t-102 39.5t-111 22.5t-82 -85.5h-107q48 225 217 225q63 0 151 -41t134 -41z" />
    <glyph glyph-name="hungarumlaut" unicode="&#x2dd;" horiz-adv-x="455" 
d="M602 1499l-246 -293h-135l166 293h215zM283 1499l-246 -293h-135l166 293h215z" />
    <glyph glyph-name="pi" unicode="&#x3c0;" horiz-adv-x="1348" 
d="M909 179v726h-485v-905h-174v905h-209v154h1259v-154h-217v-674q0 -104 91 -104q33 0 71 10v-135q-62 -27 -151 -27t-137 55t-48 149z" />
    <glyph glyph-name="uni060C" unicode="&#x60c;" horiz-adv-x="709" 
d="M387 0h-227v207q0 185 83 244.5t142 76.5v-102q-62 -21 -93 -81.5t-26 -117.5h121v-227z" />
    <glyph glyph-name="uni061B" unicode="&#x61b;" horiz-adv-x="705" 
d="M401 479h-227v207q0 186 124 274q42 30 101 47v-102q-62 -21 -93 -82q-31 -60 -26 -117h121v-227zM397 227v-227h-227v227h227z" />
    <glyph glyph-name="uni061F" unicode="&#x61f;" horiz-adv-x="1176" 
d="M442 227h228v-227h-228v227zM784 926q0 194 -85 237t-160 43t-130 -48.5t-55 -157.5t51 -164t79 -80q74 -67 115.5 -130.5t41.5 -158.5v-51h-162v39q0 107 -57.5 163.5t-87.5 82.5q-152 134 -152 293q0 170 103.5 265t276.5 95t278.5 -120.5t105.5 -307.5h-162z" />
    <glyph glyph-name="uni0640" unicode="&#x640;" horiz-adv-x="303" 
d="M303 170q82 0 82 -82q0 -51 -19.5 -69.5t-62.5 -18.5h-303q-82 0 -82 82q0 51 19.5 69.5t62.5 18.5h303z" />
    <glyph glyph-name="uni0647" unicode="&#x647;" horiz-adv-x="954" 
d="M731.5 694q112.5 -123 112.5 -314.5t-110 -290.5t-295 -99t-297 94.5t-112 285.5t114.5 319t294.5 128t292.5 -123zM271.5 570.5q-67.5 -80.5 -67.5 -191.5t66.5 -166t167.5 -55q155 0 211 120q19 41 19 101t-18 111t-50 87q-65 74 -163 74t-165.5 -80.5z" />
    <glyph glyph-name="uni064B" unicode="&#x64b;" horiz-adv-x="0" 
d="M246 926l-492 -70v92l492 70v-92zM246 1083l-492 -69v92l492 69v-92z" />
    <glyph glyph-name="uni064C" unicode="&#x64c;" horiz-adv-x="0" 
d="M238 1163q0 -276 -242 -276q-144 0 -223 129l-125 -70l-41 78l194 110q40 -81 85.5 -122t111.5 -41t102 27t45 61q-29 -17 -68 -17q-72 0 -112.5 38.5t-40.5 87t12 78t33 51.5t49.5 34t61.5 12q71 0 114.5 -47.5t43.5 -132.5zM101.5 1122q24.5 0 54.5 15v16
q0 53 -22 80.5t-47 27.5q-41 0 -61 -23t-20 -47.5t8.5 -36.5t21.5 -19.5t27 -10t38.5 -2.5z" />
    <glyph glyph-name="uni064D" unicode="&#x64d;" horiz-adv-x="0" 
d="M246 -325l-492 -70v92l492 70v-92zM246 -167l-492 -70v92l492 70v-92z" />
    <glyph glyph-name="uni064E" unicode="&#x64e;" horiz-adv-x="0" 
d="M246 926l-492 -70v92l492 70v-92z" />
    <glyph glyph-name="uni064F" unicode="&#x64f;" horiz-adv-x="0" 
d="M-107 1069.5q-40 38.5 -40 87t12 78t32.5 51.5t49 34t61.5 12q71 0 114.5 -47.5t43.5 -142.5q0 -264 -258 -264q-60 0 -94 10v82q50 -10 91 -10q75 0 116.5 25t52.5 63q-29 -17 -85 -17t-96 38.5zM-66 1179q0 -68 97 -68q26 0 53 15v16q0 53 -22 80.5t-47 27.5
q-41 0 -61 -23.5t-20 -47.5z" />
    <glyph glyph-name="uni0650" unicode="&#x650;" horiz-adv-x="0" 
d="M246 -204l-492 -70v92l492 70v-92z" />
    <glyph glyph-name="uni0651" unicode="&#x651;" horiz-adv-x="0" 
d="M-121 887q-145 0 -145 166v139h94v-127q0 -86 61.5 -86t61.5 84v93h94v-91q0 -81 62 -81q37 0 47 19t10 56v133h94v-139q0 -86 -34 -126t-107 -40t-117 62q-37 -62 -121 -62z" />
    <glyph glyph-name="uni0652" unicode="&#x652;" horiz-adv-x="0" 
d="M-90 1050.5q0 -37.5 26.5 -64t63.5 -26.5t63.5 26.5t26.5 64t-26.5 64t-63.5 26.5t-63.5 -26.5t-26.5 -64zM-164 1048q0 34 12.5 64t34.5 52t51.5 35t63.5 13t63.5 -13t52 -35t35.5 -52t13 -64t-13 -63.5t-35.5 -51t-52 -34t-63.5 -12.5t-63.5 12.5t-51.5 34t-34.5 51
t-12.5 63.5z" />
    <glyph glyph-name="uni0653" unicode="&#x653;" horiz-adv-x="0" 
d="M-180.5 1084q69.5 0 114.5 -16.5t127 -52.5t152 -36t146 35l23 -91q-89 -49 -166.5 -49t-129 16.5t-97 36.5t-86.5 36.5t-97 16.5t-122 -39l-23 89q89 54 158.5 54z" />
    <glyph glyph-name="uni0654" unicode="&#x654;" horiz-adv-x="0" 
d="M44 1172q-105 0 -105 -93q0 -41 26 -70t80 -29h115v-93h-375v93h92q-29 48 -29 98.5t15 84.5t39.5 57t56 34.5t84 11.5t78.5 -18v-94q-41 18 -77 18z" />
    <glyph glyph-name="uni0655" unicode="&#x655;" horiz-adv-x="0" 
d="M45 -215q-106 0 -106 -93q0 -40 26 -69t80 -29h115v-94h-375v94h92q-29 48 -29 98t15 84.5t39.5 57.5t56 35t84 12t78.5 -18v-97q-39 19 -76 19z" />
    <glyph glyph-name="uni0656" unicode="&#x656;" horiz-adv-x="0" 
d="M-45 -78h96v-303h-96v303z" />
    <glyph glyph-name="uni0658" unicode="&#x658;" horiz-adv-x="0" 
d="M199 1243v-152q0 -101 -54 -152.5t-144 -51.5t-145 52t-55 152v152h88v-156q0 -57 31 -87q32 -30 82 -30.5t79.5 30t29.5 87.5v156h88z" />
    <glyph glyph-name="uni0660" unicode="&#x660;" horiz-adv-x="922" 
d="M438 219l-182 182l182 177l180 -179z" />
    <glyph glyph-name="uni0661" unicode="&#x661;" horiz-adv-x="922" 
d="M375 1241h162v-1241h-162v1241z" />
    <glyph glyph-name="uni0662" unicode="&#x662;" horiz-adv-x="922" 
d="M497 862q-93 0 -202 47v-909h-162v1241h166v-178q66 -47 200 -47t152.5 57.5t18.5 93.5v74h159v-55q0 -243 -119.5 -283.5t-212.5 -40.5z" />
    <glyph glyph-name="uni0663" unicode="&#x663;" horiz-adv-x="922" 
d="M335 862q-90 0 -161 47v-909h-162v1241h166v-184q59 -41 108 -41t67.5 10t33 37t14.5 104v74h160v-55q0 -82 -18 -139q55 -31 97 -31q70 0 90 37t20 114v74h159v-55q0 -159 -66 -241.5t-158 -82.5t-198 72v2q-62 -74 -152 -74z" />
    <glyph glyph-name="uni0664" unicode="&#x664;" horiz-adv-x="922" 
d="M514 553q-145 0 -178 -75t-33 -122q0 -93 54 -142.5t147 -49.5h303v-164h-297q-265 0 -319 116t-54 182q0 120 54 209.5t157 123.5q-153 78 -153 258q0 350 378 350h154v-164h-158q-146 0 -177.5 -63.5t-31.5 -111.5q0 -93 58.5 -137t150.5 -44h156v-166h-211z" />
    <glyph glyph-name="uni0665" unicode="&#x665;" horiz-adv-x="922" 
d="M464 188q106 0 166 61.5t60 219.5q0 298 -65 455t-161 157q-95 0 -161.5 -158.5t-66.5 -449.5q0 -233 90 -259t138 -26zM78 445q0 233 31.5 384t84.5 243t122.5 131.5t193.5 39.5t232 -184.5t108 -603.5q0 -243 -111 -349t-277 -106q-165 0 -274.5 106t-109.5 339z" />
    <glyph glyph-name="uni0666" unicode="&#x666;" horiz-adv-x="922" 
d="M741 0h-161v1069h-471v172h632v-1241z" />
    <glyph glyph-name="uni0667" unicode="&#x667;" horiz-adv-x="922" 
d="M457 262l282 967h172l-370 -1229h-166l-373 1229h170z" />
    <glyph glyph-name="uni0668" unicode="&#x668;" horiz-adv-x="922" 
d="M465 967l-283 -967h-172l371 1229h166l373 -1229h-170z" />
    <glyph glyph-name="uni0669" unicode="&#x669;" horiz-adv-x="922" 
d="M272 923q0 -78 44.5 -117.5t119.5 -39.5h144v315h-144q-78 0 -121 -40t-43 -118zM739 1241v-1241h-159v608h-129q-236 0 -287 117t-51 195q0 152 86.5 236.5t249.5 84.5h290z" />
    <glyph glyph-name="uni066A" unicode="&#x66a;" horiz-adv-x="1233" 
d="M889 6l-182 182l182 177l180 -179zM309 895l-182 182l182 176l180 -178zM1130 1202l-909 -1251l-121 90l910 1247z" />
    <glyph glyph-name="uni066B" unicode="&#x66b;" horiz-adv-x="647" 
d="M152 227h227v-207q0 -185 -83 -244.5t-142 -76.5v102q95 34 107 104t11 95h-120v227z" />
    <glyph glyph-name="uni066C" unicode="&#x66c;" horiz-adv-x="657" 
d="M152 227h227v-207q1 -186 -123 -274q-42 -30 -102 -47v102q95 35 114 145q5 30 4 54h-120v227z" />
    <glyph glyph-name="uni066D" unicode="&#x66d;" horiz-adv-x="702" 
d="M354 1212l-180 -186l123 227l-234 113l254 -43l37 254l35 -254l254 43l-231 -113l120 -227z" />
    <glyph glyph-name="uni0670" unicode="&#x670;" horiz-adv-x="0" 
d="M-45 1227h96v-340h-96v340z" />
    <glyph glyph-name="uni06BE" unicode="&#x6be;" horiz-adv-x="1365" 
d="M880 391q0 -137 -47 -221h248q0 217 -73.5 329.5t-247.5 173.5q120 -95 120 -282zM723 369q0 247 -152 247q-68 0 -109.5 -64t-41.5 -161q0 -145 77 -200q28 -20 70 -21h10q79 0 117 76q30 58 29 123zM327 170q-57 80 -57 228.5t94 248.5q32 34 76 55q-84 7 -135 7v153
q251 0 430.5 -34t295 -116.5t170 -219.5t54.5 -342v-150h-985q-72 0 -93 -35q-12 -21 -15 -92h-117q-15 80 -15 150q0 147 174 147h123z" />
    <glyph glyph-name="uni06C2" unicode="&#x6c2;" horiz-adv-x="954" 
d="M731.5 694q112.5 -123 112.5 -314.5t-110 -290.5t-295 -99t-297 94.5t-112 285.5t114.5 319t294.5 128t292.5 -123zM271.5 570.5q-67.5 -80.5 -67.5 -191.5t66.5 -166t167.5 -55q155 0 211 120q19 41 19 101t-18 111t-50 87q-65 74 -163 74t-165.5 -80.5zM497 1306
q-105 0 -105 -93q0 -41 26 -70t80 -29h115v-93h-375v93h92q-29 48 -29 98.5t15 84.5t39.5 57t56 34.5t84 11.5t78.5 -18v-94q-41 18 -77 18z" />
    <glyph glyph-name="uni06C3" unicode="&#x6c3;" horiz-adv-x="954" 
d="M731.5 694q112.5 -123 112.5 -314.5t-110 -290.5t-295 -99t-297 94.5t-112 285.5t114.5 319t294.5 128t292.5 -123zM271.5 570.5q-67.5 -80.5 -67.5 -191.5t66.5 -166t167.5 -55q155 0 211 120q19 41 19 101t-18 111t-50 87q-65 74 -163 74t-165.5 -80.5zM447 1132.5
q0 44.5 32 76.5q31 32 65 32q56 0 88 -32q32 -31 32 -65q0 -56 -32 -88t-65.5 -32t-53 8.5t-34.5 23.5q-32 32 -32 76.5zM181 1132.5q0 44.5 32 76.5q31 32 65 32q56 0 88 -32q32 -31 32 -65q0 -56 -32 -88t-65.5 -32t-53 8.5t-34.5 23.5q-32 32 -32 76.5z" />
    <glyph glyph-name="uni06D4" unicode="&#x6d4;" horiz-adv-x="573" 
d="M272 170h215v-170h-243q-92 0 -133.5 43.5t-49.5 165.5q86 -39 211 -39z" />
    <glyph glyph-name="uni06D5" unicode="&#x6d5;" horiz-adv-x="954" 
d="M731.5 694q112.5 -123 112.5 -314.5t-110 -290.5t-295 -99t-297 94.5t-112 285.5t114.5 319t294.5 128t292.5 -123zM271.5 570.5q-67.5 -80.5 -67.5 -191.5t66.5 -166t167.5 -55q155 0 211 120q19 41 19 101t-18 111t-50 87q-65 74 -163 74t-165.5 -80.5z" />
    <glyph glyph-name="uni06F0" unicode="&#x6f0;" horiz-adv-x="922" 
d="M438 219l-182 182l182 177l180 -179z" />
    <glyph glyph-name="uni06F1" unicode="&#x6f1;" horiz-adv-x="922" 
d="M375 1241h162v-1241h-162v1241z" />
    <glyph glyph-name="uni06F2" unicode="&#x6f2;" horiz-adv-x="922" 
d="M497 862q-93 0 -202 47v-909h-162v1241h166v-178q66 -47 200 -47t162 87q9 28 9 64v74h159v-55q1 -242 -181 -304q-58 -20 -151 -20z" />
    <glyph glyph-name="uni06F3" unicode="&#x6f3;" horiz-adv-x="922" 
d="M335 862q-90 0 -161 47v-909h-162v1241h166v-184q59 -41 108 -41q50 0 68 10t32 37t15 104v74h160v-55q0 -82 -18 -139q55 -31 97 -31q70 0 90 37t20 114v74h159v-55q0 -159 -66 -241q-66 -83 -158 -83t-198 72v2q-62 -74 -152 -74z" />
    <glyph glyph-name="uni06F4" unicode="&#x6f4;" horiz-adv-x="922" 
d="M524 780q-168 0 -278 47v-827h-162v1241h166v-260q84 -32 182 -43q-33 78 -33 174q0 221 228 221h30v-137q-68 -2 -93 -27.5t-25 -91.5q12 -93 39 -143q79 2 122 38.5t43 131.5h160q0 -324 -379 -324z" />
    <glyph glyph-name="uni06F5" unicode="&#x6f5;" horiz-adv-x="922" 
d="M582 184q106 0 106 282t-49 405.5t-89 162.5t-83 39t-83 -39t-89 -162.5t-49 -405.5t112 -282q29 0 54 18.5t35.5 27t19.5 8.5t19 -8.5t33 -27t63 -18.5zM292 2q-100 0 -156 111t-56 331t31.5 372.5t85 247t123.5 136t193.5 41.5t232 -190.5t108.5 -610.5
q0 -299 -78.5 -369.5t-128.5 -70.5q-88 0 -176 76q-79 -74 -179 -74z" />
    <glyph glyph-name="uni06F6" unicode="&#x6f6;" horiz-adv-x="922" 
d="M323 1155q90 86 236 86h168v-158h-176q-105 0 -128.5 -59t-23.5 -90q0 -82 52 -119t172 -37h106v-135l-350 -643h-174l336 621q-158 13 -233 99.5t-75 217.5t90 217z" />
    <glyph glyph-name="uni06F7" unicode="&#x6f7;" horiz-adv-x="922" 
d="M457 262l282 967h172l-370 -1229h-166l-373 1229h170z" />
    <glyph glyph-name="uni06F8" unicode="&#x6f8;" horiz-adv-x="922" 
d="M465 967l-283 -967h-172l371 1229h166l373 -1229h-170z" />
    <glyph glyph-name="uni06F9" unicode="&#x6f9;" horiz-adv-x="922" 
d="M272 923q0 -77 44 -117t120 -40h144v315h-144q-78 0 -121 -40t-43 -118zM739 1241v-1241h-159v608h-129q-237 0 -313 176q-26 58 -25 136q1 152 87 236t249 85h290z" />
    <glyph glyph-name="uni2002" unicode="&#x2002;" horiz-adv-x="1024" 
 />
    <glyph glyph-name="uni2003" unicode="&#x2003;" horiz-adv-x="2048" 
 />
    <glyph glyph-name="uni2009" unicode="&#x2009;" horiz-adv-x="205" 
 />
    <glyph glyph-name="uni200A" unicode="&#x200a;" horiz-adv-x="41" 
 />
    <glyph glyph-name="uni200C" unicode="&#x200c;" horiz-adv-x="68" 
d="M68 4h-68v2701h68v-2701z" />
    <glyph glyph-name="uni200D" unicode="&#x200d;" horiz-adv-x="68" 
d="M68 0h-68v2613l-100 -100l-35 37l129 129l-129 131l35 35l131 -129l129 129l37 -35l-129 -129v-2l129 -129l-37 -37l-92 94v-2607z" />
    <glyph glyph-name="uni200E" unicode="&#x200e;" horiz-adv-x="66" 
d="M223 2638h-157v-2634h-66v2701h223v140l166 -166l-166 -166v125z" />
    <glyph glyph-name="uni200F" unicode="&#x200f;" horiz-adv-x="68" 
d="M68 2705v-2701h-68v2634h-158v-125l-166 166l166 166v-140h226z" />
    <glyph glyph-name="endash" unicode="&#x2013;" horiz-adv-x="1024" 
d="M1024 651v-164h-1024v164h1024z" />
    <glyph glyph-name="emdash" unicode="&#x2014;" horiz-adv-x="2048" 
d="M1782 651v-164h-1516v164h1516z" />
    <glyph glyph-name="quoteleft" unicode="&#x2018;" horiz-adv-x="569" 
d="M397 1360q-118 0 -118 -199h120v-227h-227v213q0 226 85.5 270.5t139.5 44.5v-102z" />
    <glyph glyph-name="quoteright" unicode="&#x2019;" horiz-adv-x="569" 
d="M397 1462v-235q1 -125 -57 -208t-168 -85v102q117 0 119 199h-121v227h227z" />
    <glyph glyph-name="quotesinglbase" unicode="&#x201a;" horiz-adv-x="569" 
d="M397 227v-235q1 -125 -57 -209t-168 -84v102q58 0 88.5 53t30.5 146h-121v227h227z" />
    <glyph glyph-name="quotedblleft" unicode="&#x201c;" horiz-adv-x="872" 
d="M735 1360q-117 0 -119 -199h121v-227h-227v225q0 135 58 219t167 84v-102zM360 1360q-57 0 -87 -52.5t-31 -146.5h120v-227h-227v217q1 143 59 227t166 84v-102z" />
    <glyph glyph-name="quotedblright" unicode="&#x201d;" horiz-adv-x="872" 
d="M737 1462v-235q1 -125 -57 -209t-168 -84v102q117 0 119 199h-121v227h227zM362 1462v-235q0 -129 -58 -211t-167 -82v102q117 0 119 199h-121v227h227z" />
    <glyph glyph-name="quotedblbase" unicode="&#x201e;" horiz-adv-x="872" 
d="M737 227v-225q1 -135 -57 -219t-168 -84v102q58 0 88.5 53t30.5 146h-121v227h227zM362 227v-225q0 -137 -59 -220t-166 -83v102q58 0 88.5 53t30.5 146h-121v227h227z" />
    <glyph glyph-name="dagger" unicode="&#x2020;" 
d="M647 1462v-403h406v-154h-406v-1222h-164v1222h-397v154h397v403h164z" />
    <glyph glyph-name="daggerdbl" unicode="&#x2021;" 
d="M647 1462v-403h406v-154h-406v-665h406v-154h-406v-403h-164v403h-397v154h397v665h-397v154h397v403h164z" />
    <glyph glyph-name="bullet" unicode="&#x2022;" horiz-adv-x="1024" 
d="M147 732q0 148 106 256t258 108t260 -108t108 -256q-1 -148 -107 -258t-260 -109.5t-260 109.5q-105 110 -105 258z" />
    <glyph glyph-name="ellipsis" unicode="&#x2026;" horiz-adv-x="2048" 
d="M1819 227v-227h-228v227h228zM1137 227v-227h-228v227h228zM455 227v-227h-228v227h228z" />
    <glyph glyph-name="uni202A" unicode="&#x202a;" horiz-adv-x="1024" 
 />
    <glyph glyph-name="uni202B" unicode="&#x202b;" horiz-adv-x="1024" 
 />
    <glyph glyph-name="uni202C" unicode="&#x202c;" horiz-adv-x="1024" 
 />
    <glyph glyph-name="uni202D" unicode="&#x202d;" horiz-adv-x="1024" 
 />
    <glyph glyph-name="uni202E" unicode="&#x202e;" horiz-adv-x="1024" 
 />
    <glyph glyph-name="perthousand" unicode="&#x2030;" horiz-adv-x="2351" 
d="M1755 323q0 -235 148 -235q70 0 108.5 61t38.5 144q0 268 -142 268q-71 0 -112 -63.5t-41 -174.5zM1343 292q0 269 -140 269q-69 0 -111.5 -60t-42.5 -178q0 -235 109.5 -235t147 60.5t37.5 143.5zM1904 674q148 0 224 -89.5t76 -248.5t-76 -260t-223 -101
q-146 0 -224.5 85.5t-78.5 257.5t77 264t225 92zM1196 674q148 0 224.5 -89t76.5 -249q-1 -160 -77 -260t-223 -101q-147 0 -224.5 88t-77.5 255t76.5 261.5t224.5 94.5zM596 1071q0 268 -143 268q-72 0 -112 -65t-40 -173q0 -235 110 -235t147.5 61t37.5 144zM450 1452
q148 0 224 -89.5t76 -248.5q0 -160 -76 -260t-228 -100q-221 0 -260 130.5t-39 211.5q0 171 77.5 263.5t225.5 92.5zM1460 1479l-1100 -1524h-176l1102 1524h174z" />
    <glyph glyph-name="guilsinglleft" unicode="&#x2039;" horiz-adv-x="530" 
d="M414 905v-176l-205 -160l205 -159v-177l-312 246v180z" />
    <glyph glyph-name="guilsinglright" unicode="&#x203a;" horiz-adv-x="530" 
d="M117 905l311 -246v-180l-311 -246v177l205 159l-205 160v176z" />
    <glyph glyph-name="fraction" unicode="&#x2044;" horiz-adv-x="342" 
d="M682 1485l-891 -1542h-131l891 1542h131z" />
    <glyph glyph-name="Euro" unicode="&#x20ac;" 
d="M772 -33q-502 0 -588 598h-157l56 125h93q-5 53 0 107h-149l53 125h110q53 267 204 415t378 148q181 0 370 -128l-93 -171q-147 141 -291 141t-239 -110t-132 -295h580l-56 -125h-538q-5 -54 0 -107h510l-54 -125h-446q68 -440 389 -440q86 0 152 28t163 119v-215
q-140 -90 -315 -90z" />
    <glyph glyph-name="liter" unicode="&#x2113;" horiz-adv-x="1024" 
d="M587 1378q-55 0 -89 -64t-35 -165v-463q109 126 171 262t62 257q0 120 -42.5 146.5t-66.5 26.5zM627 78q83 0 169 77h5l49 -71q-122 -113 -252 -113t-203 68q-71 69 -71 187v241l-119 -127h-4l-54 76l177 172v538q0 155 74 253t180 98t170 -70t65 -193q0 -289 -350 -651
v-313q0 -79 40.5 -125.5t123.5 -46.5z" />
    <glyph glyph-name="trademark" unicode="&#x2122;" horiz-adv-x="2028" 
d="M1898 1462v-844h-139v705h-4l-276 -705h-88l-277 705h-4v-705h-139v844h215l252 -641l248 641h212zM799 1462v-112h-264v-732h-140v732h-264v112h668z" />
    <glyph glyph-name="estimated" unicode="&#x212e;" horiz-adv-x="1556" 
d="M393 811h778v387q-168 160 -393 160t-385 -160v-387zM393 229q157 -157 398 -157t349 120t156 201l95 -57q-125 -193 -265 -277t-342 -84t-360 94t-246 265t-88 379q0 319 193 529t495 210t495.5 -200t199.5 -539h-1080v-484z" />
    <glyph glyph-name="partialdiff" unicode="&#x2202;" horiz-adv-x="1047" 
d="M492 748q-122 0 -198 -90t-75 -229q0 -138 75 -235q76 -96 206 -96t213 142t83 333q-131 175 -304 175zM446 1477q248 -1 382 -203t133 -550t-121 -549q-120 -200 -355 -200q-181 1 -299 133t-118 326t113 317q114 123 301 123t323 -154l2 96q1 132 -41 262t-123 200
t-192 70t-232 -97l-86 103q141 123 313 123z" />
    <glyph glyph-name="uni2206" unicode="&#x2206;" horiz-adv-x="1327" 
d="M662 1288l-408 -1124h807l-395 1124h-4zM772 1462l565 -1462h-1345l565 1462h215z" />
    <glyph glyph-name="product" unicode="&#x220f;" horiz-adv-x="1473" 
d="M1331 1610v-2048h-160v1900h-872v-1900h-160v2048h1192z" />
    <glyph glyph-name="summation" unicode="&#x2211;" horiz-adv-x="1260" 
d="M1182 1610v-148h-895l616 -868l-653 -885h956v-147h-1155v131l660 901l-631 885v131h1102z" />
    <glyph glyph-name="minus" unicode="&#x2212;" horiz-adv-x="1229" 
d="M1130 588v-139h-1032v139h1032z" />
    <glyph glyph-name="radical" unicode="&#x221a;" horiz-adv-x="1032" 
d="M1053 1610l-432 -2048h-154l-332 684l-96 -45l-57 123l229 106l309 -649l376 1823l2 6h155z" />
    <glyph glyph-name="infinity" unicode="&#x221e;" horiz-adv-x="1554" 
d="M382 698q-73 0 -118 -53t-45 -111q0 -97 46.5 -145.5t116.5 -48.5q138 0 308 174q-190 184 -308 184zM1291.5 389q43.5 49 43.5 108q0 103 -45 153t-111 50q-67 0 -131 -36t-182 -150q109 -105 177 -140q67 -34 136 -34t112.5 49zM1165 840q131 0 217 -89t86 -229
t-82 -230.5t-219 -90.5q-87 1 -178 49t-211 174q-123 -115 -209.5 -170t-181.5 -51q-133 0 -217 88.5t-84 226.5t84 228t213 90q93 0 183 -52t212 -182q144 150 224 194t163 44z" />
    <glyph glyph-name="integral" unicode="&#x222b;" horiz-adv-x="1135" 
d="M383 -342q59 0 59 232q0 27 -2 75l-2 1197q0 252 66 350t193 98q69 0 116 -30t47 -76q0 -45 -25 -66t-55 -21q-50 0 -89 63q-16 25 -32 25q-64 0 -64 -193l5 -175v-1122q0 -243 -65 -347t-192 -104q-58 0 -101 29q-41 29 -41 76t30.5 61t44.5 14q42 0 67 -43t40 -43z" />
    <glyph glyph-name="approxequal" unicode="&#x2248;" horiz-adv-x="1229" 
d="M885 319q121 0 145 154h133q-15 -136 -88 -215q-74 -78 -184 -78t-290 73t-255 73q-122 0 -145 -154h-133q15 133 87 213q75 80 185 80t290 -73t255 -73zM346 715q-122 0 -145 -154h-133q15 133 87 213q73 80 183 80t288 -72t259 -73q121 0 145 153h133
q-15 -135 -87 -214t-187 -79q-79 0 -180 35t-199 73t-164 38z" />
    <glyph glyph-name="notequal" unicode="&#x2260;" horiz-adv-x="1229" 
d="M1130 795v-136h-356l-156 -282h512v-135h-591l-170 -299l-119 65l133 234h-285v135h365l155 282h-520v136h600l164 286l119 -65l-127 -221h276z" />
    <glyph glyph-name="lessequal" unicode="&#x2264;" horiz-adv-x="1229" 
d="M1130 139v-139h-1032v139h1032zM1130 323v-147l-1032 385v135l1032 385v-145l-856 -307l853 -306h3z" />
    <glyph glyph-name="greaterequal" unicode="&#x2265;" horiz-adv-x="1229" 
d="M1130 139v-139h-1032v139h1032zM98 1081l1032 -385v-135l-1031 -385l-2 146l857 307l-856 307v145z" />
    <glyph glyph-name="lozenge" unicode="&#x25ca;" horiz-adv-x="1214" 
d="M338 729l268 -645l271 645l-271 645zM680 1530l352 -801l-352 -801h-148l-350 801l350 801h148z" />
    <glyph glyph-name="uni25CC" unicode="&#x25cc;" horiz-adv-x="1866" 
d="M739 1322q0 -24 -17 -40t-41 -16t-40 16t-16 40t16 41t40 17t41 -17t17 -41zM518 1174.5q0 -23.5 -16 -41t-41 -17.5t-41.5 17.5t-16.5 41t16.5 41t41.5 17.5t41 -17.5t16 -41zM373 963q0 -23 -16.5 -39.5t-40.5 -16.5t-41 16.5t-17 39.5t17 41t41 18t40.5 -18t16.5 -41z
M319 704q0 -24 -16 -40.5t-41 -16.5t-41 16.5t-16 40.5t16 41t41 17t41 -17t16 -41zM371 450q0 -24 -17.5 -40.5t-41 -16.5t-40 16.5t-16.5 40.5t16.5 41t40 17t41 -17t17.5 -41zM518 229q0 -23 -16 -40t-41 -17t-41.5 17t-16.5 40t16.5 40.5t41.5 17.5t41 -17.5t16 -40.5z
M733 85q0 -24 -17 -40t-41 -16t-40.5 16t-16.5 40t16.5 41t40.5 17t41 -17t17 -41zM991 34q0 -24 -16 -41.5t-40 -17.5t-41 17.5t-17 41.5t17 41t41 17t40 -17t16 -41zM1245 83q0 -24 -16 -41t-40 -17t-41.5 17t-17.5 41t17.5 40t41.5 16t40 -16t16 -40zM1466 229
q0 -23 -16 -40t-41 -17t-41 17t-16 40t16 40.5t41 17.5t41 -17.5t16 -40.5zM1610 443.5q0 -23.5 -16.5 -40t-40.5 -16.5t-41 16.5t-17 40t17 41t41 17.5t40.5 -17.5t16.5 -41zM1661 704q0 -24 -16.5 -40.5t-40 -16.5t-41 16.5t-17.5 40.5t17.5 41t41 17t40 -17t16.5 -41z
M1610 957q0 -24 -16.5 -41t-40.5 -17t-41 17t-17 41t17 40.5t41 16.5t40.5 -16.5t16.5 -40.5zM1466 1174.5q0 -23.5 -16 -41t-41 -17.5t-41 17.5t-16 41t16 41t41 17.5t41 -17.5t16 -41zM1251 1320q0 -24 -16 -41t-40 -17t-41 17t-17 41t17 40t41 16t40 -16t16 -40z
M991 1373q0 -24 -16 -40t-40 -16t-41 16t-17 40t17 41.5t41 17.5t40 -17.5t16 -41.5z" />
    <glyph glyph-name="uni274A" unicode="&#x274a;" horiz-adv-x="659" 
d="M526 1040l-75 -55l-111 178l-107 -178l-75 55l135 160l-205 47l29 88l194 -78l-18 209h94l-16 -209l194 82l29 -90l-205 -49z" />
    <glyph glyph-name="fi" unicode="&#xfb01;" horiz-adv-x="1061" 
d="M510 1325q-133 0 -133 -114v-152h205v-154h-205v-905h-174v905h-178v154h178v165q-1 117 73 186t218 69q63 0 114 -17v-151q-40 14 -98 14zM922 1059v-1059h-174v1059h174zM922 1462v-213h-174v213h174z" />
    <glyph glyph-name="fl" unicode="&#xfb02;" horiz-adv-x="1061" 
d="M510 1325q-133 0 -133 -114v-152h205v-154h-205v-905h-174v905h-178v154h178v165q-1 117 73 186t218 69q63 0 114 -17v-151q-40 14 -98 14zM922 1462v-1462h-174v1462h174z" />
    <glyph glyph-name="uniFD3E" unicode="&#xfd3e;" horiz-adv-x="1251" 
d="M500 815h49l39 68h4v-68h47v-59l125 129l-6 6l-131 -25q16 110 73 238v96q-82 -87 -119 -191.5t-46 -140.5l-142 33l107 -151v65zM1022 -428q-17 0 -59.5 29t-128 107.5t-195 225.5t-141.5 269l-150 -27q-4 -2 -12 -2q-25 0 -25 23q0 13 13 30l127 176q18 26 18 35
q0 27 -23 27q-15 0 -45 -27l-147 -127q-27 -20 -39 -20q-29 0 -29 51v115q-131 48 -131 108q0 49 131 113v127q0 41 29 41q11 0 33 -19l164 -141q22 -16 32 -16q27 0 27 22q0 15 -18 37l-127 176q-13 19 -13 31q0 22 25 22q8 0 12 -2l150 -26q48 180 211.5 360.5t229 225.5
t83.5 45t20 -11l3 -8q0 -10 -13 -26q-315 -342 -340 -588l103 14l22 2q23 0 23 -20q0 -10 -13 -27l-139 -158q-24 -29 -24 -45t18 -16t37 10l164 123q25 20 40 20q14 0 17 -28v-125q79 -25 106 -58.5t27 -52.5q0 -53 -133 -112v-117q0 -43 -18 -43q-11 0 -31 16l-172 131
q-15 13 -36 13t-21 -21q0 -13 24 -41l139 -157q13 -19 13 -27q0 -21 -23 -21l-22 2l-103 15q25 -246 340 -588q12 -12 12 -27q-5 -18 -22 -18zM637 317h-47v-67h-4l-39 67h-49v66l-107 -152l141 33q33 -133 84.5 -217t81.5 -115v97q-56 122 -73 237l131 -24l6 6l-125 129
v-60zM109 569q0 -41 133 -75v-115l157 115v4h-96v45q-30 6 -63 24q24 19 63 25v41h96v4l-157 123v-119q-133 -44 -133 -72zM676 572q0 22 -8.5 41.5t-22.5 34.5t-34 23.5t-53 8.5t-64 -31t-31 -76t31 -75q29 -33 63 -33t54 8.5t34 23t22.5 34t8.5 41.5zM1022 567
q0 21 -41 41q-44 24 -90 33v117l-156 -117l2 -4h88v-43q45 -6 70 -27q-27 -18 -70 -24v-41h-90l-6 -4l162 -119v117q131 36 131 71z" />
    <glyph glyph-name="uniFD3F" unicode="&#xfd3f;" horiz-adv-x="1251" 
d="M608 815h47v68h4l39 -68h50v-65l106 151l-141 -33q-34 135 -85 217.5t-81 114.5v-96q52 -117 74 -238l-132 25l-6 -6l125 -129v59zM776 690q0 -20 27 -20q11 0 33 16l163 141q22 19 33 19q29 0 29 -41v-127q131 -64 131 -113q0 -60 -131 -108v-115q0 -51 -29 -51
q-10 0 -39 20l-147 127q-30 27 -45 27q-23 0 -23 -27q0 -10 19 -35l127 -176q12 -18 12 -30q0 -23 -25 -23q-8 0 -12 2l-149 27q-47 -179 -210.5 -359t-231 -226t-84.5 -46t-19 10l-2 8q0 15 12 27q315 342 340 588l-102 -15l-23 -2q-22 0 -22 21q0 7 12 27l139 157
q25 30 25 41q0 21 -21 21t-37 -13l-172 -131q-19 -16 -30 -16q-19 0 -19 43v117q-133 58 -133 110t58 80t75 33v125q3 28 19 28q9 0 38 -20l164 -123q22 -10 33 -10q23 0 23 16t-25 45l-139 158q-12 18 -12 27q0 20 22 20q10 -2 11 -2h12l102 -14q-25 246 -340 588
q-12 15 -12 26l2 8q2 11 19 11t59.5 -29t128 -106.5t196 -226t142.5 -269.5l149 26q4 2 12 2q25 0 25 -22q0 -12 -12 -31l-127 -176q-19 -19 -19 -39zM750 317h-50l-38 -67h-5v67h-47v60l-125 -129l7 -6l131 24q-24 -127 -74 -237v-97q80 83 118.5 189.5t47.5 142.5l141 -33
l-106 152v-66zM1139 569q0 28 -133 72v119l-158 -123v-4h96v-41q39 -6 64 -25q-35 -19 -64 -24v-45h-96v-4l158 -115v115q133 34 133 75zM601.5 497q30.5 -32 75.5 -32q43 -1 75 31t32 66q0 56 -31 87t-65 31t-53 -8.5t-41.5 -32.5t-22.5 -67t30.5 -75zM225 567
q0 -35 131 -71v-117l162 119l-6 4h-90v41q-41 6 -70 24q27 21 70 27v43h88l2 4l-156 117v-117q-42 -8 -87 -31q-44 -23 -44 -43z" />
    <glyph glyph-name="uni00B5" 
d="M311 47v-453h-174v1465h174v-723q0 -90 56 -149q57 -58 156 -58q147 -1 229 91t82 234v605h174v-1059h-164v168h-4q-117 -193 -322 -193q-135 0 -203 72h-4z" />
    <glyph glyph-name="uni2126" horiz-adv-x="1554" 
d="M88 801q0 299 196 497t496 199q302 1 494 -193t192 -483q0 -411 -336 -649v-8h359v-164h-578v147q361 249 361 675q0 222 -134 366t-357 145q-223 0 -361 -145q-137 -146 -137 -385q0 -405 368 -656v-147h-579v164h350v8q-334 231 -334 629z" />
    <glyph glyph-name="uniFBA5" horiz-adv-x="969" 
d="M442 168q-72 0 -114 5.5t-84 20.5q-96 34 -155 112t-59 201q0 217 133 321q113 88 291 87h332v-587q0 -90 21 -115q35 -43 124 -43h38q82 0 82 -82q0 -51 -19 -69.5t-63 -18.5h-64q-260 0 -287 205q-104 -37 -176 -37zM447 342q85 0 167 37v364h-182q-162 -1 -211 -115
q-17 -40 -17 -87.5t12 -83t38 -61t67 -40t126 -14.5zM508 1378q-105 0 -105 -93q0 -41 26 -70t80 -29h115v-93h-375v93h92q-29 48 -29 98.5t15 84.5t39.5 57t56 34.5t84 11.5t78.5 -18v-94q-41 18 -77 18z" />
    <glyph glyph-name="uni0640.narrow" horiz-adv-x="236" 
d="M238 170q81 0 81 -82q0 -51 -19 -69.5t-62 -18.5h-238q-82 0 -82 82q0 51 19.5 69.5t62.5 18.5h238z" />
    <glyph glyph-name="uni0640.long" horiz-adv-x="401" 
d="M403 170q82 0 82 -82q0 -51 -19 -69.5t-63 -18.5h-403q-82 0 -82 82q0 51 19.5 69.5t62.5 18.5h403z" />
    <glyph glyph-name="uni0615" horiz-adv-x="0" 
d="M330 1274q75 0 118.5 -48t43.5 -134v-140h-533v86h96v424h82v-297q81 109 193 109zM412 1077q0 109 -95 109q-54 0 -103.5 -42t-72.5 -106h271v39z" />
    <glyph glyph-name="uni064C0651" horiz-adv-x="0" 
d="M-121 887q-145 0 -145 166v139h94v-127q0 -86 61.5 -86t61.5 84v93h94v-91q0 -81 62 -81q37 0 47 19t10 56v133h94v-139q0 -86 -34 -126t-107 -40t-117 62q-37 -62 -121 -62zM289 1564q0 -276 -242 -276q-144 0 -223 129l-125 -70l-41 78l194 110q40 -81 85.5 -122
t111.5 -41t102 27t45 61q-29 -17 -68 -17q-72 0 -112.5 38.5t-40.5 87t12 78t33 51.5t49.5 34t61.5 12q71 0 114.5 -47.5t43.5 -132.5zM152.5 1523q24.5 0 54.5 15v16q0 53 -22 80.5t-47 27.5q-41 0 -61 -23t-20 -47.5t8.5 -36.5t21.5 -19.5t27 -10t38.5 -2.5z" />
    <glyph glyph-name="uni064D0651" horiz-adv-x="0" 
d="M-121 1262q-145 0 -145 166v139h94v-127q0 -86 61.5 -86t61.5 84v93h94v-91q0 -81 62 -81q37 0 47 19t10 56v133h94v-139q0 -86 -34 -126t-107 -40t-117 62q-37 -62 -121 -62zM246 1832l-492 -70v92l492 70v-92zM246 1643l-492 -70v92l492 70v-92z" />
    <glyph glyph-name="uni064B0651" horiz-adv-x="0" 
d="M-121 887q-145 0 -145 166v139h94v-127q0 -86 61.5 -86t61.5 84v93h94v-91q0 -81 62 -81q37 0 47 19t10 56v133h94v-139q0 -86 -34 -126t-107 -40t-117 62q-37 -62 -121 -62zM246 1336l-492 -70v92l492 70v-92zM246 1493l-492 -69v92l492 69v-92z" />
    <glyph glyph-name="uni064E0651" horiz-adv-x="0" 
d="M-121 887q-145 0 -145 166v139h94v-127q0 -86 61.5 -86t61.5 84v93h94v-91q0 -81 62 -81q37 0 47 19t10 56v133h94v-139q0 -86 -34 -126t-107 -40t-117 62q-37 -62 -121 -62zM239 1336l-492 -70v92l492 70v-92z" />
    <glyph glyph-name="uni064F0651" horiz-adv-x="0" 
d="M-121 887q-145 0 -145 166v139h94v-127q0 -86 61.5 -86t61.5 84v93h94v-91q0 -81 62 -81q37 0 47 19t10 56v133h94v-139q0 -86 -34 -126t-107 -40t-117 62q-37 -62 -121 -62zM-99 1458.5q-40 38.5 -40 87t12 78t32.5 51.5t49 34t61.5 12q71 0 114.5 -47.5t43.5 -142.5
q0 -264 -258 -264q-60 0 -94 10v82q50 -10 92 -10q74 0 115.5 25t52.5 63q-29 -17 -85 -17t-96 38.5zM-58 1568q0 -68 97 -68q26 0 53 15v16q0 53 -22 80.5t-47 27.5q-41 0 -61 -23.5t-20 -47.5z" />
    <glyph glyph-name="uni06500651" horiz-adv-x="0" 
d="M-121 1133q-145 0 -145 166v139h94v-127q0 -86 61.5 -86t61.5 84v93h94v-91q0 -81 62 -81q37 0 47 19t10 56v133h94v-139q0 -86 -34 -126t-107 -40t-117 62q-37 -62 -121 -62zM246 926l-492 -70v92l492 70v-92z" />
    <glyph glyph-name="uni06510670" horiz-adv-x="0" 
d="M-121 887q-145 0 -145 166v139h94v-127q0 -86 61.5 -86t61.5 84v93h94v-91q0 -81 62 -81q37 0 47 19t10 56v133h94v-139q0 -86 -34 -126t-107 -40t-117 62q-37 -62 -121 -62zM-45 1673h96v-340h-96v340z" />
    <glyph glyph-name="uni06540651" horiz-adv-x="0" 
d="M44 1172q-105 0 -105 -93q0 -41 26 -70t80 -29h115v-93h-375v93h92q-29 48 -29 98.5t15 84.5t39.5 57t56 34.5t84 11.5t78.5 -18v-94q-41 18 -77 18zM241 1499l-492 -70v92l492 70v-92zM241 1656l-492 -69v92l492 69v-92z" />
    <glyph glyph-name="uni0654064E" horiz-adv-x="0" 
d="M44 1172q-105 0 -105 -93q0 -41 26 -70t80 -29h115v-93h-375v93h92q-29 48 -29 98.5t15 84.5t39.5 57t56 34.5t84 11.5t78.5 -18v-94q-41 18 -77 18zM246 1499l-492 -70v92l492 70v-92z" />
    <glyph glyph-name="uni0654064C" horiz-adv-x="0" 
d="M44 1172q-105 0 -105 -93q0 -41 26 -70t80 -29h115v-93h-375v93h92q-29 48 -29 98.5t15 84.5t39.5 57t56 34.5t84 11.5t78.5 -18v-94q-41 18 -77 18zM267 1736q0 -276 -242 -276q-144 0 -223 129l-125 -70l-41 78l194 110q40 -81 85.5 -122t111.5 -41t102 27t45 61
q-29 -17 -68 -17q-72 0 -112.5 38.5t-40.5 87t12 78t33 51.5t49.5 34t61.5 12q71 0 114.5 -47.5t43.5 -132.5zM130.5 1695q24.5 0 54.5 15v16q0 53 -22 80.5t-47 27.5q-41 0 -61 -23t-20 -47.5t8.5 -36.5t21.5 -19.5t27 -10t38.5 -2.5z" />
    <glyph glyph-name="uni0654064F" horiz-adv-x="0" 
d="M44 1172q-105 0 -105 -93q0 -41 26 -70t80 -29h115v-93h-375v93h92q-29 48 -29 98.5t15 84.5t39.5 57t56 34.5t84 11.5t78.5 -18v-94q-41 18 -77 18zM-99 1642.5q-40 38.5 -40 87t12 78t32.5 51.5t49 34t61.5 12q71 0 114.5 -47.5t43.5 -142.5q0 -264 -258 -264
q-60 0 -94 10v82q50 -10 92 -10q74 0 115.5 25t52.5 63q-29 -17 -85 -17t-96 38.5zM-58 1752q0 -68 97 -68q26 0 53 15v16q0 53 -22 80.5t-47 27.5q-41 0 -61 -23.5t-20 -47.5z" />
    <glyph glyph-name="uni06540652" horiz-adv-x="0" 
d="M44 1172q-105 0 -105 -93q0 -41 26 -70t80 -29h115v-93h-375v93h92q-29 48 -29 98.5t15 84.5t39.5 57t56 34.5t84 11.5t78.5 -18v-94q-41 18 -77 18zM-90 1623.5q0 -37.5 26.5 -64t63.5 -26.5t63.5 26.5t26.5 64t-26.5 64t-63.5 26.5t-63.5 -26.5t-26.5 -64zM-164 1621
q0 34 12.5 64t34.5 52t51.5 35t63.5 13t63.5 -13t52 -35t35.5 -52t13 -64t-13 -63.5t-35.5 -51t-52 -34t-63.5 -12.5t-63.5 12.5t-51.5 34t-34.5 51t-12.5 63.5z" />
    <glyph glyph-name="uni06550650" horiz-adv-x="0" 
d="M45 18q-106 0 -106 -93q0 -40 26 -69t80 -29h115v-94h-375v94h92q-29 48 -29 98t15 84.5t39.5 57.5t56 35t84 12t78.5 -18v-97q-39 19 -76 19zM246 -415l-492 -70v92l492 70v-92z" />
    <glyph glyph-name="uni0655064D" horiz-adv-x="0" 
d="M45 20q-106 0 -106 -93q0 -40 26 -69t80 -29h115v-94h-375v94h92q-29 48 -29 98t15 84.5t39.5 57.5t56 35t84 12t78.5 -18v-97q-39 19 -76 19zM248 -564l-492 -70v92l492 70v-92zM248 -406l-492 -70v92l492 70v-92z" />
    <glyph glyph-name="uni064406440647" horiz-adv-x="2230" 
d="M879 0q-258 0 -285 205q-104 -37 -176 -37t-114 5.5t-84 20.5q-96 34 -155 112t-59 201q0 217 133 321q113 88 291 87h332v-587q0 -90 21 -115q35 -43 124 -43h186q88 0 115 19q51 36 51 130v1143h176v-1067q0 -114 26.5 -153.5t61 -55.5t88.5 -16h308v1292h174v-1462
h-482q-101 0 -169 69q-20 21 -33 46q-62 -115 -266 -115h-264zM423 342q85 0 167 37v364h-182q-162 -1 -211 -115q-17 -40 -17 -87.5t12 -83t38 -61t67 -40t126 -14.5z" />
    <glyph glyph-name="uniFDFA.Farsi" horiz-adv-x="2165" 
d="M326 -217q14 0 28 8l-80 88q0 -58 19 -77t33 -19zM214 350q17 0 30.5 3t23.5 5l-30 60l-72 -62q31 -6 48 -6zM236 1104q-26 -42 -74 -72q16 -16 110 -2zM1120 406q38 0 80 6l-49 94q-25 -52 -111 -94v-4q42 -2 80 -2zM805 584q-8 -6 -23.5 -19.5t-83.5 -48.5l-106 -57
l20 51q55 21 132 68t94 59zM317 1432q0 -50 29 -50q14 0 14 15l-10 33q0 18 10 18t15 -22q11 -39 43 -35q-2 2 -8.5 18.5t-6.5 26.5t17 22q26 -35 26 -61q0 -39 -21 -44.5t-40 7.5q-13 -27 -49.5 -17t-36.5 49q0 40 18 40zM2028 776l-25 -45q-4 -10 -31 -22l-274 -125l22 51
zM1249 -330q-8 0 -21.5 -10t-50.5 -34t-102 -23q-65 0 -65 8t30 8t67.5 13.5t68.5 30t53 30.5t30 14q10 0 22.5 -11t21.5 -11t17 5.5t12.5 11.5t7.5 11.5t7 5.5q5 0 8 -13t15 -13l8 2q0 21 15 29q6 -8 6 -24q0 -30 -24 -39.5t-38 9.5q-13 -22 -35 -22q-21 0 -25 3.5
t-7.5 7.5t-8 7.5t-12.5 3.5zM1989 188q12 7 27.5 15t21.5 12q-2 -18 -14.5 -39.5t-28.5 -28.5l-277 -131l19 56zM1780 986q-45 -26 -62 -52h70q137 0 199 10q-22 35 -64.5 51.5t-70.5 16.5q-27 0 -72 -26zM527 819q-17 0 -34.5 -11t-56 -34.5t-67.5 -23.5q0 -62 -13 -66
q-6 43 -34 65.5t-41 26.5q-17 51 4 51q4 0 11 -4t24 -12t34 -8q18 0 45 11t53.5 23.5t47 23.5t32.5 11t24.5 -10t12.5 -23t-14 -34q-11 14 -28 14zM1399 213l84 -43l28 57l82 -49l-45 -78l-71 39l-35 -53l-82 39zM1176 1303q206 70 411 180q-18 -52 -86 -84l-371 -170z
M772 10l315 125q67 29 116 57q48 27 52.5 23t-2.5 -12l-24 -33q-45 -37 -207 -111l-213 -88q21 -32 -6.5 -68t-52.5 -36q20 29 17 54.5t-26 29.5q-8 0 -9 6t3 10zM1460 1102q0 23 -23.5 23t-23.5 11t43 46l39 30l461 203l-35 -51q-102 -62 -240.5 -122t-181.5 -79
q31 -21 9.5 -59t-37 -54t-23.5 -18h-10l-2 4q0 6 12 28.5t12 37.5zM1979 -287q-36 -37 -62 -37q-35 1 -92 7.5t-64 11.5q-10 1 -10 7t24 7q60 5 131.5 41.5t71.5 67.5q0 6 -7 14t-13 10q-53 -11 -71.5 3.5t-18.5 32.5q0 37 16.5 72.5t42.5 35.5q52 0 70 -58.5t18 -118.5
q0 -59 -36 -96zM801 217q-152 0 -152 14q1 6 31 12q60 14 123 53.5t63 61.5q0 15 -20 25q-25 -11 -58.5 -3t-33.5 38q0 53 22.5 81.5t36.5 28.5t29.5 -10t29 -29.5t22.5 -49t9 -72.5q0 -79 -35.5 -114.5t-66.5 -35.5zM604 303q0 -38 -16 -94q-6 -16 -15 -16l-4 2v16
q0 70 -18 111l-96 190q-37 86 -37 100q0 13 3 27t8.5 27.5t11.5 23.5t11.5 10t11.5 -13q9 -22 40 -61t51 -51q20 -13 20 -21q-1 -9 -21 -9t-36 12l-4 -4q90 -170 90 -250zM731 1264q107 -222 107 -330q0 -51 -11 -76l-6 -4l-4 25q-7 44 -68 171q-61 128 -84.5 182t-20.5 89
t13.5 58.5t17.5 23.5t11 -10q6 -17 38 -54.5t54 -51.5q21 -15 21 -21t-16.5 -6t-51.5 4zM175 281q-54 0 -54 26q0 46 8 58q30 45 90 79l-22 39q9 9 15 40q6 30 12 30q10 0 20 -25l67 -137q15 -29 33 -47t50 -18t32 8t-10.5 28.5t-25.5 47t-32.5 56t-42 73.5t-24.5 58
q0 26 12 55.5t20 29.5q9 0 13 -10q19 -47 55 -81q37 -34 37 -40q0 -14 -37 -14q70 -129 74 -154t4 -43q0 -113 -76 -113q-45 0 -70.5 20t-39.5 68q-54 -34 -108 -34zM1649 397q-29 -102 -89 -102q-28 0 -51.5 19.5t-25.5 41.5h-4q-17 -69 -102 -69t-119 33t-41 53
q-86 -54 -164 -54q-72 7 -72 46q0 25 13.5 51t19.5 30l116 86l-30 52l12 57q6 23 16 23t21 -21l98 -186q28 -54 112.5 -68t113.5 21l10 57q2 20 11 20t9 -17q0 -37 43.5 -67t69.5 7q0 60 -24 127.5t-93 197.5l14 64q5 12 7 17t8.5 5t17.5 -22l133 -307q24 -62 55 -78.5
t46 -16.5q0 53 30 106.5t71 53.5t76.5 -42.5t35.5 -56.5t-7 -14t-14 7l-20 14q-29 22 -76 22t-47 -36q0 -21 24.5 -39.5t36.5 -18.5l109 6q26 0 26 -17t-22 -63q-10 -2 -49.5 -6.5t-64 -7.5t-47 -4.5t-39.5 -3t-31 -1.5q-39 1 -67 21.5t-52 79.5h-4zM312 -309q-64 0 -70 88
h-4q-22 -42 -84.5 -74.5t-81.5 -32.5t-19 6q-1 6 17 14q38 15 100.5 85.5t62.5 128.5q11 6 20 25.5t9 37.5t12 23q19 0 50 -46q32 -46 46 -54.5t30 -8.5t27 9.5t11 23.5q0 28 -31 101t-61 118l10 47q8 31 14 31q12 0 38 -59l92 -203q29 -68 99 -95.5t209 -27.5q140 0 236 7
t165 18t114 23t72 23t39 18t18 7t41.5 -29.5t65.5 -29.5l26 4q0 92 19 92q8 -1 8 -15q0 -32 27 -58.5t69 -26.5l-37 53q9 63 27 63q17 0 39 -39t22 -76q0 -73 -49 -92.5t-90 25.5q-34 -45 -86 -30t-84 63q-122 -68 -330.5 -85t-298.5 -17q-175 0 -249.5 30.5t-102.5 108.5
h-4q-21 -76 -72 -76q-31 -98 -81 -98zM469 1040q0 38 -92 183l16 51q7 22 15 22q7 0 17.5 -16t24 -40t28 -53t30.5 -60q32 -63 60 -89t61 -26l39 6q-154 185 -162 214t-8 41q0 26 11.5 54.5t21.5 28.5t17 -16q22 -51 61 -81q38 -30 38 -36q0 -15 -41 -15q64 -87 86.5 -133.5
t22.5 -86.5t-19 -65.5t-78 -9.5q6 -71 73 -117t121 -43q116 7 208 48v8q-122 10 -146 29l29 57q83 29 102 44t19 47q0 54 -38 141.5t-81 158.5l19 72q4 16 12 16t22 -28l127 -269q19 -41 34.5 -67t48 -45t118.5 -19q125 0 188.5 19.5t45.5 64.5q-5 14 7 14t22 -16t36 -51
t80 -35q114 143 221 143q46 0 75.5 -22t50.5 -70q22 -48 34 -53l-21 -68q-4 -16 -19 -19t-34 -5l-223 -10h-47q-47 0 -55 4q-53 -78 -67 -78t28 86q-59 43 -76 111h-4q-13 -62 -58.5 -86.5t-169.5 -24.5t-158 18.5t-49.5 42t-25.5 60.5h-4q-12 -51 -53 -80v-4q47 0 68.5 -16
t21.5 -23l-21 -74q-152 -121 -286 -121q-214 0 -199 262q-49 13 -92 91q-26 -103 -92 -103q-45 0 -72 21t-49 69q-79 -54 -133 -47.5t-54 48.5q0 22 13 48t33 38q39 23 51 33t12 24t-27 41l13 59q5 23 22 23t98 -185q27 -60 71.5 -64.5t62.5 4.5t18 25z" />
    <glyph glyph-name="uni0660.pnum" horiz-adv-x="633" 
d="M330 219l-182 182l182 177l180 -179z" />
    <glyph glyph-name="uni0661.pnum" horiz-adv-x="553" 
d="M202 1241h162v-1241h-162v1241z" />
    <glyph glyph-name="uni0662.pnum" horiz-adv-x="948" 
d="M556 862q-93 0 -202 47v-909h-162v1241h166v-178q66 -47 200 -47t162 87q9 28 9 64v74h159v-55q0 -242 -182 -304q-58 -20 -150 -20z" />
    <glyph glyph-name="uni0663.pnum" horiz-adv-x="1124" 
d="M523 862q-90 0 -161 47v-909h-162v1241h166v-184q59 -41 108 -41q50 0 68 10t32 37t15 104v74h160v-55q0 -82 -18 -139q55 -31 97 -31q70 0 90 37t20 114v74h159v-55q0 -159 -66 -241q-66 -83 -158 -83t-198 72v2q-62 -74 -152 -74z" />
    <glyph glyph-name="uni0664.pnum" horiz-adv-x="838" 
d="M470 553q-145 1 -195 -113q-16 -36 -16 -84q0 -92 54 -142t147 -50h303v-164h-297q-264 0 -344 171q-28 61 -29 127q0 120 54 209q54 90 157 124q-153 78 -153 258q0 350 378 350h154v-164h-158q-147 1 -193 -93q-16 -34 -16 -82q0 -93 58 -137t151 -44h156v-166h-211z
" />
    <glyph glyph-name="uni0665.pnum" horiz-adv-x="1090" 
d="M560 188q106 0 166 61t60 220q0 298 -66 455t-160 157q-95 0 -162 -159q-66 -159 -66 -449q0 -233 138 -273q42 -12 90 -12zM174 445q0 233 32 384t84 243t122 132t147 39q171 1 271 -169q116 -199 116 -619q0 -243 -122 -359q-100 -96 -266 -96q-165 0 -264 96
q-120 116 -120 349z" />
    <glyph glyph-name="uni0666.pnum" horiz-adv-x="885" 
d="M699 0h-161v1069h-471v172h632v-1241z" />
    <glyph glyph-name="uni0667.pnum" horiz-adv-x="1034" 
d="M520 262l282 967h172l-370 -1229h-166l-373 1229h170z" />
    <glyph glyph-name="uni0668.pnum" horiz-adv-x="1034" 
d="M520 967l-283 -967h-172l371 1229h166l373 -1229h-170z" />
    <glyph glyph-name="uni0669.pnum" horiz-adv-x="881" 
d="M228 923q0 -77 44 -117t120 -40h144v315h-144q-78 0 -121 -40t-43 -118zM695 1241v-1241h-159v608h-129q-237 0 -313 176q-26 58 -25 136q1 152 87 236t249 85h290z" />
    <glyph glyph-name="uni06F0.pnum" horiz-adv-x="633" 
d="M330 219l-182 182l182 177l180 -179z" />
    <glyph glyph-name="uni06F1.pnum" horiz-adv-x="553" 
d="M202 1241h162v-1241h-162v1241z" />
    <glyph glyph-name="uni06F2.pnum" horiz-adv-x="948" 
d="M556 862q-93 0 -202 47v-909h-162v1241h166v-178q66 -47 200 -47t162 87q9 28 9 64v74h159v-55q0 -242 -182 -304q-58 -20 -150 -20z" />
    <glyph glyph-name="uni06F3.pnum" horiz-adv-x="1124" 
d="M523 862q-90 0 -161 47v-909h-162v1241h166v-184q59 -41 108 -41q50 0 68 10t32 37t15 104v74h160v-55q0 -82 -18 -139q55 -31 97 -31q70 0 90 37t20 114v74h159v-55q0 -159 -66 -241q-66 -83 -158 -83t-198 72v2q-62 -74 -152 -74z" />
    <glyph glyph-name="uni06F4.pnum" horiz-adv-x="1034" 
d="M635 780q-168 0 -278 47v-827h-162v1241h166v-260q84 -32 182 -43q-33 78 -33 174q0 221 228 221h30v-137q-68 -2 -93 -28t-25 -91q12 -93 39 -143q79 2 109 28q56 47 56 142h160q0 -324 -379 -324z" />
    <glyph glyph-name="uni06F5.pnum" horiz-adv-x="979" 
d="M605 184q106 0 106 282q1 282 -67 452q-30 77 -71 116q-40 39 -83 39t-83 -39q-41 -39 -71 -116q-68 -170 -67 -452q0 -282 112 -282q29 0 54 18t35 28q10 8 20 8q9 0 19 -8t33 -28q23 -18 63 -18zM103 444q-1 220 31 372q32 154 86 248t123 136q70 42 147 41
q170 0 270 -176q116 -205 117 -625q-1 -300 -119 -406q-38 -34 -88 -34q-88 0 -176 76q-80 -74 -180 -74t-155 111q-56 111 -56 331z" />
    <glyph glyph-name="uni06F6.pnum" horiz-adv-x="676" 
d="M189 1155q90 86 236 86h168v-158h-176q-105 -1 -141 -91q-11 -28 -11 -58q0 -82 52 -119t172 -37h106v-135l-350 -643h-174l336 621q-158 13 -233 99t-75 218q0 131 90 217z" />
    <glyph glyph-name="uni06F7.pnum" horiz-adv-x="1034" 
d="M520 262l282 967h172l-370 -1229h-166l-373 1229h170z" />
    <glyph glyph-name="uni06F8.pnum" horiz-adv-x="1034" 
d="M520 967l-283 -967h-172l371 1229h166l373 -1229h-170z" />
    <glyph glyph-name="uni06F9.pnum" horiz-adv-x="881" 
d="M228 923q0 -77 44 -117t120 -40h144v315h-144q-78 0 -121 -40t-43 -118zM695 1241v-1241h-159v608h-129q-237 0 -313 176q-26 58 -25 136q1 152 87 236t249 85h290z" />
    <glyph glyph-name="uni06F4.Urdu" horiz-adv-x="922" 
d="M339 1100q-33 0 -57 -30.5t-24 -72.5v-997h-168v985q0 114 72.5 192t198.5 78t176.5 -72t66.5 -100q92 96 209 154l82 -129q-154 -76 -328 -219q-61 153 -128 182t-100 29z" />
    <glyph glyph-name="uni06F7.Urdu" horiz-adv-x="922" 
d="M778 158v-158h-680l2 156l523 1085h153l-512 -1083h514z" />
    <glyph glyph-name="uni06F4.Urdupnum" horiz-adv-x="1020" 
d="M443 1100q-33 0 -57 -30t-24 -73v-997h-168v985q0 114 73 192t198 78q125 1 205 -113q22 -30 38 -59q92 96 209 154l82 -129q-154 -76 -328 -219q-61 153 -166 199q-29 12 -62 12z" />
    <glyph glyph-name="uni06F7.Urdupnum" horiz-adv-x="807" 
d="M746 158v-158h-680l2 156l523 1085h153l-512 -1083h514z" />
    <glyph glyph-name="xx.beh" horiz-adv-x="1845" 
d="M1705 0h-1241q-235 0 -324.5 67t-89.5 232v317h174v-256q0 -122 64 -156t266 -34h977v618h174v-788z" />
    <glyph glyph-name="xx.beh.fina" horiz-adv-x="1890" 
d="M464 0q-235 0 -324.5 67t-89.5 232v317h174v-256q0 -122 64 -156t266 -34h811q88 0 127 27.5t39 121.5v469h176v-393q0 -114 26.5 -153.5t61 -55.5t88.5 -16q82 0 82 -82q0 -51 -19.5 -69.5t-57.5 -18.5q-72 0 -127.5 32.5t-79.5 82.5q-62 -115 -266 -115h-951z" />
    <glyph glyph-name="xx.feh" horiz-adv-x="2101" 
d="M1188 382q0 196 111.5 315.5t308.5 119.5q198 0 284.5 -129t86.5 -307v-381h-1515q-235 0 -324.5 67t-89.5 232v317h174v-256q0 -121 64 -155.5t268 -34.5h690q-58 109 -58 212zM1432.5 231.5q69.5 -61.5 184.5 -61.5h188v205q0 122 -33 176t-77 79t-104 25t-100 -19.5
t-84 -70.5t-44 -162q0 -110 69.5 -171.5z" />
    <glyph glyph-name="xx.feh.init" horiz-adv-x="1104" 
d="M435.5 231.5q69.5 -61.5 184.5 -61.5h188v205q0 122 -33 176t-77 79t-104 25t-100 -19.5t-84 -70.5t-44 -162q0 -110 69.5 -171.5zM191 382q0 196 111.5 315.5t308.5 119.5q198 0 284.5 -129t86.5 -307v-381h-982q-82 0 -82 82q0 51 19.5 69.5t62.5 18.5h249
q-58 109 -58 212z" />
    <glyph glyph-name="xx.feh.medi" horiz-adv-x="1128" 
d="M191 382q0 196 111.5 315.5t308.5 119.5q198 0 284.5 -129t86.5 -307v-211h146q82 0 82 -82q0 -51 -19.5 -69.5t-62.5 -18.5h-1128q-82 0 -82 82q0 51 19.5 69.5t62.5 18.5h249q-58 109 -58 212zM435.5 231.5q69.5 -61.5 184.5 -61.5h188v205q0 122 -33 176t-77 79
t-104 25t-100 -19.5t-84 -70.5t-44 -162q0 -110 69.5 -171.5z" />
    <glyph glyph-name="xx.feh.fina" horiz-adv-x="2124" 
d="M1432.5 231.5q69.5 -61.5 184.5 -61.5h188v205q0 122 -33 176t-77 79t-104 25t-100 -19.5t-84 -70.5t-44 -162q0 -110 69.5 -171.5zM1188 382q0 196 111.5 315.5t308.5 119.5q198 0 284.5 -129t86.5 -307v-211h145q82 0 82 -82q0 -51 -19.5 -69.5t-62.5 -18.5h-1660
q-235 0 -324.5 67t-89.5 232v317h166v-256q0 -121 64.5 -155.5t267.5 -34.5h698q-58 109 -58 212z" />
    <glyph glyph-name="xx.qaf" horiz-adv-x="1536" 
d="M848.5 224.5q62.5 -60.5 153.5 -60.5q157 0 240 65v94q0 235 -81 283.5t-143 48.5t-106.5 -24t-85 -79t-40.5 -161t62.5 -166.5zM1027 817q387 0 387 -533v-190q0 -422 -261 -479t-435 -57q-344 0 -506 134.5t-162 365.5v266h166v-229q0 -369 518 -369q332 0 420 86.5
t88 214.5v32q-104 -59 -243 -59q-265 0 -321 139t-56 231q0 187 109.5 317t295.5 130z" />
    <glyph glyph-name="xx.qaf.fina" horiz-adv-x="1557" 
d="M1240 323q0 332 -227 332q-110 0 -169.5 -79.5t-59.5 -183.5t61 -163t176 -59h219v153zM216 95q0 -369 518 -369q326 0 417 81.5t91 192.5h-233q-275 0 -332 137t-57 229q0 186 111 318.5t294 132.5q301 0 344 -206t43 -327v-114h145q82 0 82 -82q0 -51 -19.5 -69.5
t-62.5 -18.5h-149q-42 -349 -285.5 -395.5t-411.5 -46.5q-338 0 -499.5 134.5t-161.5 365.5v266h166v-229z" />
    <glyph glyph-name="xx.wasla" horiz-adv-x="0" 
d="M66 1853q60 0 93.5 -37.5t33.5 -105.5v-108h-416v67h73v164h66v-66q61 86 150 86zM131 1698q0 86 -76 86q-64 0 -96 -46t-41 -69h213v29z" />
    <glyph glyph-name="xx.1dot" horiz-adv-x="657" 
d="M221 1132q0 44 31.5 76.5t65.5 32.5q56 0 88 -31.5t32 -65.5q0 -56 -32 -88t-66 -32t-53 8.5t-42.5 32t-23.5 67.5z" />
    <glyph glyph-name="xx.2dots" horiz-adv-x="752" 
d="M395 1132q0 44 31.5 76.5t65.5 32.5q56 0 88 -31.5t32 -65.5q0 -56 -32 -88t-66 -32t-53 8.5t-42.5 32t-23.5 67.5zM129 1132q0 44 31.5 76.5t65.5 32.5q56 0 88 -31.5t32 -65.5q0 -56 -32 -88t-66 -32t-53 8.5t-42.5 32t-23.5 67.5z" />
    <glyph glyph-name="xx.3dots" horiz-adv-x="752" 
d="M298 1455q32 32 66 32t53 -8.5t34 -23.5t23.5 -35t8.5 -53t-31.5 -65t-65.5 -32t-53.5 8.5t-43 32t-23.5 68t32 76.5zM395 1132q0 44 31.5 76.5t65.5 32.5q56 0 88 -31.5t32 -65.5q0 -56 -32 -88t-66 -32t-53 8.5t-42.5 32t-23.5 67.5zM129 1132q0 44 31.5 76.5
t65.5 32.5q56 0 88 -31.5t32 -65.5q0 -56 -32 -88t-66 -32t-53 8.5t-42.5 32t-23.5 67.5z" />
    <glyph glyph-name="xx.2dots.b" horiz-adv-x="752" 
d="M395 -334q0 44 31.5 76.5t65.5 32.5q56 0 88 -31.5t32 -65.5q0 -56 -32 -88t-66 -32t-53 8.5t-42.5 32t-23.5 67.5zM129 -334q0 44 31.5 76.5t65.5 32.5q56 0 88 -31.5t32 -65.5q0 -56 -32 -88t-66 -32t-53 8.5t-42.5 32t-23.5 67.5z" />
    <glyph glyph-name="xx.1dot.b" horiz-adv-x="592" 
d="M184 -334q0 44 32 76.5t66 32.5q56 0 87.5 -31.5t31.5 -65.5q0 -56 -31.5 -88t-65.5 -32t-53.5 8.5t-43 32t-23.5 67.5z" />
    <glyph glyph-name="xx.3dots.b" horiz-adv-x="752" 
d="M440 -310q0 -29 -21.5 -50.5t-50.5 -21.5t-50.5 21.5t-21.5 50.5t21.5 50.5t50.5 21.5t50.5 -21.5t21.5 -50.5zM354 -148q0 -30 -21 -50.5t-51 -20.5t-50.5 20.5t-20.5 50.5t20.5 51t50.5 21t51 -21t21 -51zM530 -148q0 -30 -21 -50.5t-51 -20.5t-50.5 20.5t-20.5 50.5
t20.5 51t50.5 21t51 -21t21 -51z" />
    <glyph glyph-name="xx.hamza" horiz-adv-x="831" 
d="M403.5 1354.5q-32.5 -36.5 -32.5 -88.5q0 -53 35 -92t106 -39h141v-109h-446v109h104q-47 56 -47 126q0 120 64 179t150 59t124 -16v-111q-49 19 -107 19q-59 0 -91.5 -36.5z" />
    <glyph glyph-name="xx.gaf" horiz-adv-x="0" 
d="M-52 1077v181l667 412v-178z" />
    <glyph glyph-name="uni0627.short" horiz-adv-x="454" 
d="M314 1238v-1238h-174v1238h174z" />
    <glyph glyph-name="uniFE8E.short" horiz-adv-x="463" 
d="M464 170q81 0 81 -82q0 -51 -19 -69.5t-63 -18.5h-30q-142 0 -217.5 65t-75.5 218v954h174v-909q0 -90 28.5 -124t117.5 -34h4z" />
    </font>
</defs>
</svg>
